<svg width="150" height="150" viewBox="0 0 150 150" fill="none" xmlns="http://www.w3.org/2000/svg">
<path d="M76.5958 60.6383C76.5312 60.5187 76.4331 60.4207 76.3135 60.3563C76.1939 60.2918 76.058 60.2638 75.9227 60.2756C75.7766 60.2752 75.6352 60.327 75.524 60.4217C75.4128 60.5164 75.3391 60.6478 75.3163 60.792C75.177 60.8355 75.3163 61.7843 75.3163 61.7843C75.3625 61.8751 75.4169 61.9615 75.4788 62.0425C75.5573 62.1409 75.661 62.2162 75.7789 62.2603C75.8967 62.3044 76.0244 62.3158 76.1482 62.2932C76.272 62.2706 76.3874 62.2148 76.482 62.1318C76.5767 62.0489 76.6471 61.9418 76.6857 61.822C76.7766 61.6343 76.8161 61.4259 76.8003 61.218C76.7845 61.0101 76.714 60.8101 76.5958 60.6383ZM75.5745 61.41C75.5391 61.3703 75.4956 61.3386 75.4469 61.3172L75.4323 61.294C75.3859 61.2127 75.4033 61.1083 75.3308 61.0386L75.4265 60.7833C75.4962 60.7514 75.5658 60.6934 75.6354 60.6934C75.7051 60.6934 75.8037 60.7833 75.8414 60.882C75.9459 61.1663 75.8937 61.2707 75.5803 61.4129L75.5745 61.41ZM76.1838 61.8336C76.1369 61.8362 76.0905 61.8223 76.0529 61.7942C76.0152 61.766 75.9886 61.7256 75.9778 61.6798C75.972 61.6506 75.9721 61.6205 75.9782 61.5914C75.9843 61.5622 75.9963 61.5346 76.0134 61.5102C76.0305 61.4858 76.0523 61.4651 76.0776 61.4494C76.1029 61.4337 76.1311 61.4232 76.1606 61.4187C76.1905 61.4168 76.2206 61.4208 76.249 61.4305C76.2774 61.4403 76.3035 61.4556 76.326 61.4756C76.3484 61.4956 76.3666 61.5198 76.3795 61.5469C76.3925 61.574 76.3999 61.6034 76.4014 61.6334C76.3954 61.6867 76.371 61.7362 76.3323 61.7733C76.2936 61.8104 76.2431 61.8328 76.1896 61.8365L76.1838 61.8336Z" fill="black"/>
<path d="M72.557 60.8385C72.4985 60.7524 72.4198 60.6818 72.3277 60.6331C72.2357 60.5843 72.1331 60.5588 72.029 60.5588C71.9248 60.5588 71.8222 60.5843 71.7302 60.6331C71.6381 60.6818 71.5594 60.7524 71.5009 60.8385C71.3163 61.0925 71.2191 61.3994 71.2238 61.7133C71.2285 62.0272 71.3349 62.3311 71.527 62.5794C71.5896 62.6622 71.6712 62.7286 71.765 62.7731C71.8588 62.8175 71.962 62.8387 72.0657 62.8347C72.1694 62.8307 72.2706 62.8017 72.3607 62.7502C72.4508 62.6986 72.5271 62.6261 72.5831 62.5387C72.7576 62.3046 72.8476 62.0182 72.8384 61.7264C72.842 61.4079 72.7434 61.0968 72.557 60.8385ZM71.7562 61.7989C71.6344 61.8337 71.4922 61.7147 71.4661 61.5581C71.4574 61.4994 71.4574 61.4398 71.4661 61.3811C71.4724 61.3303 71.4946 61.2827 71.5295 61.2452C71.5644 61.2077 71.6102 61.1822 71.6605 61.1722C71.7103 61.1629 71.7619 61.1703 71.807 61.1934C71.8522 61.2165 71.8884 61.254 71.91 61.2999C71.9361 61.3597 71.9565 61.4219 71.9709 61.4855C71.9535 61.6538 71.8868 61.7496 71.7562 61.7989ZM72.3365 62.2602C72.2175 62.2602 72.087 62.118 72.1218 62.0107C72.1319 61.9608 72.158 61.9156 72.1963 61.882C72.2346 61.8485 72.2828 61.8284 72.3336 61.825C72.4613 61.825 72.5889 61.9672 72.557 62.0774C72.5449 62.1263 72.517 62.1699 72.4777 62.2013C72.4384 62.2328 72.3898 62.2504 72.3394 62.2515L72.3365 62.2602Z" fill="#080707"/>
<path d="M102.064 66.441C101.832 66.3045 101.593 66.1814 101.347 66.0725C100.097 65.5648 98.884 64.9758 97.6538 64.4275C96.7826 64.0378 95.9366 63.594 95.1209 63.0986C94.3553 62.6351 93.6515 62.0765 93.0261 61.4362C92.4314 60.8269 91.8946 60.1654 91.3521 59.5068C91.1445 59.248 90.9133 59.009 90.6615 58.793C90.3291 58.5056 89.9131 58.3327 89.4749 58.2998C89.3292 58.2951 89.1843 58.2757 89.0426 58.2418C88.6393 58.1373 88.5232 58.0039 88.5232 57.589C88.5167 56.8594 88.6507 56.1354 88.9178 55.4565C89.4222 54.1786 90.1602 53.0058 91.0938 51.9981C91.3036 51.7654 91.5507 51.5693 91.825 51.4178C91.9988 51.3238 92.1937 51.2758 92.3912 51.2782C92.5888 51.2807 92.7824 51.3335 92.9538 51.4317C93.1253 51.5299 93.2688 51.6702 93.3708 51.8394C93.4728 52.0086 93.5299 52.201 93.5368 52.3985C93.5368 52.6277 93.5368 52.8569 93.5368 53.0861C93.5319 53.211 93.5675 53.3341 93.6383 53.4371C93.6646 53.4821 93.7051 53.517 93.7534 53.5364C93.8018 53.5559 93.8552 53.5587 93.9053 53.5445C93.9453 53.5331 93.9801 53.5079 94.0034 53.4735C94.0268 53.439 94.0372 53.3973 94.0329 53.3559C94.0329 53.0455 94.0155 52.7321 94.0329 52.4217C94.046 52.2001 94.005 51.9788 93.9135 51.7766C93.822 51.5745 93.6828 51.3975 93.5078 51.2611C93.0029 50.8404 92.443 50.6141 91.7844 50.8955C91.7177 50.9227 91.6449 50.9311 91.5738 50.9199C91.5027 50.9086 91.4361 50.8781 91.3811 50.8317C89.9652 49.8917 88.8917 48.705 88.5552 46.9729C88.5094 46.7497 88.4404 46.5318 88.3492 46.323C88.2354 46.041 88.0199 45.8121 87.7453 45.6815C87.4707 45.5509 87.1571 45.5283 86.8666 45.618C86.709 45.6705 86.5468 45.7074 86.382 45.7282C86.2798 45.7526 86.1725 45.7435 86.0758 45.7022C85.9792 45.6609 85.8984 45.5897 85.8453 45.499L85.7466 45.3395C85.6396 45.1589 85.4751 45.0193 85.2795 44.9431C85.0839 44.8669 84.8684 44.8583 84.6673 44.9188C84.5463 44.9461 84.4271 44.981 84.3105 45.0232C84.1864 45.0769 84.0512 45.1 83.9164 45.0904C83.7816 45.0808 83.651 45.0388 83.5358 44.9681C83.3365 44.8519 83.1059 44.8006 82.8761 44.8214C82.6463 44.8422 82.4287 44.934 82.2534 45.0841C82.0862 45.2068 81.929 45.3426 81.7834 45.4903C81.7012 45.585 81.5951 45.6559 81.4762 45.6957C81.3574 45.7355 81.23 45.7427 81.1074 45.7166C80.796 45.6688 80.4781 45.7425 80.2196 45.9226C79.8638 46.1371 79.538 46.3975 79.2505 46.6973C79.088 46.854 78.9604 47.089 78.7573 47.1499C78.5334 47.1671 78.3083 47.1384 78.0958 47.0658C78.0794 47.0039 78.0677 46.9408 78.061 46.8772C78.061 46.793 78.061 46.7089 78.061 46.6277C78.0137 46.1499 77.8586 45.689 77.6073 45.2799C77.356 44.8708 77.0151 44.5241 76.6103 44.266C76.4812 44.1581 76.3171 44.1014 76.149 44.1064C76.1071 44.1108 76.0674 44.127 76.0345 44.1532C76.0016 44.1795 75.9769 44.2145 75.9633 44.2543C75.9458 44.2925 75.9429 44.3357 75.9552 44.3758C75.9675 44.416 75.9941 44.4502 76.03 44.472C76.0996 44.5126 76.1896 44.5242 76.2563 44.5706C76.6552 44.7982 76.9871 45.127 77.2184 45.5238C77.4496 45.9207 77.5721 46.3715 77.5735 46.8308C77.5869 47.0308 77.5277 47.229 77.4067 47.3889C77.2857 47.5488 77.1111 47.6597 76.9149 47.7012C76.6344 47.7971 76.3278 47.782 76.058 47.659C75.7882 47.5359 75.5758 47.3144 75.4642 47.0396C75.28 46.6228 75.1173 46.1967 74.9768 45.7631C74.9246 45.6209 75.0203 45.5309 75.1306 45.4584C75.2408 45.3859 75.4555 45.412 75.618 45.383C75.7225 45.3627 75.8182 45.3046 75.8066 45.1799C75.8012 45.1281 75.7785 45.0796 75.7422 45.0422C75.7059 45.0048 75.6581 44.9808 75.6064 44.9739C75.4866 44.9375 75.3602 44.9288 75.2365 44.9484C75.1129 44.968 74.9953 45.0154 74.8927 45.087C74.8222 45.144 74.7351 45.1764 74.6446 45.1796C74.5541 45.1827 74.465 45.1564 74.3907 45.1044C74.0146 44.9264 73.6016 44.8398 73.1856 44.8519C72.7696 44.864 72.3623 44.9744 71.9971 45.1741C71.8513 45.2462 71.6896 45.2802 71.5271 45.2727C70.7335 45.2848 69.9481 45.435 69.206 45.7166C69.0194 45.8017 68.8088 45.8181 68.6112 45.7631C68.3728 45.6826 68.1168 45.6696 67.8714 45.7253C67.3581 45.817 66.8663 46.0029 66.4207 46.2737C65.3878 46.9729 64.6161 47.8607 64.3753 49.1286C64.3492 49.2505 64.3201 49.3723 64.2911 49.4942C64.0816 50.2565 63.9839 51.0452 64.001 51.8356C64.0367 52.5821 64.1338 53.3245 64.2911 54.0551C64.4468 54.831 64.7937 55.5558 65.3004 56.1638C65.807 56.7718 66.4574 57.2437 67.1925 57.5367C67.4014 57.6267 67.7031 57.6006 67.7989 57.8066C67.8525 58.0267 67.8662 58.2547 67.8395 58.4797C67.854 58.8337 67.8743 59.1847 67.8946 59.5387C67.9149 59.8927 67.9265 60.2872 67.9642 60.6586C67.9797 60.7707 67.97 60.8848 67.9358 60.9927C67.9017 61.1006 67.844 61.1996 67.767 61.2824C67.5058 61.5725 67.2766 61.9004 67.0387 62.2137C66.1185 63.3928 65.303 64.65 64.6016 65.971C64.3696 66.39 64.1754 66.8289 64.0213 67.2824C63.6296 68.5938 64.1867 69.4961 65.5184 69.7486C66.8548 69.9888 68.2316 69.8542 69.4962 69.3598C69.6267 69.3104 69.7428 69.1886 69.9081 69.2727C70.0996 69.5832 70.2911 69.9023 70.4884 70.2128C70.8406 70.729 71.2912 71.1707 71.8143 71.5126C72.3449 71.8854 72.9764 72.0878 73.6248 72.0928C74.1021 72.1021 74.5795 72.0866 75.0552 72.0464C76.3537 71.8977 77.6436 71.6817 78.9198 71.3994C79.1215 71.3474 79.3315 71.3355 79.5378 71.3646C79.6206 71.3763 79.6997 71.4066 79.7691 71.4534C79.8384 71.5001 79.8962 71.562 79.9381 71.6344C80.0208 71.8015 80.0515 71.9895 80.0261 72.1741C80.0008 72.3588 79.9206 72.5316 79.796 72.6702C79.6167 72.8465 79.3861 72.9613 79.1374 72.9981C79.0126 73.0155 78.8878 72.9981 78.766 73.0329C78.6515 73.0433 78.5405 73.0784 78.4408 73.1357C78.3411 73.1929 78.255 73.2711 78.1883 73.3648C78.1216 73.4585 78.076 73.5655 78.0545 73.6785C78.033 73.7914 78.0362 73.9077 78.0639 74.0193C78.1034 74.3095 78.2196 74.5839 78.4004 74.8143C78.7328 75.2418 79.1572 75.5889 79.6422 75.8298C80.0205 76.0033 80.4375 76.0753 80.8521 76.0387C81.4308 75.9828 81.9969 75.8349 82.529 75.6006C83.4992 75.2294 84.3866 74.6704 85.1403 73.9555C85.5693 73.544 85.8942 73.0362 86.0879 72.4741C86.2817 71.912 86.3387 71.3119 86.2544 70.7234C86.2399 70.587 86.1441 70.4536 86.2167 70.3085C86.3524 70.2557 86.5003 70.2426 86.6432 70.2708C87.5185 70.2919 88.3936 70.2219 89.2544 70.0619C90.6383 69.7892 92.0194 69.4816 93.3917 69.1741C95.7822 68.561 98.1312 67.7964 100.425 66.8849C100.526 66.8506 100.623 66.8059 100.715 66.7515C100.877 66.6441 100.842 66.5222 100.732 66.4033C100.797 66.3832 100.865 66.3773 100.932 66.3858C100.999 66.3943 101.063 66.4171 101.121 66.4526C101.362 66.5716 101.608 66.6789 101.849 66.8008C101.974 66.8646 102.084 66.8849 102.18 66.7631C102.276 66.6412 102.241 66.5455 102.064 66.441ZM79.0909 47.6838C79.1684 47.5356 79.2661 47.3989 79.3811 47.2776C79.6434 47.0119 79.9194 46.7601 80.208 46.5232C80.3381 46.4036 80.4938 46.3153 80.6633 46.265C80.8327 46.2147 81.0114 46.2038 81.1857 46.2331C81.3399 46.2567 81.4974 46.2426 81.645 46.1921C81.7925 46.1416 81.9256 46.0561 82.0329 45.9429C82.1867 45.8066 82.323 45.6528 82.4971 45.5309C82.6139 45.425 82.7618 45.3598 82.9188 45.3452C83.0757 45.3305 83.2332 45.3672 83.3675 45.4497C83.5257 45.5505 83.707 45.6095 83.8942 45.6212C84.0815 45.6329 84.2686 45.5968 84.4381 45.5164C84.5136 45.4845 84.6006 45.4758 84.676 45.4468C84.7366 45.4151 84.8029 45.3958 84.871 45.3902C84.9392 45.3846 85.0078 45.3927 85.0727 45.4141C85.1376 45.4355 85.1976 45.4697 85.2491 45.5146C85.3006 45.5596 85.3425 45.6145 85.3724 45.676C85.7031 46.294 86.2254 46.323 86.823 46.1808C87.5513 46.0039 87.8501 46.1808 88.0561 46.8946C88.1054 47.0745 88.149 47.2572 88.1896 47.4371C88.3898 48.3107 88.8114 49.118 89.414 49.7814C89.9164 50.3573 90.4975 50.8593 91.1403 51.2727C90.8124 51.6528 90.5107 51.9894 90.2205 52.3375C89.7108 52.9413 89.2844 53.6107 88.9526 54.3279C88.8742 54.4939 88.7632 54.6424 88.6261 54.7645C88.489 54.8866 88.3287 54.9799 88.1548 55.0387C87.3571 55.3461 86.4925 55.4381 85.648 55.3056C85.2535 55.2528 84.8864 55.0748 84.6006 54.7979C84.0668 54.3337 83.6712 53.7314 83.4575 53.0571C83.2986 52.4772 83.1755 51.888 83.089 51.293C83.0049 50.8027 82.9294 50.3124 82.8308 49.8249C82.7662 49.5425 82.6839 49.2643 82.5842 48.9923C82.495 48.7363 82.3515 48.5027 82.1635 48.3075C82.0291 48.1322 81.8357 48.0115 81.6191 47.9678C81.4025 47.924 81.1775 47.9602 80.9855 48.0696C80.5677 48.2495 80.1528 48.441 79.7379 48.6267C79.5871 48.6934 79.4478 48.766 79.2824 48.824C79.2538 48.8387 79.2219 48.8463 79.1897 48.8461C79.1574 48.8459 79.1257 48.8379 79.0973 48.8228C79.0688 48.8077 79.0443 48.7859 79.0261 48.7594C79.0078 48.7328 78.9962 48.7022 78.9923 48.6702C78.9033 48.3404 78.9384 47.9894 79.0909 47.6838ZM72.4033 45.499C72.8975 45.3349 73.4286 45.3178 73.9323 45.4497C74.0531 45.479 74.1655 45.5356 74.261 45.6151C74.3566 45.6945 74.4327 45.7948 74.4836 45.9081C74.5387 46.0416 74.6054 46.1721 74.6519 46.3085C74.7925 46.8213 75.0202 47.3061 75.325 47.7418C75.2172 47.9072 75.0641 48.0381 74.884 48.119C74.7644 48.1812 74.6315 48.2138 74.4966 48.2138C74.3618 48.2138 74.2289 48.1812 74.1093 48.119C73.8624 48.0084 73.6455 47.8402 73.4768 47.6286C73.0427 47.0227 72.6474 46.3899 72.2931 45.734C72.2835 45.7115 72.2787 45.6872 72.2792 45.6627C72.2796 45.6382 72.2852 45.6141 72.2956 45.5919C72.306 45.5697 72.321 45.5499 72.3395 45.534C72.3581 45.518 72.3798 45.5061 72.4033 45.499ZM71.147 45.7398C71.2497 45.7242 71.3536 45.7174 71.4575 45.7195C71.5389 45.7093 71.6216 45.7251 71.6935 45.7647C71.7654 45.8043 71.823 45.8657 71.8579 45.94C72.0987 46.3752 72.3627 46.8104 72.6209 47.2253C72.7515 47.4371 72.911 47.6402 73.0387 47.8462C73.1664 48.0522 73.1954 48.1857 73.0184 48.3888C72.8846 48.55 72.7105 48.673 72.5138 48.7454C72.3172 48.8177 72.1049 48.8368 71.8985 48.8008C71.4231 48.7301 70.9823 48.5108 70.6393 48.1741C70.5729 48.1237 70.5226 48.0552 70.4942 47.9768C70.3114 47.3008 69.8675 46.7698 69.4526 46.1141C70.0532 45.9807 70.5987 45.8559 71.147 45.7398ZM67.8917 57.2234C67.7234 57.3395 67.6016 57.2437 67.5087 57.1973C66.4771 56.7859 65.634 56.0078 65.1412 55.0126C64.9843 54.6964 64.8701 54.3608 64.8018 54.0145C64.595 53.1244 64.4976 52.2125 64.5116 51.2988C64.5309 50.8429 64.6089 50.3914 64.7437 49.9555C64.827 49.6766 64.9684 49.4185 65.1586 49.1983C65.2879 49.0223 65.4734 48.8956 65.6844 48.8392C65.8953 48.7827 66.1193 48.7999 66.3192 48.8878C66.4552 48.9396 66.5871 49.0017 66.7138 49.0735C66.8209 49.1351 66.9236 49.2039 67.0213 49.2795C67.1722 49.3868 67.3114 49.4971 67.4855 49.6248C67.1342 50.3091 66.8654 51.0327 66.6847 51.7805C66.5803 52.2244 66.4758 52.6712 66.3946 53.1209C66.2872 53.7573 66.3401 54.4104 66.5484 55.0213C66.7486 55.5841 67.0387 56.0309 67.6915 56.1035C67.8192 56.1035 67.8627 56.2108 67.8656 56.3211C67.8917 56.6315 67.8917 56.942 67.8917 57.2234ZM67.2824 48.8646C67.016 48.6712 66.7228 48.5177 66.412 48.4091C66.2473 48.3445 66.071 48.3147 65.8942 48.3217C65.7174 48.3287 65.544 48.3723 65.3849 48.4497C65.3682 48.4665 65.3483 48.4799 65.3264 48.489C65.3045 48.4982 65.281 48.5029 65.2573 48.5029C65.2335 48.5029 65.21 48.4982 65.1881 48.489C65.1662 48.4799 65.1463 48.4665 65.1296 48.4497C65.3761 47.9222 65.7341 47.4545 66.1789 47.0788C66.6237 46.7031 67.1447 46.4284 67.706 46.2737C68.0243 46.1664 68.3696 46.1699 68.6856 46.2837C69.0017 46.3975 69.27 46.6148 69.4468 46.9004C69.5774 47.1383 69.737 47.3559 69.8675 47.5938C70.0652 47.9611 70.1585 48.3755 70.1374 48.7921C70.1083 49.442 69.737 49.764 69.0784 49.706C68.7265 49.67 68.3873 49.555 68.0861 49.3694C67.7844 49.2157 67.5261 49.0329 67.2708 48.8646H67.2824ZM69.5484 68.8636C69.1973 68.9913 68.8463 69.119 68.4865 69.2118C67.5001 69.4751 66.4644 69.494 65.4691 69.2669C65.252 69.2371 65.047 69.1494 64.8755 69.0131C64.704 68.8768 64.5723 68.6969 64.4942 68.4923C64.4202 68.2971 64.4001 68.0856 64.4362 67.8801C64.5077 67.4711 64.6397 67.0751 64.8279 66.705C65.218 65.88 65.67 65.0857 66.1799 64.3288C66.7428 63.5077 67.3405 62.7041 67.9207 61.8946C67.98 61.8317 68.044 61.7735 68.1122 61.7205C68.2486 62.5735 68.3675 63.3511 68.5039 64.1286C68.6924 65.3367 68.9688 66.5294 69.3308 67.6973C69.4294 67.9874 69.5368 68.2776 69.6615 68.5677C69.7022 68.7186 69.6673 68.8143 69.5368 68.8636H69.5484ZM79.1693 70.9178C78.412 71.0106 77.6635 71.2079 76.9091 71.3385C75.9082 71.5431 74.8901 71.6519 73.8685 71.6634C73.1147 71.6672 72.384 71.4041 71.8056 70.9207C71.2453 70.4543 70.7895 69.8749 70.4681 69.2205C69.9634 68.2424 69.5917 67.2013 69.3627 66.1248C68.9829 64.4654 68.6981 62.7857 68.5097 61.0938C68.3547 59.4963 68.3033 57.8904 68.3559 56.2863C68.3559 55.6828 68.3559 55.0822 68.3559 54.5077C69.5571 53.8578 71.5474 53.5039 72.708 53.7389L72.1277 54.029C71.8254 54.1625 71.5561 54.3606 71.3385 54.6093C71.2913 54.651 71.259 54.707 71.2464 54.7688C71.2338 54.8306 71.2417 54.8948 71.2689 54.9516C71.2979 55.0074 71.3417 55.0542 71.3954 55.0869C71.4491 55.1196 71.5107 55.137 71.5735 55.1373C71.7003 55.1424 71.8273 55.1385 71.9536 55.1257C73.9036 54.9041 75.8765 55.2402 77.6432 56.0948C77.6977 56.1249 77.7501 56.1588 77.7998 56.1963C77.7998 56.5387 77.5329 56.324 77.3966 56.3646C77.2602 56.4052 77.0339 56.3356 76.8598 56.4168C76.677 56.4545 76.4942 56.4865 76.3143 56.53C76.2624 56.5412 76.215 56.5681 76.1788 56.607C76.1425 56.6459 76.1189 56.6949 76.1112 56.7476C76.1079 56.8108 76.1254 56.8735 76.1611 56.9258C76.1967 56.9782 76.2485 57.0175 76.3085 57.0377C76.3863 57.0667 76.4658 57.0909 76.5464 57.1102C77.7677 57.5242 78.8984 58.1683 79.8772 59.0077C80.9658 59.9465 81.9715 60.9774 82.883 62.089C82.9236 62.1354 82.9555 62.1905 82.9933 62.2398C83.0531 62.3381 83.1445 62.4132 83.2526 62.4527C83.3606 62.4923 83.4789 62.4939 83.588 62.4574C84.0261 62.3385 84.4584 62.2543 84.9111 62.1325C85.0787 62.0789 85.256 62.0621 85.4307 62.0832C85.6054 62.1043 85.7736 62.1628 85.9237 62.2548C86.0737 62.3468 86.2022 62.47 86.3004 62.6161C86.3985 62.7623 86.4639 62.9278 86.4923 63.1015C86.5775 63.7011 86.4993 64.3125 86.266 64.8714C86.1062 65.2547 85.912 65.6228 85.6857 65.971C85.4043 66.4071 85.1663 66.8696 84.9749 67.352C84.7538 67.8503 84.7088 68.4089 84.8472 68.9362C84.873 69.0024 84.8762 69.0753 84.8563 69.1435C84.8363 69.2117 84.7944 69.2715 84.737 69.3133C84.3339 69.7059 83.8482 70.0033 83.3153 70.1838C82.6001 70.4004 81.8685 70.5585 81.1277 70.6567C80.4749 70.7408 79.8192 70.8395 79.1577 70.9178H79.1693ZM85.8801 71.353C85.8737 71.7789 85.7833 72.1993 85.614 72.5901C85.4447 72.981 85.1999 73.3346 84.8936 73.6306C84.2022 74.2881 83.3892 74.8046 82.5 75.1509C81.9915 75.3846 81.4489 75.5355 80.8927 75.5977C80.6051 75.6473 80.3093 75.6036 80.0484 75.4729C80.0484 75.3772 80.1238 75.3366 80.1935 75.3046C80.6941 75.0522 81.157 74.7309 81.5687 74.3501C82.9361 73.1435 84.0982 71.7226 85.0097 70.1431C85.0822 70.0184 85.149 69.8907 85.2534 69.6992C85.4671 69.9162 85.6332 70.1753 85.7411 70.4601C85.849 70.7448 85.8963 71.0489 85.8801 71.353ZM100.741 66.441V66.4149C100.619 66.3743 100.517 66.4381 100.404 66.4787C98.5851 67.1112 96.7747 67.7814 94.9207 68.3124C92.826 68.9185 90.6937 69.3866 88.5378 69.7137C87.7973 69.8216 87.0483 69.8585 86.3008 69.824C86.1868 69.8293 86.0736 69.8025 85.974 69.7465C85.8745 69.6906 85.7927 69.6079 85.7379 69.5077C85.6734 69.4005 85.6016 69.2978 85.5232 69.2002C85.3846 69.0156 85.2919 68.8006 85.2531 68.573C85.2142 68.3454 85.2303 68.1118 85.2998 67.8917C85.4943 67.2358 85.7878 66.6136 86.1702 66.0464C86.217 65.9783 86.2873 65.9297 86.3675 65.9101C87.1806 65.6345 87.8896 65.116 88.3985 64.4246C89.1236 63.5076 89.5635 62.3978 89.6635 61.2331C89.7447 60.5135 89.8317 59.7824 89.9159 59.0687C89.9286 59.0326 89.9462 58.9985 89.9681 58.9671C90.0871 58.9323 90.1625 59.0164 90.2437 59.0745C90.5227 59.2916 90.7741 59.542 90.9923 59.8201C91.323 60.2205 91.6538 60.6209 91.9904 61.0155C92.96 62.1593 94.13 63.1169 95.443 63.8414C96.9517 64.677 98.53 65.3588 100.105 66.0551C100.311 66.148 100.523 66.235 100.729 66.3308C100.744 66.3308 100.729 66.3772 100.729 66.412H100.747L100.741 66.441ZM131.318 107.872C131.24 107.872 131.214 107.814 131.196 107.753C131.179 107.672 131.182 107.587 131.204 107.506C131.225 107.426 131.265 107.351 131.321 107.289C131.579 106.915 131.84 106.541 132.122 106.184C132.899 105.191 133.692 104.211 134.478 103.224C135.325 102.157 136.172 101.093 137.019 100.033C137.417 99.5309 137.809 99.0232 138.203 98.5184C138.266 98.4361 138.337 98.3603 138.415 98.2921C138.451 98.2522 138.501 98.2271 138.554 98.2218C138.608 98.2164 138.662 98.2311 138.705 98.2631C138.728 98.279 138.746 98.2994 138.76 98.3231C138.774 98.3468 138.783 98.3731 138.787 98.4004C138.79 98.4277 138.788 98.4554 138.779 98.4818C138.771 98.5081 138.758 98.5324 138.74 98.5532C138.641 98.7099 138.54 98.8665 138.427 99.0145L135.177 103.163C134.655 103.834 134.159 104.521 133.613 105.168C132.949 105.963 132.305 106.77 131.701 107.608C131.623 107.705 131.534 107.792 131.437 107.869C131.405 107.867 131.356 107.864 131.318 107.872ZM110.954 9.11024C110.936 9.14796 110.898 9.2408 110.855 9.33364C110.214 10.6342 109.505 11.9 108.731 13.1257C107.991 14.2863 107.234 15.4468 106.486 16.6277C106.163 17.1325 105.841 17.6402 105.516 18.1451C105.464 18.2331 105.403 18.3157 105.334 18.3917C105.31 18.4265 105.274 18.4507 105.232 18.4588C105.191 18.467 105.148 18.4585 105.113 18.4352C105.077 18.4146 105.048 18.383 105.031 18.3449C105.014 18.3068 105.009 18.2643 105.017 18.2234C105.055 18.0853 105.109 17.952 105.177 17.8259C105.441 17.3791 105.702 16.9323 105.986 16.5C107.052 14.8965 108.08 13.2698 109.071 11.6199C109.39 11.0861 109.671 10.5319 109.97 9.98935C110.133 9.69922 110.301 9.40908 110.46 9.11894C110.518 9.00843 110.617 8.92508 110.736 8.88684C110.832 8.86072 110.968 8.95937 110.954 9.11024ZM133.915 33.4845C133.927 33.6174 133.886 33.7497 133.802 33.853C133.431 34.4765 133.092 35.1185 132.786 35.7766C132.061 37.1721 131.336 38.5764 130.616 39.969C130.239 40.6828 129.836 41.382 129.438 42.0841C129.373 42.188 129.299 42.2852 129.215 42.3743C129.181 42.4167 129.133 42.4454 129.079 42.455C129.026 42.4646 128.971 42.4545 128.925 42.4265C128.902 42.4134 128.883 42.3959 128.867 42.3752C128.852 42.3544 128.841 42.3308 128.834 42.3056C128.828 42.2805 128.827 42.2544 128.831 42.2288C128.835 42.2032 128.844 42.1787 128.858 42.1567C128.933 41.9855 129.015 41.8172 129.104 41.6547C129.545 40.8366 130.004 40.0242 130.436 39.2002C131.205 37.7321 131.956 36.2553 132.72 34.7843C132.911 34.4188 133.117 34.059 133.329 33.7021C133.408 33.5822 133.501 33.4713 133.604 33.3714C133.617 33.3548 133.633 33.3409 133.651 33.3306C133.669 33.3203 133.689 33.3137 133.709 33.3113C133.73 33.3088 133.751 33.3106 133.771 33.3164C133.79 33.3223 133.809 33.3321 133.825 33.3453C133.864 33.3855 133.894 33.4328 133.915 33.4845ZM130.703 79.9497C130.671 79.9487 130.641 79.9365 130.617 79.9153C130.593 79.8941 130.577 79.8652 130.573 79.8337C130.556 79.7627 130.556 79.6889 130.573 79.6179C130.589 79.5469 130.622 79.4808 130.668 79.4246C130.895 79.0793 131.112 78.7253 131.359 78.3946C132.448 76.9323 133.475 75.4284 134.44 73.883C134.913 73.1286 135.424 72.3975 135.914 71.6547C135.996 71.5088 136.129 71.399 136.288 71.3472C136.318 71.3364 136.35 71.3357 136.38 71.3452C136.41 71.3546 136.436 71.3737 136.454 71.3994C136.483 71.4498 136.5 71.5065 136.503 71.5648C136.503 71.5996 136.474 71.6402 136.451 71.675C135.557 73.0677 134.681 74.4749 133.761 75.853C133.074 76.883 132.328 77.8839 131.608 78.8878C131.391 79.1925 131.176 79.4942 130.953 79.793C130.927 79.8371 130.89 79.8743 130.847 79.9016C130.803 79.9288 130.754 79.9453 130.703 79.9497ZM27.9256 91.7843C27.8982 91.8576 27.8611 91.9269 27.8153 91.9903C27.235 92.7012 26.7447 93.4613 26.2428 94.2215L24.267 97.2273L22.6683 99.6644C22.6322 99.7154 22.5903 99.7622 22.5435 99.8037C22.5161 99.835 22.4778 99.8547 22.4364 99.859C22.395 99.8633 22.3535 99.8519 22.3201 99.8269C22.2841 99.805 22.2563 99.7717 22.2411 99.7324C22.2259 99.693 22.2241 99.6498 22.236 99.6093C22.3262 99.3766 22.4349 99.1515 22.561 98.9362C22.9788 98.2689 23.4111 97.6132 23.8405 96.9546C24.47 95.9826 25.0909 95.0019 25.7408 94.0532C26.2572 93.2543 26.8221 92.4879 27.4323 91.7582C27.5048 91.6581 27.606 91.5822 27.7225 91.5406C27.8124 91.5145 27.9459 91.619 27.9256 91.7843ZM4.90332 51.9778C4.89615 52.1446 4.8557 52.3084 4.78436 52.4594C4.06773 54.6383 3.33368 56.8114 2.46328 58.941C2.30951 59.324 2.17314 59.7157 2.02227 60.1015C1.98656 60.1981 1.9388 60.2897 1.8801 60.3743C1.86057 60.4107 1.82928 60.4394 1.79135 60.4557C1.75341 60.472 1.71107 60.475 1.67121 60.4642C1.63198 60.4492 1.59796 60.4231 1.57325 60.3891C1.54854 60.3551 1.53419 60.3147 1.53194 60.2727C1.52341 60.0857 1.56658 59.9 1.6567 59.736C1.91492 59.0164 2.18765 58.2998 2.45167 57.5832C2.68958 56.9449 2.9333 56.3066 3.1625 55.6654C3.53968 54.6122 3.90235 53.559 4.27372 52.5058C4.34916 52.2911 4.4391 52.0822 4.52614 51.8704C4.56966 51.7631 4.64219 51.6963 4.76115 51.7311C4.8801 51.766 4.89461 51.8762 4.90332 51.9778ZM144.197 10.9468C144.185 11.0069 144.164 11.0646 144.133 11.118C142.956 12.4903 142.05 14.057 141.026 15.5367C140.568 16.2012 140.133 16.883 139.738 17.5909C139.656 17.732 139.559 17.8634 139.448 17.9826C139.421 17.9956 139.392 18.0024 139.362 18.0024C139.333 18.0024 139.303 17.9956 139.277 17.9826C139.227 17.9505 139.19 17.9008 139.175 17.8433C139.164 17.7816 139.165 17.7183 139.179 17.6571C139.192 17.5958 139.217 17.5378 139.253 17.4865C139.456 17.1267 139.642 16.7524 139.866 16.4071C140.957 14.7186 142.065 13.0445 143.263 11.4284C143.411 11.2281 143.581 11.0443 143.768 10.8801C143.805 10.8427 143.852 10.817 143.904 10.8062C143.955 10.7954 144.009 10.7999 144.058 10.8191C144.11 10.8554 144.157 10.8984 144.197 10.9468ZM112.834 38.7041C112.802 38.8721 112.727 39.029 112.616 39.1596C112.076 39.969 111.534 40.7756 111 41.588C110.385 42.5222 109.776 43.4594 109.163 44.3936C109.101 44.5003 109.03 44.6021 108.952 44.6983C108.941 44.716 108.926 44.7313 108.909 44.7433C108.892 44.7553 108.873 44.7637 108.853 44.768C108.832 44.7724 108.811 44.7725 108.791 44.7685C108.771 44.7645 108.751 44.7564 108.734 44.7447C108.698 44.7233 108.669 44.6918 108.651 44.6541C108.633 44.6165 108.627 44.5743 108.633 44.5329C108.643 44.451 108.668 44.3716 108.705 44.2979C108.83 44.0365 108.969 43.7819 109.12 43.5348C109.894 42.3627 110.676 41.1924 111.467 40.0242C111.757 39.5948 112.047 39.1741 112.352 38.7505C112.396 38.6813 112.449 38.618 112.509 38.5619C112.54 38.5338 112.58 38.5182 112.622 38.5182C112.664 38.5182 112.704 38.5338 112.735 38.5619C112.774 38.6046 112.807 38.6524 112.834 38.7041ZM14.7621 24.2292C14.7382 24.3277 14.7081 24.4246 14.6722 24.5193C14.1499 25.7118 13.7205 26.942 13.2563 28.1576C13.03 28.7553 12.8066 29.3559 12.5745 29.9536C12.5286 30.0676 12.466 30.1742 12.3888 30.2698C12.3634 30.3034 12.3261 30.3259 12.2846 30.3329C12.2431 30.34 12.2004 30.3309 12.1654 30.3075C12.1266 30.2915 12.0941 30.2633 12.0726 30.2272C12.0512 30.1911 12.042 30.1491 12.0464 30.1073C12.0813 29.9465 12.1279 29.7885 12.1857 29.6344C12.618 28.4739 13.0561 27.3133 13.4942 26.1528C13.7002 25.6131 13.9323 25.0822 14.1615 24.5512C14.2169 24.3718 14.3289 24.215 14.4807 24.1044C14.5056 24.0891 14.5333 24.079 14.5622 24.0745C14.5911 24.07 14.6206 24.0713 14.649 24.0783C14.6954 24.1015 14.7186 24.1712 14.7621 24.2292ZM59.1093 25.5464C59.1284 25.6792 59.104 25.8146 59.0397 25.9323C58.3317 27.6354 57.589 29.3211 56.7186 30.9516C56.6403 31.0967 56.5648 31.2418 56.4778 31.3868C56.4483 31.43 56.4065 31.4632 56.3579 31.4824C56.3093 31.5015 56.256 31.5056 56.2051 31.4942C56.1151 31.4942 56.0426 31.4246 56.0571 31.3346C56.0772 31.2328 56.1134 31.1349 56.1644 31.0445C56.5474 30.2408 56.9391 29.44 57.325 28.6335C57.7341 27.763 58.1258 26.8578 58.5261 25.9729C58.6046 25.8034 58.6948 25.6396 58.796 25.4826C58.8072 25.4648 58.8218 25.4495 58.839 25.4374C58.8561 25.4253 58.8755 25.4168 58.896 25.4122C58.9165 25.4076 58.9376 25.4071 58.9583 25.4107C58.979 25.4143 58.9988 25.422 59.0165 25.4333C59.0538 25.4653 59.0852 25.5036 59.1093 25.5464ZM40.1316 33.0406C40.1249 33.0847 40.1122 33.1277 40.0938 33.1683C39.7312 33.8646 39.3685 34.5638 39 35.2543C38.6867 35.8346 38.3733 36.4149 38.0484 36.9952C37.8366 37.3752 37.6074 37.7408 37.384 38.1122C37.3521 38.1673 37.323 38.2224 37.2882 38.2747C37.207 38.3994 37.1083 38.5068 36.9372 38.4516C36.8153 38.411 36.7892 38.2718 36.8907 38.0774C37.1606 37.5667 37.442 37.059 37.7205 36.5541C38.1093 35.8491 38.5039 35.147 38.8811 34.442L39.5397 33.2466C39.5744 33.1605 39.6274 33.0829 39.695 33.0193C39.7627 32.9557 39.8433 32.9075 39.9314 32.8781C39.9555 32.8735 39.9803 32.8741 40.0042 32.8801C40.028 32.8861 40.0503 32.8972 40.0693 32.9127C40.0884 32.9282 40.1039 32.9477 40.1146 32.9698C40.1254 32.9919 40.1312 33.016 40.1316 33.0406ZM145.75 47.6054C145.763 47.7087 145.735 47.813 145.671 47.8955C145.014 48.9942 144.354 50.0948 143.692 51.1973C143.402 51.676 143.112 52.1489 142.808 52.6219C142.746 52.7299 142.677 52.8327 142.599 52.9294C142.529 53.0077 142.436 53.0687 142.326 53.0019C142.303 52.99 142.282 52.9733 142.266 52.9529C142.25 52.9325 142.238 52.9089 142.232 52.8836C142.226 52.8583 142.225 52.832 142.23 52.8064C142.234 52.7807 142.244 52.7564 142.259 52.735C142.433 52.3839 142.59 52.0184 142.793 51.6818C143.544 50.442 144.307 49.2099 145.082 47.9855C145.167 47.7956 145.295 47.6285 145.456 47.4981C145.49 47.474 145.531 47.461 145.573 47.461C145.614 47.461 145.655 47.474 145.689 47.4981C145.716 47.5295 145.737 47.5659 145.75 47.6054ZM29.0716 72.4439C29.1461 72.064 29.2669 71.6947 29.4314 71.3443C29.7215 70.7002 30.0116 70.0648 30.3018 69.4265C30.5919 68.7882 30.8965 68.1499 31.1983 67.5116C31.2634 67.383 31.337 67.2589 31.4188 67.1402C31.442 67.1051 31.4775 67.08 31.5183 67.0698C31.5591 67.0596 31.6023 67.0651 31.6393 67.0851C31.6885 67.1035 31.7291 67.1395 31.7532 67.1862C31.7773 67.2328 31.7833 67.2868 31.7699 67.3375C31.7529 67.3969 31.7296 67.4543 31.7002 67.5087C31.3695 68.2456 31.0503 68.9884 30.7051 69.7166C30.3598 70.4449 30.0406 71.1441 29.7476 71.8752C29.653 72.105 29.5465 72.3297 29.4285 72.5484C29.382 72.6412 29.3124 72.7311 29.1905 72.7108C29.0687 72.6905 29.0861 72.5658 29.0716 72.4439ZM18.1074 52.912C18 52.912 17.884 52.7843 17.9043 52.6973C17.9594 52.4565 18.0203 52.2157 18.09 51.9778C18.3598 51.0667 18.7312 50.1876 19.0648 49.2998C19.2679 48.7573 19.4768 48.2176 19.6799 47.675C19.7089 47.5996 19.7292 47.5155 19.7611 47.44C19.8221 47.295 19.9381 47.2253 20.0513 47.2602C20.1168 47.2912 20.1683 47.3456 20.1957 47.4128C20.2231 47.4799 20.2244 47.5548 20.1993 47.6228C19.854 48.5745 19.5029 49.5261 19.1606 50.4778C18.9343 51.0986 18.7196 51.7253 18.4962 52.3462C18.4411 52.5025 18.3752 52.6547 18.2989 52.8017C18.283 52.8382 18.2558 52.8686 18.2213 52.8884C18.1868 52.9083 18.1469 52.9165 18.1074 52.912ZM9.54548 82.0445C9.50552 82.0321 9.47013 82.008 9.4438 81.9755C9.41746 81.943 9.40136 81.9034 9.39751 81.8617C9.39661 81.6945 9.4564 81.5326 9.56579 81.4062C9.8095 81.0232 10.0648 80.6431 10.3172 80.2631C10.8975 79.3927 11.4778 78.4932 11.9768 77.5677C12.0774 77.3861 12.1888 77.2108 12.3105 77.0426C12.3631 76.9809 12.4284 76.9314 12.502 76.8975C12.5407 76.8816 12.5833 76.8773 12.6244 76.885C12.6656 76.8927 12.7037 76.9122 12.7341 76.941C12.7674 76.9654 12.7897 77.0019 12.7962 77.0427C12.8027 77.0834 12.7929 77.1251 12.7689 77.1586C11.9084 78.7189 10.9691 80.2344 9.95457 81.6992C9.86708 81.8127 9.77001 81.9185 9.66444 82.0155C9.63542 82.0387 9.5745 82.0358 9.54548 82.0445ZM118.375 26.4777C118.248 26.501 118.123 26.3646 118.163 26.2776C118.245 26.0871 118.342 25.9037 118.454 25.7292C118.694 25.3665 118.956 25.0184 119.205 24.6615C119.785 23.8143 120.386 22.9613 120.978 22.1112C121.115 21.9029 121.29 21.7227 121.494 21.5803C121.529 21.5565 121.572 21.5475 121.614 21.5551C121.656 21.5627 121.693 21.5863 121.718 21.6209C121.74 21.6423 121.755 21.6697 121.761 21.6997C121.767 21.7297 121.764 21.7608 121.752 21.7892C121.725 21.8674 121.687 21.9415 121.639 22.0097C121.233 22.4855 120.934 23.0338 120.58 23.5416C119.974 24.412 119.37 25.2824 118.761 26.1354C118.687 26.2404 118.602 26.3376 118.509 26.4255C118.468 26.4519 118.423 26.4697 118.375 26.4777ZM94.7089 30.2379C94.5755 30.2553 94.4391 30.1131 94.4884 30.0029C94.6277 29.7128 94.7582 29.3965 94.9265 29.1122C95.5445 28.0822 96.177 27.0638 96.8037 26.0396C96.9343 25.8278 97.059 25.6131 97.1954 25.4071C97.2459 25.3417 97.3066 25.2849 97.3753 25.2389C97.4536 25.175 97.59 25.2389 97.6219 25.3433C97.6363 25.4039 97.6375 25.4668 97.6255 25.5279C97.6135 25.5889 97.5885 25.6467 97.5523 25.6973C97.2331 26.2543 96.9198 26.8143 96.5861 27.3627C96.0406 28.2679 95.4836 29.1615 94.9323 30.0609C94.8743 30.1538 94.8221 30.2379 94.7089 30.2379ZM15.6325 114.981C15.5165 114.981 15.3946 114.847 15.4178 114.766C15.4506 114.648 15.4954 114.533 15.5513 114.424C15.8588 113.843 16.1809 113.263 16.4826 112.665C16.8685 111.908 17.2689 111.162 17.7186 110.44C17.7921 110.29 17.9056 110.164 18.0464 110.074C18.0823 110.054 18.1234 110.044 18.1647 110.047C18.2059 110.05 18.2455 110.064 18.2786 110.089C18.3129 110.114 18.3369 110.15 18.346 110.191C18.3551 110.232 18.3487 110.276 18.3279 110.312C18.264 110.44 18.1712 110.556 18.1016 110.681C17.7766 111.284 17.4546 111.887 17.1354 112.488C16.7641 113.185 16.3927 113.878 16.0271 114.574C15.9702 114.709 15.8816 114.827 15.7689 114.92C15.7266 114.946 15.6807 114.967 15.6325 114.981ZM144.717 128.092C144.726 128.132 144.726 128.174 144.717 128.215C144.709 128.255 144.692 128.294 144.667 128.327C144.482 128.695 144.302 129.07 144.107 129.432C143.527 130.546 142.866 131.623 142.175 132.676C142.152 132.722 142.118 132.761 142.077 132.792C142.035 132.823 141.988 132.844 141.937 132.853C141.896 132.862 141.854 132.859 141.815 132.845C141.776 132.83 141.742 132.805 141.717 132.772C141.686 132.719 141.678 132.657 141.693 132.598C141.754 132.467 141.824 132.341 141.902 132.221C142.7 130.941 143.449 129.632 144.171 128.312C144.231 128.205 144.307 128.108 144.395 128.022C144.47 127.95 144.702 128.008 144.717 128.092ZM126.682 57.2611C126.62 57.2538 126.564 57.2234 126.524 57.176C126.484 57.1285 126.464 57.0677 126.467 57.0058C126.491 56.9028 126.532 56.8047 126.589 56.7157C126.859 56.3211 127.126 55.9265 127.41 55.5551C128.034 54.7282 128.669 53.9101 129.296 53.0861C129.381 52.9439 129.496 52.8221 129.633 52.7292C129.667 52.7059 129.707 52.6934 129.749 52.6934C129.79 52.6934 129.83 52.7059 129.865 52.7292C129.899 52.7534 129.924 52.7898 129.933 52.8312C129.942 52.8727 129.935 52.916 129.914 52.9526C129.836 53.0991 129.745 53.2388 129.644 53.3704C129.122 54.0928 128.605 54.8211 128.072 55.529C127.674 56.06 127.239 56.5619 126.885 57.1248C126.867 57.1643 126.839 57.1982 126.803 57.2223C126.767 57.2464 126.725 57.2599 126.682 57.2611ZM133.042 4.93229C133.051 5.06534 133.014 5.19752 132.937 5.30657C132.276 6.6702 131.588 8.01933 130.799 9.31333C130.733 9.46821 130.611 9.59189 130.457 9.6586C130.427 9.66571 130.397 9.66655 130.367 9.66104C130.338 9.65554 130.31 9.64383 130.285 9.62668C130.262 9.60793 130.244 9.58395 130.232 9.55672C130.22 9.52948 130.214 9.49977 130.216 9.47001C130.224 9.38817 130.25 9.30905 130.291 9.2379C130.468 8.90715 130.648 8.57929 130.834 8.25724C131.397 7.28819 131.942 6.31043 132.438 5.30366C132.502 5.12833 132.601 4.96757 132.728 4.83074C132.795 4.77272 132.873 4.7379 132.949 4.79883C132.989 4.8365 133.02 4.88192 133.042 4.93229ZM38.7708 12.1857C38.7553 12.2379 38.7369 12.2893 38.7157 12.3394L37.2969 15.4468C37.1606 15.7369 37.0271 16.0503 36.8878 16.3491C36.8278 16.549 36.7034 16.7235 36.5339 16.8453C36.507 16.8575 36.4778 16.8639 36.4483 16.8639C36.4188 16.8639 36.3896 16.8575 36.3627 16.8453C36.3364 16.8308 36.3138 16.8104 36.2967 16.7858C36.2796 16.7611 36.2684 16.7328 36.264 16.7031C36.2772 16.5799 36.3065 16.4589 36.3511 16.3433C36.4468 16.0938 36.5484 15.8443 36.6644 15.6006C37.1596 14.5541 37.6586 13.5077 38.1615 12.4613C38.2143 12.2831 38.3146 12.1226 38.4517 11.9971C38.5044 11.9696 38.5657 11.9633 38.6228 11.9797C38.6664 11.9934 38.7044 12.021 38.7311 12.0581C38.7577 12.0952 38.7717 12.14 38.7708 12.1857ZM97.796 42.3888C97.756 42.3766 97.7211 42.3514 97.697 42.3173C97.6728 42.2832 97.6607 42.242 97.6625 42.2002C97.6703 42.0991 97.6979 42.0005 97.7437 41.9101C97.9507 41.5232 98.1635 41.1451 98.382 40.7756C98.913 39.8646 99.4497 38.9594 99.9836 38.0512C100.029 37.9329 100.11 37.8316 100.216 37.7611C100.25 37.7377 100.292 37.727 100.334 37.7307C100.376 37.7344 100.415 37.7523 100.445 37.7814C100.464 37.8035 100.479 37.8293 100.489 37.8572C100.498 37.885 100.502 37.9145 100.5 37.9439C100.467 38.0625 100.421 38.1772 100.364 38.2863C99.8414 39.2727 99.3105 40.2563 98.7099 41.1876C98.5097 41.501 98.3211 41.823 98.1296 42.1335C98.0701 42.2176 97.9999 42.2937 97.9207 42.3598C97.8859 42.3946 97.8337 42.383 97.796 42.3888ZM29.1964 53.6141C29.211 53.7254 29.1864 53.8382 29.1267 53.9333C28.4768 54.9894 27.9023 56.089 27.2118 57.1248C27.0406 57.383 26.884 57.6528 26.7215 57.9139C26.6999 57.9614 26.6619 57.9996 26.6145 58.0214C26.5671 58.0432 26.5134 58.0473 26.4633 58.0329C26.4352 58.0198 26.41 58.0013 26.3891 57.9784C26.3683 57.9556 26.3521 57.9288 26.3416 57.8997C26.3311 57.8706 26.3264 57.8397 26.3279 57.8088C26.3293 57.7779 26.3369 57.7475 26.3501 57.7195C26.4297 57.5069 26.5267 57.3011 26.6403 57.1045C27.1364 56.2921 27.6412 55.4884 28.1432 54.6818C28.3492 54.3482 28.5552 54.0145 28.764 53.6809C28.7941 53.6269 28.8312 53.5771 28.8743 53.5329C28.9018 53.5012 28.9396 53.4803 28.9811 53.4739C29.0225 53.4676 29.0649 53.4761 29.1006 53.4981C29.1396 53.5303 29.1721 53.5697 29.1964 53.6141ZM29.0716 115.32C29.0393 115.283 29.0111 115.242 28.9875 115.198C28.9602 115.142 28.9461 115.081 28.9461 115.018C28.9461 114.956 28.9602 114.895 28.9875 114.838C29.0854 114.634 29.1939 114.434 29.3124 114.241C29.7244 113.593 30.1403 112.951 30.56 112.314C30.7914 111.946 31.0007 111.564 31.1867 111.171C31.2515 111.043 31.3232 110.918 31.4014 110.797C31.4186 110.771 31.445 110.753 31.4752 110.746C31.5053 110.739 31.5371 110.744 31.5639 110.759C31.6006 110.776 31.6318 110.803 31.6538 110.838C31.6795 110.895 31.6928 110.956 31.6928 111.019C31.6928 111.081 31.6795 111.143 31.6538 111.2C31.5412 111.556 31.3843 111.896 31.1867 112.213C30.7805 112.834 30.3743 113.457 29.9768 114.084C29.7229 114.432 29.4978 114.8 29.3037 115.184C29.2805 115.274 29.2109 115.317 29.0716 115.32ZM21.4323 11.0251C21.4258 11.073 21.4131 11.1198 21.3946 11.1644C20.7708 12.4729 20.2341 13.8133 19.7118 15.1683C19.6745 15.2676 19.6309 15.3645 19.5813 15.4584C19.529 15.5541 19.4536 15.6267 19.3317 15.5658C19.2833 15.5462 19.2423 15.5118 19.2147 15.4675C19.187 15.4232 19.1742 15.3712 19.178 15.3191C19.1969 15.1961 19.229 15.0755 19.2737 14.9594C19.4246 14.5503 19.5639 14.1383 19.735 13.7379C20.0832 12.9197 20.4459 12.1044 20.8056 11.2921C20.8665 11.1138 20.9836 10.96 21.1393 10.854C21.1697 10.8423 21.2024 10.8376 21.2348 10.8403C21.2673 10.8429 21.2987 10.8528 21.3269 10.8693C21.355 10.8857 21.3791 10.9082 21.3973 10.9352C21.4156 10.9622 21.4275 10.9929 21.4323 11.0251ZM136.134 89.3037C136.05 89.3037 135.937 89.1586 135.957 89.0803C135.978 89.0009 136.006 88.9233 136.039 88.8482C136.214 88.4723 136.429 88.1163 136.68 87.7863C137.278 86.971 137.875 86.1557 138.398 85.2853C138.449 85.1967 138.513 85.1164 138.589 85.0474C138.619 85.0187 138.659 85.0013 138.701 84.9981C138.742 84.995 138.784 85.0062 138.818 85.03C138.855 85.0508 138.883 85.0845 138.897 85.1245C138.911 85.1646 138.91 85.2083 138.894 85.2476C138.812 85.4397 138.715 85.625 138.604 85.8017C138.264 86.3414 137.913 86.881 137.559 87.412C137.167 87.9923 136.767 88.5725 136.369 89.1528C136.346 89.1957 136.312 89.232 136.271 89.2584C136.23 89.2847 136.183 89.3003 136.134 89.3037ZM76.9381 36.9748C76.9487 37.1071 76.9116 37.2388 76.8337 37.3462C76.5435 37.854 76.2766 38.3646 75.9894 38.8665C75.6267 39.4932 75.2553 40.1141 74.8869 40.7379C74.8277 40.8467 74.7598 40.9505 74.6838 41.0483C74.6025 41.147 74.5039 41.2282 74.3617 41.1499C74.3357 41.1332 74.3133 41.1114 74.2958 41.0858C74.2784 41.0603 74.2664 41.0314 74.2604 41.0011C74.2545 40.9707 74.2547 40.9394 74.2611 40.9092C74.2676 40.8789 74.2801 40.8503 74.2979 40.8249C74.5455 40.3685 74.796 39.9159 75.0494 39.4671C75.4497 38.765 75.8617 38.0716 76.2621 37.3694C76.3526 37.1839 76.4754 37.0159 76.6248 36.8733C76.6915 36.8182 76.7728 36.7805 76.8482 36.8414C76.8842 36.8815 76.9145 36.9264 76.9381 36.9748ZM3.1538 41.8375C3.20022 41.646 3.24664 41.3791 3.33078 41.1267C3.64993 40.1866 3.97488 39.2495 4.30564 38.3153C4.38348 38.1213 4.48068 37.9356 4.59577 37.7611C4.60767 37.738 4.62409 37.7175 4.64407 37.7008C4.66404 37.6841 4.68716 37.6716 4.71205 37.664C4.73694 37.6565 4.7631 37.654 4.78898 37.6567C4.81486 37.6594 4.83992 37.6673 4.8627 37.6799C4.91131 37.6999 4.95027 37.738 4.97138 37.7862C4.99248 37.8343 4.99408 37.8888 4.97585 37.9381C4.92072 38.0919 4.84819 38.2427 4.78436 38.3965C4.37527 39.3917 4.09384 40.4275 3.76889 41.4545C3.70506 41.6489 3.63252 41.8433 3.55709 42.0348C3.54218 42.0848 3.51089 42.1282 3.46825 42.1582C3.42562 42.1882 3.37413 42.203 3.32208 42.2002C3.20602 42.1944 3.13639 42.0696 3.1538 41.8375ZM44.3617 44.2021C44.3335 44.1998 44.3061 44.1912 44.2816 44.177C44.2571 44.1628 44.236 44.1434 44.2199 44.1201C44.2038 44.0968 44.1931 44.0702 44.1885 44.0422C44.1839 44.0143 44.1856 43.9856 44.1935 43.9584C44.2751 43.7033 44.372 43.4534 44.4836 43.2099C44.9362 42.3249 45.4004 41.4458 45.8617 40.5667C45.9206 40.4577 45.9885 40.3538 46.0648 40.2563C46.1052 40.2093 46.1545 40.1709 46.2099 40.1431C46.2998 40.0909 46.5 40.2128 46.4855 40.3143C46.4767 40.3958 46.4541 40.4753 46.4188 40.5493C46.2273 40.941 46.0358 41.3327 45.8385 41.7099C45.4642 42.4236 45.0842 43.1373 44.707 43.8511C44.6601 43.9434 44.6058 44.0317 44.5445 44.1151C44.525 44.145 44.4976 44.1689 44.4653 44.1843C44.4331 44.1996 44.3972 44.2058 44.3617 44.2021ZM39.1683 115.633C39.1235 115.638 39.0785 115.626 39.0414 115.601C39.0043 115.575 38.9773 115.538 38.9652 115.494C38.939 115.372 38.9597 115.245 39.0232 115.137C39.1886 114.804 39.3453 114.464 39.5223 114.139C39.9343 113.376 40.3579 112.619 40.7786 111.862C40.8269 111.771 40.8896 111.689 40.9642 111.618C40.9892 111.603 41.0172 111.593 41.0462 111.59C41.0752 111.586 41.1046 111.589 41.1325 111.598C41.174 111.606 41.211 111.629 41.2366 111.663C41.2622 111.696 41.2747 111.738 41.2718 111.78C41.2453 111.9 41.2024 112.015 41.1441 112.123C40.5929 113.189 40.0397 114.252 39.4846 115.314C39.437 115.405 39.3786 115.49 39.3105 115.567C39.2676 115.598 39.2194 115.62 39.1683 115.633Z" fill="#4B2D3A"/>
<path d="M65.2225 59.1151C65.2231 59.1567 65.2098 59.1974 65.1845 59.2306C65.1592 59.2637 65.1235 59.2874 65.0832 59.2978C65.0227 59.3132 64.9596 59.3149 64.8984 59.3029C64.8371 59.2909 64.7794 59.2653 64.7292 59.2282C64.3259 58.9787 63.9139 58.7379 63.5194 58.471C62.7948 57.9437 62.2353 57.2212 61.9062 56.3878C61.8735 56.311 61.852 56.2299 61.8424 56.147C61.8351 56.1064 61.8417 56.0645 61.8612 56.0282C61.8807 55.9918 61.9119 55.9631 61.9497 55.9468C61.9877 55.9292 62.0303 55.9244 62.0712 55.9333C62.112 55.9423 62.1489 55.9643 62.176 55.9961C62.2481 56.0968 62.3093 56.2047 62.3588 56.3182C62.7657 57.2125 63.4519 57.9507 64.3143 58.4216C64.5667 58.5638 64.8105 58.7118 65.0571 58.8742C65.1035 58.8962 65.1432 58.93 65.1723 58.9723C65.2013 59.0146 65.2186 59.0639 65.2225 59.1151Z" fill="#090707"/>
<path d="M5.75044 122.147C5.73303 122.185 5.70111 122.281 5.65469 122.37C5.22819 123.171 4.87423 124.01 4.39551 124.787C4.26785 124.996 4.1721 125.228 4.05315 125.446C3.9949 125.55 3.9248 125.648 3.84425 125.736C3.82244 125.756 3.79658 125.77 3.7685 125.779C3.74042 125.787 3.71081 125.79 3.68177 125.785C3.64141 125.775 3.60573 125.751 3.58047 125.718C3.55521 125.685 3.54184 125.644 3.54251 125.603C3.53573 125.542 3.54369 125.48 3.56572 125.423C3.65082 125.169 3.75659 124.922 3.88197 124.686C4.27365 124.03 4.5957 123.337 4.95256 122.655C5.07034 122.437 5.20114 122.227 5.34425 122.025C5.39861 121.966 5.46766 121.922 5.54444 121.898C5.63438 121.857 5.76785 121.979 5.75044 122.147ZM50.0309 19.0504C50.0107 19.1366 49.9835 19.221 49.9497 19.3028C49.7959 19.619 49.6392 19.9353 49.4709 20.2428C49.1808 20.7505 48.8907 21.2496 48.6005 21.7515C48.492 21.9284 48.4218 22.1261 48.3945 22.3318C48.3831 22.4046 48.3489 22.472 48.2967 22.5241C48.2446 22.5763 48.1772 22.6105 48.1044 22.6219C48.0548 22.6418 48.0002 22.6457 47.9482 22.6332C47.8963 22.6208 47.8495 22.5925 47.8143 22.5523C47.7901 22.5185 47.7756 22.4787 47.7726 22.4372C47.7695 22.3958 47.7779 22.3543 47.7969 22.3173C47.8462 22.2041 47.8955 22.0881 47.9535 21.9807C48.4255 21.0813 48.8994 20.1838 49.3752 19.2883C49.462 19.1442 49.5589 19.0065 49.6653 18.8763C49.6882 18.8416 49.7221 18.8155 49.7616 18.8024C49.801 18.7892 49.8438 18.7897 49.8829 18.8037C49.9903 18.8589 50.0135 18.9198 50.0309 19.0504ZM76.8075 18.5832C76.8394 18.7399 76.4941 18.8531 76.4477 18.9691C75.7398 20.6722 74.997 22.3579 74.1266 23.9885C74.0483 24.1335 73.9729 24.2786 73.8858 24.4237C73.8563 24.4668 73.8146 24.5001 73.7659 24.5192C73.7173 24.5383 73.6641 24.5425 73.6131 24.531C73.5232 24.531 73.4506 24.4614 73.4651 24.3714C73.4852 24.2696 73.5215 24.1717 73.5725 24.0813C73.9555 23.2776 74.3471 22.4768 74.733 21.6703C75.1421 20.7999 75.5338 19.8946 75.9342 19.0097C76.0126 18.8402 76.1028 18.6764 76.204 18.5194C76.2152 18.5017 76.2298 18.4863 76.247 18.4742C76.2642 18.4622 76.2835 18.4536 76.304 18.449C76.3245 18.4444 76.3457 18.4439 76.3664 18.4475C76.387 18.4512 76.4068 18.4588 76.4245 18.4701C76.4709 18.4991 76.793 18.5571 76.8133 18.5832H76.8075ZM56.1789 5.2225C56.1634 5.27474 56.145 5.32608 56.1237 5.37627L54.705 8.48362C54.5686 8.77376 54.4351 9.0871 54.2959 9.38594C54.2359 9.58584 54.1114 9.76028 53.9419 9.88207C53.9151 9.89434 53.8859 9.9007 53.8563 9.9007C53.8268 9.9007 53.7976 9.89434 53.7707 9.88207C53.7444 9.8676 53.7218 9.84724 53.7047 9.82257C53.6876 9.79791 53.6764 9.76961 53.6721 9.73991C53.6852 9.61669 53.7145 9.49574 53.7591 9.38014C53.8549 9.13062 53.9564 8.88111 54.0725 8.63739C54.5676 7.59097 55.0667 6.54455 55.5696 5.49813C55.6224 5.31993 55.7227 5.15946 55.8597 5.03391C55.9124 5.00639 55.9737 5.00016 56.0309 5.0165C56.0745 5.03027 56.1124 5.05778 56.1391 5.0949C56.1658 5.13203 56.1797 5.17679 56.1789 5.2225ZM67.439 12.0871C67.4188 12.1733 67.3917 12.2577 67.3578 12.3395C67.204 12.6558 67.0473 12.972 66.8791 13.2796C66.5889 13.7873 66.2988 14.2863 66.0086 14.7883C65.9001 14.9651 65.83 15.1628 65.8027 15.3685C65.7912 15.4414 65.757 15.5087 65.7049 15.5609C65.6527 15.613 65.5854 15.6473 65.5125 15.6587C65.4629 15.6785 65.4083 15.6825 65.3564 15.67C65.3044 15.6575 65.2576 15.6292 65.2224 15.589C65.1982 15.5552 65.1837 15.5154 65.1807 15.474C65.1776 15.4325 65.186 15.391 65.205 15.354C65.2543 15.2409 65.3036 15.1248 65.3616 15.0175C65.8336 14.118 66.3075 13.2206 66.7833 12.325C66.8701 12.181 66.9671 12.0433 67.0734 11.913C67.0963 11.8783 67.1302 11.8523 67.1697 11.8391C67.2092 11.826 67.2519 11.8265 67.291 11.8405C67.3984 11.8956 67.4216 11.9565 67.439 12.0871ZM120.696 98.8927C120.693 98.9337 120.683 98.9738 120.667 99.0117C120.029 100.01 119.588 101.109 119.042 102.154C118.988 102.264 118.923 102.369 118.848 102.467C118.816 102.512 118.768 102.542 118.713 102.552C118.659 102.561 118.603 102.548 118.558 102.516C118.522 102.495 118.495 102.462 118.48 102.423C118.466 102.384 118.466 102.341 118.48 102.302C118.546 102.084 118.626 101.869 118.718 101.661C119.063 100.956 119.417 100.251 119.777 99.5513C119.896 99.3339 120.03 99.1246 120.177 98.9246C120.209 98.8726 120.251 98.8275 120.301 98.7921C120.351 98.7567 120.407 98.7317 120.467 98.7186C120.583 98.7041 120.717 98.8057 120.696 98.8927ZM24.3713 28.3492C24.2872 28.3666 24.1421 28.2505 24.1508 28.1693C24.1593 28.0883 24.1768 28.0085 24.203 27.9314C24.293 27.6761 24.3771 27.4208 24.4932 27.1741C24.8055 26.3851 25.179 25.6217 25.6102 24.8908C25.7032 24.7542 25.8081 24.626 25.9235 24.5078C25.9412 24.4818 25.9646 24.4602 25.9919 24.4447C26.0192 24.4291 26.0497 24.42 26.081 24.418C26.1124 24.4161 26.1438 24.4213 26.1728 24.4333C26.2018 24.4454 26.2277 24.4639 26.2485 24.4875C26.2694 24.5055 26.2861 24.5277 26.2976 24.5528C26.3091 24.5778 26.315 24.605 26.315 24.6326C26.315 24.6601 26.3091 24.6873 26.2976 24.7123C26.2861 24.7374 26.2694 24.7596 26.2485 24.7776C25.9669 25.1363 25.7392 25.5341 25.5725 25.9585C25.3578 26.4082 25.1721 26.8695 24.9719 27.3221C24.8355 27.6268 24.6992 27.9256 24.5541 28.2244C24.5371 28.2593 24.5113 28.2892 24.4793 28.311C24.4472 28.3329 24.41 28.3461 24.3713 28.3492ZM45.5193 99.0349C45.4932 99.1132 45.47 99.1886 45.441 99.2641C44.9642 100.39 44.3658 101.46 43.6566 102.456C43.6245 102.508 43.5866 102.557 43.5435 102.601C43.5092 102.643 43.46 102.671 43.406 102.678C43.3519 102.685 43.2973 102.671 43.2533 102.638C43.2308 102.623 43.2116 102.603 43.1969 102.58C43.1822 102.556 43.1723 102.531 43.1677 102.504C43.1631 102.477 43.164 102.449 43.1702 102.422C43.1764 102.396 43.1879 102.37 43.204 102.348C43.3034 102.098 43.4268 101.858 43.5725 101.632C44.0853 100.9 44.5301 100.123 44.9013 99.3105C44.9756 99.1633 45.0619 99.0226 45.1595 98.8898C45.1862 98.8573 45.2246 98.8366 45.2664 98.8322C45.3083 98.8279 45.3501 98.8402 45.3829 98.8666C45.4355 98.9165 45.4813 98.9731 45.5193 99.0349ZM61.9816 37.9382C61.9642 37.9817 61.9352 38.0803 61.8916 38.1703C61.497 38.9914 61.0763 39.8008 60.6208 40.5929C60.5292 40.7559 60.4059 40.8989 60.2582 41.0136C60.2387 41.0328 60.2155 41.0477 60.19 41.0574C60.1644 41.0671 60.1372 41.0714 60.1099 41.07C60.0826 41.0687 60.056 41.0617 60.0315 41.0495C60.0071 41.0372 59.9855 41.0201 59.968 40.9991C59.9266 40.9648 59.8972 40.9181 59.8842 40.8659C59.8711 40.8137 59.8751 40.7587 59.8955 40.709C59.9037 40.6902 59.9145 40.6726 59.9274 40.6567C60.438 40.1403 60.6498 39.4527 60.9835 38.8376C61.1431 38.5474 61.2736 38.2573 61.4361 37.9498C61.4723 37.8758 61.5161 37.8058 61.5667 37.7409C61.5796 37.7183 61.5968 37.6986 61.6175 37.6828C61.6381 37.667 61.6617 37.6556 61.6869 37.6491C61.712 37.6426 61.7382 37.6412 61.7639 37.645C61.7896 37.6488 61.8143 37.6577 61.8365 37.6712C61.883 37.698 61.9212 37.7371 61.9468 37.7842C61.9724 37.8313 61.9844 37.8846 61.9816 37.9382ZM118.665 84.7196C118.623 84.7205 118.581 84.7065 118.548 84.68C118.514 84.6535 118.491 84.6162 118.483 84.5745C118.459 84.4515 118.48 84.3242 118.541 84.2148C118.69 83.8728 118.873 83.5463 119.086 83.2399C119.376 82.8163 119.666 82.3898 119.956 81.9633C120.056 81.8048 120.186 81.6677 120.339 81.56C120.36 81.5445 120.384 81.5334 120.41 81.5276C120.435 81.5218 120.462 81.5213 120.487 81.5262C120.513 81.5312 120.537 81.5413 120.559 81.5561C120.58 81.5709 120.598 81.59 120.612 81.6122C120.642 81.6414 120.661 81.6807 120.663 81.7226C120.666 81.7644 120.653 81.8058 120.627 81.8385C120.251 82.3336 119.904 82.8499 119.588 83.385C119.344 83.7447 119.123 84.1197 118.926 84.5078C118.907 84.5641 118.873 84.6138 118.826 84.6513C118.78 84.6887 118.724 84.7124 118.665 84.7196ZM128.411 116.78C128.475 116.78 128.594 116.907 128.556 116.991C128.518 117.085 128.469 117.173 128.411 117.255C128.089 117.708 127.758 118.155 127.48 118.639C127.277 118.974 127.1 119.323 126.949 119.684C126.922 119.762 126.886 119.836 126.841 119.904C126.811 119.947 126.767 119.978 126.717 119.991C126.666 120.004 126.613 119.999 126.566 119.977C126.528 119.96 126.497 119.93 126.478 119.894C126.458 119.857 126.451 119.815 126.458 119.774C126.491 119.486 126.582 119.207 126.725 118.956C127.079 118.303 127.488 117.682 127.947 117.099C127.997 117.015 128.064 116.944 128.144 116.889C128.224 116.834 128.315 116.796 128.411 116.78ZM48.6498 52.0039C48.6584 52.1156 48.6321 52.2271 48.5744 52.3231C48.1363 53.1151 47.704 53.9101 47.2688 54.7051C47.2172 54.8162 47.1519 54.9205 47.0744 55.0155C47.0436 55.0613 46.9969 55.0941 46.9433 55.1075C46.8897 55.1209 46.8331 55.114 46.7843 55.0881C46.7373 55.0654 46.7002 55.0263 46.6799 54.9783C46.6597 54.9302 46.6575 54.8764 46.674 54.8269C46.7168 54.6892 46.7732 54.5561 46.8423 54.4295C47.1576 53.8492 47.4796 53.2747 47.8085 52.7061C47.9303 52.4914 48.0609 52.2825 48.1972 52.0765C48.2448 52.0092 48.3061 51.9528 48.3771 51.9111C48.4022 51.8961 48.43 51.8864 48.4589 51.8824C48.4878 51.8784 48.5172 51.8803 48.5454 51.8879C48.6034 51.9053 48.6266 51.9749 48.6498 52.0039ZM91.8568 10.6132C91.8307 10.6799 91.8162 10.7409 91.7901 10.796C91.323 11.6925 90.8587 12.589 90.3858 13.4827C90.322 13.6045 90.2495 13.7554 90.0638 13.7119C89.9361 13.6828 89.8984 13.5117 89.9883 13.2825C90.096 12.9933 90.22 12.7104 90.3597 12.4353C90.615 11.9391 90.8849 11.4517 91.1576 10.9672C91.2619 10.7901 91.3824 10.6231 91.5173 10.4681C91.5496 10.4415 91.5901 10.4269 91.632 10.4269C91.6738 10.4269 91.7143 10.4415 91.7466 10.4681C91.79 10.5111 91.8271 10.5599 91.8568 10.6132ZM136.773 132.235C136.777 132.287 136.771 132.34 136.755 132.39C136.739 132.44 136.712 132.486 136.677 132.525C136.387 132.949 136.082 133.372 135.78 133.79C135.49 134.139 135.233 134.514 135.012 134.91C135.003 134.939 134.988 134.965 134.968 134.988C134.948 135.011 134.923 135.029 134.896 135.041C134.869 135.053 134.839 135.06 134.809 135.06C134.779 135.06 134.749 135.053 134.721 135.041C134.689 135.024 134.66 135.001 134.636 134.973C134.613 134.945 134.595 134.913 134.585 134.877C134.575 134.842 134.572 134.806 134.576 134.769C134.581 134.733 134.593 134.698 134.611 134.666C134.82 134.336 135.038 134.008 135.264 133.686C135.618 133.178 135.983 132.676 136.343 132.174C136.367 132.139 136.395 132.108 136.427 132.081C136.456 132.052 136.493 132.032 136.533 132.026C136.574 132.02 136.615 132.027 136.651 132.046C136.685 132.065 136.714 132.092 136.736 132.125C136.757 132.158 136.77 132.196 136.773 132.235ZM84.6644 8.63739C84.6637 8.68309 84.6549 8.7283 84.6382 8.77085C84.5378 9.01928 84.4134 9.25735 84.2669 9.48169C83.8317 10.062 83.4603 10.6741 83.0802 11.2863C83.047 11.3372 83.0101 11.3857 82.97 11.4314C82.909 11.5039 82.7553 11.4575 82.7204 11.3618C82.694 11.2833 82.6868 11.1997 82.6994 11.1179C82.712 11.0361 82.7441 10.9585 82.793 10.8917C83.0396 10.4914 83.2746 10.0794 83.527 9.67898C83.7446 9.32791 83.9767 8.98846 84.203 8.6461C84.2536 8.55521 84.3349 8.48528 84.4323 8.4488C84.4603 8.44326 84.4891 8.44396 84.5168 8.45084C84.5445 8.45773 84.5704 8.47063 84.5926 8.48863C84.6147 8.50663 84.6326 8.52929 84.645 8.55501C84.6575 8.58072 84.664 8.60885 84.6644 8.63739ZM40.1547 79.4391C40.1522 79.4861 40.1414 79.5323 40.1228 79.5755C39.6702 80.3646 39.2137 81.1519 38.7533 81.9372C38.7424 81.9539 38.7298 81.9695 38.7156 81.9836C38.6916 82.018 38.6573 82.0438 38.6177 82.0574C38.578 82.0709 38.5351 82.0715 38.4951 82.059C38.4449 82.0436 38.4014 82.0117 38.3714 81.9686C38.3414 81.9255 38.3268 81.8736 38.3297 81.8211C38.3362 81.7395 38.3579 81.6598 38.3936 81.5861C38.5009 81.3627 38.6025 81.1335 38.7301 80.9217C39.0203 80.4633 39.3104 80.0107 39.6005 79.5581C39.6717 79.4307 39.7814 79.3291 39.9139 79.2679C39.941 79.2625 39.969 79.2627 39.996 79.2685C40.0231 79.2743 40.0487 79.2856 40.0712 79.3016C40.0938 79.3176 40.1128 79.3381 40.1271 79.3617C40.1415 79.3854 40.1509 79.4117 40.1547 79.4391ZM121.187 11.5242C121.173 11.5825 121.15 11.6383 121.12 11.6896C120.954 11.9246 120.78 12.1538 120.612 12.3888C120.264 12.8734 119.919 13.3608 119.571 13.8395C119.523 13.9064 119.464 13.9643 119.396 14.0107C119.363 14.0347 119.321 14.0453 119.28 14.0405C119.239 14.0356 119.201 14.0157 119.173 13.9846C119.153 13.962 119.138 13.9358 119.129 13.9074C119.119 13.879 119.116 13.8491 119.118 13.8192C119.146 13.6998 119.194 13.5859 119.26 13.4827C119.71 12.8444 120.168 12.209 120.63 11.5765C120.706 11.452 120.823 11.3577 120.96 11.3095C120.99 11.305 121.02 11.3073 121.049 11.3162C121.078 11.3252 121.104 11.3407 121.126 11.3614C121.148 11.3821 121.165 11.4076 121.175 11.4358C121.186 11.464 121.19 11.4943 121.187 11.5242ZM142.552 109.628C142.525 109.628 142.497 109.622 142.472 109.611C142.447 109.6 142.424 109.583 142.406 109.563C142.387 109.542 142.374 109.518 142.365 109.492C142.357 109.465 142.354 109.438 142.358 109.41C142.456 109.159 142.603 108.93 142.79 108.737C143.196 108.267 143.544 107.756 143.916 107.263C143.977 107.181 144.046 107.104 144.122 107.034C144.145 107.013 144.175 107.001 144.206 107.001C144.237 107.001 144.267 107.013 144.29 107.034C144.336 107.074 144.369 107.126 144.386 107.185C144.39 107.268 144.377 107.35 144.348 107.428C144.319 107.506 144.275 107.577 144.218 107.637C143.858 108.139 143.492 108.641 143.118 109.132C142.985 109.29 142.839 109.437 142.683 109.573C142.643 109.598 142.598 109.617 142.552 109.628ZM84.1044 28.4914C84.064 28.4852 84.0265 28.4665 83.9973 28.4379C83.9682 28.4092 83.9488 28.3721 83.9419 28.3318C83.9325 28.2084 83.9545 28.0846 84.0058 27.972C84.1664 27.5459 84.3554 27.1311 84.5715 26.7302C84.676 26.5068 84.7862 26.2834 84.9052 26.0658C84.9514 25.9744 85.0121 25.8911 85.0851 25.8192C85.1156 25.7898 85.1553 25.7718 85.1975 25.7681C85.2397 25.7644 85.282 25.7753 85.3172 25.7989C85.3529 25.8189 85.3807 25.8506 85.396 25.8886C85.4113 25.9265 85.4131 25.9686 85.4013 26.0078C85.393 26.0487 85.3804 26.0886 85.3636 26.1268C85.0328 26.8376 84.7195 27.5629 84.3713 28.2621C84.3191 28.3753 84.2582 28.4885 84.1044 28.4914ZM148.935 32.118C148.91 32.1953 148.876 32.2693 148.834 32.3386C148.662 32.5736 148.477 32.797 148.303 33.0291C148.083 33.3049 147.893 33.6035 147.737 33.9198C147.693 34.0133 147.637 34.1003 147.569 34.178C147.539 34.208 147.501 34.2272 147.459 34.2325C147.417 34.2378 147.375 34.2288 147.339 34.207C147.299 34.1949 147.265 34.1683 147.243 34.1325C147.221 34.0967 147.213 34.054 147.22 34.0126C147.259 33.8302 147.322 33.6537 147.406 33.4875C147.74 32.963 148.123 32.4715 148.549 32.0194C148.574 31.9865 148.606 31.9594 148.643 31.9399C148.679 31.9204 148.72 31.9089 148.761 31.9062C148.811 31.9146 148.856 31.9407 148.888 31.9796C148.92 32.0185 148.937 32.0677 148.935 32.118ZM125.707 35.1064C125.681 35.2154 125.646 35.3221 125.602 35.4256C125.344 36.0059 125.022 36.5281 124.819 37.1142C124.805 37.1644 124.78 37.2107 124.744 37.249C124.709 37.2873 124.665 37.3167 124.616 37.3347C124.557 37.3535 124.494 37.3483 124.439 37.3202C124.395 37.2941 124.343 37.2157 124.355 37.1722C124.398 36.9737 124.46 36.7796 124.538 36.5919C124.744 36.1161 124.964 35.649 125.182 35.1819C125.228 35.089 125.282 35.0006 125.344 34.9179C125.365 34.8822 125.396 34.8541 125.434 34.8378C125.471 34.8216 125.513 34.8181 125.553 34.8279C125.669 34.8627 125.689 34.9672 125.707 35.1064ZM73.204 28.2912C73.1945 28.3607 73.177 28.4288 73.1518 28.4943C72.8822 29.0299 72.6448 29.5812 72.4409 30.1451C72.4232 30.1833 72.3998 30.2185 72.3713 30.2496C72.3477 30.2834 72.3136 30.3085 72.2743 30.3211C72.235 30.3337 72.1926 30.333 72.1537 30.3192C72.114 30.3063 72.0786 30.2827 72.0514 30.251C72.0243 30.2192 72.0065 30.1806 71.9999 30.1393C71.9925 30.0579 72.0024 29.9758 72.029 29.8985C72.2448 29.2946 72.5157 28.7119 72.8384 28.1577C72.8464 28.1386 72.858 28.1212 72.8727 28.1067C72.8873 28.0921 72.9047 28.0805 72.9239 28.0727C72.9431 28.0649 72.9636 28.0609 72.9843 28.0611C73.0049 28.0612 73.0254 28.0655 73.0444 28.0736C73.1286 28.0997 73.1721 28.1722 73.204 28.2912ZM19.5551 89.6693C19.5633 89.7088 19.5631 89.7496 19.5546 89.7891C19.5461 89.8286 19.5295 89.8658 19.5058 89.8985C19.2795 90.3163 19.0531 90.7341 18.821 91.1461C18.7773 91.2151 18.7149 91.2704 18.6412 91.3057C18.6129 91.3163 18.5826 91.3206 18.5525 91.3181C18.5224 91.3156 18.4932 91.3064 18.4671 91.2911C18.4424 91.2742 18.4219 91.2517 18.4073 91.2256C18.3927 91.1994 18.3844 91.1702 18.3829 91.1403C18.3919 91.0585 18.4124 90.9784 18.4439 90.9024C18.5889 90.471 18.8035 90.0662 19.0793 89.7041C19.1291 89.6389 19.19 89.5829 19.2591 89.5387C19.2868 89.5252 19.3171 89.518 19.3479 89.5174C19.3787 89.5168 19.4092 89.5229 19.4374 89.5354C19.4656 89.5478 19.4907 89.5662 19.511 89.5893C19.5313 89.6125 19.5464 89.6398 19.5551 89.6693Z" fill="#7D7D7D"/>
<path d="M80.3501 128.556C80.4892 128.675 80.5859 128.836 80.6257 129.015C81.0464 130.251 81.4961 131.487 81.6441 132.786C81.7486 133.487 81.728 134.2 81.5831 134.893C81.4712 135.402 81.2507 135.881 80.9367 136.297C80.6228 136.713 80.2228 137.056 79.764 137.304C79.3643 137.526 78.9494 137.72 78.5222 137.884C76.41 138.693 74.292 139.486 72.1799 140.292C70.3345 140.988 68.422 141.491 66.4729 141.792C65.5317 141.969 64.5673 141.984 63.6209 141.839C63.025 141.737 62.4491 141.541 61.9149 141.258C61.6387 141.119 61.3977 140.918 61.2097 140.672C61.0217 140.426 60.8917 140.141 60.8292 139.838C60.7667 139.535 60.7735 139.222 60.8489 138.922C60.9244 138.621 61.0666 138.342 61.265 138.105C61.4353 137.895 61.6236 137.701 61.8278 137.524C62.2137 137.179 62.6141 136.848 63.0058 136.509C64.0917 135.568 65.0254 134.465 65.7737 133.239C66.4631 132.126 67.2832 131.099 68.2166 130.181L68.6199 129.792C69.0319 129.409 69.5207 129.117 70.054 128.937C70.5872 128.757 71.1526 128.693 71.7127 128.748C71.794 128.748 71.8781 128.765 71.9593 128.777C72.0719 128.784 72.1784 128.83 72.2605 128.907C72.3426 128.985 72.3951 129.088 72.4091 129.2C72.5215 129.654 72.74 130.075 73.0467 130.428C73.3534 130.781 73.7394 131.056 74.1731 131.231C74.4488 131.367 74.7416 131.464 75.0435 131.521C76.024 131.719 77.0357 131.701 78.0087 131.469C78.6342 131.299 79.1948 130.947 79.6189 130.457C80.0254 130.031 80.2564 129.467 80.2659 128.878C80.269 128.796 80.2778 128.713 80.292 128.632C80.3065 128.62 80.324 128.603 80.3501 128.556Z" fill="#D87756"/>
<path d="M60.8443 141.148C60.7921 141.229 60.7051 141.22 60.6267 141.229C59.5126 141.345 58.3985 141.467 57.2815 141.574C55.2309 141.746 53.171 141.777 51.1161 141.67C49.8287 141.657 48.5444 141.544 47.2747 141.331C46.559 141.203 45.8607 140.992 45.1944 140.701C44.9386 140.603 44.7186 140.429 44.5632 140.203C44.4079 139.978 44.3245 139.71 44.324 139.436C44.319 139.079 44.42 138.729 44.6142 138.429C45.037 137.705 45.6924 137.144 46.4739 136.839C46.8638 136.696 47.2632 136.579 47.6693 136.491C49.0578 136.181 50.3195 135.457 51.2873 134.414C51.8356 133.834 52.3782 133.271 52.9207 132.699C53.8782 131.687 54.8501 130.694 55.883 129.757C56.202 129.459 56.55 129.194 56.9217 128.965C57.4733 128.626 58.1109 128.453 58.7583 128.466C59.1739 128.489 59.5792 128.604 59.9449 128.803C60.0746 128.875 60.1767 128.988 60.2351 129.125C60.4236 129.444 60.6238 129.76 60.8153 130.085C60.8598 130.167 60.9202 130.24 60.9929 130.299C61.0656 130.357 61.1492 130.401 61.2389 130.427C62.5242 130.819 63.8269 131.04 65.1645 130.718C65.6719 130.6 66.1499 130.38 66.5687 130.071C66.7343 129.961 66.8713 129.814 66.9682 129.641C67.0652 129.468 67.1192 129.274 67.1258 129.075C67.1298 128.971 67.1395 128.868 67.1548 128.765C67.1867 128.475 67.265 128.425 67.5 128.553C67.6651 128.641 67.8215 128.744 67.9672 128.861C68.3966 129.215 68.3966 129.331 67.9933 129.731C66.9659 130.733 66.0647 131.856 65.3095 133.076C64.5436 134.322 63.577 135.433 62.4488 136.364C62.002 136.735 61.5639 137.121 61.1432 137.524C60.8389 137.81 60.6072 138.165 60.4675 138.558C60.3277 138.952 60.2838 139.373 60.3395 139.787C60.3636 140.183 60.495 140.565 60.7196 140.893C60.7776 140.959 60.8618 141.032 60.8443 141.148Z" fill="#D87756"/>
<path d="M127.546 128.701C127.283 128.181 126.947 127.702 126.548 127.277C125.923 126.608 125.219 126.017 124.454 125.515C123.432 124.839 122.356 124.25 121.236 123.754C118.308 122.477 115.268 121.475 112.155 120.76C110.846 120.438 109.517 120.2 108.241 119.75C107.924 119.652 107.601 119.572 107.275 119.513C106.944 119.443 106.935 119.431 107.089 119.109C107.124 119.034 107.161 118.961 107.199 118.886C108.046 117.129 108.793 115.326 109.439 113.486C109.489 113.351 109.522 113.209 109.538 113.066C109.539 113.024 109.525 112.983 109.499 112.95C109.473 112.917 109.436 112.895 109.396 112.886C109.357 112.869 109.314 112.865 109.273 112.875C109.232 112.885 109.196 112.908 109.169 112.941C109.104 113.046 109.049 113.158 109.007 113.275C108.789 113.855 108.577 114.435 108.354 115.015C107.578 117.097 106.619 119.105 105.49 121.018C104.837 122.106 104.052 123.107 103.152 124.001C102.152 125.006 100.933 125.767 99.5918 126.226C98.0105 126.807 96.3437 127.12 94.6595 127.155C93.2479 127.215 91.8339 127.118 90.4439 126.865C89.5328 126.664 88.6247 126.455 87.705 126.284C87.1967 126.183 86.7014 126.026 86.2282 125.814C85.3114 125.428 84.4584 124.906 83.556 124.483C83.5328 124.483 83.5241 124.427 83.5067 124.398C83.705 124.283 83.9255 124.211 84.1537 124.187C84.94 123.946 84.8965 124.062 84.9922 123.125C84.9922 123.081 84.9922 123.041 84.9922 123C84.9922 122.211 84.9922 121.419 84.9603 120.632C84.882 117.807 84.7282 114.986 84.5512 112.166C84.5193 111.667 84.4613 111.171 84.4352 110.675C84.2998 108.101 84.1653 105.528 84.0319 102.957C84.0087 102.522 83.968 102.087 83.9274 101.655C83.9116 101.51 83.8824 101.367 83.8404 101.228C83.7969 101.08 83.6837 101.002 83.5734 101.028C83.4632 101.054 83.4226 101.159 83.4197 101.266C83.4168 101.373 83.4197 101.472 83.44 101.576C83.5212 102.821 83.588 104.066 83.6924 105.307C83.7794 106.343 83.8027 107.382 83.8404 108.418C83.8723 109.248 83.8897 110.083 83.9709 110.907C84.2089 113.35 84.2611 115.802 84.4032 118.248C84.4932 119.782 84.5048 121.32 84.5512 122.858C84.5512 123.003 84.5512 123.148 84.5512 123.293C84.5577 123.376 84.5334 123.458 84.4831 123.524C84.4328 123.589 84.3599 123.634 84.2785 123.65C83.7423 123.814 83.1928 123.93 82.6363 123.998C81.4177 124.134 80.1934 124.204 78.9719 124.288C76.189 124.507 73.3911 124.145 70.7553 123.226C70.6189 123.177 70.4883 123.116 70.3549 123.058C70.2862 123.032 70.2266 122.987 70.1833 122.927C70.14 122.868 70.1149 122.798 70.1112 122.724C70.1112 122.62 70.0909 122.518 70.0822 122.414C69.9893 121.381 69.8936 120.345 69.792 119.312C69.6818 118.091 69.5599 116.872 69.4613 115.651C69.3539 114.264 69.2611 112.874 69.1711 111.484C69.0812 110.095 68.9883 108.664 68.9883 107.251C68.9883 104.261 69.058 101.271 69.1972 98.2804C69.2679 96.6414 69.4424 95.0085 69.7195 93.3916C69.9419 92.0594 70.2887 90.751 70.7553 89.4835C71.4922 87.5309 72.8326 86.2166 74.9129 85.7407C75.3597 85.6392 75.8036 85.5376 76.2475 85.4274C77.325 85.1929 78.4341 85.1399 79.529 85.2707C80.8112 85.4127 82.0595 85.7738 83.2195 86.3384C85.5495 87.4092 87.6142 88.9815 89.2659 90.9429C89.6286 91.3694 89.9912 91.7988 90.3568 92.2253C92.4188 94.5999 94.2883 97.135 95.9477 99.8065C96.8472 101.275 97.7611 102.737 98.7069 104.176C99.5426 105.464 100.297 106.804 100.967 108.186C101.219 108.686 101.432 109.205 101.605 109.738C101.621 109.819 101.649 109.898 101.69 109.97C101.733 110.013 101.791 110.039 101.852 110.042C101.873 110.046 101.894 110.046 101.914 110.041C101.935 110.037 101.954 110.028 101.971 110.016C101.988 110.004 102.002 109.988 102.013 109.97C102.024 109.952 102.032 109.933 102.035 109.912C102.053 109.816 102.053 109.718 102.035 109.622C101.984 109.424 101.92 109.231 101.843 109.042C101.461 108.121 101.027 107.223 100.543 106.352C100.483 106.239 100.352 106.134 100.419 105.981C100.456 105.959 100.499 105.948 100.542 105.948C100.585 105.948 100.628 105.959 100.665 105.981C101.307 106.221 101.951 106.451 102.583 106.712C105.142 107.729 107.423 109.336 109.242 111.403C109.285 111.45 109.323 111.499 109.366 111.542C109.538 111.711 109.726 111.693 109.813 111.473C109.939 111.167 110.042 110.851 110.121 110.53C110.36 109.411 110.457 108.267 110.411 107.124C110.338 104.673 110.098 102.23 109.691 99.8123C109.297 97.2678 108.986 94.7146 108.734 92.1498C108.632 91.1402 108.519 90.1189 108.322 89.1266C107.941 87.1085 107.444 85.1139 106.834 83.1527C106.566 82.2169 106.214 81.3071 105.783 80.4342L107.362 79.4941C108.627 78.7803 109.849 77.9917 111.02 77.1324C111.862 76.4883 112.68 75.8123 113.452 75.1015C114.612 74.0193 115.706 72.8906 116.855 71.8084C117.522 71.1538 118.143 70.4528 118.712 69.7108C119.415 68.8085 119.91 67.7624 120.162 66.6469C120.284 66.226 120.326 65.7863 120.287 65.35C120.087 63.7036 119.341 62.1716 118.169 60.998C116.54 59.3312 114.665 57.9232 112.61 56.8229C111.032 55.9905 109.391 55.2842 107.701 54.7108C106.438 54.2478 105.136 53.9011 103.81 53.675C102.743 53.5096 101.678 53.3326 100.619 53.1527C99.145 52.9032 97.6711 52.645 96.1856 52.4883C95.794 52.4448 95.3994 52.4245 95.0048 52.3955C94.8805 52.3759 94.7532 52.3973 94.6421 52.4564C94.6203 52.4697 94.6018 52.4877 94.5879 52.5091C94.5739 52.5305 94.565 52.5548 94.5617 52.5801C94.5583 52.6054 94.5607 52.6312 94.5686 52.6554C94.5765 52.6797 94.5897 52.7019 94.6073 52.7204C94.6392 52.7465 94.6711 52.7901 94.7059 52.793C94.9816 52.8104 95.0222 52.9961 95.0367 53.2224C95.0922 53.7792 95.0262 54.3415 94.8434 54.8705C94.6606 55.3994 94.3652 55.8824 93.9777 56.2862C93.9043 56.3587 93.8409 56.4406 93.7891 56.5299C93.7712 56.5683 93.7684 56.612 93.7813 56.6523C93.7943 56.6927 93.8219 56.7267 93.8587 56.7475C93.8843 56.7627 93.9127 56.7724 93.9422 56.7759C93.9717 56.7794 94.0016 56.7766 94.0299 56.7678C94.2668 56.637 94.4703 56.4533 94.6247 56.2311C95.2533 55.4178 95.5749 54.4089 95.5328 53.3819C95.5328 53.2224 95.4574 53.0541 95.5822 52.8684C96.2437 52.9525 96.9197 53.0222 97.5928 53.1266C99.0696 53.3529 100.546 53.585 102.02 53.8316C103.021 53.9999 104.028 54.1595 105.017 54.3887C106.97 54.8783 108.872 55.5475 110.701 56.3877C112.831 57.3302 114.808 58.5848 116.568 60.1102C117.563 60.8998 118.405 61.8644 119.054 62.9564C119.459 63.7293 119.719 64.5702 119.82 65.4371C119.849 65.6645 119.838 65.8951 119.788 66.1189C119.597 67.2281 119.151 68.2778 118.485 69.1856C117.893 69.9867 117.237 70.7386 116.524 71.4342C115.343 72.5454 114.203 73.7117 113.043 74.8142C111.328 76.3956 109.435 77.7723 107.402 78.9168C106.05 79.6914 104.71 80.4777 103.401 81.3249C103.036 81.5599 102.653 81.7688 102.278 81.9922C102.16 82.0647 102.093 82.2098 102.145 82.2997C102.179 82.3518 102.23 82.3902 102.29 82.4082C102.349 82.4263 102.413 82.4228 102.47 82.3984C102.689 82.3366 102.896 82.2385 103.082 82.1082C103.593 81.792 104.098 81.4612 104.608 81.1421C105.511 80.5792 105.345 80.4284 105.815 81.5744C105.844 81.6498 105.865 81.7311 105.891 81.8123C106.521 83.6354 107.045 85.4934 107.46 87.3771C107.643 88.2301 107.864 89.0802 107.977 89.9419C108.22 91.8133 108.4 93.6963 108.624 95.5734C108.751 96.6643 108.914 97.7552 109.059 98.8433C109.233 100.097 109.439 101.347 109.596 102.615C109.773 104.016 109.886 105.426 109.935 106.839C109.988 107.94 109.917 109.042 109.723 110.127C109.708 110.393 109.629 110.652 109.491 110.881C109.355 110.881 109.308 110.771 109.239 110.698C107.886 109.256 106.302 108.049 104.553 107.127C103.215 106.416 101.806 105.849 100.349 105.435C100.248 105.42 100.15 105.385 100.063 105.33C99.9763 105.276 99.9017 105.204 99.8442 105.119C98.9738 103.697 98.0367 102.331 97.1779 100.909C96.057 99.0151 94.8367 97.1818 93.5222 95.4168C92.1905 93.6585 90.7775 91.9699 89.3181 90.322C87.4093 88.1378 84.9804 86.4704 82.2562 85.4738C80.576 84.8479 78.7693 84.6379 76.9903 84.8616C76.067 84.999 75.1553 85.2056 74.263 85.4796C73.1957 85.7808 72.2467 86.4027 71.5444 87.2611C71.4661 87.3539 71.411 87.4728 71.2775 87.4932C71.1156 87.2521 70.9413 87.0197 70.7553 86.7968C70.0826 86.0548 69.2997 85.4207 68.4342 84.9168C66.746 83.9246 64.8515 83.3358 62.8984 83.1963C62.3959 83.1645 61.9133 82.9882 61.5087 82.6885C60.058 81.6962 58.6073 80.6808 57.1914 79.6247C55.2946 78.2121 53.6203 76.5231 52.2243 74.614C51.2386 73.275 50.4818 71.7819 49.9845 70.1953C49.6205 69.0597 49.5883 67.8437 49.8916 66.6904C50.3878 64.815 51.3453 63.0935 52.6769 61.6827C53.8868 60.3684 55.1373 59.0918 56.4719 57.911C57.0783 57.3742 57.6499 56.7968 58.2736 56.2775C59.1992 55.5086 60.1537 54.7746 61.0967 54.0231C61.3549 53.8142 61.6102 53.6024 61.8597 53.3819C61.9358 53.3133 61.9979 53.2305 62.0425 53.1382C62.055 53.0984 62.0557 53.0557 62.0443 53.0156C62.033 52.9754 62.0102 52.9393 61.9787 52.9119C61.9505 52.8812 61.9125 52.8612 61.8712 52.8554C61.83 52.8496 61.7879 52.8583 61.7524 52.88C61.665 52.936 61.5816 52.998 61.5029 53.0657L60.5831 53.8113C59.5502 54.6469 58.4796 55.4419 57.4903 56.3268C55.7263 57.908 54.0087 59.5357 52.3984 61.2794C51.206 62.5597 50.2825 64.0662 49.6827 65.7098C49.0814 67.2954 49.0608 69.0428 49.6247 70.6421C50.112 72.0787 50.8049 73.4371 51.6818 74.675C53.1345 76.7076 54.8967 78.5001 56.9042 79.9874C58.3868 81.0928 59.8839 82.1721 61.5174 83.2224C61.1112 83.3906 60.7804 83.5125 60.4671 83.6605C58.8342 84.4734 57.531 85.8238 56.7766 87.4845C56.2681 88.5534 55.8929 89.6808 55.6595 90.8413C55.3388 92.5363 55.1333 94.2511 55.0444 95.9738C54.9313 97.5899 54.8471 99.2059 54.7543 100.825C54.6092 103.274 54.5541 105.722 54.6063 108.174C54.6383 109.691 54.6905 111.206 54.7978 112.72C54.9139 114.336 54.9342 115.958 55.1141 117.569C55.1431 117.859 55.1315 117.859 54.8239 117.902L51.8559 118.25C49.9381 118.471 48.0145 118.668 46.1025 118.921C43.7969 119.226 41.499 119.582 39.2088 119.988C35.6953 120.609 32.205 121.346 28.764 122.272C25.8525 123.026 22.9958 123.978 20.2137 125.121C18.3651 125.865 16.5961 126.793 14.9332 127.892C14.1007 128.443 13.3337 129.087 12.647 129.812C12.1729 130.308 11.7759 130.873 11.469 131.486C11.1554 132.1 11.0004 132.783 11.0181 133.472C11.0358 134.161 11.2258 134.835 11.5706 135.432C11.8747 135.977 12.2547 136.477 12.6992 136.915C13.228 137.443 13.8061 137.92 14.4255 138.339C15.4048 139.005 16.4384 139.588 17.5154 140.08C20.0509 141.222 22.6807 142.141 25.3752 142.828C27.7601 143.469 30.174 143.988 32.6054 144.424C34.2794 144.714 35.9593 145.004 37.6479 145.218C38.6982 145.352 39.7456 145.509 40.7988 145.622C42.1798 145.781 43.5638 145.935 44.9477 146.066C46.1895 146.182 47.4313 146.277 48.676 146.356C50.4777 146.475 52.2824 146.6 54.087 146.678C55.8916 146.756 57.7398 146.791 59.5676 146.846C63.8907 146.971 68.2108 146.884 72.5309 146.733C75.5638 146.629 78.5909 146.457 81.6121 146.219C83.8501 146.045 86.0841 145.838 88.3143 145.599C90.4613 145.37 92.6034 145.102 94.7408 144.795C97.3501 144.42 99.9487 143.98 102.537 143.475C105.728 142.848 108.92 142.12 112.036 141.212C114.752 140.449 117.409 139.493 119.988 138.351C121.566 137.658 123.073 136.813 124.488 135.83C125.272 135.281 125.988 134.641 126.621 133.924C127.049 133.441 127.402 132.898 127.668 132.31C127.924 131.739 128.046 131.117 128.025 130.492C128.004 129.866 127.84 129.254 127.546 128.701ZM72.6557 124.616C72.6934 124.355 72.7224 124.326 72.9719 124.378C73.5203 124.488 74.0686 124.578 74.6257 124.651C75.962 124.831 77.3131 124.877 78.6586 124.787C78.7224 124.787 78.7833 124.787 78.8442 124.787C79.1054 124.787 79.1344 124.787 79.2098 125.022C79.2936 125.235 79.3605 125.454 79.41 125.678C79.5676 126.364 79.6733 127.062 79.7263 127.764C79.7263 128.135 79.8307 128.501 79.8191 128.878C79.81 129.338 79.6289 129.778 79.3114 130.111C78.8568 130.632 78.2352 130.979 77.5531 131.092C76.65 131.248 75.7239 131.208 74.8375 130.976C74.3748 130.853 73.9488 130.62 73.5957 130.297C73.1774 129.919 72.9078 129.405 72.8355 128.846C72.7224 128.042 72.6528 127.242 72.6121 126.467C72.5864 125.85 72.6009 125.231 72.6557 124.616ZM74.1731 131.24C74.4487 131.375 74.7416 131.473 75.0435 131.53C76.024 131.727 77.0357 131.71 78.0087 131.478C78.6342 131.308 79.1948 130.955 79.6189 130.465C80.0254 130.039 80.2564 129.476 80.2659 128.887C80.2689 128.805 80.2776 128.724 80.292 128.643C80.292 128.623 80.3094 128.605 80.3355 128.559C80.4747 128.678 80.5714 128.839 80.6112 129.017C81.0319 130.253 81.4816 131.489 81.6295 132.789C81.7341 133.489 81.7135 134.202 81.5686 134.895C81.4566 135.405 81.2361 135.883 80.9222 136.3C80.6083 136.716 80.2082 137.059 79.7495 137.307C79.3498 137.529 78.9348 137.723 78.5077 137.887C76.3955 138.696 74.2775 139.488 72.1653 140.295C70.32 140.991 68.4074 141.494 66.4584 141.795C65.5171 141.971 64.5528 141.987 63.6063 141.841C63.0104 141.74 62.4345 141.544 61.9003 141.261C61.6249 141.12 61.3847 140.919 61.1979 140.672C61.0111 140.425 60.8823 140.139 60.8213 139.836C60.7602 139.533 60.7684 139.219 60.8452 138.919C60.922 138.62 61.0655 138.341 61.2649 138.104C61.4353 137.895 61.6236 137.701 61.8278 137.524C62.2137 137.179 62.6141 136.848 63.0058 136.509C64.0917 135.568 65.0254 134.465 65.7736 133.239C66.4631 132.126 67.2832 131.099 68.2166 130.181L68.6199 129.792C69.0319 129.409 69.5207 129.117 70.0539 128.937C70.5872 128.757 71.1526 128.692 71.7127 128.748C71.794 128.748 71.8781 128.765 71.9593 128.777C72.0719 128.784 72.1784 128.83 72.2605 128.907C72.3425 128.985 72.3951 129.088 72.409 129.2C72.5203 129.656 72.7382 130.078 73.045 130.433C73.3517 130.787 73.7384 131.064 74.1731 131.24ZM60.2321 129.125C60.4207 129.444 60.6208 129.76 60.8123 130.085C60.8568 130.167 60.9172 130.24 60.9899 130.299C61.0626 130.357 61.1462 130.401 61.2359 130.427C62.5212 130.819 63.8239 131.04 65.1615 130.718C65.6689 130.6 66.1469 130.38 66.5657 130.071C66.7313 129.961 66.8683 129.814 66.9652 129.641C67.0622 129.468 67.1162 129.274 67.1228 129.075C67.1228 128.974 67.1402 128.869 67.1518 128.765C67.1837 128.475 67.262 128.425 67.4971 128.553C67.6621 128.641 67.8186 128.744 67.9642 128.861C68.3936 129.215 68.3936 129.331 67.9903 129.731C66.9629 130.733 66.0617 131.856 65.3065 133.076C64.5415 134.322 63.5759 135.433 62.4487 136.364C62.0019 136.735 61.5638 137.121 61.1431 137.524C60.8388 137.81 60.6071 138.165 60.4674 138.558C60.3276 138.952 60.2837 139.373 60.3394 139.787C60.3635 140.183 60.4949 140.565 60.7195 140.893C60.7775 140.974 60.8617 141.046 60.8442 141.162C60.8268 141.278 60.705 141.235 60.6266 141.244C59.5125 141.36 58.3984 141.482 57.2814 141.589C55.2308 141.76 53.1709 141.792 51.116 141.685C49.8287 141.672 48.5443 141.558 47.2746 141.345C46.5589 141.218 45.8607 141.006 45.1943 140.716C44.9385 140.617 44.7185 140.444 44.5632 140.218C44.4078 139.992 44.3244 139.725 44.3239 139.451C44.319 139.094 44.4199 138.743 44.6141 138.444C45.037 137.719 45.6924 137.159 46.4738 136.854C46.8637 136.71 47.2631 136.594 47.6692 136.506C49.0577 136.196 50.3194 135.471 51.2872 134.428C51.8355 133.848 52.3781 133.285 52.9206 132.714C53.8781 131.701 54.85 130.709 55.8829 129.772C56.2019 129.474 56.5499 129.208 56.9216 128.98C57.4732 128.64 58.1108 128.467 58.7582 128.481C59.1738 128.504 59.5791 128.618 59.9448 128.817C60.0711 128.886 60.1718 128.994 60.2321 129.125ZM59.3965 125.098C59.3723 124.976 59.3597 124.853 59.3588 124.729C59.3588 124.471 59.3588 124.337 59.7011 124.439C60.9248 124.827 62.1916 125.063 63.4729 125.141C64.2796 125.207 65.0916 125.164 65.8868 125.013C65.927 125.005 65.9677 124.999 66.0087 124.996C66.0331 124.989 66.0588 124.987 66.0841 124.99C66.1094 124.993 66.1337 125.002 66.1553 125.015C66.177 125.029 66.1956 125.047 66.2098 125.068C66.224 125.089 66.2336 125.113 66.2379 125.138C66.4224 125.797 66.5467 126.471 66.6092 127.152C66.6295 127.628 66.705 128.098 66.7195 128.576C66.7371 128.857 66.6662 129.137 66.5169 129.376C66.3676 129.615 66.1472 129.801 65.8868 129.908C65.2214 130.242 64.4804 130.397 63.7369 130.358C63.0681 130.34 62.403 130.253 61.7524 130.097C61.4878 130.037 61.2568 129.877 61.1083 129.65C60.7395 129.098 60.433 128.508 60.1943 127.889C59.8338 126.988 59.5665 126.053 59.3965 125.098ZM70.1025 123.426C70.6851 123.693 71.2874 123.914 71.9042 124.088C72.1943 124.189 72.2118 124.198 72.1943 124.532C72.1769 124.866 72.1305 125.193 72.1276 125.524C72.1301 126.352 72.1804 127.18 72.2785 128.002C72.3104 128.292 72.2988 128.307 72.0464 128.275C70.8891 128.114 69.713 128.381 68.7388 129.026C68.4134 128.541 67.9324 128.182 67.3752 128.008C67.3049 127.992 67.2424 127.951 67.1985 127.894C67.1545 127.837 67.1319 127.766 67.1344 127.694C67.1344 127.57 67.117 127.445 67.1083 127.32C67.0769 126.699 66.9796 126.084 66.8181 125.483C66.7748 125.324 66.7428 125.163 66.7224 124.999C66.7127 124.948 66.723 124.895 66.751 124.851C66.7791 124.808 66.8228 124.776 66.8733 124.764C67.8444 124.405 68.7871 123.973 69.6934 123.473C69.751 123.429 69.8194 123.401 69.8915 123.393C69.9635 123.385 70.0365 123.396 70.1025 123.426ZM55.0473 108.13C54.998 105.615 55.0676 103.105 55.2214 100.587C55.2824 99.5918 55.323 98.5966 55.3897 97.6015C55.5145 95.7359 55.6305 93.8703 55.909 92.0222C56.1022 90.6649 56.4708 89.3386 57.0058 88.0763C57.51 86.8639 58.298 85.7902 59.3036 84.9458C59.9293 84.4307 60.6456 84.0371 61.4158 83.7852C61.9744 83.6198 62.5615 83.5733 63.1392 83.6489C63.7604 83.7033 64.3752 83.815 64.9758 83.9825C65.9555 84.2519 66.9053 84.6203 67.8104 85.0821C68.7611 85.596 69.6231 86.2592 70.3636 87.0463C70.493 87.1819 70.6078 87.3307 70.7059 87.4902C70.8108 87.6174 70.8708 87.7756 70.8766 87.9403C70.8823 88.1051 70.8336 88.2671 70.7379 88.4013C70.4608 88.8652 70.2517 89.3664 70.117 89.8897C69.5523 91.6704 69.1636 93.5022 68.9564 95.3587C68.7069 97.6334 68.6257 99.9139 68.5822 102.197C68.5357 104.75 68.44 107.307 68.5996 109.86C68.704 111.537 68.7707 113.219 68.9274 114.894C69.0406 116.092 69.116 117.293 69.2176 118.494C69.3481 119.878 69.5077 121.259 69.6441 122.643C69.6731 122.933 69.6818 122.933 69.4148 123.07C68.6861 123.466 67.9364 123.822 67.1692 124.137C66.1961 124.524 65.1582 124.721 64.1112 124.718C63.1004 124.688 62.0948 124.562 61.1083 124.34C59.5458 123.961 58.027 123.42 56.5764 122.727C56.4821 122.691 56.3999 122.63 56.3393 122.549C56.2787 122.468 56.2422 122.372 56.234 122.272C56.0686 121.079 55.8539 119.893 55.7001 118.7C55.5783 117.734 55.4825 116.759 55.4361 115.784C55.2998 113.231 55.0996 110.684 55.0473 108.13ZM126.984 132.502C126.548 133.26 125.985 133.938 125.318 134.504C124.521 135.201 123.658 135.82 122.742 136.352C120.962 137.379 119.099 138.252 117.171 138.963C114.277 140.051 111.319 140.96 108.313 141.685C105.009 142.503 101.672 143.167 98.3152 143.716C96.2059 144.067 94.0909 144.386 91.97 144.659C89.9535 144.917 87.9284 145.137 85.9032 145.337C83.6324 145.564 81.3559 145.751 79.0735 145.9C77.1063 146.031 75.1334 146.101 73.1605 146.19C70.5667 146.321 67.97 146.344 65.3733 146.379C62.3413 146.423 59.3065 146.341 56.2746 146.248C54.6557 146.202 53.0367 146.121 51.4206 146.028C49.9468 145.941 48.4787 145.828 47.0077 145.706C45.4555 145.578 43.9032 145.448 42.3655 145.279C40.8597 145.117 39.3568 144.923 37.8568 144.714C36.4061 144.513 34.9787 144.299 33.5483 144.052C29.1673 143.295 24.8442 142.335 20.646 140.82C19.1743 140.311 17.742 139.694 16.3607 138.975C15.4779 138.511 14.6406 137.965 13.8597 137.344C13.2517 136.872 12.7152 136.314 12.2669 135.688C11.8594 135.133 11.598 134.484 11.5067 133.802C11.4228 133.032 11.5777 132.255 11.9506 131.576C12.3407 130.864 12.8466 130.222 13.4477 129.676C14.3053 128.889 15.2461 128.199 16.2533 127.616C17.9226 126.644 19.6693 125.813 21.4758 125.13C24.5032 123.973 27.6026 123.015 30.7543 122.26C34.0386 121.448 37.3549 120.786 40.6943 120.229C42.9651 119.856 45.2408 119.528 47.5212 119.246C49.5812 118.984 51.645 118.758 53.7127 118.567C54.0841 118.532 54.4584 118.529 54.8326 118.5C55.146 118.477 55.1721 118.5 55.2214 118.805C55.4129 120.014 55.6073 121.224 55.7872 122.434C55.7968 122.568 55.8434 122.698 55.9217 122.807C56 122.917 56.1071 123.002 56.2311 123.055C56.7446 123.281 57.2466 123.531 57.7543 123.76C57.9602 123.86 58.1748 123.941 58.3955 124.001C58.5289 124.019 58.6503 124.087 58.7349 124.192C58.8196 124.297 58.8611 124.43 58.851 124.564C58.8883 125.019 58.9649 125.471 59.0802 125.913C59.2545 126.676 59.4853 127.424 59.7707 128.153C59.399 128.061 59.0189 128.008 58.6363 127.993C57.9258 127.988 57.2292 128.189 56.6315 128.573C56.1603 128.878 55.7201 129.228 55.3172 129.618C54.2185 130.662 53.1547 131.742 52.1257 132.856C51.7021 133.312 51.2698 133.761 50.8288 134.202C49.973 135.09 48.8771 135.709 47.675 135.983C47.35 136.056 47.0309 136.146 46.7118 136.239C45.7244 136.526 44.873 137.158 44.3123 138.02C44.0602 138.38 43.9108 138.801 43.88 139.239C43.8383 139.613 43.9145 139.992 44.0981 140.321C44.2817 140.65 44.5635 140.914 44.9042 141.075C45.3513 141.297 45.8212 141.469 46.3056 141.589C47.3118 141.849 48.3426 142.004 49.381 142.05C51.1856 142.134 52.9903 142.256 54.7978 142.184C55.7321 142.146 56.6663 142.105 57.5976 142.01C58.6914 141.896 59.7911 141.833 60.882 141.682C61.3048 141.614 61.7381 141.681 62.1208 141.873C63.0584 142.278 64.0783 142.456 65.0976 142.393C65.9891 142.34 66.8754 142.222 67.7495 142.039C69.7253 141.696 71.5967 141.017 73.4622 140.321C75.203 139.669 76.9439 139.005 78.6847 138.328C79.0727 138.179 79.4515 138.008 79.8191 137.814C80.5132 137.471 81.0996 136.944 81.514 136.29C81.9285 135.636 82.1552 134.88 82.1692 134.106C82.2153 133.213 82.1173 132.317 81.8791 131.454C81.6586 130.633 81.4061 129.821 81.1392 129.014C80.9771 128.477 80.6987 127.982 80.3239 127.564C80.2332 127.479 80.1722 127.367 80.1499 127.245C80.0528 126.409 79.8898 125.583 79.6624 124.773L80.6953 124.674C81.1508 124.633 81.6063 124.604 82.0618 124.549C82.2875 124.523 82.5161 124.558 82.7234 124.651C83.2586 124.879 83.7807 125.136 84.2872 125.423C84.9947 125.815 85.723 126.169 86.469 126.482C87.0913 126.714 87.7359 126.881 88.3926 126.981C89.469 127.204 90.557 127.372 91.6421 127.561C91.9081 127.604 92.1765 127.629 92.4458 127.636C93.0696 127.636 93.6934 127.636 94.3172 127.66C96.106 127.671 97.8831 127.371 99.5686 126.772C101.153 126.247 102.582 125.338 103.729 124.126C104.648 123.162 105.447 122.09 106.108 120.934C106.265 120.664 106.398 120.392 106.57 120.122C106.691 119.91 106.738 119.881 106.967 119.933C107.355 120.003 107.737 120.1 108.11 120.223C109.095 120.556 110.101 120.822 111.122 121.018C114.138 121.696 117.097 122.609 119.971 123.748C121.203 124.246 122.395 124.837 123.537 125.518C124.306 125.973 125.027 126.506 125.687 127.108C126.15 127.526 126.554 128.006 126.888 128.533C127.278 129.116 127.494 129.798 127.511 130.499C127.528 131.2 127.345 131.892 126.984 132.493V132.502Z" fill="#4B2D3A"/>
<path d="M65.1092 48.4526H65.3646C65.3065 48.5281 65.2427 48.6151 65.1354 48.5948C65.028 48.5745 65.0106 48.5223 65.1092 48.4526Z" fill="#6F5B5B"/>
<path d="M65.1092 140.632C64.5974 140.643 64.0858 140.601 63.5831 140.504C63.3336 140.443 63.2175 140.327 63.2756 140.214C63.3568 140.043 63.5135 140.083 63.6527 140.095C64.0433 140.151 64.4365 140.187 64.8307 140.202C66.1827 140.174 67.5197 139.912 68.7823 139.428C69.21 139.267 69.6284 139.083 70.0357 138.876C71.4819 138.148 72.8899 137.346 74.2543 136.474C74.6411 136.224 75.028 135.98 75.4148 135.74C76.3745 135.152 77.44 134.758 78.5512 134.579C78.6901 134.535 78.8382 134.528 78.9806 134.559C79.085 134.597 79.1721 134.649 79.1692 134.774C79.169 134.815 79.1549 134.856 79.1292 134.888C79.1034 134.921 79.0674 134.944 79.027 134.954C78.8678 135.001 78.706 135.038 78.5425 135.067C77.3723 135.264 76.257 135.706 75.2698 136.364C73.7786 137.346 72.2389 138.252 70.6566 139.079C69.376 139.772 67.9915 140.252 66.557 140.501C66.077 140.57 65.5938 140.614 65.1092 140.632Z" fill="#030200"/>
<path d="M56.3501 140.17C54.7536 140.178 53.1583 140.081 51.5745 139.88C50.3849 139.723 49.1924 139.57 48.0116 139.352C47.8691 139.329 47.7292 139.292 47.5938 139.242C47.5683 139.236 47.5443 139.225 47.5233 139.21C47.5024 139.194 47.485 139.175 47.4724 139.152C47.4597 139.129 47.4521 139.104 47.45 139.078C47.448 139.052 47.4515 139.026 47.4603 139.001C47.4734 138.962 47.4981 138.927 47.5313 138.902C47.5645 138.877 47.6046 138.863 47.646 138.862C47.7076 138.853 47.7701 138.853 47.8317 138.862C49.4449 139.152 51.0696 139.346 52.6973 139.523C54.202 139.687 55.7163 139.745 57.2292 139.697C57.499 139.697 57.7688 139.683 58.0387 139.683C58.1417 139.683 58.2446 139.692 58.3462 139.709C58.3877 139.715 58.4258 139.735 58.4543 139.765C58.4828 139.796 58.5 139.835 58.5029 139.877C58.5087 139.918 58.5008 139.96 58.4804 139.997C58.4599 140.033 58.428 140.061 58.3897 140.077C58.2153 140.146 58.0286 140.177 57.8414 140.17H56.3501Z" fill="#050300"/>
<path d="M75.9284 68.9593C75.9284 69.1189 75.7543 69.232 75.6383 69.1798C75.549 69.1292 75.4637 69.072 75.383 69.0086C74.7835 68.5901 74.0814 68.3423 73.352 68.292C72.8976 68.233 72.4359 68.3076 72.0232 68.5067C71.91 68.5618 71.7824 68.5937 71.6866 68.4748C71.5909 68.3558 71.6866 68.2078 71.8346 68.1208C72.2365 67.9003 72.691 67.794 73.1489 67.8133C73.9596 67.816 74.7535 68.0451 75.441 68.4748C75.5779 68.5662 75.7052 68.6712 75.8211 68.7881C75.8696 68.8361 75.9064 68.8947 75.9284 68.9593Z" fill="#0B0707"/>
<path d="M70.3143 58.9672C70.0559 58.9708 69.7998 58.9193 69.5628 58.8163C69.4944 58.7747 69.4336 58.7217 69.383 58.6597C69.3712 58.6374 69.3646 58.6128 69.3636 58.5876C69.3627 58.5624 69.3674 58.5373 69.3774 58.5142C69.3874 58.4911 69.4025 58.4705 69.4216 58.454C69.4406 58.4375 69.4631 58.4255 69.4874 58.4189C69.5846 58.4107 69.6824 58.4176 69.7775 58.4392C70.0775 58.5211 70.3912 58.54 70.6988 58.4946C71.0065 58.4491 71.3013 58.3404 71.5648 58.1752C71.8129 58.0278 72.0522 57.866 72.2814 57.6906C72.3684 57.6326 72.4468 57.5659 72.5338 57.5108C72.5658 57.4848 72.6058 57.4707 72.647 57.4707C72.6882 57.4707 72.7281 57.4848 72.7601 57.5108C72.8031 57.5398 72.8342 57.5834 72.8475 57.6335C72.8608 57.6837 72.8556 57.7369 72.8327 57.7835C72.8203 57.8232 72.7995 57.8598 72.7717 57.8908C72.1265 58.5595 71.2433 58.9463 70.3143 58.9672Z" fill="#0C0808"/>
<path d="M77.3472 59.1469C77.1122 59.1237 76.9265 59.1034 76.7408 59.0889C75.8356 59.028 75.2292 58.5087 74.7534 57.7891C74.7329 57.7529 74.7182 57.7138 74.7098 57.6731C74.6968 57.634 74.6972 57.5917 74.7108 57.5528C74.7245 57.5139 74.7507 57.4807 74.7853 57.4584C74.8188 57.4334 74.8595 57.4199 74.9013 57.4199C74.9431 57.4199 74.9838 57.4334 75.0174 57.4584C75.0905 57.5296 75.1593 57.6052 75.2234 57.6847C75.3405 57.8288 75.4654 57.9663 75.5977 58.0967C75.8792 58.3735 76.2465 58.5464 76.6392 58.587L77.3181 58.6479C77.4206 58.6515 77.5226 58.6641 77.6228 58.6856C77.6738 58.6942 77.7197 58.7216 77.7514 58.7625C77.7831 58.8033 77.7983 58.8546 77.794 58.9061C77.7907 58.9579 77.77 59.007 77.7352 59.0455C77.7004 59.084 77.6537 59.1095 77.6025 59.1179C77.5185 59.1357 77.433 59.1455 77.3472 59.1469Z" fill="#0E0B0B"/>
<path d="M72.8443 64.3316C72.8738 64.1071 72.9488 63.8908 73.0648 63.6962C73.0866 63.6604 73.1212 63.6341 73.1616 63.6228C73.202 63.6115 73.2452 63.616 73.2824 63.6353C73.3636 63.6701 73.4333 63.7311 73.4217 63.8181C73.4014 63.9806 73.3491 64.1402 73.3259 64.3026C73.3115 64.3475 73.307 64.3949 73.3128 64.4417C73.3185 64.4884 73.3344 64.5333 73.3592 64.5734C73.3841 64.6134 73.4173 64.6475 73.4566 64.6734C73.496 64.6993 73.5405 64.7163 73.587 64.7233C73.7263 64.7611 73.8772 64.764 74.0135 64.793C74.054 64.802 74.0903 64.8244 74.1166 64.8565C74.1429 64.8885 74.1577 64.9285 74.1586 64.9699C74.1608 65.0121 74.1504 65.0539 74.1287 65.0901C74.107 65.1263 74.075 65.1552 74.0367 65.173C73.5435 65.4255 72.824 64.9583 72.8443 64.3316Z" fill="#131010"/>
</svg>
