<svg width="150" height="147" viewBox="0 0 150 147" fill="none" xmlns="http://www.w3.org/2000/svg">
<path d="M145.306 58.6631C143.629 58.7012 141.954 58.7833 140.277 58.8331C137.882 58.9064 135.483 58.9475 133.091 59.1263C131.499 59.2436 129.898 59.311 128.303 59.4019C126.707 59.4928 125.112 59.6336 123.52 59.7802C120.664 60.047 117.809 60.3109 114.965 60.6891C110.86 61.2286 106.843 62.0643 103.007 63.6535C102.163 63.968 101.391 64.4486 100.735 65.0667C100.462 65.3235 100.27 65.6547 100.183 66.0195C100.096 66.3843 100.117 66.7667 100.245 67.1192C100.518 67.8731 100.876 68.5933 101.313 69.2655C102.512 71.3648 101.996 72.9276 99.7529 73.9069C98.2866 74.5072 96.7444 74.9019 95.17 75.0798C91.9037 75.5167 88.6256 75.8099 85.3329 76.0532C80.6943 76.408 76.0528 76.2966 71.4114 76.4109C66.3946 76.5341 61.3807 76.5136 56.3669 76.4813C52.7399 76.4579 49.11 76.3846 45.4859 76.235C43.1879 76.1462 40.8864 76.2442 38.6043 76.5282C37.9028 76.605 37.2168 76.7869 36.5694 77.0677C35.5432 77.5251 35.3087 78.1526 35.7719 79.173C36.3085 80.3458 36.0651 81.07 34.8747 81.6301C34.2506 81.9088 33.5963 82.1145 32.9249 82.2429C30.6641 82.6882 28.3789 82.9995 26.0814 83.1753C23.6947 83.404 21.3109 83.703 18.9212 83.92C15.5992 84.2132 12.2889 84.6384 8.96977 84.958C6.52246 85.1925 4.07906 85.4369 1.63956 85.691C1.15678 85.7876 0.655669 85.7249 0.211641 85.5121H0.106086L0.044512 85.5942C-0.0522467 85.9695 0.0738327 86.1543 0.47846 86.1191C0.674523 86.1296 0.871155 86.1188 1.06488 86.0868L5.26068 85.6734C6.6974 85.5327 8.13412 85.3978 9.57084 85.2482C10.814 85.1192 12.0543 84.9785 13.2975 84.8436C14.2475 84.741 15.1975 84.6354 16.1475 84.5504C17.0975 84.4654 18.0534 84.3833 19.0063 84.2836C20.5955 84.1135 22.1847 83.9229 23.7768 83.7529C25.7178 83.5476 27.6589 83.3629 29.5999 83.1459C30.9766 82.9962 32.342 82.7563 33.6872 82.4276C34.163 82.3184 34.6259 82.1591 35.0682 81.9526C35.4973 81.7595 35.8712 81.4622 36.156 81.0876C36.3413 80.8576 36.4546 80.5779 36.4818 80.2838C36.5089 79.9896 36.4486 79.694 36.3085 79.4339C36.2059 79.2228 36.0827 79.0234 35.9889 78.8094C35.7397 78.2552 35.8482 77.9004 36.3671 77.5662C36.6525 77.3977 36.9579 77.2657 37.2761 77.1733C38.1371 76.9266 39.0215 76.7703 39.9149 76.7071C41.4515 76.5757 42.9943 76.5306 44.5359 76.5722C47.0165 76.6191 49.496 76.6719 51.9746 76.7305C54.6135 76.7951 57.2846 76.8771 59.9411 76.8625C62.5184 76.8625 65.0957 76.842 67.673 76.8302H68.1421C68.4969 76.8302 68.4998 76.8302 68.5555 77.1645L68.8487 78.8387C69.1419 80.598 69.4351 82.3484 69.7284 84.0901C70.0216 85.8317 70.3148 87.5822 70.608 89.3414C70.7761 90.3422 70.9452 91.3421 71.1152 92.3409C71.1545 92.5713 71.1281 92.8081 71.039 93.0241C70.8689 93.4405 70.7458 93.8686 70.5933 94.2937C70 96.0494 69.5384 97.8468 69.2123 99.6712C68.9719 101.076 68.793 102.489 68.6259 103.902C68.4441 105.436 68.3327 106.972 68.2095 108.508C68.101 109.93 68.0277 111.353 67.9163 112.775C67.7668 114.78 67.6876 116.792 67.6231 118.8C67.5791 120.07 67.5615 121.336 67.5234 122.612C67.4677 124.406 67.4032 126.204 67.3416 127.998C67.3416 128.212 67.3152 128.426 67.3035 128.64C67.2449 129.672 67.1774 130.707 67.1335 131.739C67.1002 132.426 67.1424 133.114 67.2595 133.792C67.4208 134.701 67.7404 135.522 68.5555 136.055C68.598 136.078 68.6335 136.112 68.6582 136.153C68.683 136.195 68.6962 136.242 68.6963 136.29C68.7267 136.799 68.8572 137.297 69.0804 137.756C69.183 137.979 69.1742 137.982 68.9836 138.146C68.2219 138.758 67.3817 139.264 66.4855 139.653C64.6669 140.541 62.6296 140.881 60.6213 140.632C60.1323 140.572 59.6366 140.594 59.1553 140.7C58.8117 140.774 58.4939 140.938 58.2346 141.175C57.2553 142.054 57.3081 143.729 57.9707 144.614C58.261 145.007 58.6263 145.34 59.0454 145.591C59.4646 145.843 59.9294 146.009 60.4131 146.08C61.6665 146.283 62.9346 146.381 64.2043 146.373C65.9636 146.373 67.7228 146.312 69.4821 146.233C70.9862 146.165 72.4786 146.007 73.9681 145.819C74.4524 145.755 74.9315 145.657 75.4019 145.526C75.7078 145.456 75.9907 145.309 76.224 145.099C76.4574 144.889 76.6336 144.623 76.736 144.327C77.0371 143.519 77.1446 142.653 77.0498 141.796C76.9361 141.064 76.7705 140.341 76.5542 139.632C76.4041 139.087 76.1977 138.558 75.9385 138.055C75.8828 137.941 75.8124 137.818 75.9209 137.677C76.2176 137.238 76.3769 136.72 76.3783 136.19C76.5161 134.771 76.6246 133.349 76.7507 131.93C76.8357 130.997 76.9296 130.065 77.0263 129.133C77.1582 127.872 77.3019 126.611 77.4339 125.35C77.5658 124.09 77.6743 122.744 77.8385 121.448C78.1317 119.102 78.2636 116.756 78.3721 114.384C78.4308 113.056 78.4777 111.731 78.5305 110.403C78.5305 110.247 78.5305 110.092 78.5569 109.936C78.5832 109.658 78.6008 109.626 78.8706 109.643C79.6324 109.638 80.3931 109.587 81.1488 109.491C82.5679 109.352 83.989 109.254 85.4121 109.197C87.1097 109.121 88.8045 109.033 90.4963 108.872C91.8363 108.746 93.1791 108.62 94.5191 108.508C96.5716 108.335 98.6475 108.233 100.709 108.042C102.468 107.881 104.227 107.655 105.986 107.432C106.374 107.387 106.753 107.289 107.112 107.139C107.277 107.077 107.425 106.978 107.545 106.85C107.666 106.722 107.755 106.568 107.807 106.4C107.939 106.002 107.995 105.981 108.394 106.107C108.563 106.154 108.728 106.216 108.886 106.292C110.414 107.081 111.657 108.162 112.437 109.734C112.947 110.765 113.35 111.846 113.639 112.959C113.763 113.471 113.953 113.963 114.205 114.425C114.37 114.742 114.625 115.002 114.938 115.173C115.252 115.344 115.609 115.417 115.964 115.384C116.738 115.352 117.621 114.997 117.897 113.898C118.033 113.349 118.125 112.79 118.172 112.226C118.255 111.447 118.26 110.661 118.187 109.881C118.062 108.697 117.833 107.526 117.504 106.383C117.152 105.186 116.815 103.984 116.457 102.788C116.221 101.962 115.874 101.172 115.425 100.439C115.181 100.036 114.855 99.6884 114.469 99.4183C114.083 99.1482 113.644 98.9617 113.182 98.8707C112.286 98.6717 111.37 98.5733 110.452 98.5775C109.668 98.6021 108.907 98.8448 108.253 99.2783C107.806 99.5694 107.445 99.9742 107.206 100.451C107.153 100.551 107.142 100.683 107.013 100.712C106.816 100.653 106.634 100.586 106.444 100.542C105.888 100.437 105.326 100.374 104.761 100.354C102.708 100.211 100.621 100.243 98.5536 100.155C95.7652 100.035 92.9827 99.9673 90.1826 99.894C89.2073 99.8636 88.2349 99.7725 87.271 99.6213C86.79 99.5383 86.3172 99.4137 85.8577 99.2489C85.5753 99.1637 85.3251 98.9953 85.14 98.7656C84.9548 98.536 84.8432 98.2558 84.8198 97.9617C84.7743 97.6521 84.7537 97.3393 84.7582 97.0264C84.7875 96.3432 84.808 95.663 84.8374 94.9739C84.8726 94.2145 84.7641 94.4403 85.2244 93.8011C86.1627 92.4787 87.0599 91.13 87.9454 89.7754C88.9188 88.3134 89.7832 86.7816 90.5315 85.1925C91.3129 83.6152 91.7875 81.9038 91.9301 80.1493C92.0063 78.7742 91.9858 77.4167 91.5313 76.0972C91.5108 76.0327 91.4697 75.9506 91.5606 75.8773C91.6046 75.8773 91.6574 75.8539 91.716 75.8451C92.8889 75.6955 94.0793 75.5518 95.258 75.3964C96.3784 75.2408 97.4865 75.0066 98.5742 74.6957C99.2129 74.5155 99.8303 74.2668 100.416 73.9539C101 73.6402 101.502 73.1932 101.882 72.6491C102.156 72.2891 102.327 71.8619 102.379 71.4124C102.431 70.963 102.36 70.508 102.175 70.0952C102.06 69.8284 101.914 69.5733 101.773 69.3153C101.497 68.8227 101.21 68.336 100.94 67.8493C100.763 67.5235 100.624 67.1781 100.527 66.8201C100.452 66.5645 100.448 66.2936 100.514 66.0356C100.58 65.7777 100.714 65.5423 100.902 65.3541C101.182 65.0536 101.51 64.8019 101.873 64.6093C102.603 64.1964 103.365 63.8425 104.151 63.5508C106.979 62.5391 109.897 61.7998 112.865 61.343C113.886 61.1788 114.918 61.0498 115.938 60.912C117.137 60.7624 118.342 60.6393 119.544 60.5161C120.477 60.4194 121.409 60.3343 122.342 60.2464C123.412 60.1467 124.479 60.0323 125.549 59.9532C126.951 59.8447 128.352 59.7597 129.757 59.66C132.249 59.4958 134.741 59.3492 137.242 59.2641C140.676 59.1498 144.112 59.0853 147.543 58.8771C148.264 58.836 148.985 58.7862 149.704 58.7364C149.802 58.7361 149.897 58.7019 149.974 58.6396V58.1705C149.698 58.359 149.369 58.4564 149.035 58.449C147.798 58.5487 146.549 58.6396 145.306 58.6631ZM112.824 99.3721C112.999 99.3836 113.173 99.4161 113.34 99.4688C114.013 99.6902 114.589 100.135 114.973 100.73C115.349 101.301 115.645 101.922 115.853 102.574C116.422 104.518 117.087 106.435 117.454 108.438C117.747 109.973 117.772 111.547 117.53 113.091C117.471 113.358 117.407 113.622 117.328 113.883C117.276 114.051 117.188 114.206 117.068 114.335C116.949 114.465 116.802 114.566 116.639 114.631C116.297 114.78 115.917 114.821 115.551 114.748C115.405 114.728 115.264 114.678 115.14 114.599C115.015 114.521 114.908 114.417 114.827 114.293C114.712 114.115 114.61 113.927 114.504 113.739C114.472 113.698 114.448 113.65 114.434 113.599C114.421 113.548 114.417 113.495 114.425 113.442C114.432 113.39 114.45 113.34 114.477 113.295C114.505 113.249 114.541 113.21 114.583 113.179C115.024 112.733 115.323 112.165 115.44 111.549C115.719 110.288 115.738 108.983 115.495 107.714C115.371 106.944 115.197 106.183 114.976 105.436C114.78 104.764 114.613 104.081 114.428 103.404C114.07 102.146 113.561 100.937 112.912 99.8031C112.851 99.7037 112.795 99.6009 112.745 99.4952C112.739 99.4819 112.737 99.4675 112.738 99.453C112.739 99.4386 112.744 99.4246 112.752 99.4125C112.759 99.4003 112.77 99.3902 112.783 99.3832C112.795 99.3761 112.81 99.3723 112.824 99.3721ZM107.737 100.606C108.022 100.136 108.44 99.7602 108.939 99.5275C109.463 99.2622 110.047 99.135 110.634 99.158C110.962 99.1874 111.296 99.1815 111.628 99.1903C111.753 99.1918 111.875 99.2295 111.979 99.2987C112.083 99.3678 112.164 99.4656 112.214 99.5803C113.059 101.079 113.704 102.682 114.135 104.348C114.287 104.993 114.484 105.629 114.66 106.268C114.92 107.327 115.091 108.406 115.17 109.494C115.184 109.788 115.162 110.084 115.105 110.373C115.045 110.857 114.955 111.337 114.835 111.81C114.714 112.195 114.502 112.546 114.217 112.833C114.129 112.54 114.067 112.352 114.017 112.165C113.729 111.13 113.324 110.132 112.809 109.189C112.144 107.941 111.138 106.907 109.91 106.207L109.358 105.875C109.344 105.875 109.338 105.843 109.306 105.79C109.68 105.657 110.045 105.496 110.396 105.31C110.768 105.132 111.08 104.849 111.294 104.497C111.722 103.717 111.739 102.82 111 102.084C110.258 101.349 109.273 100.91 108.23 100.85C108.112 100.85 107.995 100.85 107.878 100.85C107.76 100.85 107.652 100.733 107.737 100.606ZM108.101 101.334C108.925 101.384 109.712 101.691 110.352 102.213C110.458 102.302 110.556 102.401 110.646 102.506C110.795 102.662 110.907 102.849 110.973 103.055C111.039 103.26 111.057 103.478 111.026 103.691C110.995 103.904 110.915 104.108 110.794 104.286C110.672 104.464 110.511 104.611 110.323 104.717C109.646 105.101 108.898 105.342 108.124 105.424C108.101 105.432 108.076 105.433 108.052 105.429C108.028 105.424 108.006 105.414 107.987 105.398C107.968 105.383 107.954 105.363 107.945 105.34C107.936 105.317 107.933 105.293 107.936 105.268C107.936 104.682 107.936 104.096 107.936 103.509C107.936 103.392 107.936 103.278 107.936 103.16C107.936 102.559 108.007 101.952 107.669 101.427C107.727 101.377 107.797 101.341 107.873 101.325C107.948 101.308 108.027 101.311 108.101 101.334ZM76.2141 144.165C76.139 144.368 76.0142 144.548 75.8513 144.689C75.6883 144.831 75.4925 144.929 75.2817 144.975C74.924 145.063 74.5634 145.151 74.1968 145.203C72.2852 145.47 70.3612 145.638 68.4324 145.708C66.9106 145.769 65.3918 145.825 63.8701 145.802C62.6808 145.796 61.4945 145.684 60.3252 145.467C59.5882 145.334 58.9281 144.929 58.475 144.333C58.1749 143.944 58.0138 143.466 58.0176 142.975C58.0176 142.79 58.0821 142.746 58.2786 142.793C58.9207 142.955 59.5599 143.128 60.205 143.274C61.8608 143.64 63.537 143.908 65.2247 144.075C66.9505 144.253 68.6858 144.321 70.4203 144.28C71.5906 144.257 72.7568 144.136 73.9066 143.916C74.8276 143.774 75.7086 143.441 76.4927 142.937C76.474 143.36 76.3796 143.776 76.2141 144.165ZM75.9209 139.348C76.1056 139.984 76.2669 140.626 76.434 141.269C76.4546 141.342 76.4663 141.421 76.4897 141.494C76.6598 142.04 76.4047 142.392 75.9678 142.667C75.4279 142.984 74.838 143.207 74.2232 143.327C73.3074 143.524 72.3784 143.655 71.4436 143.717C69.8264 143.824 68.2036 143.812 66.5881 143.682C63.9596 143.506 61.3539 143.08 58.8064 142.409C58.6539 142.368 58.5131 142.324 58.3577 142.274C58.3269 142.268 58.2983 142.254 58.2748 142.233C58.2514 142.212 58.234 142.185 58.2244 142.155C58.2148 142.125 58.2134 142.093 58.2204 142.063C58.2273 142.032 58.2424 142.004 58.2639 141.981C58.3671 141.782 58.5127 141.607 58.6905 141.47C58.8683 141.333 59.0739 141.236 59.2931 141.186C59.7757 141.088 60.2717 141.075 60.7591 141.145C62.6434 141.365 64.5523 141.079 66.289 140.316C67.362 139.895 68.3584 139.3 69.2387 138.556C69.2948 138.514 69.3536 138.474 69.4146 138.439C69.5583 138.486 69.614 138.595 69.7078 138.68C70.1908 139.211 70.8256 139.58 71.5261 139.738C72.2265 139.895 72.9584 139.833 73.6222 139.559C74.2055 139.331 74.737 138.988 75.185 138.551L75.3873 138.36C75.5485 138.392 75.5749 138.515 75.6189 138.618C75.7334 138.855 75.8324 139.099 75.915 139.348H75.9209ZM69.2973 136.504C69.3618 136.419 69.4351 136.489 69.5026 136.504C70.1066 136.724 70.6989 136.97 71.3234 137.134C72.4495 137.449 73.6032 137.655 74.7686 137.75H74.8272C74.8829 137.75 74.9475 137.75 74.9738 137.818C74.9829 137.845 74.9838 137.874 74.9765 137.901C74.9692 137.929 74.954 137.954 74.9328 137.973C74.4345 138.528 73.7856 138.926 73.0651 139.119C72.8021 139.2 72.5279 139.239 72.2529 139.234C71.7233 139.233 71.2038 139.089 70.7495 138.817C70.2952 138.545 69.9231 138.155 69.6726 137.689C69.503 137.382 69.3757 137.053 69.2944 136.712C69.2739 136.648 69.2416 136.566 69.2973 136.504ZM76.2581 131.519C76.2229 131.947 76.1731 132.373 76.1379 132.801C76.0646 133.654 76.0001 134.51 75.9238 135.363C75.8887 135.753 75.8505 136.14 75.7919 136.536C75.7553 136.728 75.7023 136.916 75.6336 137.099C75.6179 137.156 75.5825 137.206 75.5336 137.239C75.4847 137.272 75.4256 137.287 75.3667 137.281C75.0552 137.284 74.7438 137.267 74.4343 137.231C72.81 137.023 71.2182 136.612 69.6961 136.008C69.5554 135.947 69.4029 135.891 69.268 135.824C68.9112 135.663 68.5978 135.419 68.3536 135.113C68.1094 134.808 67.9414 134.448 67.8635 134.064C67.7277 133.475 67.6598 132.872 67.6612 132.267C67.6612 131.387 67.7228 130.479 67.758 129.587C67.8268 129.566 67.8996 129.561 67.9707 129.572C68.0418 129.583 68.1094 129.611 68.1685 129.652C69.6275 130.202 71.1459 130.579 72.6927 130.775C72.8871 130.8 73.0831 130.811 73.2791 130.81C74.1566 130.823 75.0319 130.902 75.8975 131.047C76.2933 131.103 76.3109 131.106 76.2581 131.519ZM101.363 101.07C101.386 100.818 101.43 100.777 101.7 100.777C102.497 100.791 103.301 100.777 104.095 100.838C104.796 100.854 105.495 100.914 106.189 101.017C106.521 101.055 106.828 101.211 107.054 101.458C107.279 101.705 107.407 102.026 107.414 102.36C107.444 102.688 107.414 103.023 107.414 103.354V104.055H107.391C107.391 104.541 107.391 105.028 107.391 105.521C107.391 105.579 107.391 105.638 107.391 105.697C107.341 106.342 107.221 106.5 106.596 106.682C106.298 106.772 105.993 106.838 105.684 106.881C104.758 107.004 103.831 107.116 102.902 107.227C102.708 107.251 102.515 107.262 102.316 107.277C102.066 107.277 102.066 107.277 102.022 107.037C101.802 105.57 101.58 104.104 101.368 102.638C101.308 102.12 101.306 101.597 101.363 101.079V101.07ZM85.6232 99.7239C86.3208 99.9741 87.0449 100.143 87.7812 100.228C89.3323 100.425 90.8951 100.448 92.4549 100.498L100.468 100.735C100.609 100.711 100.754 100.743 100.873 100.823C100.879 100.915 100.879 101.007 100.873 101.099C100.806 101.857 100.835 102.621 100.958 103.371C101.105 104.544 101.295 105.688 101.471 106.843C101.559 107.429 101.539 107.35 101.04 107.409C99.7617 107.558 98.4745 107.617 97.1902 107.717C95.906 107.816 94.5865 107.928 93.2818 108.033C91.6515 108.168 90.0184 108.327 88.3852 108.432C86.9455 108.532 85.5 108.576 84.0604 108.67C82.8553 108.749 81.6473 108.831 80.448 108.963C79.9056 109.03 79.3573 109.048 78.8149 109.086C78.7908 109.09 78.7662 109.089 78.7428 109.082C78.7194 109.075 78.6979 109.063 78.6798 109.047C78.6618 109.03 78.6476 109.01 78.6385 108.987C78.6294 108.965 78.6256 108.94 78.6272 108.916C78.6228 108.877 78.6228 108.838 78.6272 108.799C78.6648 107.149 78.8711 105.507 79.243 103.899C79.587 102.617 80.106 101.389 80.7852 100.249C81.6255 98.8422 82.5407 97.4817 83.5267 96.1732C83.7408 95.88 83.9577 95.5868 84.163 95.3141C84.3125 95.3581 84.2861 95.4519 84.2832 95.5193C84.2832 96.006 84.2539 96.4928 84.2451 96.9854C84.2207 97.3945 84.2463 97.8051 84.3213 98.208C84.3829 98.5551 84.536 98.8794 84.7649 99.1474C84.9938 99.4155 85.2901 99.6175 85.6232 99.7327V99.7239ZM91.1648 81.8001C90.9289 82.8099 90.5889 83.7925 90.1503 84.7322C89.5409 86.0828 88.8354 87.388 88.0392 88.6377C86.4969 91.0801 84.855 93.4581 83.1456 95.7861C82.2102 97.0587 81.3072 98.3546 80.4832 99.7063C79.4595 101.351 78.7627 103.178 78.4308 105.087C78.3135 105.796 78.2373 106.518 78.1757 107.236C78.1082 108.072 78.0731 108.91 78.032 109.749C77.9089 112.388 77.8121 115.026 77.6596 117.645C77.5805 118.991 77.4104 120.328 77.2726 121.668C77.1348 123.008 76.997 124.345 76.8562 125.685C76.7654 126.564 76.6715 127.444 76.5806 128.303C76.5073 128.983 76.4399 129.663 76.3695 130.355C76.349 130.546 76.2874 130.59 76.0968 130.552C75.2529 130.389 74.3964 130.301 73.5371 130.288C72.3677 130.234 71.2086 130.044 70.0831 129.722C69.4177 129.57 68.7649 129.367 68.1304 129.115C67.8372 128.986 67.8372 128.989 67.8372 128.702C67.8372 128.233 67.8577 127.763 67.887 127.297C68.0014 125.385 68.0365 123.486 68.0864 121.562C68.145 119.199 68.2037 116.838 68.3356 114.478C68.4118 113.077 68.5291 111.675 68.6288 110.274C68.6699 109.67 68.7139 109.066 68.752 108.462C68.8663 106.632 69.0452 104.805 69.2592 102.984C69.5875 99.7993 70.2963 96.6651 71.3703 93.6487C71.7603 92.5872 72.206 91.5463 72.6516 90.5084C73.4961 88.538 74.2848 86.5442 75.2289 84.6149C75.487 84.0901 75.7714 83.5799 76.047 83.0638C76.3018 82.5783 76.665 82.1579 77.1084 81.8353C77.2046 81.7676 77.2966 81.6942 77.384 81.6154C77.4292 81.5781 77.4588 81.5251 77.467 81.4671C77.4751 81.409 77.4612 81.35 77.428 81.3017C77.4105 81.2722 77.3873 81.2465 77.3599 81.226C77.3324 81.2055 77.3012 81.1906 77.268 81.1821C77.2348 81.1737 77.2002 81.1719 77.1663 81.1768C77.1324 81.1817 77.0997 81.1932 77.0703 81.2108C76.5888 81.5155 76.1739 81.9144 75.8505 82.3836C75.4858 82.9611 75.153 83.5582 74.8536 84.1722C74.1353 85.6235 73.5225 87.1189 72.8862 88.6084C72.4953 89.5213 72.1043 90.4351 71.7134 91.3499C71.6996 91.3665 71.6824 91.3799 71.6628 91.389C71.6433 91.3982 71.622 91.403 71.6005 91.403C71.5789 91.403 71.5576 91.3982 71.5381 91.389C71.5186 91.3799 71.5014 91.3665 71.4876 91.3499C71.169 89.4655 70.8504 87.5802 70.5317 85.6939C70.2014 83.7392 69.8701 81.7776 69.5378 79.8092C69.3765 78.868 69.2211 77.9239 69.0657 76.9827C69.066 76.9449 69.072 76.9074 69.0833 76.8713C69.2309 76.8196 69.3884 76.8026 69.5436 76.8214C71.1827 76.8214 72.8217 76.8009 74.4637 76.8214C76.7859 76.839 79.1081 76.7364 81.4274 76.6426C82.4624 76.5986 83.4945 76.5546 84.5266 76.4842C85.89 76.3904 87.2534 76.2761 88.6139 76.1676C89.2941 76.1148 89.9744 76.0474 90.6663 75.9917C90.9596 75.9682 90.9596 75.9917 91.0739 76.2849C91.241 76.7641 91.3397 77.2646 91.3671 77.7714C91.4966 79.1199 91.4285 80.4801 91.1648 81.8089V81.8001ZM149.525 48.2835C149.132 48.2835 148.742 48.2835 148.352 48.2835C141.5 48.2014 134.65 48.1339 127.801 48.4535C126.417 48.5181 125.034 48.608 123.652 48.7233C122.216 48.8406 120.779 48.9901 119.342 49.1426C117.829 49.3039 116.316 49.4563 114.806 49.6586C113.067 49.8903 111.332 50.16 109.599 50.4268C107.253 50.7875 104.907 51.2068 102.585 51.7345C100.814 52.1188 99.0715 52.6283 97.372 53.2592C96.4812 53.6028 95.6168 54.0115 94.7859 54.4819C94.1278 54.8312 93.5536 55.3195 93.1029 55.9128C92.8287 56.2619 92.6777 56.6919 92.6735 57.1358C92.6693 57.5798 92.812 58.0126 93.0795 58.3669C93.2656 58.6166 93.4715 58.8509 93.6952 59.0677C93.9561 59.3345 94.2406 59.572 94.5015 59.8359C94.7539 60.0799 94.9909 60.3394 95.2111 60.6129C95.3932 60.8136 95.4941 61.0749 95.4941 61.3459C95.4941 61.6169 95.3932 61.8782 95.2111 62.0789C95.0154 62.3484 94.7594 62.5684 94.4634 62.7211C94.1536 62.8857 93.8273 63.0174 93.4899 63.114C92.7004 63.3337 91.8944 63.4896 91.0798 63.5802C90.9654 63.5948 90.8481 63.6095 90.7309 63.6183C90.6136 63.6271 90.4728 63.7121 90.3526 63.6183C90.3064 63.5068 90.2971 63.3835 90.3262 63.2664C90.3731 62.4689 90.4288 61.6714 90.467 60.8709C90.5373 59.487 90.4875 58.1001 90.423 56.7162C90.3321 54.8044 90.3204 52.8898 90.3174 50.9781C90.2954 49.6023 90.5168 48.2335 90.9713 46.9347C91.4756 45.4664 92.4055 44.1814 93.6424 43.2432C94.0001 42.9706 94.3637 42.7067 94.7449 42.4721C95.5072 42.003 96.2754 41.5368 97.0612 41.1058C98.4452 40.3434 99.8115 39.5518 101.143 38.7014C102.046 38.115 102.94 37.5286 103.837 36.9422C105.983 35.5093 107.927 33.7965 109.619 31.8492C111.767 29.4716 113.646 26.865 115.223 24.0762C115.551 23.4898 115.929 22.9034 116.293 22.317C116.65 21.7588 116.974 21.1802 117.263 20.5841C117.603 19.8658 117.8 19.1181 117.524 18.3147C118.134 18.0232 118.677 17.609 119.119 17.0979C120.166 16.0159 121.245 14.9721 122.345 13.9459C122.902 13.424 123.447 12.8933 123.992 12.3626C124.77 11.62 125.447 10.7792 126.007 9.86149C126.252 9.4852 126.437 9.0726 126.555 8.63882C126.705 7.99376 126.526 7.67416 126.013 7.53635C125.995 7.53635 125.98 7.5129 125.957 7.49237C126.089 7.25781 126.224 7.02324 126.356 6.78574C126.503 6.53143 126.585 6.24412 126.593 5.9501C126.604 5.85267 126.593 5.7541 126.562 5.66109C126.531 5.56808 126.481 5.4828 126.414 5.41104C126.347 5.33929 126.266 5.28273 126.175 5.24521C126.085 5.2077 125.987 5.1901 125.889 5.19362C125.79 5.19362 125.661 5.28745 125.596 5.13791C125.667 4.93266 125.737 4.73035 125.804 4.52804C125.866 4.33851 125.875 4.13549 125.828 3.94162C125.805 3.78491 125.723 3.6427 125.6 3.54327C125.477 3.44384 125.32 3.3945 125.162 3.40505C124.928 3.41975 124.699 3.48053 124.488 3.58391C124.242 3.6103 124.256 3.48129 124.33 3.32002C124.338 3.22248 124.338 3.12435 124.33 3.02681C124.325 2.9535 124.304 2.88217 124.268 2.81795C124.232 2.75372 124.183 2.69819 124.123 2.65532C124.063 2.61245 123.995 2.58331 123.923 2.56997C123.85 2.55664 123.776 2.55945 123.705 2.5782C123.549 2.59991 123.4 2.65818 123.271 2.74826C123.076 2.8758 122.888 3.01381 122.708 3.16169C121.809 3.91556 121.012 4.78288 120.336 5.74192C120.26 5.85041 120.213 5.99408 120.043 6.03513C119.313 5.55427 118.612 5.66569 117.946 6.18173C117.794 6.30281 117.648 6.43201 117.51 6.56877C116.474 7.56153 115.628 8.73503 115.014 10.0316C114.33 11.3967 113.975 12.9028 113.976 14.4297C113.972 14.4884 113.962 14.5465 113.944 14.6027C113.864 14.5892 113.785 14.5706 113.707 14.547C113.588 14.5003 113.457 14.4907 113.333 14.5195C113.208 14.5483 113.095 14.6141 113.009 14.7082C112.936 14.7734 112.87 14.8461 112.812 14.9252C112.519 15.3093 112.226 15.6963 111.933 16.098C111.778 16.2755 111.676 16.4929 111.64 16.7255C111.625 16.8721 111.531 16.919 111.396 16.9044C111.003 16.8734 110.614 16.9976 110.311 17.2503C110.019 17.4468 109.757 17.6838 109.531 17.954C109.253 18.3059 108.974 18.6577 108.716 19.0242C108.272 19.6642 107.782 20.2708 107.25 20.8392C105.426 22.7518 103.368 24.4266 101.125 25.8237C99.6063 26.7737 98.0523 27.6739 96.5129 28.5946C94.5054 29.7967 92.4627 30.9383 90.3849 32.0192C89.159 32.6315 87.8501 33.0612 86.4999 33.2947C86.245 33.3516 85.9838 33.3753 85.7229 33.3651C85.7053 33.2185 85.802 33.2009 85.8548 33.1539C87.2593 31.8638 88.1594 30.3186 88.2855 28.3805C88.3658 27.4434 88.255 26.4998 87.96 25.6068C87.5378 24.3068 86.8677 23.101 85.9867 22.056C85.8079 21.8508 85.632 21.6426 85.4619 21.4286C84.9913 20.8803 84.5537 20.3046 84.1513 19.7045C83.5434 18.7257 83.0728 17.6681 82.7527 16.5613C82.5002 15.6595 82.1513 14.7875 81.7118 13.9605C81.5247 13.5945 81.27 13.2672 80.9612 12.9959C80.1776 12.3152 79.2474 11.8245 78.2431 11.5621C77.5409 11.3868 76.8206 11.2943 76.0968 11.2865C75.159 11.2725 74.2229 11.371 73.3084 11.5797C72.2761 11.806 71.3023 12.2454 70.4496 12.8698C68.0812 14.6017 66.3647 17.0805 65.5765 19.9068C65.2601 20.9837 65.292 22.133 65.6674 23.1907C65.7114 23.3197 65.7554 23.4488 65.8023 23.5778C66.0071 24.1115 66.0226 24.6994 65.8463 25.2432C65.8052 25.3722 65.773 25.5041 65.7261 25.6332C65.5325 26.1862 65.4036 26.7598 65.342 27.3426C65.1602 28.9317 65.5003 30.3655 66.591 31.5765C66.5031 31.7084 66.4092 31.6087 66.3154 31.5765C65.2805 31.2985 64.2757 30.9184 63.3159 30.4418C61.7468 29.6924 60.2933 28.7218 58.9999 27.5595C57.9883 26.6799 57.009 25.7446 56.0297 24.8239C53.7251 22.6571 51.4908 20.4258 49.2419 18.1974C48.157 17.1301 47.0458 16.0892 45.8788 15.1099C45.373 14.6786 44.7885 14.349 44.1577 14.1394C43.753 14.0075 43.3455 13.8726 42.9379 13.7436C42.89 13.7336 42.8479 13.7054 42.8205 13.6649C42.7931 13.6244 42.7827 13.5747 42.7913 13.5266C42.8294 13.2158 42.891 12.9079 42.9086 12.5971C42.9702 11.4459 42.8444 10.2922 42.5362 9.18125C42.1086 7.61497 41.373 6.14968 40.3724 4.87109C40.1943 4.6388 39.9896 4.42821 39.7625 4.24363C39.5883 4.10121 39.3857 3.9975 39.1684 3.93936C38.951 3.88122 38.7237 3.87 38.5017 3.90644C38.3872 3.92699 38.2752 3.95942 38.1674 4.0032C37.9358 4.07943 37.9358 4.07943 37.8156 3.85659L37.7364 3.69826C37.2113 2.65146 36.5519 1.67762 35.7749 0.801363C35.6057 0.613102 35.4265 0.433991 35.2383 0.264792C35.1107 0.142669 34.9511 0.0592908 34.7779 0.0243612C34.7062 0.00122248 34.6302 -0.00554932 34.5556 0.00454363C34.4809 0.0146366 34.4094 0.0413376 34.3464 0.082684C34.2834 0.12403 34.2305 0.178971 34.1915 0.243467C34.1525 0.307962 34.1285 0.380374 34.1212 0.455377C34.1109 0.591036 34.1109 0.727278 34.1212 0.862937C34.1561 0.905128 34.182 0.954021 34.1974 1.00661C34.1963 1.05995 34.1854 1.11263 34.1651 1.16201C34.1134 1.14532 34.0633 1.12372 34.0156 1.0975C33.9921 1.07991 33.9834 1.03593 33.9687 1.00368C33.8104 0.894733 33.6449 0.796767 33.4732 0.710468C33.3714 0.65323 33.2567 0.623031 33.1399 0.622755C33.0231 0.622478 32.9082 0.652132 32.8062 0.708888C32.7042 0.765643 32.6184 0.847604 32.557 0.946949C32.4957 1.04629 32.4608 1.15971 32.4557 1.27636C32.4332 1.52553 32.4401 1.77648 32.4763 2.02404C32.5076 2.07161 32.535 2.12161 32.5584 2.17358C32.5789 2.24101 32.6199 2.31725 32.5584 2.38469C32.4968 2.45212 32.4176 2.38469 32.3531 2.38469C32.3014 2.36334 32.253 2.33471 32.2094 2.29966C31.5409 2.43746 31.3562 2.68376 31.4061 3.34348C31.4348 3.57597 31.494 3.80368 31.582 4.02079C31.6523 4.22017 31.7344 4.41369 31.799 4.57495C31.7922 4.61019 31.7743 4.64233 31.7479 4.66662C31.7215 4.69091 31.688 4.70606 31.6523 4.70983C31.1656 4.86523 31.0659 5.00304 31.0425 5.49563C31.0444 5.84781 31.111 6.19665 31.2389 6.52479C31.675 7.73791 32.3058 8.87185 33.1067 9.88202C33.869 10.8701 34.6489 11.8465 35.4025 12.8405C36.1238 13.7876 36.8245 14.7493 37.5341 15.7051C37.819 16.1265 38.1884 16.484 38.619 16.7548C38.6646 16.7719 38.7028 16.8044 38.7269 16.8467C38.751 16.8891 38.7595 16.9385 38.7509 16.9865C38.6954 17.4546 38.7909 17.9282 39.0236 18.3381C39.4981 19.3482 40.0885 20.2997 40.7828 21.1735C42.3867 23.1643 44.0463 25.1083 45.8026 26.9702C48.3095 29.6296 50.9748 32.1219 53.7192 34.535C55.8596 36.4174 58.0147 38.2822 60.1522 40.1675C61.6886 41.525 63.2543 42.8474 64.8435 44.1522C65.5208 44.7122 66.1659 45.3104 66.8432 45.8675C66.9526 45.9472 67.0366 46.0569 67.085 46.1833C67.1334 46.3098 67.1441 46.4475 67.1159 46.5799C67.0486 47.164 67.0387 47.7532 67.0865 48.3392C67.1823 49.9577 67.2312 51.5772 67.2331 53.1977C67.2676 56.1259 67.4859 59.0491 67.887 61.9499C67.9324 62.4968 68.0891 63.0286 68.3473 63.5127C68.3943 63.5919 68.4881 63.6535 68.4353 63.7883C68.2535 63.7883 68.06 63.7883 67.8665 63.7883C65.4856 63.7238 63.1048 63.6476 60.7239 63.5948C57.5631 63.5215 54.3994 63.4775 51.2387 63.4042C48.1336 63.3309 45.0285 63.3016 41.9264 63.3602C40.6374 63.362 39.3507 63.4699 38.0795 63.6828C37.5168 63.7548 36.9711 63.9245 36.4668 64.1842C36.3146 64.2535 36.1785 64.3538 36.0671 64.4786C35.9557 64.6035 35.8716 64.7502 35.82 64.9093C35.7684 65.0684 35.7506 65.2366 35.7675 65.403C35.7845 65.5694 35.8359 65.7305 35.9185 65.876C35.983 66.0196 36.0622 66.1692 36.1384 66.2894C36.2147 66.4096 36.3202 66.5826 36.3994 66.7468C36.4623 66.858 36.4891 66.9861 36.476 67.1133C36.4628 67.2404 36.4104 67.3603 36.3261 67.4564C36.2055 67.6109 36.0586 67.7429 35.8921 67.8463C35.6283 68.0129 35.3484 68.1524 35.0565 68.2627C34.3803 68.515 33.6825 68.7054 32.9718 68.8315C31.4002 69.1247 29.8139 69.3446 28.2247 69.5118C26.0902 69.7375 23.9498 69.9252 21.8123 70.0982C19.9445 70.2506 18.0739 70.365 16.2032 70.494L14.2182 70.6347C12.7785 70.7374 11.336 70.8459 9.89631 70.9279C8.45665 71.01 7.05219 71.1097 5.63013 71.1977C3.80051 71.3091 1.97382 71.4909 0.138339 71.5085C0.0807534 71.5825 0.0447892 71.6709 0.0344377 71.7641C0.0240862 71.8573 0.0397521 71.9515 0.0796969 72.0363C0.0996765 72.0602 0.121226 72.0827 0.144203 72.1037C0.671977 72.1037 1.19389 72.048 1.71873 72.0099C3.51023 71.8838 5.30173 71.7753 7.09324 71.6551L14.0452 71.183C15.7184 71.0697 17.3927 70.9524 19.0679 70.8312C20.8271 70.7041 22.5785 70.5732 24.3221 70.4383C24.847 70.4002 25.3748 70.3533 25.8967 70.2976C27.178 70.1597 28.4564 70.0219 29.7348 69.8665C31.0132 69.7111 32.2505 69.5411 33.4908 69.2801C34.2589 69.1345 35.0063 68.8952 35.7162 68.5676C36.0917 68.4005 36.4275 68.1557 36.7014 67.8493C36.8737 67.6728 36.9832 67.4446 37.0128 67.1998C37.0425 66.9549 36.9908 66.7071 36.8656 66.4946C36.7542 66.2865 36.6281 66.09 36.5167 65.8848C36.1472 65.1957 36.285 64.7999 37.0239 64.5184C37.3358 64.4052 37.6565 64.3179 37.9827 64.2575C39.2118 64.029 40.4593 63.9142 41.7094 63.9144C45.5211 63.8675 49.3328 63.8792 53.1445 63.9906C54.8598 64.0405 56.578 64.0581 58.2962 64.0991C61.498 64.1754 64.6989 64.2555 67.8987 64.3396C69.4205 64.3777 70.9422 64.4275 72.464 64.4481C75.4518 64.4862 78.4366 64.5683 81.4244 64.5331C83.5707 64.5067 85.7199 64.5038 87.875 64.3923C89.4348 64.3251 90.9889 64.1606 92.5282 63.8998C93.2214 63.7929 93.8976 63.5958 94.5396 63.3133C95.0465 63.0971 95.4766 62.7334 95.774 62.2695C95.9642 61.9934 96.0636 61.6648 96.0584 61.3295C96.0531 60.9942 95.9435 60.6689 95.7447 60.3988C95.5063 60.0658 95.2331 59.7591 94.9296 59.484C94.6188 59.1908 94.3051 58.8976 93.9972 58.6044C93.7945 58.4202 93.6206 58.2068 93.4811 57.9711C93.3349 57.7378 93.2574 57.468 93.2574 57.1926C93.2574 56.9173 93.3349 56.6475 93.4811 56.4142C93.6059 56.2166 93.7525 56.0337 93.918 55.8688C94.3637 55.4299 94.8764 55.0647 95.4369 54.7868C97.0909 53.9199 98.8392 53.246 100.647 52.7784C102.571 52.2594 104.518 51.846 106.476 51.5029C108.235 51.2097 109.977 50.9165 111.733 50.6497C112.906 50.4679 114.079 50.3096 115.267 50.1571C116.454 50.0046 117.63 49.8639 118.814 49.7378C119.764 49.6342 120.715 49.5423 121.667 49.4622C123.28 49.3214 124.893 49.1514 126.511 49.0634C128.563 48.9491 130.645 48.8758 132.712 48.8289C134.78 48.7819 136.773 48.779 138.802 48.779C142.321 48.779 145.839 48.8054 149.358 48.8201C149.572 48.8201 149.786 48.8025 150 48.7937V48.2073C149.852 48.2763 149.687 48.3027 149.525 48.2835ZM114.721 12.5707C115.211 10.4293 116.311 8.47586 117.888 6.947C118.114 6.70369 118.383 6.5048 118.682 6.36059C118.911 6.25315 119.173 6.23844 119.412 6.31954C119.45 6.32976 119.486 6.34802 119.516 6.37307C119.546 6.39813 119.57 6.4294 119.587 6.46474C119.604 6.50009 119.613 6.53868 119.614 6.57788C119.615 6.61708 119.607 6.65598 119.591 6.69191C119.536 6.81551 119.467 6.93254 119.386 7.04083C118.874 7.75626 118.36 8.46778 117.844 9.17539C117.76 9.28244 117.686 9.39732 117.624 9.51844C117.6 9.56189 117.594 9.6129 117.606 9.66092C117.619 9.70895 117.649 9.75031 117.691 9.77646C117.73 9.80691 117.777 9.82348 117.826 9.82348C117.875 9.82348 117.923 9.80691 117.961 9.77646C118.05 9.70092 118.13 9.61532 118.199 9.52137C118.615 8.97894 119.034 8.44237 119.439 7.89114C119.899 7.26074 120.351 6.62448 120.799 5.98821C121.448 5.08262 122.209 4.26377 123.066 3.55165C123.242 3.37299 123.456 3.2375 123.693 3.15582C123.723 3.20914 123.739 3.26921 123.739 3.33028C123.739 3.39136 123.723 3.45142 123.693 3.50474C123.548 3.8682 123.361 4.21356 123.136 4.5339C122.374 5.64223 121.638 6.76815 120.773 7.80317C120.658 7.93552 120.554 8.0767 120.462 8.22539C120.423 8.27905 120.407 8.34595 120.418 8.41139C120.428 8.47682 120.464 8.53543 120.518 8.57431C120.572 8.61319 120.638 8.62917 120.704 8.61872C120.769 8.60827 120.828 8.57226 120.867 8.5186C120.936 8.44947 121.001 8.37602 121.06 8.29869C121.503 7.75333 121.94 7.20503 122.342 6.62741C122.9 5.85183 123.531 5.13032 124.224 4.47233C124.452 4.22952 124.742 4.0532 125.063 3.96215C125.086 3.9544 125.111 3.95217 125.135 3.95563C125.159 3.95909 125.182 3.96814 125.203 3.98207C125.223 3.996 125.239 4.01443 125.251 4.03591C125.263 4.05738 125.27 4.08131 125.271 4.10582C125.293 4.29988 125.263 4.49633 125.183 4.67464C125.069 4.94292 124.928 5.19925 124.764 5.43992C124.304 6.1186 123.81 6.77331 123.283 7.40148C122.72 8.07292 122.177 8.7649 121.623 9.45393C121.424 9.69436 121.21 9.92307 121.013 10.1635C120.993 10.1853 120.978 10.211 120.969 10.239C120.959 10.267 120.955 10.2967 120.958 10.3261C120.96 10.3556 120.969 10.3843 120.983 10.4103C120.997 10.4363 121.016 10.4591 121.04 10.4772C121.081 10.5191 121.136 10.5447 121.195 10.5496C121.253 10.5544 121.312 10.5381 121.359 10.5036C121.44 10.4487 121.513 10.3837 121.576 10.3101C121.749 10.1224 121.916 9.9348 122.078 9.73835C122.4 9.34545 122.72 8.94962 123.028 8.55085C123.731 7.62965 124.528 6.78365 125.406 6.02633C125.525 5.89576 125.674 5.79529 125.84 5.73312C125.925 5.71553 126.051 5.79177 126.051 5.87973C126.061 5.95618 126.056 6.0339 126.036 6.10843C125.97 6.31118 125.886 6.50748 125.784 6.69485C125.595 7.01328 125.389 7.32067 125.165 7.61552C124.227 8.8382 123.283 10.0579 122.233 11.1956C122.179 11.2499 122.133 11.3122 122.098 11.3803C122.076 11.424 122.068 11.474 122.077 11.5223C122.086 11.5707 122.111 11.6146 122.148 11.6471C122.181 11.6841 122.224 11.7094 122.273 11.7189C122.321 11.7285 122.371 11.7218 122.415 11.6999C122.587 11.6061 122.735 11.4748 122.849 11.3158C123.365 10.703 123.878 10.0902 124.382 9.4686C124.681 9.08288 125.007 8.71933 125.359 8.38079C125.474 8.24458 125.626 8.14309 125.796 8.08758C125.954 8.05533 126.089 8.14329 126.062 8.29869C126.016 8.58888 125.916 8.86809 125.769 9.12261C125.344 9.93726 124.808 10.6883 124.174 11.3539C123.664 11.8905 123.142 12.4183 122.603 12.9255C121.222 14.2215 119.846 15.5233 118.533 16.8868C118.383 17.0392 118.225 17.18 118.067 17.3295C117.861 17.5101 117.63 17.6593 117.381 17.7722C117.325 17.8103 117.257 17.8278 117.19 17.8219C117.123 17.8161 117.06 17.7871 117.011 17.74C116.768 17.5142 116.498 17.3148 116.266 17.0773C115.68 16.4733 115.117 15.8547 114.542 15.2448C114.49 15.1892 114.462 15.1156 114.463 15.0395C114.444 14.209 114.531 13.3794 114.721 12.5707ZM68.6875 23.8505C68.8047 23.0588 68.9132 22.2671 69.0276 21.4755C69.051 21.323 69.0921 21.1823 69.1243 21.0239C69.2768 20.9506 69.3237 21.1148 69.4176 21.1295C69.5322 21.1562 69.6526 21.1416 69.7577 21.0884C69.859 21.0316 69.9569 20.969 70.0509 20.9008C70.8421 20.2966 71.7 19.7851 72.6077 19.3761C72.6365 19.3547 72.6714 19.3431 72.7074 19.3431C72.7433 19.3431 72.7782 19.3547 72.807 19.3761C72.7073 19.5637 72.5989 19.7485 72.5138 19.9391C72.4817 20.0003 72.469 20.0698 72.4773 20.1384C72.4857 20.2071 72.5148 20.2715 72.5607 20.3232C72.6106 20.3846 72.6802 20.4269 72.7576 20.443C72.8351 20.459 72.9158 20.4477 72.9859 20.4111C73.1999 20.3153 73.4084 20.2077 73.6104 20.0886C73.986 19.8519 74.3779 19.6422 74.7833 19.4611C75.0162 19.3609 75.2589 19.2852 75.5075 19.2354C75.9473 19.1591 76.0939 19.2354 76.2522 19.6752C76.3692 20.0472 76.4526 20.4289 76.5015 20.8158C76.6099 21.4901 76.7302 22.1616 76.8562 22.833C76.8946 23.0232 76.9465 23.2103 77.0117 23.393C77.2355 24.0888 77.7127 24.6749 78.3487 25.035C78.4304 25.0886 78.5156 25.1366 78.6038 25.1787C79.457 25.5657 79.4277 25.7123 79.6974 24.7653C79.7639 24.4756 79.9379 24.222 80.1842 24.0557C80.2518 23.9986 80.3375 23.9673 80.4261 23.9673C80.5146 23.9673 80.6003 23.9986 80.6679 24.0557C80.8318 24.1655 80.9617 24.3189 81.0433 24.4984C81.2051 24.8126 81.3047 25.1551 81.3365 25.5071C81.3839 26.1103 81.3652 26.717 81.2808 27.3162C81.2325 27.3485 81.177 27.3683 81.1191 27.374C81.0613 27.3796 81.003 27.3708 80.9494 27.3484C80.7649 27.2822 80.5638 27.2779 80.3765 27.3361C80.1892 27.3942 80.026 27.5118 79.9115 27.671C79.7846 27.8322 79.7111 28.0289 79.7011 28.2338C79.6912 28.4387 79.7452 28.6417 79.8558 28.8145C79.9782 29.0538 80.0214 29.326 79.9789 29.5915C80.025 29.9992 80.1236 30.3994 80.2721 30.7819C80.4891 31.3683 80.6885 31.9547 80.9025 32.5411C80.9787 32.7645 80.9787 33.0068 80.9025 33.2302C80.7284 33.8389 80.3233 34.3555 79.7737 34.6698C78.9062 35.2139 77.9186 35.537 76.8973 35.611C76.5552 35.6247 76.2138 35.5695 75.8934 35.4486C75.5731 35.3277 75.2803 35.1437 75.0325 34.9073C74.9599 34.8421 74.8968 34.7671 74.8448 34.6845C74.7983 34.6267 74.7661 34.5588 74.7507 34.4862C74.7353 34.4136 74.7373 34.3384 74.7564 34.2667C74.7756 34.195 74.8113 34.1288 74.8608 34.0736C74.9103 34.0183 74.9721 33.9755 75.0413 33.9485C75.2014 33.8774 75.3672 33.8195 75.5368 33.7755C76.0963 33.5966 76.6056 33.2882 77.0234 32.8754C77.0842 32.825 77.1402 32.7691 77.1905 32.7083C77.2203 32.6694 77.2386 32.623 77.2433 32.5743C77.2479 32.5255 77.2388 32.4764 77.2169 32.4327C77.1961 32.3876 77.1625 32.3496 77.1203 32.3235C77.078 32.2974 77.029 32.2844 76.9794 32.286C76.8625 32.2894 76.746 32.3002 76.6305 32.3183L75.3609 32.5353C74.2039 32.7333 73.0204 32.7184 71.8688 32.4913C71.3701 32.3958 70.8938 32.2078 70.4643 31.9371C69.8527 31.5773 69.3915 31.0088 69.1654 30.3362C68.932 29.6113 68.7719 28.8647 68.6875 28.1078C68.6347 27.6827 68.5966 27.2546 68.5555 26.8265C68.4777 25.8328 68.522 24.8333 68.6875 23.8505ZM38.8242 16.2593C38.521 16.0445 38.2555 15.781 38.0384 15.4794C37.5429 14.805 37.0562 14.1218 36.546 13.4533C35.8833 12.5737 35.2002 11.7322 34.5346 10.8672C34.0596 10.2485 33.5817 9.62986 33.1301 8.9936C32.517 8.16008 32.0418 7.23346 31.7227 6.24917C31.6617 6.04324 31.6137 5.83367 31.579 5.6217C31.5527 5.4839 31.5585 5.3285 31.6963 5.25813C31.8341 5.18776 31.9544 5.30797 32.054 5.39593C32.1652 5.50027 32.2636 5.61739 32.3473 5.74485C32.5877 6.10061 32.8203 6.46028 33.0451 6.82386C33.4702 7.52169 33.8866 8.22832 34.3176 8.92616C34.4222 9.09023 34.5441 9.24259 34.6812 9.38063C34.7251 9.42123 34.7827 9.44378 34.8425 9.44378C34.9022 9.44378 34.9598 9.42123 35.0037 9.38063C35.0523 9.34536 35.0851 9.29237 35.095 9.23312C35.1049 9.17386 35.091 9.11311 35.0565 9.06397C35.0066 8.98187 34.9568 8.89977 34.904 8.81767C34.0244 7.48358 33.2386 6.08791 32.4675 4.6893C32.3028 4.37998 32.1598 4.05962 32.0394 3.73051C31.9443 3.51516 31.9108 3.27765 31.9426 3.0444C31.969 2.88607 32.1244 2.80691 32.2358 2.9066C32.3726 3.02757 32.5019 3.15683 32.6229 3.29363C33.3755 4.16341 34.0376 5.10751 34.5991 6.11136C34.9333 6.69778 35.2852 7.28419 35.637 7.87061C35.7384 8.03817 35.8573 8.19446 35.9918 8.33681C36.0371 8.37582 36.0948 8.39727 36.1546 8.39727C36.2143 8.39727 36.272 8.37582 36.3173 8.33681C36.3655 8.30295 36.3993 8.25239 36.4123 8.19496C36.4253 8.13754 36.4165 8.07732 36.3877 8.02601C36.3085 7.89114 36.2088 7.77092 36.1296 7.63604C35.2236 6.06738 34.2209 4.55443 33.4204 2.92419C33.2869 2.64236 33.1685 2.35363 33.0656 2.05923C33.0188 1.9102 32.9864 1.75703 32.9689 1.60182C32.9492 1.53564 32.9492 1.46516 32.969 1.39902C32.9888 1.33287 33.0275 1.27394 33.0803 1.22945C33.2122 1.14148 33.3383 1.22945 33.4556 1.30275C33.6552 1.42725 33.8285 1.58961 33.9658 1.78068C34.5583 2.52992 35.0796 3.33289 35.5227 4.17912C35.8511 4.82125 36.1883 5.45751 36.5665 6.07325C36.6369 6.1876 36.7014 6.31074 36.7806 6.42216C36.8225 6.47677 36.8834 6.51367 36.9513 6.52561C37.0191 6.53755 37.089 6.52366 37.1471 6.48667C37.1753 6.46754 37.1995 6.443 37.2182 6.41446C37.2369 6.38593 37.2498 6.35396 37.2561 6.32042C37.2623 6.28688 37.2619 6.25243 37.2548 6.21906C37.2476 6.18569 37.2339 6.15407 37.2145 6.12602C37.1471 5.98821 37.0679 5.85334 36.9858 5.71846C36.2733 4.54563 35.7045 3.31122 35.1034 2.08855C34.9398 1.75512 34.8092 1.4065 34.7134 1.04766C34.6878 0.934208 34.6769 0.81791 34.6812 0.701672C34.6809 0.6872 34.6846 0.672923 34.6918 0.660394C34.6991 0.647865 34.7096 0.637565 34.7223 0.630612C34.735 0.623659 34.7494 0.62032 34.7638 0.620959C34.7783 0.621598 34.7923 0.626189 34.8043 0.634234C35.0034 0.758154 35.1774 0.918272 35.3175 1.1063C36.1069 2.00295 36.7779 2.99724 37.3142 4.06477C37.9299 5.30211 38.5486 6.54238 39.2523 7.7328C39.3021 7.81783 39.3432 7.9058 39.396 7.98789C39.5279 8.18727 39.6423 8.24005 39.7683 8.17555C39.8944 8.11104 39.9267 7.97323 39.8329 7.76799C39.8006 7.69762 39.7596 7.63018 39.7244 7.56274L38.5105 5.21708C38.4841 5.1643 38.4606 5.11152 38.4313 5.06168C38.3228 4.88282 38.2583 4.67464 38.402 4.51631C38.478 4.45412 38.5696 4.4141 38.6669 4.40065C38.7641 4.3872 38.8632 4.40084 38.9532 4.44008C39.1266 4.47413 39.2888 4.5507 39.4253 4.66291C39.5876 4.80321 39.7395 4.9551 39.8798 5.11739C40.9672 6.47896 41.733 8.06863 42.1199 9.76767C42.2879 10.5699 42.386 11.3851 42.4131 12.2042C42.3951 12.8072 42.3254 13.4076 42.2049 13.9987C42.1826 14.0716 42.1361 14.1347 42.073 14.1775C41.1699 14.8871 40.3137 15.6699 39.3168 16.2476C39.2481 16.3049 39.162 16.3373 39.0726 16.3394C38.9831 16.3416 38.8956 16.3133 38.8242 16.2593ZM89.7633 63.4658C89.7666 63.4995 89.7627 63.5336 89.7519 63.5657C89.7412 63.5979 89.7237 63.6274 89.7007 63.6523C89.6777 63.6772 89.6498 63.697 89.6186 63.7103C89.5874 63.7237 89.5538 63.7303 89.5199 63.7297C89.3088 63.7502 89.0947 63.7737 88.8807 63.7883C87.6316 63.8646 86.3826 63.9056 85.1335 63.9349C82.5973 63.9965 80.0581 64.0376 77.5101 63.9848L69.4879 63.8147C69.3882 63.8147 69.2915 63.8147 69.1947 63.8147C69.1572 63.8139 69.1206 63.8035 69.0882 63.7845C69.0559 63.7655 69.029 63.7386 69.01 63.7062C68.661 63.1897 68.4473 62.5939 68.3884 61.9734C68.189 60.3461 67.9984 58.7188 67.8723 57.0856C67.7932 56.0154 67.7521 54.9393 67.7375 53.8603C67.714 52.1011 67.6964 50.3418 67.6055 48.5826C67.5591 47.4513 67.5845 46.3182 67.6818 45.1901C67.7222 44.6224 67.918 44.0767 68.2477 43.6127C68.3165 43.522 68.3746 43.4236 68.4206 43.3195C68.4454 43.2656 68.4511 43.2048 68.4367 43.1472C68.4223 43.0897 68.3887 43.0387 68.3415 43.0028C68.3174 42.986 68.2903 42.9741 68.2617 42.9678C68.233 42.9615 68.2034 42.9609 68.1745 42.9661C68.1456 42.9713 68.1181 42.9821 68.0934 42.998C68.0687 43.0138 68.0474 43.0344 68.0307 43.0585C67.8777 43.2346 67.7395 43.4228 67.6173 43.6215C67.4054 43.9743 67.2631 44.3645 67.198 44.7709C67.1716 44.9585 67.1364 45.1462 67.1071 45.3279C67.0015 45.3485 66.9487 45.284 66.8901 45.2371C66.16 44.6184 65.4387 43.988 64.6998 43.381C62.8438 41.8564 61.0406 40.273 59.2403 38.6897C57.44 37.1064 55.6778 35.5876 53.9068 34.0248C51.2386 31.6791 48.6467 29.2455 46.2043 26.6594C44.445 24.7858 42.762 22.8242 41.1464 20.8158C40.4398 19.9274 39.8487 18.953 39.3872 17.9159C39.2473 17.6566 39.1861 17.3621 39.2113 17.0686C39.2108 17 39.2302 16.9328 39.2672 16.875C39.3041 16.8172 39.357 16.7714 39.4194 16.7431C40.3137 16.3649 41.0233 15.7198 41.7651 15.107C41.9 14.9926 42.026 14.8724 42.1609 14.7581C42.6506 14.3534 42.6535 14.3446 43.2517 14.4825C44.1356 14.6647 44.9588 15.0682 45.6442 15.6553C46.7878 16.6581 47.9107 17.6872 48.9927 18.7604C51.6814 21.4286 54.3818 24.0821 57.1497 26.677C58.1602 27.6525 59.2379 28.5559 60.375 29.3804C62.3913 30.8297 64.6884 31.8414 67.1188 32.3506C68.0142 32.5644 68.9473 32.5644 69.8427 32.3506C69.8888 32.3366 69.9375 32.333 69.9851 32.3401C70.0328 32.3472 70.0783 32.3648 70.1183 32.3916C71.1797 33.066 72.3731 33.2126 73.5958 33.2331C73.9271 33.2331 74.2584 33.2331 74.5897 33.2331C74.8038 33.2331 75.0501 33.0396 75.2055 33.3445C75.0399 33.4001 74.8783 33.4667 74.7217 33.5439C74.5995 33.6065 74.4917 33.6939 74.4053 33.8006C74.3188 33.9072 74.2556 34.0308 74.2198 34.1633C74.1839 34.2958 74.1761 34.4344 74.1969 34.5701C74.2177 34.7058 74.2666 34.8356 74.3405 34.9513C74.4808 35.1854 74.6711 35.3856 74.8976 35.5377C75.2483 35.8048 75.6507 35.9961 76.0792 36.0995C76.5077 36.203 76.953 36.2164 77.387 36.1388C78.2354 35.9983 79.0535 35.7137 79.8059 35.2973C80.4722 34.9556 80.9988 34.3927 81.2954 33.7052C81.4215 33.3973 81.4332 33.412 81.7733 33.4618C82.521 33.5879 83.2746 33.6964 84.0193 33.843C85.1971 34.0482 86.4064 33.978 87.5525 33.6377C88.7761 33.3163 89.9572 32.8508 91.071 32.2509C93.2495 31.078 95.4134 29.8729 97.5216 28.5828C98.7706 27.8205 100.04 27.0933 101.286 26.3281C103.309 25.0677 105.191 23.5931 106.898 21.9299C107.762 21.1099 108.537 20.2019 109.212 19.2207C109.429 18.9011 109.681 18.5991 109.921 18.2942C110.158 18.0066 110.442 17.7625 110.763 17.5729C110.892 17.4829 111.041 17.4256 111.197 17.4057C111.516 17.3764 111.666 17.4614 111.757 17.7722C111.915 18.2959 112.134 18.7988 112.411 19.2705C112.619 19.6244 112.889 19.9381 113.208 20.1971C113.265 20.2508 113.332 20.2927 113.405 20.3202C113.459 20.3452 113.52 20.3497 113.577 20.333C113.634 20.3163 113.683 20.2795 113.715 20.2293C113.747 20.1914 113.764 20.1437 113.764 20.0945C113.764 20.0452 113.747 19.9975 113.715 19.9596C113.627 19.857 113.525 19.7631 113.422 19.6664C112.716 18.9891 112.387 18.1182 112.17 17.1976C112.136 17.0847 112.128 16.9657 112.147 16.8493C112.166 16.733 112.211 16.6225 112.279 16.5261C112.613 16.0687 112.941 15.6084 113.281 15.1568C113.416 14.9809 113.513 14.9721 113.671 15.1099C114.027 15.416 114.357 15.7514 114.657 16.1127C115.197 16.78 115.799 17.3955 116.454 17.9511C117.225 18.602 117.316 19.0008 116.958 19.9596C116.668 20.667 116.312 21.3454 115.894 21.9856C115.437 22.7363 114.965 23.4751 114.525 24.2346C112.534 27.667 110.078 30.8077 107.227 33.5674C106.228 34.53 105.149 35.4059 104.001 36.1857C101.677 37.7969 99.2712 39.2884 96.7944 40.6542C96.0086 41.0823 95.2375 41.5338 94.4781 42.0206C94.0153 42.3111 93.5699 42.6283 93.144 42.9706C91.9447 43.9237 91.0375 45.1947 90.5256 46.6386C90.1785 47.5925 89.9539 48.5866 89.8571 49.5971C89.7472 51.0772 89.7325 52.563 89.8131 54.045C89.8512 55.643 89.9128 57.2439 89.9685 58.8448C90.0213 60.39 89.86 61.9265 89.7633 63.4629V63.4658Z" fill="#4B2D3A"/>
<path d="M149.98 48.7937V58.1764C149.704 58.3649 149.375 58.4623 149.041 58.4549C147.798 58.5575 146.549 58.6484 145.306 58.6719C143.629 58.71 141.954 58.7921 140.277 58.842C137.882 58.9153 135.483 58.9563 133.091 59.1352C131.499 59.2524 129.898 59.3199 128.303 59.4108C126.708 59.5017 125.113 59.6424 123.52 59.789C120.665 60.0558 117.809 60.3197 114.965 60.698C110.86 61.2375 106.843 62.0731 103.008 63.6623C102.163 63.9769 101.391 64.4574 100.735 65.0756C100.462 65.3323 100.27 65.6636 100.183 66.0284C100.096 66.3932 100.118 66.7755 100.246 67.128C100.518 67.882 100.876 68.6021 101.313 69.2743C102.512 71.3737 101.996 72.9365 99.753 73.9158C98.2867 74.516 96.7445 74.9107 95.1702 75.0886C91.9038 75.5167 88.6258 75.8099 85.333 76.0533C80.6945 76.4081 76.053 76.2966 71.4115 76.411C66.3947 76.5341 61.3809 76.5136 56.367 76.4814C52.74 76.4579 49.1101 76.3846 45.486 76.2351C43.188 76.1462 40.8866 76.2443 38.6045 76.5283C37.903 76.6051 37.217 76.7869 36.5696 77.0678C35.5434 77.5252 35.3088 78.1526 35.7721 79.173C36.3086 80.3458 36.0653 81.0701 34.8748 81.6301C34.2507 81.9089 33.5964 82.1145 32.925 82.2429C30.6642 82.6882 28.3791 82.9995 26.0815 83.1753C23.6948 83.404 21.311 83.7031 18.9214 83.92C15.5993 84.2133 12.289 84.6384 8.96991 84.958C6.5226 85.1926 4.0792 85.4369 1.6397 85.691C1.09727 85.7497 0.551901 85.7761 0.07104 85.4271C0.0104149 85.2582 -0.0116261 85.0779 0.00653417 84.8994C0.00653417 80.8296 0.00653417 76.7589 0.00653417 72.6872C-0.0106967 72.5117 0.00623004 72.3345 0.0563796 72.1653C0.554833 71.749 1.1823 71.8721 1.73646 71.8516C3.82117 71.7255 5.90002 71.576 7.98473 71.444C10.5122 71.2818 13.0406 71.1039 15.57 70.9104C17.3967 70.7726 19.2263 70.6729 21.053 70.5204C25.4277 70.1598 29.817 69.9076 34.1154 68.9312C34.7478 68.8 35.3541 68.5652 35.9099 68.2363C36.8423 67.6499 36.983 67.1456 36.4758 66.1839C35.9304 65.1577 36.1826 64.583 37.2762 64.2458C38.597 63.8851 39.9623 63.7134 41.3313 63.7356C44.6299 63.6858 47.9343 63.6476 51.23 63.7356C53.259 63.7972 55.2909 63.7561 57.317 63.8382C60.4162 63.9614 63.5184 63.979 66.6176 64.0787C70.6932 64.2077 74.7688 64.2722 78.8473 64.3103C81.3044 64.3337 83.7614 64.3103 86.2156 64.2692C88.3238 64.2649 90.4275 64.0735 92.502 63.6975C93.2145 63.5753 93.9058 63.3511 94.5544 63.0319C95.7742 62.4044 96.3137 61.1173 95.0998 59.9356C94.6541 59.4987 94.2202 59.056 93.7774 58.6074C92.8245 57.6017 92.8392 56.6165 93.8332 55.6372C94.6864 54.7957 95.7595 54.3148 96.8415 53.8603C99.7384 52.6406 102.794 51.9867 105.869 51.4121C110.4 50.5676 114.959 49.9157 119.545 49.4564C122.263 49.1866 124.981 48.9491 127.71 48.8113C134.871 48.4448 142.034 48.6588 149.197 48.5973C149.473 48.5581 149.754 48.6286 149.98 48.7937Z" fill="#D87756"/>
<path d="M76.4341 71.2388C76.4331 71.8583 76.2811 72.4681 75.9914 73.0157C75.7819 73.4182 75.4806 73.7658 75.1117 74.0302C74.7684 74.2938 74.346 74.4335 73.9132 74.4266C73.4804 74.4197 73.0627 74.2665 72.728 73.992C72.3841 73.7324 72.1109 73.3907 71.9334 72.9981C71.6347 72.3815 71.4932 71.7007 71.5213 71.0162C71.5495 70.3318 71.7464 69.6649 72.0946 69.0749C72.2929 68.7386 72.562 68.4494 72.8834 68.2276C73.2199 67.9891 73.6237 67.8643 74.0361 67.8711C74.4484 67.878 74.8479 68.0162 75.1763 68.2657C75.535 68.5373 75.8244 68.8899 76.0207 69.2948C76.3135 69.8999 76.4554 70.5669 76.4341 71.2388Z" fill="#4B2D3A"/>
<path d="M60.9059 71.3502C60.8718 70.2617 61.0864 69.1797 61.5334 68.1865C61.6816 67.8466 61.8602 67.5208 62.067 67.2131C62.3991 66.727 62.8503 66.3343 63.3776 66.0725C63.5869 65.9651 63.817 65.9041 64.052 65.8936C64.2479 65.8826 64.4434 65.923 64.6188 66.011C64.7942 66.099 64.9435 66.2314 65.0519 66.395C65.29 66.778 65.4234 67.2168 65.4389 67.6675C65.4409 67.7175 65.4243 67.7664 65.3923 67.8048C65.3604 67.8433 65.3153 67.8685 65.2659 67.8757C65.2181 67.885 65.1686 67.8786 65.1247 67.8575C65.0809 67.8364 65.045 67.8016 65.0225 67.7584C64.9591 67.6588 64.9218 67.5449 64.914 67.4271C64.8852 67.194 64.8084 66.9693 64.6883 66.7674C64.6133 66.6295 64.4907 66.5237 64.3434 66.4697C64.196 66.4158 64.0341 66.4173 63.8878 66.4742C63.3595 66.6341 62.9008 66.9678 62.586 67.4213C62.2234 67.9083 61.9513 68.4565 61.7826 69.0398C61.3334 70.4418 61.2816 71.9408 61.633 73.3704C61.7048 73.6749 61.8288 73.9646 61.9996 74.2266C62.2216 74.6002 62.5588 74.8919 62.9605 75.0578C63.3622 75.2238 63.8069 75.2552 64.2279 75.1473C65.3656 74.8541 66.5736 73.9246 66.4651 72.2621C66.4421 71.8516 66.3072 71.4551 66.0751 71.1157C65.9872 70.9867 65.8846 70.8664 65.8054 70.7316C65.7217 70.6086 65.6878 70.4584 65.7107 70.3114C65.7336 70.1644 65.8114 70.0316 65.9285 69.9399C66.0472 69.8397 66.1795 69.7567 66.3214 69.6936C66.6105 69.5692 66.9252 69.5159 67.2392 69.5382C67.486 69.5158 67.7323 69.585 67.9314 69.7327C68.1304 69.8803 68.2681 70.096 68.3182 70.3387C68.4554 70.7466 68.5325 71.1723 68.5469 71.6024C68.5674 72.051 68.5791 72.4996 68.5879 72.9482C68.5493 73.4164 68.6237 73.887 68.8049 74.3204C68.8079 74.3399 68.8079 74.3596 68.8049 74.3791C68.8165 74.4384 68.8074 74.4998 68.7791 74.5532C68.7508 74.6065 68.7051 74.6486 68.6495 74.6723C68.6037 74.6896 68.5537 74.6928 68.5061 74.6812C68.4585 74.6697 68.4155 74.6441 68.3827 74.6078C68.2007 74.4016 68.0969 74.138 68.0895 73.863C68.0631 73.5698 68.0631 73.2766 68.0631 72.9834C68.0768 72.3774 68.0405 71.7714 67.9546 71.1714C67.917 70.9409 67.8661 70.7128 67.8021 70.4882C67.7745 70.3725 67.7096 70.269 67.6175 70.1938C67.5253 70.1185 67.4109 70.0757 67.292 70.0719C66.96 70.0337 66.6251 70.1125 66.3449 70.2947C66.3273 70.3041 66.3119 70.317 66.2995 70.3327C66.2872 70.3483 66.2783 70.3664 66.2733 70.3857C66.2684 70.405 66.2675 70.4251 66.2707 70.4448C66.2739 70.4645 66.2812 70.4832 66.2921 70.4999C66.3654 70.6143 66.4505 70.7228 66.5267 70.8342C66.9046 71.4373 67.0633 72.1522 66.9763 72.8586C66.8893 73.565 66.5617 74.2199 66.0488 74.7133C65.5269 75.2199 64.865 75.558 64.1488 75.6839C63.742 75.7514 63.3249 75.7183 62.9339 75.5875C62.5429 75.4567 62.1899 75.232 61.9057 74.9332C61.568 74.5786 61.3179 74.1498 61.1756 73.6812C60.944 72.9273 60.8525 72.1372 60.9059 71.3502ZM78.4837 71.6317C78.4168 71.7724 78.3865 71.9277 78.3957 72.0833C78.3224 72.8192 78.2491 73.5493 78.1729 74.294C78.1678 74.3941 78.1481 74.4929 78.1143 74.5873C78.0982 74.6228 78.0715 74.6526 78.038 74.6725C78.0044 74.6924 77.9655 74.7016 77.9266 74.6987C77.8874 74.6991 77.8489 74.6883 77.8156 74.6675C77.7824 74.6467 77.7558 74.6168 77.739 74.5814C77.6868 74.4542 77.6735 74.3144 77.7008 74.1797C77.7448 73.5581 77.78 72.9365 77.8387 72.3149C77.946 71.1314 78.1301 69.9561 78.3899 68.7964C78.4967 68.301 78.6559 67.8184 78.8649 67.3567C78.9369 67.1747 79.0423 67.0076 79.1757 66.8642C79.2441 66.7938 79.3341 66.7484 79.4314 66.7351C79.5286 66.7218 79.6275 66.7415 79.7123 66.7909C79.8952 66.904 80.0537 67.0525 80.1785 67.2277C80.7028 67.9008 81.1744 68.6135 81.5888 69.3594C81.6562 69.4766 81.7207 69.5998 81.7823 69.72C81.8439 69.8402 81.9465 69.8578 82.0755 69.7904C82.4332 69.5939 82.7939 69.4004 83.1575 69.204C83.2592 69.147 83.3689 69.1054 83.4829 69.0808C83.532 69.0759 83.5813 69.0866 83.6239 69.1113C83.6666 69.1361 83.7003 69.1736 83.7204 69.2186C83.7491 69.2586 83.7617 69.308 83.7557 69.3568C83.7497 69.4057 83.7256 69.4506 83.6882 69.4825C83.599 69.5592 83.5005 69.6242 83.395 69.676C83.0548 69.8637 82.7088 70.0455 82.3658 70.2302C82.2611 70.2739 82.1779 70.3571 82.1341 70.4618C82.5828 71.3414 82.9933 72.2563 83.5093 73.1271C83.5628 73.2088 83.6108 73.294 83.653 73.3822C83.6662 73.4189 83.6685 73.4586 83.6597 73.4966C83.6508 73.5345 83.6312 73.5691 83.6031 73.5962C83.5715 73.6333 83.5293 73.6599 83.4821 73.6725C83.435 73.6851 83.3852 73.683 83.3392 73.6666C83.275 73.6432 83.216 73.6073 83.1657 73.561C83.1154 73.5147 83.0747 73.4589 83.046 73.3968C82.8936 73.1241 82.7382 72.8544 82.5974 72.5759C82.3218 72.0393 82.055 71.4968 81.7823 70.9573C81.7325 70.8547 81.6738 70.755 81.6005 70.6172C80.8294 70.9368 80.0524 71.2036 79.3223 71.5526C79.1643 71.6671 78.975 71.7305 78.7799 71.7343C78.4573 71.3678 78.7564 71.1772 79.0086 71.0131C79.517 70.7278 80.0474 70.4836 80.5948 70.283C81.1343 70.0484 81.1812 69.9692 80.888 69.4737C80.5024 68.804 80.0631 68.1666 79.5744 67.5679C79.3513 67.8862 79.1975 68.2478 79.1229 68.6293C78.9294 69.4444 78.7799 70.2654 78.6567 71.0922C78.6303 71.2828 78.6772 71.4998 78.4837 71.6317Z" fill="#4B2D3A"/>
<path d="M85.8872 74.3175C85.7513 74.3398 85.6118 74.3154 85.4915 74.2483C85.3711 74.1812 85.2771 74.0754 85.2246 73.948C85.0697 73.588 84.9841 73.2021 84.9724 72.8104C84.9567 72.3814 84.9176 71.9537 84.8551 71.529C84.8053 71.2358 84.7848 70.9426 84.7232 70.6494C84.5648 69.9457 84.5003 69.2244 84.3889 68.5119C84.3703 68.2587 84.314 68.0096 84.2218 67.773C84.1901 67.7023 84.1799 67.6238 84.1925 67.5473C84.2071 67.43 84.254 67.3186 84.3948 67.298C84.4543 67.2813 84.5179 67.2881 84.5725 67.3171C84.6271 67.346 84.6685 67.3948 84.688 67.4534C84.75 67.6178 84.7961 67.7876 84.8258 67.9607C84.9138 68.4386 84.9871 68.9224 85.0662 69.4033C85.1043 69.6349 85.1337 69.8666 85.1835 70.0953C85.3619 71.0151 85.4804 71.9455 85.5383 72.8807C85.5476 73.0363 85.5672 73.191 85.5969 73.344C85.6908 73.7486 85.7729 73.8014 86.1599 73.7105C86.3476 73.6636 86.5352 73.605 86.7229 73.5492C87.2272 73.3968 87.7256 73.2296 88.2329 73.0948C88.7401 72.9599 89.3324 72.825 89.8836 72.6931C89.9979 72.6686 90.1134 72.65 90.2296 72.6374C90.4437 72.611 90.5727 72.6843 90.5873 72.8338C90.602 72.9834 90.517 73.1006 90.3088 73.1505C90.0156 73.2179 89.737 73.2707 89.4497 73.3293C88.6082 73.5053 87.7989 73.7926 86.975 74.033C86.6818 74.1151 86.4091 74.1884 86.1276 74.2617C86.0221 74.2969 85.9253 74.3116 85.8872 74.3175Z" fill="#4B2D3A"/>
<path d="M78.4836 71.6317C78.5258 70.8759 78.6347 70.1253 78.8091 69.3886C78.8913 68.8885 79.0219 68.3975 79.1991 67.9226C79.2641 67.7178 79.3632 67.5255 79.4923 67.3538C79.5408 67.354 79.5884 67.3671 79.6302 67.3919C79.6719 67.4166 79.7063 67.452 79.7298 67.4945C80.3248 68.2378 80.8463 69.0371 81.2867 69.8812C81.3835 70.0659 81.3542 70.1392 81.1342 70.2331C80.6886 70.4236 80.237 70.5996 79.7943 70.799C79.5011 70.9338 79.2079 71.0922 78.9147 71.2476C78.7094 71.3648 78.7123 71.403 78.8003 71.7372L78.4836 71.6317Z" fill="#D87756"/>
<path d="M55.6251 70.5761C55.6255 70.6153 55.6147 70.6538 55.5939 70.6871C55.5731 70.7204 55.5432 70.747 55.5078 70.7638C55.3675 70.8317 55.2225 70.8895 55.0739 70.9368L50.8018 72.3266L49.4707 72.7576C49.3611 72.7944 49.2482 72.8199 49.1335 72.8338C49.0943 72.836 49.0553 72.8263 49.0218 72.8059C48.9883 72.7854 48.9618 72.7553 48.9458 72.7195C48.9256 72.6863 48.9149 72.6483 48.9149 72.6095C48.9149 72.5707 48.9256 72.5327 48.9458 72.4996C49.0175 72.3819 49.1321 72.2967 49.2654 72.2621C49.5205 72.1653 49.7785 72.0773 50.0395 71.9952L54.9976 70.4442C55.1226 70.3892 55.257 70.3583 55.3935 70.3533C55.4526 70.3559 55.5087 70.38 55.5513 70.421C55.5939 70.462 55.6202 70.5172 55.6251 70.5761Z" fill="#4B2D3A"/>
<path d="M50.5409 66.2337C50.604 66.2422 50.666 66.258 50.7256 66.2806C51.4748 66.5591 52.2483 66.7672 53.0361 66.9022C53.8571 67.0693 54.6575 67.3127 55.4609 67.5472C55.7248 67.6235 55.9887 67.6909 56.2496 67.7642C56.3447 67.786 56.4379 67.8154 56.5282 67.8522C56.5839 67.8678 56.6316 67.9042 56.6612 67.954C56.6909 68.0037 56.7002 68.063 56.6874 68.1195C56.6746 68.1759 56.6406 68.2253 56.5924 68.2575C56.5442 68.2896 56.4855 68.3019 56.4285 68.292C56.2557 68.2658 56.0844 68.2306 55.9154 68.1864C55.0094 67.9548 54.1063 67.7144 53.2003 67.4886C52.7077 67.3684 52.2063 67.2892 51.7166 67.1602C51.227 67.0312 50.837 66.8816 50.3825 66.7321C50.189 66.6705 50.1333 66.5884 50.148 66.4389C50.1626 66.2894 50.3122 66.2073 50.5409 66.2337ZM57.3169 71.9131C57.3041 71.9593 57.2853 72.0036 57.2612 72.045C57.2209 72.0866 57.1756 72.123 57.1263 72.1535L52.825 75.2557C52.7342 75.322 52.6358 75.3772 52.5318 75.4199C52.4939 75.4313 52.4536 75.4316 52.4157 75.4206C52.3777 75.4097 52.3437 75.3881 52.3177 75.3583C52.2843 75.3228 52.2625 75.278 52.2552 75.2298C52.2479 75.1816 52.2554 75.1324 52.2767 75.0885C52.3426 74.9635 52.4448 74.8613 52.5699 74.7953C53.0214 74.4611 53.4759 74.1239 53.9362 73.7984C54.8237 73.171 55.714 72.5454 56.6073 71.9219C56.7512 71.8231 56.9044 71.7386 57.0648 71.6697C57.1674 71.6199 57.3286 71.7489 57.3169 71.9131Z" fill="#4B2D3A"/>
<path d="M98.0261 63.5627C98.0304 63.6019 98.0243 63.6415 98.0083 63.6776C97.9924 63.7136 97.9671 63.7448 97.9352 63.7679C97.8116 63.8623 97.6812 63.9476 97.5452 64.023C96.5454 64.586 95.5397 65.1401 94.5398 65.706C94.2275 65.8585 93.9325 66.0443 93.6602 66.2602C93.6154 66.2985 93.5621 66.3256 93.5048 66.3393C93.4514 66.3569 93.3938 66.3564 93.3408 66.3378C93.2877 66.3193 93.2423 66.2837 93.2116 66.2367C93.1769 66.1884 93.1627 66.1284 93.172 66.0696C93.1813 66.0109 93.2135 65.9582 93.2614 65.923C93.3816 65.8241 93.5101 65.7358 93.6455 65.6591C94.3844 65.2252 95.1243 64.7941 95.8651 64.3661C96.3724 64.0728 96.8825 63.7796 97.3927 63.507C97.5107 63.4405 97.6344 63.3846 97.7622 63.3398C97.8261 63.3371 97.8887 63.3585 97.9376 63.3998C97.9864 63.4411 98.018 63.4992 98.0261 63.5627ZM98.0378 72.5847C98.0344 72.6205 98.0232 72.6551 98.0049 72.6861C97.9867 72.7171 97.9619 72.7438 97.9323 72.7642C97.9027 72.7846 97.8689 72.7982 97.8335 72.8042C97.798 72.8102 97.7617 72.8083 97.727 72.7987C97.6393 72.7592 97.5574 72.7079 97.4836 72.6463C97.0789 72.3081 96.6042 72.0637 96.0938 71.9308C95.4071 71.7166 94.7369 71.453 94.0883 71.1421C93.9482 71.0748 93.8172 70.9901 93.6983 70.8899C93.6548 70.8506 93.6283 70.7958 93.6245 70.7372C93.6206 70.6787 93.6398 70.6209 93.6778 70.5762C93.7066 70.5363 93.7487 70.508 93.7964 70.4962C93.8442 70.4844 93.8946 70.4899 93.9387 70.5117C94.1322 70.5997 94.3199 70.7052 94.5251 70.7844C95.1151 71.037 95.7191 71.2553 96.3342 71.4382C96.8439 71.5755 97.3186 71.8193 97.727 72.1537C97.8294 72.2419 97.9227 72.3401 98.0055 72.4469C98.0257 72.4901 98.0366 72.537 98.0378 72.5847ZM95.1526 67.8758C96.1495 67.8758 97.1288 68.0663 98.1199 68.1308C98.1773 68.1382 98.2334 68.153 98.287 68.1748C98.3431 68.198 98.3895 68.2399 98.4183 68.2933C98.4471 68.3467 98.4567 68.4084 98.4453 68.468C98.4377 68.5163 98.4148 68.5609 98.3799 68.5952C98.3451 68.6295 98.3002 68.6517 98.2518 68.6586C98.1545 68.6706 98.056 68.6706 97.9586 68.6586C97.2637 68.5941 96.5629 68.5355 95.868 68.4534C95.3811 68.4018 94.8917 68.3753 94.402 68.3742C94.2869 68.3738 94.1721 68.363 94.0589 68.342C93.9505 68.3185 93.8478 68.1602 93.8801 68.0751C93.893 68.0274 93.92 67.9847 93.9578 67.9528C93.9955 67.9208 94.042 67.9011 94.0912 67.8963C94.2847 67.8963 94.4812 67.8963 94.6776 67.8963L95.1526 67.8758Z" fill="#4B2D3A"/>
<path d="M79.9673 29.6032C79.9539 29.3772 79.8767 29.1596 79.7445 28.9757C79.612 28.7867 79.5402 28.5618 79.5386 28.3309C79.537 28.1 79.6056 27.8741 79.7355 27.6832C79.8653 27.4923 80.0501 27.3454 80.2654 27.2621C80.4807 27.1787 80.7163 27.1628 80.9408 27.2165C81.0522 27.2458 81.1607 27.2869 81.2692 27.325C81.3777 27.4833 81.5008 27.6182 81.5946 27.8029C81.6832 27.9533 81.737 28.1215 81.7523 28.2953C81.7675 28.4691 81.7438 28.6442 81.6829 28.8077C81.6219 28.9712 81.5253 29.119 81.3999 29.2404C81.2746 29.3618 81.1237 29.4537 80.9584 29.5094C80.8387 29.5498 80.7119 29.5647 80.5862 29.5531C80.4604 29.5415 80.3385 29.5036 80.2283 29.4419C80.0201 29.3364 80.0113 29.483 79.9673 29.6032Z" fill="#D87756"/>
<path d="M69.4148 138.416C69.5584 138.462 69.6141 138.571 69.708 138.656C70.1909 139.187 70.8258 139.557 71.5262 139.714C72.2266 139.871 72.9586 139.809 73.6223 139.536C74.2057 139.308 74.7372 138.965 75.1851 138.527L75.3874 138.336C75.5487 138.369 75.5751 138.492 75.6191 138.594C75.7397 138.839 75.8435 139.092 75.9299 139.351C76.1146 139.987 76.2758 140.629 76.443 141.271C76.4635 141.345 76.4752 141.424 76.4987 141.497C76.6687 142.043 76.4136 142.394 75.9768 142.67C75.4368 142.987 74.8469 143.21 74.2322 143.33C73.3163 143.527 72.3873 143.657 71.4526 143.72C69.8354 143.827 68.2125 143.815 66.597 143.684C63.9685 143.509 61.3628 143.083 58.8153 142.412C58.6628 142.371 58.5221 142.327 58.3667 142.277C58.3359 142.271 58.3072 142.257 58.2838 142.236C58.2603 142.215 58.2429 142.188 58.2333 142.158C58.2238 142.128 58.2224 142.096 58.2293 142.066C58.2363 142.035 58.2513 142.007 58.2729 141.984C58.376 141.784 58.5216 141.61 58.6994 141.473C58.8772 141.335 59.0829 141.239 59.302 141.189C59.7847 141.091 60.2807 141.077 60.7681 141.148C62.6497 141.366 64.5553 141.078 66.2892 140.316C67.3621 139.895 68.3586 139.3 69.2388 138.556C69.2942 138.505 69.353 138.458 69.4148 138.416ZM114.202 112.833C114.114 112.54 114.053 112.352 114.003 112.165C113.714 111.13 113.309 110.132 112.795 109.189C112.129 107.941 111.124 106.907 109.895 106.207L109.344 105.875C109.329 105.875 109.323 105.843 109.291 105.79C109.666 105.656 110.03 105.496 110.382 105.309C110.753 105.131 111.065 104.849 111.279 104.497C111.707 103.717 111.725 102.82 110.986 102.084C110.243 101.349 109.258 100.91 108.215 100.85C108.098 100.85 107.98 100.85 107.863 100.85C107.746 100.85 107.661 100.738 107.746 100.609C108.031 100.139 108.449 99.763 108.948 99.5303C109.472 99.265 110.056 99.1378 110.643 99.1609C110.971 99.1902 111.305 99.1843 111.637 99.1931C111.762 99.1946 111.884 99.2323 111.988 99.3015C112.092 99.3707 112.173 99.4684 112.223 99.5831C113.064 101.082 113.707 102.683 114.135 104.348C114.287 104.993 114.484 105.629 114.66 106.268C114.92 107.327 115.091 108.406 115.17 109.494C115.184 109.788 115.162 110.084 115.105 110.373C115.045 110.857 114.955 111.337 114.836 111.81C114.71 112.197 114.492 112.548 114.202 112.833Z" fill="#D87756"/>
<path d="M74.7892 29.1136C75.3335 29.1714 75.8836 29.1437 76.4194 29.0315C76.6364 28.9875 76.8504 28.9553 77.0058 29.1605C77.072 29.2578 77.1074 29.3727 77.1074 29.4904C77.1074 29.608 77.072 29.723 77.0058 29.8202C76.9624 29.9083 76.9061 29.9893 76.8387 30.0607C76.2772 30.6612 75.5576 31.0911 74.7628 31.3009C74.6482 31.32 74.5313 31.32 74.4168 31.3009C74.3781 31.2931 74.3439 31.2709 74.321 31.2387C74.2982 31.2066 74.2884 31.167 74.2936 31.1279C74.2936 31.0781 74.3317 30.9989 74.3699 30.9872C74.5165 30.9344 74.6631 30.908 74.8214 30.864C75.5143 30.6472 76.1328 30.241 76.607 29.6912C76.6217 29.678 76.6319 29.6606 76.6364 29.6414C76.6558 29.5879 76.6628 29.5308 76.6569 29.4742C76.6422 29.4185 76.5807 29.4068 76.5162 29.4156C76.2669 29.4478 76.0118 29.4713 75.7626 29.5036C75.1593 29.5457 74.5531 29.5172 73.9564 29.4185C73.9175 29.4114 73.8828 29.3893 73.8598 29.357C73.8368 29.3247 73.8273 29.2847 73.8333 29.2455C73.8348 29.2058 73.8514 29.1682 73.8798 29.1404C73.9081 29.1126 73.9461 29.0967 73.9858 29.096C74.2584 29.1107 74.5165 29.1136 74.7892 29.1136Z" fill="#0C0909"/>
<path d="M76.2318 22.2583C76.2387 22.2972 76.2369 22.3372 76.2267 22.3753C76.2164 22.4134 76.1979 22.4489 76.1725 22.4791C76.147 22.5093 76.1152 22.5335 76.0794 22.5501C76.0435 22.5667 76.0045 22.5752 75.965 22.575C75.8331 22.5425 75.71 22.4815 75.6044 22.3962C75.1821 22.1412 74.6759 22.0642 74.197 22.1821C73.9512 22.2459 73.7248 22.3687 73.5372 22.5398C73.4732 22.6136 73.3866 22.6641 73.2909 22.6835C73.2427 22.6934 73.1927 22.6886 73.1472 22.6698C73.1018 22.651 73.063 22.619 73.0359 22.5779C73.0122 22.5462 72.9982 22.5082 72.9956 22.4687C72.993 22.4291 73.0019 22.3897 73.0212 22.3551C73.082 22.2566 73.156 22.1668 73.2411 22.0883C73.6492 21.7677 74.153 21.5935 74.672 21.5935C75.1909 21.5935 75.6947 21.7677 76.1028 22.0883C76.1613 22.1314 76.206 22.1904 76.2318 22.2583Z" fill="#0B0808"/>
<path d="M71.0509 21.6279C71.4223 21.638 71.7857 21.7387 72.1094 21.9211C72.1769 21.9585 72.2343 22.0118 72.2765 22.0765C72.3045 22.1165 72.3195 22.1641 72.3195 22.2129C72.3195 22.2617 72.3045 22.3093 72.2765 22.3492C72.2521 22.3797 72.2207 22.4039 72.185 22.4197C72.1492 22.4356 72.1102 22.4426 72.0712 22.4401C71.9547 22.4246 71.8429 22.3846 71.7429 22.3228C71.4423 22.1752 71.1023 22.128 70.7729 22.1882C70.4435 22.2483 70.1422 22.4127 69.9132 22.6571C69.8484 22.7285 69.7767 22.7933 69.6992 22.8506C69.6576 22.8782 69.6078 22.8907 69.5582 22.8859C69.5085 22.8811 69.462 22.8593 69.4265 22.8242C69.3874 22.794 69.3592 22.752 69.346 22.7045C69.3328 22.6569 69.3353 22.6063 69.3532 22.5603C69.3895 22.4716 69.44 22.3894 69.5027 22.317C69.6999 22.1022 69.939 21.9303 70.2053 21.8118C70.4716 21.6932 70.7594 21.6307 71.0509 21.6279Z" fill="#080606"/>
<path d="M72.0798 27.6975C72.1827 27.3192 72.3418 26.9584 72.5519 26.6273C72.5745 26.5942 72.6079 26.5699 72.6464 26.5587C72.6849 26.5474 72.7261 26.5499 72.763 26.5658C72.8095 26.5803 72.8506 26.6085 72.8809 26.6466C72.9113 26.6848 72.9294 26.7312 72.9331 26.7798C72.9367 26.8569 72.9237 26.9339 72.895 27.0056C72.8363 27.1492 72.7571 27.2988 72.6956 27.4278C72.5578 27.7562 72.5959 27.8705 72.892 28.0523C73.0064 28.1227 73.1295 28.1813 73.2409 28.2576C73.2825 28.2838 73.3143 28.323 73.3312 28.3691C73.3482 28.4153 73.3495 28.4657 73.3348 28.5127C73.322 28.5604 73.2931 28.6022 73.2531 28.631C73.213 28.6599 73.1642 28.674 73.1149 28.671C72.8926 28.6501 72.6805 28.5684 72.5015 28.435C72.3226 28.3016 72.1838 28.1215 72.1004 27.9145C72.0881 27.8428 72.0813 27.7703 72.0798 27.6975Z" fill="#0C0A0A"/>
<path d="M38.4255 11.1809C38.4811 10.4105 38.7834 9.67849 39.2876 9.0933C39.3366 9.03358 39.3975 8.98466 39.4664 8.94963C39.5099 8.92754 39.559 8.91935 39.6073 8.92616C39.6556 8.93298 39.7005 8.95448 39.7362 8.98775C39.7768 9.01524 39.8062 9.05639 39.8192 9.10372C39.8321 9.15106 39.8276 9.20145 39.8065 9.24577C39.766 9.33378 39.7148 9.4165 39.6541 9.49206C39.2553 10.0447 39.0325 10.7049 39.0149 11.3862C39.014 11.5216 39.0042 11.6567 38.9856 11.7908C38.9578 11.8625 38.9031 11.9204 38.8331 11.9521C38.7871 11.9691 38.7367 11.9703 38.6899 11.9555C38.6432 11.9406 38.6028 11.9105 38.5751 11.87C38.4432 11.6661 38.39 11.4212 38.4255 11.1809Z" fill="#4B2D3A"/>
<path d="M38.5341 9.04932C38.1692 9.0123 37.8116 8.92242 37.4726 8.7825C37.3796 8.74918 37.3016 8.68365 37.2527 8.59778C37.2354 8.56318 37.2264 8.52503 37.2264 8.48636C37.2264 8.44768 37.2354 8.40953 37.2527 8.37494C37.2695 8.3395 37.2961 8.30963 37.3294 8.28884C37.3627 8.26805 37.4012 8.25723 37.4404 8.25765C37.5176 8.25634 37.5943 8.27029 37.6662 8.2987C38.003 8.45435 38.3713 8.52963 38.7422 8.51861C38.7811 8.51283 38.8206 8.51283 38.8595 8.51861C38.9148 8.5357 38.9638 8.56876 39.0003 8.61363C39.0368 8.6585 39.0592 8.71318 39.0648 8.77077C39.0626 8.82004 39.0442 8.86722 39.0123 8.90489C38.9805 8.94256 38.9371 8.96861 38.8888 8.97895L38.5341 9.04932Z" fill="#130E0E"/>
<path d="M118.533 12.8054C118.533 12.8963 118.507 13.0722 118.483 13.2452C118.465 13.3588 118.408 13.4626 118.322 13.5384C118.297 13.5693 118.264 13.5914 118.226 13.6015C118.187 13.6115 118.147 13.6089 118.111 13.5941C118.044 13.5574 117.99 13.5012 117.955 13.4329C117.938 13.3586 117.938 13.2813 117.955 13.2071C118.074 12.4559 117.949 11.6866 117.601 11.011C117.571 10.9613 117.547 10.9081 117.53 10.8526C117.515 10.8057 117.517 10.7548 117.536 10.7092C117.555 10.6635 117.589 10.626 117.633 10.6034C117.675 10.5785 117.725 10.5687 117.774 10.5756C117.823 10.5826 117.868 10.6058 117.903 10.6415C117.983 10.7295 118.051 10.8281 118.105 10.9347C118.387 11.5181 118.533 12.1575 118.533 12.8054Z" fill="#4B2D3A"/>
<path d="M119.014 10.8203C118.831 10.8229 118.65 10.7911 118.48 10.7264C118.354 10.6825 118.278 10.6033 118.298 10.4684C118.319 10.3335 118.407 10.2368 118.536 10.2632C118.979 10.3187 119.429 10.2959 119.864 10.1957C119.922 10.1878 119.981 10.2022 120.029 10.2359C120.077 10.2696 120.11 10.3202 120.122 10.3775C120.135 10.4353 120.126 10.496 120.097 10.5475C120.068 10.5991 120.02 10.6378 119.964 10.6561C119.66 10.7708 119.338 10.8266 119.014 10.8203Z" fill="#151111"/>
<path d="M74.5516 23.4135C74.4022 23.3669 74.2423 23.3661 74.0924 23.411C73.9424 23.4559 73.8093 23.5446 73.7101 23.6657C73.5531 23.8257 73.4479 24.0293 73.4081 24.25C73.3684 24.4707 73.396 24.6982 73.4873 24.903C73.5311 24.9986 73.5944 25.084 73.6732 25.1536C73.752 25.2233 73.8445 25.2757 73.9448 25.3074C74.045 25.3392 74.1508 25.3496 74.2553 25.338C74.3598 25.3264 74.4608 25.2931 74.5516 25.2402C74.7198 25.1431 74.8594 25.0033 74.9562 24.8349C75.053 24.6665 75.1036 24.4756 75.1029 24.2814C75.1136 24.0972 75.0662 23.9143 74.9673 23.7585C74.8683 23.6028 74.7229 23.4821 74.5516 23.4135ZM73.9652 24.645C73.938 24.6567 73.9074 24.6584 73.879 24.6498C73.8505 24.6413 73.8261 24.6229 73.8098 24.5981C73.7613 24.5368 73.7323 24.4625 73.7266 24.3846C73.7208 24.3067 73.7386 24.2288 73.7776 24.1612C73.7967 24.1055 73.8289 24.0553 73.8714 24.0146C73.9149 23.9774 73.9696 23.9557 74.0268 23.953C74.0659 23.9559 74.1029 23.972 74.1316 23.9986C74.1604 24.0252 74.1793 24.0608 74.1851 24.0996C74.1851 24.1582 74.1851 24.2169 74.2027 24.2579C74.2012 24.3404 74.1761 24.4206 74.1304 24.4892C74.0847 24.5578 74.0202 24.6119 73.9447 24.645H73.9652ZM74.6367 24.6948C74.6338 24.7218 74.6212 24.7468 74.6013 24.7651C74.5813 24.7835 74.5553 24.7939 74.5282 24.7945C74.5107 24.795 74.4934 24.7909 74.478 24.7827C74.4627 24.7744 74.4497 24.7622 74.4405 24.7474C74.4313 24.7325 74.4262 24.7155 74.4256 24.6981C74.425 24.6806 74.4291 24.6633 74.4373 24.6479C74.4578 24.601 74.4959 24.5511 74.5575 24.5775C74.5798 24.5867 74.598 24.6036 74.6088 24.6252C74.6196 24.6467 74.6222 24.6715 74.6162 24.6948H74.6367ZM71.4436 23.4692C71.2523 23.4278 71.0525 23.454 70.8782 23.5433C70.704 23.6325 70.566 23.7794 70.4878 23.9589C70.4214 24.0895 70.3825 24.2323 70.3734 24.3785C70.3643 24.5248 70.3853 24.6713 70.435 24.8092C70.4737 24.9298 70.5416 25.0391 70.6327 25.1271C70.7238 25.2152 70.8353 25.2793 70.9572 25.3139C71.0791 25.3484 71.2076 25.3523 71.3314 25.3251C71.4552 25.2979 71.5703 25.2405 71.6665 25.1581C71.7805 25.0702 71.8747 24.9592 71.9429 24.8324C72.0112 24.7055 72.0518 24.5657 72.0623 24.4221C72.0844 24.2164 72.035 24.0093 71.9223 23.8357C71.8096 23.6622 71.6406 23.5327 71.4436 23.4692ZM70.8807 24.6743C70.8612 24.6759 70.8416 24.6759 70.822 24.6743C70.7867 24.6588 70.7553 24.6355 70.7304 24.606C70.7055 24.5765 70.6877 24.5417 70.6784 24.5042C70.6634 24.4176 70.6666 24.3288 70.6878 24.2435C70.709 24.1582 70.7477 24.0782 70.8015 24.0087C70.8242 23.9768 70.8557 23.9523 70.8922 23.9383C70.9287 23.9242 70.9686 23.9211 71.0068 23.9295C71.0456 23.9326 71.0827 23.9466 71.1139 23.97C71.145 23.9933 71.1689 24.0251 71.1827 24.0615C71.2213 24.1829 71.2115 24.3145 71.1552 24.4287C71.0989 24.543 71.0005 24.631 70.8807 24.6743ZM71.4906 24.7769C71.4772 24.7799 71.4633 24.78 71.4499 24.7772C71.4365 24.7744 71.4239 24.7688 71.4128 24.7608C71.4017 24.7528 71.3924 24.7425 71.3856 24.7306C71.3788 24.7187 71.3746 24.7055 71.3733 24.6919C71.3685 24.6739 71.3677 24.6551 71.3709 24.6367C71.3741 24.6184 71.3813 24.6009 71.3919 24.5856C71.4025 24.5703 71.4162 24.5574 71.4323 24.5479C71.4483 24.5384 71.4662 24.5325 71.4847 24.5306C71.5609 24.5042 71.5902 24.5717 71.5932 24.6156C71.5961 24.6596 71.5902 24.7623 71.4906 24.7916V24.7769Z" fill="#070606"/>
</svg>
