<svg width="150" height="105" viewBox="0 0 150 105" fill="none" xmlns="http://www.w3.org/2000/svg">
<path d="M149.885 86.646C149.788 82.3637 149.811 78.0784 149.844 73.7961C149.859 71.7493 149.891 69.7055 149.859 67.6587C149.838 66.5203 149.82 65.3789 149.75 64.2435C149.673 63.0225 149.546 61.8044 149.419 60.5893C149.322 59.6445 149.177 58.7054 148.983 57.7757C148.464 55.3639 147.649 53.0253 146.558 50.8125C146.134 49.9425 145.626 49.1138 145.166 48.2614C143.954 46.0082 142.418 43.9673 141.014 41.8379C140.828 41.5578 140.619 41.2923 140.424 41.021C139.976 40.4075 139.516 39.8029 139.079 39.1806C138.524 38.3351 137.922 37.5209 137.277 36.7416C136.523 35.857 135.945 34.8371 135.572 33.7363C135.51 33.5594 135.443 33.3824 135.378 33.2025C135.083 32.3856 134.812 31.5716 134.531 30.7546C134.483 30.6378 134.46 30.5122 134.464 30.386C134.486 30.0502 134.545 29.7179 134.64 29.395C134.84 28.8403 135.077 28.2994 135.348 27.7759L136.552 25.4784C137.228 24.2155 137.787 22.8937 138.224 21.5293C138.766 19.9048 139.005 18.1942 138.929 16.4831C138.92 16.3358 138.92 16.1881 138.929 16.0408C138.929 15.967 138.879 15.8697 139.029 15.8048C139.167 15.9121 139.293 16.0348 139.404 16.1705C139.593 16.3697 139.822 16.5273 140.076 16.6336C140.126 16.654 140.181 16.6587 140.234 16.6471C140.286 16.6356 140.334 16.6082 140.371 16.5687C140.413 16.5335 140.441 16.4853 140.453 16.4319C140.464 16.3784 140.457 16.3228 140.433 16.2737C140.347 16.082 140.238 15.8992 140.138 15.7163C139.774 15.0757 139.505 14.3851 139.342 13.6666C139.475 13.6561 139.61 13.6773 139.734 13.7285C139.939 13.7789 140.148 13.8076 140.359 13.8141C140.423 13.8198 140.488 13.8081 140.546 13.7803C140.605 13.7524 140.654 13.7094 140.69 13.6557C140.726 13.602 140.747 13.5396 140.75 13.4751C140.754 13.4106 140.74 13.3464 140.71 13.2891C140.655 13.1532 140.589 13.022 140.512 12.8968C140.176 12.2864 139.822 11.6877 139.51 11.0654C138.831 9.84813 138.245 8.58124 137.758 7.27556C137.531 6.63938 137.218 6.0371 136.829 5.48536C136.39 4.81003 135.817 4.23266 135.145 3.78953C134.328 3.26751 133.493 2.76909 132.635 2.3149C131.889 1.92724 131.096 1.63872 130.276 1.45667C129.243 1.22958 128.211 1.09686 127.152 0.972992C125.955 0.852577 124.77 0.624564 123.613 0.291714C123.374 0.209357 123.128 0.148167 122.879 0.108857C121.831 -0.0253718 120.77 -0.0134579 119.726 0.144251C118.343 0.362496 117.045 0.860921 115.73 1.32395C114.773 1.6536 113.862 2.10458 113.019 2.66586C111.567 3.60487 110.172 4.62908 108.84 5.7331C107.931 6.49405 107.142 7.38908 106.502 8.38743C105.773 9.52126 105.244 10.771 104.936 12.0829C104.824 12.5111 104.751 12.9483 104.717 13.3894C104.708 13.4727 104.708 13.5567 104.717 13.6401C104.721 13.6823 104.74 13.7217 104.771 13.7506C104.802 13.7795 104.843 13.7958 104.885 13.7964C104.948 13.7988 105.009 13.78 105.059 13.7433C105.102 13.6982 105.133 13.6436 105.151 13.584C105.481 12.7357 105.934 11.9407 106.496 11.2246C106.575 11.1951 106.67 11.0772 106.693 11.2777C106.732 11.5992 106.64 11.9265 106.749 12.2451C106.742 13.1317 106.786 14.0179 106.882 14.8994C107.032 15.8579 107.127 16.8253 107.324 17.7749C107.75 19.7112 107.942 21.6915 107.897 23.6734C107.865 24.7916 107.656 25.8976 107.277 26.9501C107.075 27.5284 106.961 28.1339 106.938 28.7462C106.906 29.0955 106.963 29.4472 107.102 29.7692C107.241 30.0911 107.458 30.3732 107.734 30.5895C108.265 31.0451 108.904 31.3569 109.589 31.4949C109.837 31.5362 110.088 31.5804 110.333 31.6453C110.701 31.7456 110.973 31.9166 110.993 32.3679C111.009 32.5589 111.076 32.7421 111.188 32.898C111.3 33.0538 111.451 33.1764 111.627 33.2526C111.852 33.3706 112.067 33.5004 112.285 33.6272C112.576 33.8037 112.807 34.0637 112.949 34.3734C113.042 34.5637 113.121 34.7609 113.185 34.9632C113.328 35.4278 113.569 35.8562 113.892 36.2196C114.238 36.6191 114.52 37.0698 114.727 37.5556C114.874 37.882 115.045 38.1965 115.24 38.4964C115.792 39.3812 116.632 39.6319 117.6 39.5405C118.361 39.4838 119.104 39.2836 119.791 38.9506C120.971 38.3608 122.233 37.9125 123.36 37.1958C123.543 37.0854 123.742 37.0019 123.949 36.9481C124.297 36.8419 124.424 36.9245 124.468 37.2725C124.504 37.5438 124.504 37.8181 124.522 38.0924C124.592 39.2573 124.749 40.4016 125.288 41.4575C125.41 41.7061 125.435 41.9907 125.359 42.2567C125.288 42.5516 125.209 42.8731 125.108 43.171C124.02 46.3975 123.374 49.7243 122.855 53.0805C122.699 54.101 122.578 55.145 122.457 56.1536C122.2 58.2889 121.948 60.4251 121.702 62.5624C121.423 65.0162 121.203 67.4739 121.041 69.9355C121.046 69.999 121.04 70.0628 121.024 70.1243C121.019 70.1392 121.011 70.1529 121 70.1642C120.989 70.1756 120.976 70.1845 120.961 70.1901C120.946 70.1957 120.931 70.1981 120.915 70.1969C120.899 70.1957 120.884 70.191 120.87 70.1833C120.777 70.1366 120.692 70.0726 120.623 69.9945C120.239 69.5197 119.85 69.0478 119.493 68.5523C119.301 68.2501 119.04 67.9974 118.732 67.815C118.576 67.7459 118.447 67.6279 118.364 67.4788C118.027 66.771 117.464 66.2047 117.163 65.4733C117.013 65.1076 116.777 65.0398 116.39 65.1194C116.234 65.1489 116.119 65.3376 115.93 65.2344C115.843 64.6941 115.723 64.1594 115.574 63.633C115.438 63.1017 115.225 62.593 114.942 62.1229C114.671 61.7018 114.435 61.2589 114.237 60.7987C114.754 60.2708 114.795 60.1941 114.931 59.4716C114.954 59.3477 114.984 59.2238 114.995 59.0999C115.11 57.6489 115.29 56.2008 115.261 54.7409C115.261 53.8562 115.261 52.9714 115.261 52.0866C115.245 51.2852 115.159 50.4867 115.001 49.7007C114.971 49.5347 114.926 49.3718 114.866 49.214C114.815 49.0407 114.715 48.8861 114.577 48.7696C114.439 48.6531 114.269 48.58 114.09 48.5593C113.341 48.4561 112.595 48.3057 111.843 48.2024C109.881 47.9311 107.914 47.6775 105.944 47.4091C105.566 47.3751 105.195 47.2836 104.844 47.1378C104.799 47.1215 104.758 47.0959 104.723 47.0626C104.688 47.0293 104.661 46.9891 104.643 46.9446C104.625 46.9001 104.616 46.8522 104.618 46.8042C104.62 46.7562 104.631 46.7091 104.652 46.6659C104.736 46.4747 104.835 46.2903 104.947 46.1144C105.383 45.4383 105.655 44.6697 105.741 43.87C105.806 43.3673 105.817 42.8591 105.773 42.354C105.593 40.8411 105.015 39.5522 103.673 38.7088C103.423 38.5522 103.164 38.4104 102.898 38.2841C102.399 38.0538 101.857 37.9322 101.308 37.9272C100.525 37.9343 99.7567 38.1371 99.0724 38.5171C97.969 39.1126 97.0507 40.0003 96.4181 41.0829C95.905 41.8906 95.6959 42.8545 95.8282 43.8021C95.8852 44.4118 95.9837 45.0168 96.1231 45.613C96.1503 45.7362 96.1671 45.8615 96.1733 45.9875C96.1969 46.3267 96.1113 46.4388 95.7692 46.5096C95.669 46.5302 95.5598 46.5331 95.4566 46.5449C94.8891 46.5995 94.3187 46.6172 93.749 46.598C92.9055 46.5803 92.062 46.5597 91.2185 46.5685C89.9946 46.5685 88.7706 46.6275 87.5467 46.6423C86.4938 46.6423 85.438 46.6423 84.3821 46.6423C84.0486 46.6755 83.7118 46.6373 83.3941 46.5302C83.1539 46.4493 82.9013 46.4114 82.648 46.4181C81.4447 46.368 80.2443 46.3179 79.041 46.2943C78.1975 46.2795 77.354 46.2943 76.5106 46.3297C75.5019 46.3798 74.4962 46.5007 73.4787 46.4565C73.299 46.4443 73.119 46.4749 72.9535 46.5458C72.788 46.6167 72.6416 46.7259 72.5265 46.8644C72.4113 47.0028 72.3306 47.1667 72.2911 47.3424C72.2516 47.5181 72.2543 47.7006 72.299 47.8751C72.3668 48.2467 72.473 48.6124 72.5527 48.984C72.8273 50.0928 72.8913 51.2432 72.7414 52.3756C72.5055 53.8857 71.5882 55.4429 69.4972 55.897C68.7323 56.0549 67.9485 56.1016 67.1702 56.0357C66.3114 56.0046 65.4755 55.7495 64.7456 55.2958C64.0156 54.8421 63.4169 54.2056 63.0088 53.4492C62.5313 52.6164 62.376 51.6372 62.5724 50.6975C62.6614 50.2858 62.7878 49.883 62.9499 49.4942C63.1329 49.0459 63.2885 48.587 63.4158 48.1199C63.5296 47.6884 63.5203 47.2338 63.3889 46.8074C63.2576 46.381 63.0094 46 62.6726 45.7074C62.2077 45.267 61.5875 45.0284 60.9473 45.0438C60.2513 45.0438 59.5523 45.0025 58.8592 45.0438C57.3197 45.1234 55.7832 45.2296 54.2495 45.3387C53.3648 45.4006 52.48 45.4714 51.5952 45.5599C50.8137 45.6366 50.7989 45.6602 50.8255 46.4447C50.8726 47.8574 50.9287 49.2671 50.9788 50.6798C51.0437 51.8813 51.0437 53.0853 50.9788 54.2868C50.9636 54.6454 50.897 54.9999 50.7812 55.3396C50.691 55.6016 50.5195 55.8279 50.2916 55.9855C50.2075 56.0466 50.1093 56.0853 50.0062 56.0982C49.9031 56.1111 49.7984 56.0977 49.7018 56.0593C48.731 55.7005 47.7049 55.5148 46.6699 55.5107C45.7176 55.499 44.7769 55.7207 43.9301 56.1566C43.1045 56.5554 42.4412 57.226 42.0514 58.0559C41.6468 58.9232 41.5063 59.8904 41.6474 60.8371C41.8141 62.0174 42.3766 63.1061 43.2429 63.9249L43.4877 64.1668C43.2515 64.4408 42.9887 64.6907 42.7032 64.9129C41.9334 65.5028 41.1725 66.1074 40.388 66.6825C39.5582 67.2976 38.6893 67.8582 37.7868 68.3606C37.6777 68.4226 37.5715 68.5022 37.4211 68.4049C37.368 66.7946 37.1645 65.1813 37.0318 63.5651C36.9846 63.0166 36.9256 62.4739 36.8725 61.9253C36.8599 61.8651 36.8633 61.8026 36.8825 61.7441C36.9016 61.6856 36.9358 61.6332 36.9816 61.5921C37.2057 61.3657 37.3558 61.0768 37.4122 60.7633C37.4919 60.436 37.5833 60.1086 37.6393 59.7783C37.9785 57.7138 38.1554 55.6493 38.2911 53.5494C38.3855 52.119 38.3884 50.6828 38.3973 49.2494C38.3761 47.0332 38.4686 44.8174 38.6745 42.6106C38.7866 41.541 38.9959 40.4837 39.2997 39.452C39.3971 39.1246 39.4177 39.104 39.7333 39.1394C40.2386 39.1782 40.7465 39.1654 41.2492 39.101C41.8658 39.0537 42.4404 38.7707 42.8536 38.3106C43.182 37.9489 43.478 37.5591 43.7384 37.1457C44.1277 36.5558 44.5052 35.9335 44.9181 35.3496C45.2198 34.9175 45.461 34.4462 45.6348 33.9487C45.676 33.8277 45.7144 33.7068 45.7645 33.5918C46.3544 32.2705 47.2392 31.2855 48.6902 30.9375C48.8347 30.9021 48.9851 30.8637 49.1149 30.8166C49.5614 30.6721 49.9447 30.3785 50.2002 29.9849C50.3805 29.7231 50.4934 29.4208 50.5289 29.1049C50.5644 28.7891 50.5214 28.4693 50.4037 28.174C50.1914 27.6255 49.979 27.0739 49.7814 26.5195C49.5851 25.9371 49.5295 25.3166 49.6192 24.7086C49.6591 24.3947 49.7182 24.0834 49.7962 23.7767C50.1619 22.3492 50.5246 20.9188 50.8196 19.4737C50.8412 19.2006 50.8998 18.9318 50.9936 18.6744C51.1263 18.4208 51.4713 18.4562 51.7161 18.3471C52.2962 18.126 52.7804 17.7085 53.0846 17.1674C53.3341 16.6994 53.4752 16.1813 53.4975 15.6515C53.547 14.661 53.4586 13.6684 53.235 12.7022C52.9549 11.5785 52.4862 10.5104 51.8489 9.54354C49.1652 5.45156 45.1579 2.40518 40.4971 0.914003C38.731 0.348765 36.8921 0.0427911 35.0381 0.00563548C33.1134 -0.0457061 31.1956 0.254118 29.3784 0.890413C26.7241 1.82533 24.4915 3.35304 22.8635 5.68296C22.2471 6.56774 21.6042 7.42302 20.9406 8.26946C19.6075 9.96037 18.3207 11.6837 17.08 13.4395C15.7293 15.3506 14.4935 17.3414 13.2755 19.338C12.0574 21.3347 10.8748 23.467 9.66854 25.5049C8.91903 26.8729 8.31884 28.3175 7.87834 29.8138C7.4153 31.2353 6.97587 32.6657 6.48924 34.0814C6.13828 35.0959 5.72243 36.0869 5.34492 37.0926C4.66659 38.8857 4.16522 40.7349 3.57537 42.5605C3.21568 43.7955 2.78235 45.0079 2.27769 46.191C1.74683 47.3707 1.28969 48.5504 0.8591 49.7714C0.312922 51.2582 0.0227329 52.8268 0.000865821 54.4106C-0.0069667 55.2336 0.0383496 56.0562 0.136532 56.8733C0.451787 59.5863 1.39493 62.1885 2.89114 64.4735C2.97372 64.5974 3.0563 64.7212 3.14773 64.8333C3.17345 64.8675 3.2089 64.8931 3.24942 64.9068C3.28994 64.9204 3.33365 64.9216 3.37482 64.91C3.42634 64.8987 3.47283 64.8711 3.50737 64.8312C3.54192 64.7913 3.56266 64.7414 3.56652 64.6888C3.56652 64.5443 3.56652 64.3939 3.56652 64.2494C3.55983 63.6567 3.60523 63.0645 3.70219 62.4798C3.78281 61.8697 3.97793 61.2803 4.27729 60.7427C4.37624 60.9379 4.43728 61.15 4.4572 61.3679C4.75299 62.8673 5.47967 64.2479 6.54822 65.3406C6.68199 65.4758 6.82381 65.6029 6.97292 65.721C7.01842 65.7658 7.07724 65.7947 7.14053 65.8032C7.20381 65.8117 7.26816 65.7994 7.32388 65.7682C7.37856 65.7361 7.41973 65.6852 7.4398 65.625C7.45986 65.5648 7.45744 65.4994 7.433 65.4409C7.35442 65.1523 7.31182 64.8551 7.30618 64.5561C7.22065 63.3557 7.54507 62.2173 7.83115 61.073C7.85454 61.0146 7.88634 60.96 7.92553 60.9108C8.01695 60.9875 8.014 61.0995 8.04055 61.2057C8.2883 62.0343 8.64219 62.8273 9.09343 63.5651C9.60529 64.4413 10.286 65.2072 11.096 65.8184C11.1633 65.8665 11.2179 65.9303 11.2549 66.0043C11.2919 66.0784 11.3103 66.1603 11.3083 66.2431C11.3526 66.8978 11.4086 67.5496 11.4617 68.2014C11.5797 69.6494 11.6947 71.1005 11.8156 72.5515C11.8657 73.162 11.91 73.7725 11.9719 74.3801C12.0781 75.3858 12.2079 76.3915 12.3081 77.3972C12.4202 78.5533 12.4998 79.7094 12.6031 80.8655C12.8478 83.3664 12.9747 85.8792 13.0425 88.3831C13.0926 90.1733 13.131 91.9694 13.2253 93.7596C13.2883 94.9177 13.3001 96.0768 13.2607 97.2368C13.2342 98.101 13.1605 98.9651 13.1959 99.8322C13.2155 100.065 13.1812 100.299 13.0956 100.516C13.0586 100.611 13.0367 100.71 13.0307 100.811C13.0274 100.832 13.0282 100.854 13.0333 100.874C13.0383 100.895 13.0474 100.914 13.0601 100.931C13.0727 100.948 13.0886 100.963 13.1069 100.973C13.1251 100.984 13.1453 100.991 13.1664 100.994C13.2073 101.003 13.2498 100.998 13.2882 100.982C13.3266 100.966 13.3592 100.938 13.3817 100.903C13.4115 100.847 13.4362 100.789 13.4554 100.729C13.5992 100.353 13.6664 99.9515 13.653 99.549C13.653 99.1479 13.6736 98.7468 13.6795 98.3487C13.7031 96.9979 13.7798 95.6472 13.7061 94.2964C13.6618 93.4765 13.6146 92.6537 13.5881 91.8308C13.5468 90.6305 13.5203 89.4272 13.4878 88.2268C13.4583 87.2359 13.4583 86.242 13.3905 85.251C13.246 83.0863 13.069 80.9186 12.898 78.7627C12.8626 78.279 12.8154 77.7953 12.7594 77.3146C12.5795 75.7426 12.3789 74.1736 12.2816 72.5958C12.2373 71.8791 12.1784 71.1654 12.1194 70.4516C12.0132 69.1481 11.9188 67.8416 11.7861 66.5409C11.6563 65.2419 11.6504 63.9334 11.7684 62.6332C11.9483 60.5952 12.0633 58.5543 12.3996 56.5311C12.7376 54.2573 13.3568 52.0342 14.2428 49.913C15.3187 47.342 16.8707 44.9975 18.8171 43.0029C20.6103 41.192 22.6718 39.7322 24.7157 38.2516C24.7337 38.244 24.7525 38.2381 24.7717 38.2339C24.8808 38.2752 24.9251 38.3726 24.984 38.4581C25.7109 39.5251 26.6521 40.4291 27.7475 41.1124C28.4131 41.5624 29.1486 41.8992 29.9241 42.1093C30.3723 42.2243 30.8265 42.3128 31.2837 42.4042C31.3661 42.4151 31.444 42.4484 31.509 42.5004C31.574 42.5524 31.6235 42.6211 31.6523 42.6991C32.3513 44.1737 32.9677 45.7103 33.5163 47.2587C33.761 47.9517 33.9409 48.6684 34.1444 49.3762C34.5603 50.8155 34.9142 52.2695 35.1944 53.7411C35.6456 56.1241 35.8875 58.5396 36.2178 60.9403C36.4036 62.2999 36.5127 63.6654 36.6395 65.0309C36.8135 67.0718 36.9108 69.1127 36.958 71.1595C36.958 71.708 36.958 72.2566 36.9344 72.8052C36.9185 72.9305 36.9327 73.0579 36.9757 73.1768C36.991 73.2039 37.0125 73.2271 37.0383 73.2446C37.0642 73.262 37.0937 73.2732 37.1247 73.2772C37.1556 73.2812 37.187 73.2779 37.2164 73.2677C37.2459 73.2574 37.2725 73.2404 37.2943 73.218C37.3464 73.1543 37.381 73.0781 37.3945 72.9969C37.424 72.6813 37.4535 72.3657 37.4535 72.0501C37.4535 71.2067 37.4358 70.3632 37.3975 69.5197C37.3788 69.3986 37.4011 69.2747 37.461 69.1678C37.5208 69.0609 37.6148 68.9771 37.7278 68.9298C39.8741 67.7516 41.8629 66.3068 43.647 64.6298C43.6896 64.5714 43.7523 64.5308 43.8229 64.5156C43.8936 64.5003 43.9674 64.5116 44.0304 64.5472C44.3897 64.7257 44.7826 64.8262 45.1835 64.8422C45.4549 64.8628 45.7262 64.9011 46.0123 64.9306C45.9656 65.1186 45.8711 65.2913 45.738 65.432C44.8149 66.7444 43.8239 68.0038 42.7887 69.2218C42.2814 69.8117 41.7712 70.4015 41.2109 70.9501C39.7957 72.3393 38.3019 73.646 36.7368 74.8637C34.7461 76.3915 32.8114 77.9958 30.7911 79.4852C30.0627 80.022 29.3165 80.5263 28.6234 81.128C28.6028 81.1457 28.5467 81.128 28.4642 81.128C28.4022 80.4201 28.2784 79.7182 28.2577 79.0016C28.2577 78.7273 28.2577 78.453 28.2577 78.1787C28.2515 78.0954 28.2722 78.0123 28.3168 77.9416C28.3614 77.871 28.4275 77.8166 28.5055 77.7865C28.7827 77.6331 29.0393 77.4473 29.3077 77.2792C29.4419 77.1944 29.5543 77.0792 29.6358 76.9429C29.7172 76.8066 29.7655 76.6531 29.7766 76.4947C29.8013 76.2645 29.8141 76.0331 29.8149 75.8016C29.8149 75.2324 29.7972 74.6632 29.8149 74.094C29.8651 73.0824 29.8149 72.0708 29.8149 71.0563C29.7589 68.6497 29.52 66.2607 29.2251 63.8718C29.0806 62.6568 28.9036 61.4476 28.7768 60.2295C28.6234 58.7401 28.4111 57.2567 28.1869 55.7761C27.9451 54.0626 27.5676 52.3756 27.1871 50.6887C26.9667 49.6371 26.5931 48.6235 26.0782 47.6804C25.9956 47.533 25.9131 47.3855 25.8187 47.2469C25.7769 47.1983 25.718 47.1677 25.6542 47.1617C25.5904 47.1556 25.5267 47.1745 25.4766 47.2144C25.3733 47.297 25.3999 47.3943 25.4766 47.4917C26.0155 48.3499 26.4138 49.2888 26.6563 50.2728C27.1706 52.3344 27.5713 54.4227 27.8566 56.5282C27.9923 57.5073 28.128 58.4894 28.2459 59.4775C28.4425 61.1113 28.6392 62.7452 28.8358 64.3791C28.9655 65.5588 29.0835 66.7385 29.1779 67.9182C29.2516 68.803 29.2487 69.6878 29.3313 70.5726C29.5082 72.407 29.3047 74.2414 29.3666 76.0759C29.3819 76.2776 29.3396 76.4795 29.2445 76.6581C29.1495 76.8366 29.0057 76.9845 28.8299 77.0845C28.2452 77.4619 27.6175 77.7678 26.96 77.9959C25.7332 78.3793 24.4768 78.6506 23.2351 78.978C22.8911 79.0704 22.543 79.1529 22.1911 79.2257C21.3595 79.3676 20.5187 79.4495 19.6754 79.4705C19.233 79.5029 18.7906 79.4705 18.3453 79.4705C18.0898 79.4847 17.837 79.412 17.6281 79.2642C17.4193 79.1163 17.2666 78.9022 17.195 78.6565C17.1243 78.4599 17.0594 78.2633 17.0004 78.0666C16.7882 77.2969 16.6665 76.5051 16.6376 75.7072C16.5197 73.5779 16.3722 71.4514 16.3427 69.3221C16.3427 69.0684 16.325 68.8148 16.3014 68.5641C16.1894 67.408 16.0832 66.2519 15.9593 65.0987C15.8472 64.0724 15.7175 63.049 15.5936 62.0227C15.5809 61.9208 15.5531 61.8214 15.511 61.7277C15.493 61.7034 15.47 61.6831 15.4436 61.6684C15.4171 61.6536 15.3878 61.6447 15.3577 61.6422C15.3154 61.6385 15.2733 61.6507 15.2395 61.6763C15.2058 61.7019 15.1827 61.7392 15.1748 61.7808C15.163 61.8432 15.163 61.9072 15.1748 61.9696C15.2987 63.163 15.4235 64.3585 15.5494 65.5559C15.6791 66.8123 15.8443 68.0686 15.8885 69.3339C15.9534 71.3394 16.0537 73.339 16.1481 75.3415C16.1687 75.8252 16.2159 76.3118 16.2778 76.7925C16.3476 77.3787 16.471 77.9572 16.6465 78.5208C16.8854 79.264 17.2511 79.8745 18.1418 79.9365C18.1952 79.9407 18.2457 79.9622 18.2857 79.9979C18.3256 80.0336 18.3528 80.0815 18.363 80.1341C18.4632 80.5883 18.59 81.0365 18.6579 81.4937C18.8623 83.0833 19.2077 84.6516 19.6901 86.1801C20.0481 87.396 20.5428 88.5675 21.1648 89.672C21.6805 90.5831 22.373 91.3821 23.2015 92.0223C24.03 92.6624 24.9779 93.1307 25.9897 93.3998C27.0879 93.7481 28.2765 93.6734 29.3224 93.1904C29.8431 92.9103 30.3135 92.5455 30.7145 92.111C31.9266 90.9313 33.0739 89.6897 34.2152 88.4539C34.8464 87.7717 35.4814 87.0943 36.1204 86.4219C36.262 86.2744 36.4154 86.127 36.5599 86.006C36.6838 86.0857 36.6572 86.1771 36.6661 86.2538C36.7781 87.3657 36.8843 88.4775 37.0052 89.5894C37.0849 90.3208 37.2028 91.064 37.2766 91.7836C37.4329 93.3586 37.5715 94.9334 37.6246 96.5172L37.7661 100.693C37.768 100.84 37.7819 100.986 37.8074 101.13C37.8172 101.171 37.8417 101.208 37.8764 101.233C37.9111 101.258 37.9536 101.269 37.9962 101.266C38.039 101.265 38.0801 101.249 38.1124 101.221C38.1448 101.193 38.1662 101.154 38.1731 101.112C38.1947 100.989 38.2045 100.863 38.2026 100.738C38.2026 100.251 38.1849 99.7673 38.1702 99.2807C38.1171 97.7854 38.1053 96.2842 37.9991 94.7919C37.8841 93.1521 37.7573 91.5094 37.5272 89.8784C37.3916 88.9199 37.3621 87.9467 37.1822 86.9911C37.1114 86.5988 37.1085 86.1918 37.0672 85.7937C37.0522 85.7116 37.0584 85.6271 37.0852 85.5482C37.1121 85.4692 37.1586 85.3984 37.2205 85.3425C38.1318 84.4577 38.934 83.4785 39.7746 82.5318C41.5697 80.5165 43.3864 78.5189 45.2248 76.5389C46.8734 74.7694 48.5014 72.9615 50.2209 71.2509C50.2857 71.1831 50.3359 71.0621 50.4656 71.13C50.4656 71.301 50.4656 71.4691 50.4656 71.6343C50.3654 73.0883 50.2857 74.5423 50.3064 75.9992C50.3034 76.2514 50.3152 76.5034 50.3418 76.7542C50.3498 76.8829 50.4058 77.0039 50.4986 77.0934C50.5913 77.1829 50.7143 77.2345 50.8432 77.2379C51.433 77.2969 52.0229 77.3618 52.6127 77.3824C54.2142 77.4355 55.8186 77.3824 57.4229 77.35C58.4345 77.3264 59.4461 77.288 60.4607 77.3205C60.9666 77.3282 61.4724 77.2976 61.9737 77.229C62.6962 77.1376 63.0442 76.7159 63.0472 75.9815C63.0443 75.6015 62.9703 75.2254 62.8289 74.8726C62.6461 74.3771 62.4573 73.8846 62.2922 73.398C62.0252 72.6578 62.0023 71.8515 62.2268 71.0974C62.4513 70.3432 62.9114 69.6808 63.5397 69.2071C64.4245 68.514 65.439 68.1158 66.604 68.2957C67.2698 68.3999 67.9191 68.5903 68.5358 68.862C69.1468 69.1295 69.69 69.5307 70.1253 70.0361C70.5607 70.5414 70.8772 71.1379 71.0515 71.7818C71.1362 72.0685 71.1662 72.3687 71.14 72.6665C71.0956 73.4532 70.7713 74.198 70.2257 74.7664C70.0369 74.967 69.8393 75.1557 69.6358 75.3563C69.4711 75.5277 69.3422 75.7303 69.2565 75.952C69.1707 76.1738 69.13 76.4104 69.1366 76.6481C69.1432 76.8858 69.197 77.1198 69.2948 77.3365C69.3927 77.5532 69.5327 77.7482 69.7066 77.9103C69.9211 78.1134 70.161 78.2879 70.4203 78.4294C71.0005 78.7331 71.6293 78.9327 72.2784 79.0192C73.363 79.1852 74.4579 79.2749 75.555 79.2876C77.2862 79.3112 79.0115 79.4233 80.7369 79.5236C81.4742 79.5678 82.2115 79.6179 82.9488 79.6032C83.9193 79.5943 84.8894 79.6445 85.8538 79.7536C86.712 79.845 87.5703 79.9483 88.4285 80.0485C89.5787 80.195 90.7191 80.4097 91.8438 80.6915C92.1961 80.7674 92.5249 80.9272 92.8023 81.1575C92.9491 81.2801 93.0513 81.4477 93.0929 81.6344C93.1345 81.8211 93.1132 82.0164 93.0323 82.1897C92.9142 82.4382 92.7454 82.6592 92.5368 82.8385C92.3245 83.042 92.1121 83.2455 91.9027 83.4549C91.7103 83.6511 91.5606 83.8851 91.4633 84.1421C91.2246 84.6966 91.1227 85.3003 91.1663 85.9025C91.21 86.5046 91.3978 87.0873 91.714 87.6016C91.7995 87.749 91.8968 87.8965 91.9824 88.0292C92.3458 88.6391 92.8402 89.1605 93.4298 89.5558C94.0194 89.9511 94.6896 90.2104 95.3917 90.3149C96.8931 90.5881 98.4426 90.3206 99.7655 89.5599C101.329 88.6751 102.075 87.4158 101.83 85.6433C101.809 85.4977 101.777 85.3538 101.736 85.2127C101.503 84.4016 101.264 83.5935 101.028 82.7854C100.968 82.6058 100.92 82.4226 100.883 82.2369C100.856 82.1122 100.87 81.9822 100.924 81.8663C100.977 81.7504 101.066 81.6548 101.178 81.5939C101.325 81.513 101.479 81.4449 101.638 81.3904C102.082 81.2519 102.548 81.196 103.013 81.2253C103.709 81.243 104.405 81.2607 105.101 81.3049C107.693 81.4357 110.29 81.4189 112.881 81.2548C113.179 81.2356 113.475 81.1922 113.766 81.125C113.906 81.0838 114.041 81.0254 114.167 80.951C114.225 80.9251 114.274 80.884 114.311 80.832C114.347 80.7801 114.369 80.7193 114.373 80.6561C114.409 80.3199 114.444 79.9837 114.485 79.6504C114.485 79.559 114.45 79.4321 114.621 79.3997C114.866 79.6179 115.128 79.8303 115.364 80.0662C115.659 80.3612 115.916 80.6561 116.181 80.951C116.644 81.473 117.101 81.998 117.564 82.5171C118.498 83.5768 119.435 84.6346 120.375 85.6905C120.491 85.8118 120.564 85.9685 120.581 86.1358C120.66 86.8488 120.703 87.5655 120.708 88.2829C120.682 89.2953 120.711 90.3083 120.794 91.3177C120.935 92.7244 121.033 94.1342 121.145 95.544C121.248 96.8239 121.375 98.1068 121.44 99.3927C121.518 100.994 121.697 102.589 121.976 104.168C121.987 104.25 122.01 104.331 122.044 104.406C122.094 104.501 122.174 104.58 122.298 104.539C122.339 104.529 122.376 104.505 122.403 104.471C122.43 104.438 122.445 104.396 122.445 104.353C122.444 104.228 122.432 104.103 122.41 103.979C122.242 102.958 122.068 101.941 121.988 100.909C121.885 99.5225 121.808 98.1304 121.714 96.7413C121.678 96.237 121.631 95.7327 121.587 95.2284C121.522 94.4527 121.451 93.6741 121.389 92.8955C121.304 91.8456 121.183 90.7956 121.18 89.7398C121.212 88.7695 121.181 87.7982 121.089 86.8318C121.089 86.7463 121.021 86.6224 121.204 86.5546C121.336 86.6991 121.475 86.8495 121.619 87.0058C122.669 88.103 123.713 89.206 124.772 90.2943C125.536 91.0817 126.341 91.8249 127.158 92.5593C128.988 94.1544 130.995 95.5339 133.139 96.6706C133.526 96.8849 133.947 97.0315 134.384 97.1041C135.006 97.2103 135.628 97.3282 136.251 97.4403C137.225 97.6294 138.226 97.6294 139.2 97.4403C140.27 97.2313 141.283 96.7951 142.171 96.1611C143.058 95.5272 143.799 94.7103 144.344 93.7655C144.861 92.941 145.165 92.0003 145.228 91.0286C145.27 90.2707 145.249 89.5098 145.246 88.7489C145.246 86.9793 145.228 85.2097 145.329 83.4402C145.395 82.1995 145.443 80.9559 145.47 79.7094C145.511 77.8101 145.52 75.9107 145.55 74.0114C145.567 72.9349 145.612 71.8614 145.626 70.7849C145.662 67.8533 145.553 64.9188 145.674 61.9873C145.678 61.9036 145.664 61.8201 145.632 61.7425C145.617 61.7175 145.597 61.6962 145.572 61.6804C145.548 61.6645 145.52 61.6545 145.491 61.6511C145.461 61.653 145.433 61.6608 145.406 61.6739C145.38 61.6871 145.357 61.7054 145.337 61.7277C145.231 61.8516 145.264 62.0227 145.252 62.1524C145.149 63.6919 145.131 65.2315 145.155 66.771C145.175 68.1424 145.184 69.5138 145.155 70.8852C145.119 73.4186 145.06 75.9491 145.01 78.4795C144.986 79.5767 144.984 80.6738 144.933 81.7709C144.83 83.9416 144.715 86.1122 144.768 88.2858C144.792 89.2355 144.742 90.1822 144.753 91.1319C144.756 91.3857 144.719 91.6383 144.644 91.881C144.349 92.9086 143.83 93.8582 143.125 94.6621C142.42 95.4661 141.546 96.1046 140.566 96.532C139.424 97.0451 138.163 97.2368 136.92 97.0864C136.041 96.9856 135.167 96.8359 134.304 96.6381C133.955 96.5618 133.617 96.4378 133.301 96.2695C132.059 95.5914 130.86 94.838 129.709 94.0133C128.101 92.8496 126.6 91.5448 125.223 90.1144C124.321 89.1971 123.433 88.2652 122.543 87.3391C120.599 85.3159 118.771 83.1836 116.907 81.0896C116.403 80.4928 115.869 79.9218 115.308 79.3791C114.217 78.3822 113.123 77.3913 111.984 76.4504C111.725 76.2351 111.474 76.008 111.238 75.7692C111.002 75.5303 110.993 75.3799 111.179 75.1026C111.226 75.0319 111.303 74.9758 111.324 74.8991C111.409 74.6042 111.521 74.3653 111.913 74.3919C112.034 74.3919 112.173 74.268 112.294 74.1854C112.725 73.88 113.11 73.5145 113.438 73.1001C114.506 71.7929 115.444 70.3843 116.237 68.8944C116.382 68.6231 116.387 68.6143 116.668 68.7145C117.616 69.0619 118.538 69.4789 119.425 69.9621C120.621 70.5889 121.771 71.2995 122.867 72.0885C123.935 72.8759 125.044 73.6133 126.111 74.3919C127.684 75.5342 129.245 76.6864 130.795 77.8484C131.992 78.7109 133.094 79.6996 134.08 80.7977C134.848 81.667 135.544 82.5971 136.162 83.5788C136.226 83.6847 136.302 83.7835 136.386 83.8737C136.415 83.9054 136.453 83.9268 136.494 83.9343C136.536 83.9417 136.579 83.935 136.616 83.915C136.641 83.906 136.664 83.8919 136.683 83.8737C136.702 83.8555 136.718 83.8335 136.728 83.8091C136.738 83.7847 136.743 83.7585 136.743 83.7321C136.742 83.7056 136.737 83.6796 136.726 83.6555C136.655 83.5034 136.573 83.3565 136.481 83.216C135.742 82.0342 134.88 80.9339 133.909 79.9335C133.704 79.7236 133.551 79.4678 133.464 79.1873C133.1 78.1263 132.999 76.9929 133.169 75.8842C133.363 74.6722 133.335 73.435 133.086 72.233C132.907 71.4319 132.675 70.6436 132.39 69.8736C132.098 69.1186 132.071 68.2866 132.313 67.5142C132.429 67.1544 132.511 66.7798 132.641 66.4259C132.775 66.0797 132.818 65.7052 132.766 65.3377C132.714 64.9702 132.57 64.622 132.346 64.326C132.201 64.1166 132.051 63.9043 131.93 63.6919C131.599 63.1753 131.378 62.596 131.281 61.9902C131.214 61.5739 131.181 61.1527 131.184 60.7309C131.215 59.2225 131.363 57.7188 131.626 56.2333C132.028 54.037 132.574 51.8695 133.26 49.7449C133.29 49.6671 133.313 49.5873 133.331 49.506C133.338 49.4806 133.34 49.4541 133.337 49.428C133.333 49.4018 133.325 49.3766 133.312 49.3538C133.299 49.331 133.281 49.311 133.26 49.2951C133.239 49.2792 133.215 49.2677 133.189 49.2612C133.149 49.2479 133.104 49.2509 133.066 49.2696C133.027 49.2883 132.998 49.3213 132.983 49.3615C132.885 49.5714 132.799 49.7871 132.726 50.0074C132.431 51.016 132.107 52.0217 131.842 53.0392C131.337 54.9566 131.002 56.9146 130.839 58.8906C130.729 59.8135 130.71 60.7449 130.78 61.6717C130.867 62.5557 131.171 63.4046 131.665 64.1432C131.818 64.3703 131.96 64.6003 132.107 64.8363C132.23 65.0336 132.307 65.2565 132.332 65.4879C132.356 65.7194 132.328 65.9534 132.249 66.1723C132.128 66.5321 132.042 66.9037 131.918 67.2606C131.601 68.2096 131.627 69.2397 131.992 70.1715C132.193 70.7259 132.372 71.2922 132.517 71.8614C132.838 73.0243 132.922 74.2401 132.762 75.4359C132.694 75.893 132.673 76.359 132.629 76.822C132.627 77.3272 132.661 77.8319 132.732 78.3321C132.791 78.5061 132.841 78.6742 132.549 78.627C131.83 78.0784 131.113 77.524 130.391 76.9813C127.71 74.964 124.985 73.0146 122.239 71.0828C121.982 70.9029 121.599 70.8056 121.502 70.5224C121.442 70.1923 121.436 69.8547 121.484 69.5226C121.484 69.4371 121.484 69.3516 121.502 69.269C121.732 66.8536 121.903 64.4352 122.192 62.0256C122.386 60.4153 122.551 58.7991 122.758 57.1888C122.964 55.5785 123.218 53.8916 123.46 52.2429C123.702 50.5943 123.979 49.04 124.359 47.4592C124.728 45.9227 125.194 44.4126 125.628 42.8938C125.687 42.6873 125.775 42.5575 126.008 42.5516C126.469 42.4978 126.923 42.399 127.365 42.2567C128.987 41.8804 130.554 41.2934 132.024 40.5108C133.729 39.6154 135.255 38.416 136.528 36.9717C136.59 36.9009 136.628 36.78 136.823 36.8153C137.088 37.1752 137.383 37.5586 137.663 37.9508C138.215 38.7206 138.731 39.5198 139.315 40.266C140.642 41.9647 141.766 43.8051 143.008 45.5569C143.799 46.7264 144.525 47.9384 145.184 49.1875C146.035 50.6684 146.763 52.216 147.364 53.8149C148.009 55.5333 148.482 57.3116 148.776 59.1235C149.166 61.8171 149.38 64.5332 149.416 67.2546C149.458 69.9768 149.416 72.699 149.39 75.4212C149.357 80.2314 149.372 85.0416 149.505 89.8489C149.59 93.0135 149.54 96.181 149.54 99.3455C149.54 99.7437 149.502 100.145 149.487 100.546C149.443 101.664 149.399 102.781 149.36 103.896C149.36 104.135 149.469 104.291 149.614 104.253C149.758 104.215 149.809 104.061 149.814 103.908C149.847 103.15 149.891 102.392 149.915 101.634C150.059 96.6381 150 91.645 149.885 86.646ZM44.2486 7.09565C44.3737 7.09317 44.4987 7.10705 44.6202 7.13694C46.2769 7.54034 47.7083 8.57967 48.6047 10.0302C49.1457 10.8616 49.4851 11.8079 49.5956 12.7936C49.5956 12.8968 49.6163 13.003 49.631 13.1475C49.5927 13.3569 49.5573 13.6076 49.4953 13.8524C49.4688 13.9645 49.4275 14.1001 49.2653 14.109C49.168 14.109 49.1119 13.994 49.168 13.8141C49.4128 12.9735 49.1857 12.1949 48.8878 11.4193C48.8554 11.3426 48.8111 11.2718 48.7816 11.1922C48.2183 9.67036 47.1182 8.64107 45.7232 7.8949C45.2724 7.62089 44.7607 7.46282 44.2339 7.43482C44.2129 7.43555 44.192 7.4316 44.1727 7.42326C44.1534 7.41491 44.1362 7.40237 44.1224 7.38656C44.1085 7.37075 44.0984 7.35205 44.0927 7.33183C44.087 7.31161 44.0858 7.29037 44.0893 7.26966C44.0877 7.24763 44.0906 7.22551 44.0979 7.20465C44.1051 7.18378 44.1166 7.16462 44.1315 7.14833C44.1464 7.13204 44.1645 7.11896 44.1846 7.1099C44.2047 7.10084 44.2265 7.096 44.2486 7.09565ZM6.17072 45.1411C5.46396 46.3614 4.82689 47.6208 4.26255 48.9132C3.41864 50.9641 2.96552 53.1547 2.92653 55.3721C2.90002 55.9639 2.93461 56.5569 3.02976 57.1416C3.04448 57.2651 3.04448 57.3898 3.02976 57.5132C3.02978 57.5243 3.0272 57.5352 3.02223 57.5451C3.01726 57.555 3.01004 57.5636 3.00115 57.5702C2.99226 57.5768 2.98194 57.5812 2.97103 57.5831C2.96012 57.585 2.94892 57.5843 2.93833 57.5811C2.89999 57.5811 2.84985 57.5811 2.82626 57.5457C2.74877 57.4459 2.70535 57.3239 2.70239 57.1977C2.61593 56.684 2.57057 56.1643 2.56672 55.6434C2.59999 52.8245 3.26516 50.0489 4.51323 47.5212C5.00281 46.542 5.54547 45.5923 6.06454 44.6279C6.53446 43.7549 6.968 42.8702 7.36517 41.9736C7.95502 40.6405 8.49375 39.2917 8.98136 37.9272C9.18168 37.4166 9.33374 36.8883 9.43555 36.3494C9.45897 36.2256 9.49352 36.1042 9.53877 35.9866C9.53877 35.9601 9.60365 35.9424 9.642 35.9365C9.65728 35.933 9.67315 35.9329 9.68846 35.9363C9.70378 35.9397 9.71815 35.9464 9.73056 35.956C9.74297 35.9655 9.75309 35.9778 9.76022 35.9917C9.76734 36.0057 9.77129 36.0211 9.77176 36.0367C9.77722 36.184 9.76634 36.3313 9.73932 36.4762C9.65084 36.8448 9.57121 37.2164 9.4444 37.5733C8.57722 40.1861 7.48177 42.7175 6.17072 45.1382V45.1411ZM15.1335 40.9178C15.0939 40.992 15.0485 41.063 14.9979 41.1301C14.5909 41.6403 14.1898 42.1565 13.771 42.6578C11.8903 44.8403 10.6133 47.4767 10.0667 50.3053C9.79508 51.8642 9.6452 53.4419 9.6184 55.0241C9.6184 55.3396 9.59481 55.6552 9.57711 55.9708C9.5691 56.0535 9.54716 56.1343 9.51223 56.2097C9.50049 56.2261 9.485 56.2395 9.46705 56.2487C9.44909 56.258 9.42919 56.2628 9.409 56.2628C9.38946 56.262 9.37039 56.2565 9.35344 56.2467C9.33649 56.237 9.32216 56.2232 9.31168 56.2067C9.28085 56.1296 9.26291 56.0479 9.25859 55.9649C9.25859 55.6287 9.25859 55.2895 9.25859 54.9415C9.36771 53.3341 9.41195 51.6973 9.74227 50.1106C10.1328 48.1177 10.8963 46.2165 11.9926 44.507C12.5747 43.6028 13.2234 42.7432 13.9332 41.9353C14.2281 41.6226 14.464 41.2805 14.7295 40.9502C14.7826 40.8853 14.8327 40.8175 14.8917 40.7585C14.9187 40.7261 14.9574 40.7057 14.9995 40.7018C15.0415 40.6979 15.0834 40.7109 15.1158 40.7379C15.1837 40.7968 15.1571 40.8617 15.1335 40.9148V40.9178ZM17.6374 25.9237C16.5787 27.1241 15.5022 28.3126 14.523 29.5867L14.3697 29.7843C14.3461 29.82 14.3104 29.8459 14.2692 29.8573C14.228 29.8686 14.1841 29.8647 14.1455 29.8462C14.0541 29.7991 14.0659 29.7047 14.1131 29.6309C14.2133 29.4717 14.3166 29.3095 14.4316 29.162C14.6911 28.8288 14.9536 28.4984 15.2308 28.1799C16.0979 27.1742 16.9739 26.1744 17.8439 25.1717C18.9607 23.8785 19.9036 22.4448 20.6486 20.907C21.498 19.164 22.253 17.3827 22.9343 15.5689C23.4556 14.121 24.0947 12.7183 24.8454 11.375C25.7418 9.74405 26.8927 8.26657 28.2548 6.99833C30.0465 5.34583 32.2749 4.24237 34.6753 3.81903C35.1944 3.73055 35.7252 3.71285 36.1942 3.66862C36.8452 3.68724 37.4934 3.76124 38.1318 3.88981C38.3625 3.92611 38.5776 4.02856 38.7512 4.18474C38.7706 4.20882 38.7841 4.23706 38.7907 4.26725C38.7974 4.29743 38.797 4.32874 38.7895 4.35874C38.7698 4.37953 38.7451 4.39502 38.7178 4.40378C38.6905 4.41254 38.6614 4.4143 38.6332 4.40888C37.0436 3.81903 35.4333 3.94879 33.8466 4.35284C30.7557 5.14029 28.3521 6.93639 26.4882 9.4934C25.2838 11.1728 24.3014 13.0007 23.5654 14.9318C23.0729 16.1853 22.5892 17.4417 22.0702 18.6862C21.6042 19.8158 21.0586 20.91 20.4835 21.9865C19.6889 23.4037 18.734 24.7248 17.6374 25.9237ZM22.4477 35.5885C22.016 35.93 21.5506 36.2265 21.0586 36.4732C20.9646 36.5175 20.8655 36.5502 20.7637 36.5706C20.7435 36.5692 20.7239 36.5632 20.7065 36.5529C20.6891 36.5427 20.6743 36.5285 20.6634 36.5116C20.6545 36.4932 20.6499 36.473 20.6499 36.4526C20.6499 36.4322 20.6545 36.412 20.6634 36.3936C20.7112 36.325 20.7724 36.2668 20.8433 36.2225C22.0613 35.559 23.07 34.6771 24.1258 33.8189C25.9135 32.3407 27.6049 30.7498 29.1897 29.0558C30.6221 27.5085 31.9058 25.8299 33.0237 24.0421C33.9835 22.4813 34.8387 20.8586 35.5837 19.1847C35.9346 18.4179 36.2886 17.654 36.669 16.9019C37.0268 16.2087 37.4697 15.5627 37.9873 14.979C38.0693 14.8563 38.1912 14.7656 38.3324 14.7224C38.3766 14.7224 38.4799 14.7903 38.4622 14.8728C38.447 14.9172 38.4251 14.959 38.3973 14.9967C37.61 15.905 36.9646 16.9272 36.4832 18.0286C35.8934 19.2849 35.3418 20.5649 34.7136 21.7977C33.3928 24.37 31.7398 26.7577 29.7972 28.8995C27.5542 31.3464 25.0943 33.5851 22.4477 35.5885ZM36.4419 50.2787C36.4319 50.2961 36.4183 50.3111 36.402 50.3228C36.3857 50.3345 36.3672 50.3426 36.3475 50.3465C36.3151 50.3465 36.2502 50.3465 36.2414 50.32C36.1892 50.2283 36.1523 50.1287 36.1322 50.0251C35.9061 48.4659 35.682 46.9057 35.4598 45.3446C35.4067 44.97 35.3477 44.5984 35.2976 44.2239C35.2593 43.9113 35.2298 43.5986 35.2091 43.3981C35.2357 42.9704 35.1855 42.649 35.3153 42.3482C35.3292 42.3228 35.3482 42.3006 35.371 42.2828C35.3938 42.2651 35.42 42.2522 35.448 42.2449C35.4691 42.2423 35.4905 42.2448 35.5104 42.2524C35.5303 42.26 35.548 42.2723 35.562 42.2884C35.576 42.3044 35.5858 42.3236 35.5906 42.3443C35.5954 42.365 35.5951 42.3866 35.5896 42.4071C35.4067 43.6606 35.7665 44.8698 35.914 46.0967C36.0615 47.3236 36.2709 48.5475 36.4478 49.7744C36.4967 49.9373 36.4946 50.1112 36.4419 50.2728V50.2787ZM36.5186 37.9361C36.0864 37.8254 35.633 37.8274 35.2018 37.9421C34.7707 38.0567 34.3761 38.2801 34.056 38.5908C33.0945 39.4756 32.2481 40.4783 31.7968 41.7465C31.7084 41.9942 31.6612 42.009 31.4252 41.9736C28.8623 41.5961 26.8834 40.2719 25.3527 38.2251L25.3203 38.1691C25.1993 37.9862 25.2023 37.9361 25.391 37.8181C26.8426 36.8775 28.2426 35.8595 29.5849 34.7686C30.8945 33.7298 32.0564 32.5173 33.0385 31.1646C34.5001 29.2029 35.7833 27.1144 36.8725 24.9239C37.0701 24.5287 37.2913 24.1453 37.4919 23.7442C38.2446 22.2357 38.8891 20.6755 39.4207 19.0755C39.4511 18.8887 39.5293 18.713 39.6478 18.5653C39.9108 17.7832 40.3892 17.0911 41.028 16.5687C41.3203 16.3283 41.695 16.2118 42.0721 16.2443C42.1753 16.3475 42.0897 16.4065 42.0426 16.4655C41.5499 17.0718 40.9501 17.5827 40.273 17.9725C40.0872 18.0757 39.8926 18.176 39.9132 18.4385C40.0692 18.5813 40.2664 18.6711 40.4765 18.6951C41.3555 18.8185 42.244 18.861 43.1308 18.8219C43.6782 18.7862 44.2195 18.6872 44.7441 18.527C45.1714 18.3976 45.5713 18.1906 45.9238 17.9165C46.9552 17.1703 47.7794 16.1735 48.3186 15.0203C48.3776 14.8846 48.3776 14.6841 48.5929 14.6133C48.6573 15.0064 48.6362 15.4088 48.5309 15.793C48.4261 16.7195 48.0679 17.5991 47.4957 18.3353C47.4552 18.3835 47.4215 18.4371 47.3955 18.4945C47.3753 18.5517 47.3782 18.6145 47.4035 18.6695C47.4288 18.7246 47.4746 18.7676 47.5311 18.7895C47.6341 18.8109 47.7387 18.8238 47.8438 18.8278C48.6437 18.8781 49.4466 18.8514 50.2415 18.7482C50.3772 18.7246 50.4509 18.7924 50.4244 18.9163C50.3683 19.2112 50.3064 19.5061 50.2356 19.7804C49.9407 21.028 49.6133 22.2755 49.3154 23.523C49.2211 23.9123 49.1621 24.3105 49.1031 24.7027C49.0085 25.3099 49.0559 25.9308 49.2417 26.5165C49.3774 26.9589 49.5366 27.4013 49.7018 27.829C49.7667 28.0059 49.8404 28.1799 49.9171 28.3539C50.2798 29.1768 49.6693 30.1412 48.9586 30.3388C48.817 30.3801 48.6784 30.4272 48.5339 30.4626C46.8764 30.8785 45.8796 31.9963 45.2337 33.5151C45.2012 33.5918 45.1776 33.6744 45.1452 33.7511C45.0714 33.9251 45.0095 34.1079 44.921 34.2731C44.2476 35.4713 43.5082 36.6311 42.7061 37.7473C42.5118 38.0255 42.2551 38.2543 41.9566 38.4156C41.658 38.577 41.3259 38.6662 40.9867 38.6763C39.8904 38.7544 38.7893 38.6223 37.7425 38.287C37.3237 38.1661 36.9256 38.0186 36.5127 37.9302L36.5186 37.9361ZM50.0616 70.7259C49.3361 71.5163 48.5575 72.2625 47.8172 73.044C47.0062 73.9023 46.2187 74.7841 45.4106 75.6453C43.352 77.8435 41.3229 80.0731 39.3233 82.3342C38.2469 83.5523 37.1645 84.7615 35.9907 85.8881C35.277 86.5752 34.6281 87.3273 33.9439 88.0469C32.8114 89.2266 31.7231 90.4771 30.5404 91.6185L30.0833 92.0579C29.6116 92.5335 29.0215 92.8745 28.3739 93.0456C27.7263 93.2167 27.0447 93.2117 26.3997 93.0312C24.5605 92.6504 22.9414 91.5696 21.8844 90.017C21.3093 89.1588 20.8409 88.2338 20.4894 87.2624C19.8471 85.5 19.3856 83.6768 19.1121 81.821C19.0324 81.2784 18.885 80.7505 18.7729 80.2137C18.7228 79.9748 18.7729 79.9188 19.0265 79.9188C20.4403 79.9628 21.8532 79.8069 23.2233 79.4557C24.462 79.1166 25.7243 78.8659 26.9482 78.4766L27.833 78.1817C27.7903 79.0557 27.8328 79.9318 27.9598 80.7977C27.9775 80.9215 27.9598 81.0513 27.9834 81.1752C28.0166 81.3396 28.0023 81.5101 27.9423 81.6668C27.8822 81.8234 27.7789 81.9598 27.6443 82.0599C27.4998 82.184 27.3737 82.328 27.2697 82.4876C27.1341 82.6645 27.1311 82.7825 27.2255 82.8798C27.3199 82.9772 27.4526 82.9418 27.5971 82.7707C28.1561 82.1388 28.7809 81.5683 29.461 81.069C30.0096 80.6413 30.564 80.2196 31.1273 79.8126C33.0768 78.4029 34.9201 76.8633 36.8283 75.3887C38.345 74.2119 39.8018 72.9599 41.1932 71.6373C42.0291 70.8278 42.817 69.9701 43.5526 69.0684C45.1423 67.1802 46.5848 65.1727 47.8673 63.0638C48.2832 62.3795 48.7521 61.7277 49.1709 61.0465C49.6369 60.2934 50.1166 59.5502 50.6102 58.8168C51.1067 58.0818 51.6834 57.4043 52.3296 56.7966C52.583 56.5476 52.8839 56.352 53.2144 56.2215C54.811 55.6171 56.4624 55.1687 58.1455 54.8825C58.3089 54.8373 58.4804 54.8302 58.6469 54.8619C58.7094 54.8736 58.7664 54.9052 58.8094 54.952C58.8525 54.9987 58.8792 55.0582 58.8858 55.1214C58.9147 55.2686 58.8943 55.4212 58.8276 55.5556C58.761 55.69 58.6518 55.7986 58.5171 55.8646C58.3259 55.9456 58.1287 56.0116 57.9273 56.0622C57.2195 56.2716 56.4998 56.4309 55.8009 56.6668C55.0733 56.9011 54.412 57.3055 53.872 57.8465C53.4739 58.2535 53.0669 58.6517 52.6717 59.0587C52.5095 59.2268 52.5036 59.4067 52.6334 59.4922C52.7631 59.5777 52.8811 59.5512 53.0227 59.4067C53.3323 59.0882 53.6449 58.7726 53.9399 58.4423C54.6387 57.7013 55.5387 57.1806 56.5293 56.944C57.2784 56.7376 58.0423 56.5783 58.7767 56.31C58.9702 56.2535 59.1741 56.2425 59.3726 56.2778C59.5711 56.3131 59.7588 56.3937 59.921 56.5135C60.2867 56.7317 60.3929 57.6696 59.8738 58.0146C59.6397 58.157 59.3864 58.2653 59.1217 58.3361C58.3952 58.5564 57.6527 58.72 56.9009 58.8257C56.0357 58.9241 55.2286 59.3105 54.6094 59.9228C54.341 60.1912 54.0696 60.4566 53.8042 60.7279C53.7317 60.8044 53.672 60.8921 53.6273 60.9875C53.6076 61.0252 53.6024 61.0689 53.6127 61.1102C53.623 61.1515 53.6481 61.1876 53.6833 61.2116C53.7131 61.2418 53.7517 61.2618 53.7935 61.2687C53.8354 61.2756 53.8784 61.269 53.9163 61.25C54.0061 61.1963 54.0867 61.1286 54.1552 61.0494C54.4791 60.6881 54.829 60.351 55.2022 60.0408C55.6187 59.6778 56.1304 59.4414 56.6768 59.3595C57.4889 59.232 58.2933 59.0597 59.0863 58.8434C59.2898 58.7844 59.4904 58.7195 59.6762 58.6517C59.8974 58.5751 60.1392 58.5835 60.3545 58.6753C60.456 58.7067 60.5471 58.7649 60.6182 58.8438C60.6893 58.9227 60.7378 59.0194 60.7586 59.1235C60.8283 59.3576 60.8378 59.6054 60.7862 59.8441C60.7347 60.0828 60.6237 60.3046 60.4636 60.489C60.165 60.8718 59.7515 61.1489 59.2839 61.2794L57.8093 61.6422C57.0206 61.7978 56.2768 62.1284 55.6327 62.6096C55.4204 62.7836 55.2287 62.9782 55.0429 63.1699C54.9865 63.2334 54.9416 63.3063 54.9102 63.3852C54.8951 63.4248 54.8936 63.4683 54.9059 63.5089C54.9182 63.5494 54.9435 63.5848 54.978 63.6094C55.0083 63.639 55.0475 63.6579 55.0896 63.6632C55.1316 63.6685 55.1743 63.66 55.211 63.6389C55.2826 63.5958 55.3473 63.5421 55.4027 63.4796C56.0255 62.8122 56.8375 62.3512 57.7297 62.1583C58.0777 62.0699 58.4257 61.9814 58.7737 61.9106C59.1662 61.8318 59.5496 61.7132 59.918 61.5567C60.2902 61.3909 60.7109 61.3698 61.0977 61.4977C61.4959 61.6275 61.6109 61.8723 61.4959 62.2822C61.3847 62.6719 61.1323 63.0062 60.7881 63.2201C60.5751 63.3555 60.3545 63.4786 60.1274 63.5887C58.6534 64.3171 57.2366 65.1561 55.8893 66.0985C55.5295 66.3581 55.1461 66.5822 54.7716 66.8182C53.0374 67.9069 51.4539 69.2187 50.0616 70.72V70.7259ZM81.2471 78.6889C81.194 79.0369 81.1409 79.0664 80.787 79.0428C79.5866 78.9721 78.3863 78.8718 77.1859 78.8393C76.1095 78.8098 75.0359 78.7745 73.9624 78.7096C73.1404 78.6712 72.3243 78.5507 71.5263 78.3498C71.1794 78.2572 70.8455 78.1215 70.5324 77.9457C70.2907 77.8135 70.0748 77.6387 69.8954 77.4296C69.6823 77.2046 69.5589 76.9094 69.5486 76.5997C69.5382 76.29 69.6417 75.9872 69.8393 75.7485C70.0288 75.5222 70.2317 75.3075 70.4469 75.1056C70.9539 74.5921 71.3082 73.9478 71.4703 73.2446C71.6228 72.6483 71.5951 72.0202 71.3906 71.4397C71.1841 70.7833 70.8426 70.1774 70.388 69.6608C69.9334 69.1443 69.3759 68.7285 68.7511 68.4403C67.9072 68.0494 66.9982 67.8184 66.0702 67.759C65.4765 67.7403 64.8873 67.8669 64.3537 68.1276C63.8665 68.3332 63.4162 68.6172 63.0206 68.9682C61.6817 70.1803 61.2924 71.6667 61.7849 73.3921C61.9383 73.9377 62.1536 74.4656 62.3482 75.0024C62.4501 75.2567 62.5176 75.5235 62.5488 75.7957C62.6018 76.3856 62.4043 76.651 61.8173 76.7631C61.4214 76.8249 61.0204 76.8486 60.6199 76.8338C59.6909 76.8338 58.7619 76.8044 57.8329 76.8338C56.4644 76.8987 55.093 76.9076 53.7216 76.9312C52.8565 76.9263 51.9922 76.8771 51.1322 76.7837C50.7311 76.7483 50.6809 76.6952 50.6839 76.2617C50.6839 75.6305 50.6839 74.9965 50.7311 74.3653C50.7901 73.1856 50.8756 72.0059 50.9346 70.8262C50.9344 70.6905 50.9623 70.5562 51.0167 70.4319C51.071 70.3075 51.1505 70.1957 51.2501 70.1036C52.0128 69.3445 52.8463 68.6601 53.7393 68.0598C54.4648 67.585 55.1815 67.1042 55.8864 66.6058C56.6286 66.0835 57.4007 65.6049 58.1986 65.1725C58.9772 64.7507 59.7647 64.3496 60.558 63.9279C60.799 63.7988 61.0306 63.653 61.2511 63.4914C61.6429 63.1954 61.9109 62.7645 62.0031 62.2822C62.0693 62.0786 62.0595 61.858 61.9754 61.6611C61.8914 61.4643 61.7388 61.3046 61.546 61.2116C61.3159 61.0999 61.0796 61.0014 60.8382 60.9167C60.9355 60.7515 61.0358 60.5923 61.1331 60.4242C61.2571 60.1787 61.3249 59.9086 61.3316 59.6337C61.3382 59.3587 61.2835 59.0857 61.1715 58.8345C61.0771 58.5956 60.9562 58.4894 60.4931 58.165C60.7164 57.815 60.8044 57.3956 60.7409 56.9853C60.7046 56.7662 60.6115 56.5603 60.4707 56.3885C60.3299 56.2167 60.1464 56.0848 59.9387 56.0062C59.8003 55.9577 59.6595 55.9164 59.5169 55.8823C59.3754 55.841 59.3046 55.7584 59.3577 55.6021C59.4387 55.3823 59.4387 55.1407 59.3577 54.9208C59.3192 54.7766 59.2353 54.6486 59.1185 54.5556C59.0016 54.4627 58.858 54.4098 58.7088 54.4047C58.4774 54.3859 58.2444 54.3968 58.0158 54.4372C56.5053 54.7331 55.0157 55.1272 53.5565 55.6169C52.6559 55.9293 51.863 56.492 51.2708 57.239C50.5156 58.1788 49.8183 59.1637 49.1827 60.1882C48.3451 61.5065 47.4957 62.816 46.6641 64.1343C46.6116 64.2359 46.529 64.3187 46.4276 64.3715C46.3263 64.4243 46.2111 64.4445 46.0978 64.4293C45.909 64.4145 45.7203 64.4293 45.5286 64.4293C45.0702 64.4323 44.6176 64.327 44.2076 64.122C43.7976 63.917 43.4418 63.6181 43.1692 63.2496C42.6526 62.644 42.2976 61.9175 42.1372 61.1378C41.9769 60.3582 42.0163 59.5506 42.252 58.7903C42.3935 58.3127 42.6343 57.8704 42.9585 57.4923C43.2828 57.1142 43.6832 56.8088 44.1336 56.596C44.8861 56.2029 45.7236 56.0004 46.5726 56.0062C47.5437 56.0002 48.5085 56.1618 49.4246 56.484C49.641 56.5711 49.8784 56.5921 50.1067 56.5443C50.3351 56.4966 50.5441 56.3821 50.7075 56.2156C50.9257 56.0146 51.0916 55.7636 51.1912 55.4842C51.3444 55.0672 51.4271 54.6276 51.436 54.1835C51.4772 52.8564 51.4595 51.5292 51.4065 50.1991C51.3593 48.9545 51.3003 47.7099 51.2472 46.4683C51.2428 46.4044 51.2428 46.3404 51.2472 46.2766C51.2481 46.2237 51.268 46.1729 51.3032 46.1334C51.3383 46.0939 51.3865 46.0683 51.4389 46.0613C51.7722 46.017 52.1084 45.9639 52.4416 45.9344C53.0315 45.8843 53.6214 45.8519 54.2112 45.8106C55.4086 45.728 56.609 45.6366 57.8093 45.5658C58.8828 45.5009 59.9593 45.5186 61.0358 45.5452C61.348 45.5559 61.6536 45.6383 61.9289 45.7861C62.2041 45.9339 62.4416 46.1432 62.623 46.3975C62.8044 46.6519 62.9247 46.9447 62.9748 47.253C63.0248 47.5614 63.0032 47.8772 62.9115 48.1759C62.7631 48.6603 62.5899 49.1367 62.3925 49.6033C62.0639 50.4078 61.9501 51.2839 62.0621 52.1456C62.1135 52.6073 62.2453 53.0565 62.4514 53.4728C62.8112 54.2329 63.3464 54.8967 64.013 55.4094C64.6796 55.9222 65.4585 56.2693 66.2855 56.422C67.4258 56.6601 68.6056 56.6318 69.7332 56.3394C71.5411 55.8705 72.647 54.7262 73.0924 52.9301C73.3009 51.9603 73.3269 50.9602 73.169 49.9808C73.0924 49.3762 72.9361 48.7834 72.8092 48.1847C72.7607 48.0011 72.7398 47.8112 72.7473 47.6214C72.745 47.531 72.7617 47.4411 72.7963 47.3575C72.8309 47.2739 72.8827 47.1985 72.9483 47.1362C73.0139 47.074 73.0919 47.0262 73.1772 46.9959C73.2625 46.9657 73.3531 46.9537 73.4433 46.9608C73.9712 46.9608 74.5021 46.9903 75.0241 46.9431C76.3307 46.8251 77.6372 46.8015 78.9437 46.8104C80.1883 46.8104 81.4329 46.8104 82.6745 46.9342C83.7716 47.0345 83.6448 47.0463 83.6271 47.9753C83.5976 49.6623 83.5328 51.3493 83.462 53.0363C83.4266 53.9417 83.3528 54.8471 83.2909 55.7496C83.2437 56.3396 83.2615 56.933 83.344 57.5191C83.3823 57.7906 83.4681 58.0532 83.5976 58.2948C83.6626 58.4286 83.7648 58.5409 83.8918 58.6183C84.0189 58.6957 84.1656 58.7349 84.3143 58.7313C84.5252 58.7334 84.7352 58.7025 84.9366 58.6399C85.4671 58.4938 86.02 58.4468 86.5675 58.5012C87.0512 58.5396 87.5408 58.5484 88.0186 58.6251C88.8744 58.7624 89.6841 59.1055 90.378 59.6249C90.8134 59.9588 91.2235 60.3245 91.6049 60.7191C92.0279 61.1218 92.329 61.6356 92.4735 62.2016C92.6179 62.7676 92.6001 63.3628 92.4218 63.919C92.3263 64.3104 92.1604 64.6812 91.9322 65.0132C91.5306 65.6079 91.0549 66.149 90.5166 66.6235C89.8406 67.1729 89.0223 67.5186 88.1572 67.6204C86.9775 67.7973 85.901 67.4582 84.8098 67.1396C84.5149 67.0571 84.2465 66.9597 83.9604 66.8978C83.742 66.8484 83.514 66.8639 83.3044 66.9426C83.0948 67.0212 82.9127 67.1594 82.7807 67.3402C82.5283 67.656 82.3762 68.0402 82.3442 68.4432C82.2469 69.3014 82.1613 70.1626 82.0699 71.0209C81.9726 71.9646 81.8694 72.9084 81.775 73.8521C81.6629 74.9434 81.5567 76.0346 81.4417 77.1258C81.3827 77.6449 81.3238 78.1699 81.2471 78.6919V78.6889ZM111.256 76.418C111.97 77.0432 112.695 77.6537 113.409 78.279C113.647 78.4538 113.856 78.6648 114.028 78.9042C114.17 79.1402 113.999 79.438 113.996 79.7123C113.994 79.9233 113.98 80.134 113.954 80.3435C113.922 80.6236 113.851 80.6915 113.556 80.7446C113.099 80.8202 112.636 80.8606 112.173 80.8655C110.949 80.8891 109.725 80.9245 108.501 80.9451C108.018 80.9451 107.531 80.9451 107.047 80.9245C105.803 80.8743 104.561 80.8183 103.316 80.7652C102.832 80.737 102.345 80.7697 101.868 80.8625C101.577 80.9183 101.295 81.0177 101.034 81.1575C100.82 81.255 100.645 81.4197 100.534 81.6264C100.424 81.833 100.383 82.0702 100.42 82.3018C100.439 82.4481 100.472 82.5922 100.518 82.7324C100.709 83.3783 100.913 84.0212 101.107 84.67C101.228 85.0574 101.326 85.4512 101.402 85.8497C101.476 86.2779 101.453 86.7172 101.335 87.1352C101.216 87.5532 101.006 87.9393 100.718 88.2652C100.243 88.8081 99.6398 89.2237 98.9633 89.4744C97.5478 90.072 95.9582 90.1099 94.5158 89.5805C93.8549 89.3482 93.2697 88.9404 92.8229 88.4008C92.3384 87.8395 91.9696 87.1881 91.7376 86.4838C91.5688 85.9806 91.5423 85.4406 91.661 84.9233C91.7796 84.4061 92.0388 83.9316 92.41 83.5523C92.5781 83.3635 92.7787 83.2042 92.9615 83.0273C93.1786 82.8252 93.3496 82.5788 93.4629 82.3047C93.5676 82.0377 93.5846 81.7443 93.5114 81.467C93.4383 81.1897 93.2787 80.9429 93.0559 80.7623C92.7352 80.5217 92.3705 80.3464 91.9824 80.2461C90.9606 79.9831 89.9247 79.7783 88.8798 79.6327C87.9625 79.5029 87.0424 79.3791 86.1193 79.2817C85.0074 79.1697 83.8926 79.0959 82.7718 79.0812C82.4769 79.0812 82.182 79.0428 81.8871 79.0133C81.8607 79.0118 81.835 79.0046 81.8117 78.9922C81.7884 78.9798 81.7681 78.9625 81.7521 78.9414C81.7361 78.9204 81.7249 78.8962 81.7192 78.8704C81.7134 78.8447 81.7134 78.818 81.719 78.7922C81.7661 78.3734 81.8192 77.9546 81.8635 77.5358C81.9372 76.8633 82.0021 76.1939 82.0729 75.5214C82.2321 74.0114 82.4032 72.5043 82.5506 70.9914C82.6332 70.1331 82.707 69.2719 82.8308 68.4137C82.8649 68.1626 82.9557 67.9226 83.0963 67.7118C83.1778 67.5748 83.3 67.4668 83.446 67.4028C83.592 67.3388 83.7543 67.3221 83.9102 67.3549C84.0547 67.386 84.1974 67.4244 84.3379 67.4699C84.8835 67.6292 85.4262 67.8003 85.9747 67.9507C86.92 68.1929 87.91 68.201 88.8591 67.9743C89.5021 67.8396 90.1037 67.5535 90.6139 67.1396C91.2968 66.6051 91.8833 65.9577 92.3481 65.2256C92.7768 64.5422 93.0057 63.7525 93.0087 62.9458C93.0363 62.1992 92.7968 61.4672 92.3333 60.8813C91.3483 59.6603 90.1686 58.6959 88.6055 58.2977C88.2578 58.2106 87.9038 58.1515 87.5467 58.1208C87.0424 58.0795 86.5351 58.0766 86.0308 58.0589C85.566 58.0588 85.1031 58.1183 84.6535 58.2358C84.1845 58.342 84.0017 58.2358 83.8601 57.761C83.7809 57.4977 83.7383 57.2248 83.7333 56.9499C83.7333 56.2126 83.7333 55.4753 83.7923 54.738C83.8631 53.7706 83.9368 52.8003 83.9751 51.833C84.0371 50.3583 84.1403 48.8837 84.099 47.4091C84.099 47.1643 84.1403 47.1142 84.3939 47.1142C84.7744 47.1142 85.1578 47.1142 85.5353 47.1378C86.4824 47.208 87.433 47.2179 88.3813 47.1672C90.2158 47.0965 92.0502 47.0906 93.8876 47.1201C94.3919 47.1201 94.8992 47.1024 95.4035 47.0935C95.6583 47.0883 95.91 47.0374 96.1467 46.9431C96.3003 46.8962 96.4335 46.7986 96.5245 46.6663C96.6155 46.5341 96.6591 46.3748 96.6481 46.2146C96.6371 46.0261 96.6114 45.8388 96.5714 45.6543C96.4099 44.9128 96.3112 44.1591 96.2765 43.401C96.2548 42.7222 96.4343 42.0521 96.7926 41.4752C97.1911 40.8025 97.695 40.1981 98.285 39.685C98.8487 39.2039 99.5052 38.8435 100.214 38.6262C100.678 38.4792 101.167 38.4296 101.651 38.4803C102.135 38.531 102.604 38.6811 103.027 38.9211C104.797 39.8678 105.425 41.4339 105.363 43.345C105.346 44.3431 105.039 45.3146 104.478 46.1409C104.39 46.2841 104.313 46.434 104.248 46.5892C104.166 46.7741 104.158 46.9841 104.228 47.1742C104.298 47.3644 104.44 47.5196 104.623 47.6067C104.889 47.7368 105.173 47.8244 105.466 47.8662C105.968 47.9458 106.466 48.0284 106.968 48.0963C108.932 48.3617 110.896 48.6212 112.866 48.8926C113.285 48.9515 113.695 49.0518 114.114 49.1108C114.208 49.1208 114.297 49.1613 114.367 49.2262C114.437 49.2911 114.483 49.3769 114.5 49.4706C114.568 49.6921 114.618 49.9191 114.647 50.1489C114.732 50.7976 114.781 51.4503 114.795 52.1043C114.795 53.2427 114.795 54.3841 114.795 55.5225C114.777 56.7877 114.686 58.05 114.544 59.3093C114.528 59.6264 114.436 59.9348 114.276 60.2089C114.146 60.4035 114.013 60.4094 113.898 60.2089C113.692 59.8638 113.497 59.5158 113.288 59.1737C112.985 58.6649 112.603 58.2078 112.155 57.82C111.889 57.5775 111.567 57.4051 111.217 57.3186C110.961 57.2478 110.687 57.2724 110.446 57.3879C110.206 57.5034 110.016 57.7019 109.911 57.9468C109.833 58.1396 109.765 58.3365 109.707 58.5366C109.663 58.5366 109.616 58.5366 109.592 58.5366C108.74 57.8966 107.723 57.6755 106.726 57.4071C105.685 57.128 104.603 57.0282 103.529 57.1121C103.148 57.1248 102.775 57.2204 102.435 57.3923C102.335 57.4296 102.244 57.4881 102.169 57.5638C102.094 57.6395 102.037 57.7306 102.001 57.8307C101.965 57.9309 101.951 58.0377 101.96 58.1438C101.969 58.25 102.001 58.3528 102.054 58.4452C102.098 58.5602 102.216 58.6399 102.216 58.7814C102.119 58.9141 101.954 58.9023 101.824 58.9584C101.16 59.2533 100.954 59.5482 100.998 60.2797C101.01 60.3237 101.012 60.3695 101.005 60.4144C100.998 60.4593 100.982 60.5024 100.958 60.541C100.934 60.5795 100.903 60.6129 100.865 60.6389C100.828 60.665 100.786 60.6832 100.742 60.6925C100.522 60.7696 100.323 60.8976 100.162 61.0663C100.001 61.235 99.8823 61.4394 99.8156 61.6629C99.7555 61.8209 99.7316 61.9904 99.7459 62.1589C99.7602 62.3274 99.8123 62.4905 99.8982 62.6361L100.102 62.9664L99.733 63.2348C99.5695 63.3529 99.4367 63.5086 99.3458 63.6888C99.255 63.8689 99.2087 64.0683 99.211 64.27C99.1915 64.8002 99.3412 65.3229 99.6387 65.7623C100.076 66.4118 100.648 66.9608 101.314 67.3726C101.989 67.8062 102.647 68.2574 103.299 68.7263C104.098 69.3111 104.843 69.9666 105.525 70.6846C105.903 71.0798 106.289 71.4691 106.679 71.8643C107.728 72.9432 109.036 73.7369 110.477 74.1707C111.035 74.3358 111.197 74.3211 110.787 74.9611C110.684 75.1107 110.633 75.2895 110.64 75.4708C110.648 75.652 110.714 75.826 110.828 75.9668C110.953 76.1339 111.097 76.2862 111.256 76.421V76.418ZM115.954 68.514C115.659 69.0242 115.385 69.5462 115.043 70.0299C114.701 70.5136 114.423 70.9855 114.114 71.4603C113.622 72.1977 113.058 72.8843 112.43 73.51C112.258 73.6977 112.034 73.8306 111.787 73.892C111.54 73.9533 111.28 73.9405 111.04 73.8551C109.874 73.5532 108.784 73.0107 107.841 72.2625C107.236 71.7673 106.669 71.2291 106.142 70.6522C104.891 69.3066 103.461 68.1395 101.892 67.1839C101.459 66.9234 101.049 66.6275 100.665 66.2991C100.334 66.0031 100.061 65.648 99.8599 65.2521C99.674 64.8939 99.604 64.4869 99.6593 64.0871C99.6651 63.9814 99.6937 63.8782 99.7431 63.7845C99.7926 63.6909 99.8617 63.609 99.9458 63.5446C100.03 63.4801 100.127 63.4347 100.23 63.4112C100.333 63.3878 100.44 63.387 100.544 63.4088C100.772 63.4489 100.994 63.5183 101.205 63.6153C101.511 63.7519 101.807 63.9116 102.089 64.093C103.054 64.733 104.009 65.3907 104.968 66.0425C105.673 66.5119 106.281 67.1127 106.758 67.8121C106.842 67.9345 106.941 68.0455 107.053 68.1424C107.092 68.1813 107.145 68.2031 107.201 68.2031C107.256 68.2031 107.309 68.1813 107.348 68.1424C107.37 68.1274 107.389 68.1081 107.403 68.0857C107.417 68.0632 107.427 68.0381 107.431 68.0119C107.435 67.9856 107.434 67.9588 107.427 67.933C107.42 67.9073 107.409 67.8832 107.392 67.8622C106.93 67.1545 106.356 66.5261 105.693 66.0012C104.995 65.4939 104.281 65.0044 103.57 64.5118C103.275 64.3083 102.98 64.1166 102.685 63.922C102.158 63.5365 101.573 63.2378 100.951 63.0372C100.783 62.9739 100.63 62.8768 100.501 62.752C100.373 62.6273 100.271 62.4774 100.202 62.3117C100.146 62.1974 100.128 62.0681 100.152 61.943C100.173 61.7972 100.223 61.6574 100.301 61.5323C100.379 61.4072 100.482 61.2996 100.603 61.2164C100.725 61.1332 100.862 61.0762 101.007 61.0489C101.151 61.0217 101.3 61.0249 101.444 61.0583C101.829 61.1634 102.206 61.2985 102.57 61.4623C103.217 61.7721 103.842 62.1238 104.443 62.5152C105.051 62.931 105.661 63.3469 106.283 63.7421C106.875 64.114 107.366 64.6254 107.714 65.2315C107.808 65.4456 107.956 65.6316 108.144 65.7712C108.177 65.7965 108.218 65.8103 108.259 65.8103C108.301 65.8103 108.341 65.7965 108.374 65.7712C108.407 65.7435 108.431 65.7072 108.443 65.6665C108.456 65.6257 108.456 65.5822 108.445 65.5411C108.439 65.5208 108.431 65.501 108.422 65.4821C107.914 64.6505 107.386 63.8512 106.507 63.341C105.918 63.0018 105.384 62.5948 104.821 62.2203C103.891 61.5618 102.87 61.0449 101.789 60.6866C101.666 60.6524 101.559 60.5797 101.481 60.4793C101.403 60.3789 101.36 60.2561 101.358 60.1292C101.338 60.0139 101.351 59.8951 101.396 59.7869C101.441 59.6787 101.516 59.5857 101.612 59.5187C101.798 59.3787 102.018 59.2884 102.249 59.2563C102.872 59.1211 103.523 59.1936 104.101 59.4627C104.328 59.5748 104.555 59.6868 104.779 59.8078C105.792 60.3724 106.755 61.0216 107.658 61.7484C108.13 62.1066 108.548 62.5307 108.899 63.0077C108.989 63.1255 109.087 63.2359 109.194 63.338C109.225 63.3678 109.265 63.3844 109.308 63.3844C109.35 63.3844 109.391 63.3678 109.421 63.338C109.458 63.3167 109.487 63.2836 109.503 63.2441C109.519 63.2046 109.521 63.1608 109.51 63.1198C109.467 63.0239 109.413 62.933 109.351 62.8485C108.937 62.2613 108.432 61.7436 107.855 61.3148C106.832 60.5008 105.734 59.7859 104.576 59.1796C104.15 58.9444 103.682 58.796 103.198 58.7431C103.029 58.7309 102.866 58.6743 102.726 58.579C102.586 58.4838 102.473 58.3532 102.399 58.2004C102.379 58.169 102.366 58.1338 102.36 58.0971C102.355 58.0604 102.357 58.0229 102.366 57.987C102.376 57.951 102.392 57.9174 102.415 57.8882C102.438 57.8589 102.467 57.8347 102.499 57.817C102.676 57.6975 102.878 57.6207 103.089 57.5929C103.485 57.5259 103.885 57.4914 104.287 57.4897C105.151 57.5208 106.008 57.6534 106.841 57.8849C107.209 57.9822 107.566 58.1119 107.932 58.2122C108.563 58.3892 109.142 58.7172 109.619 59.1678C110.138 59.6027 110.583 60.1186 110.937 60.6955C110.949 60.7309 110.969 60.7631 110.995 60.79C111.021 60.8169 111.053 60.8377 111.087 60.8509C111.122 60.8642 111.16 60.8695 111.197 60.8666C111.234 60.8637 111.271 60.8526 111.303 60.8341C111.406 60.7869 111.477 60.7043 111.427 60.5834C111.384 60.4879 111.329 60.3978 111.265 60.315C110.996 59.9387 110.701 59.5829 110.38 59.2504C110.218 59.0551 110.133 58.8071 110.143 58.5536C110.152 58.3001 110.254 58.0589 110.43 57.876C110.509 57.8048 110.603 57.7532 110.706 57.7255C110.808 57.6978 110.916 57.6948 111.02 57.7167C111.311 57.7731 111.58 57.9089 111.798 58.109C112.175 58.4172 112.498 58.786 112.754 59.2002C113.049 59.6839 113.344 60.1764 113.615 60.6749C113.842 61.0789 114.034 61.5065 114.276 61.8988C114.886 62.9354 115.287 64.0817 115.456 65.2727C115.572 66.0225 115.77 66.7573 116.045 67.464C116.117 67.6336 116.147 67.8183 116.131 68.0019C116.115 68.1854 116.054 68.3623 115.954 68.5169V68.514ZM119.018 69.2277C118.275 68.9328 117.564 68.5641 116.8 68.3223C116.748 68.3129 116.702 68.2837 116.67 68.2409C116.639 68.1981 116.625 68.1448 116.632 68.0922C116.629 67.7962 116.553 67.5056 116.411 67.2458C116.267 66.8726 116.154 66.4878 116.075 66.0956C116.025 65.8803 116.343 65.5441 116.573 65.5706C116.604 65.5767 116.633 65.5893 116.659 65.6076C116.684 65.626 116.705 65.6495 116.721 65.6768C116.998 66.42 117.576 66.9804 117.915 67.6823C117.989 67.8602 118.118 68.0093 118.284 68.107C118.698 68.3607 119.045 68.7108 119.295 69.1274C119.266 69.3368 119.145 69.2926 119.018 69.2307V69.2277ZM122.988 3.97534C123 3.95875 123.015 3.94491 123.033 3.93474C123.051 3.92457 123.071 3.9183 123.091 3.91635C123.153 3.91743 123.214 3.93045 123.271 3.95469C123.904 4.18609 124.564 4.33382 125.235 4.39413C126.259 4.5357 127.282 4.66546 128.291 4.88666C129.265 5.07605 130.189 5.46827 131.002 6.03785C131.815 6.60743 132.499 7.34163 133.01 8.19278C133.531 9.00977 133.969 9.87732 134.316 10.7822C134.486 11.182 134.591 11.606 134.629 12.0386C134.629 12.1064 134.629 12.1625 134.605 12.189C134.564 12.2326 134.514 12.2659 134.458 12.2864C134.437 12.2869 134.417 12.2823 134.399 12.273C134.381 12.2637 134.366 12.2501 134.354 12.2333C134.319 12.1578 134.292 12.0787 134.275 11.9973C134.256 11.8295 134.226 11.663 134.186 11.4989C133.704 9.83298 132.837 8.30356 131.656 7.03372C130.649 6.02962 129.346 5.37436 127.94 5.16389C126.86 4.96924 125.775 4.82472 124.696 4.65661C124.191 4.58781 123.696 4.46114 123.221 4.27911C123.118 4.25129 123.03 4.18605 122.973 4.09626C122.967 4.07665 122.966 4.05603 122.968 4.03572C122.971 4.01541 122.977 3.99585 122.988 3.97829V3.97534ZM133.396 18.4267C133.374 18.2813 133.367 18.1341 133.375 17.9873C133.377 17.956 133.389 17.9261 133.409 17.9022C133.429 17.8783 133.457 17.8615 133.487 17.8546C133.502 17.8496 133.518 17.8478 133.533 17.8492C133.548 17.8506 133.563 17.8552 133.577 17.8626C133.591 17.8701 133.603 17.8804 133.612 17.8927C133.621 17.905 133.628 17.9191 133.632 17.9342C133.674 18.0278 133.703 18.1272 133.717 18.2291C133.773 18.6465 133.795 19.0676 133.782 19.4884C133.734 21.093 133.297 22.6618 132.508 24.0598C132.402 24.2417 132.285 24.417 132.157 24.5848C132.145 24.608 132.127 24.6282 132.106 24.6441C132.085 24.6599 132.061 24.6711 132.035 24.6767C132.009 24.6823 131.983 24.6822 131.957 24.6765C131.931 24.6709 131.907 24.6597 131.886 24.6437C131.791 24.57 131.856 24.4904 131.886 24.4226C131.974 24.281 132.081 24.1483 132.166 24.0038C132.944 22.599 133.382 21.0312 133.443 19.4265C133.465 19.0925 133.449 18.7571 133.396 18.4267ZM121.507 6.77713C121.527 6.75225 121.554 6.73482 121.585 6.72782C121.615 6.72083 121.647 6.7247 121.676 6.73879C123.649 7.62357 125.51 8.70005 126.958 10.3516C127.515 10.9853 128.009 11.6718 128.432 12.4014C128.93 13.2569 129.36 14.1503 129.718 15.0734C129.786 15.2036 129.823 15.3482 129.824 15.4951C129.804 15.5335 129.792 15.6013 129.768 15.6043C129.711 15.6152 129.651 15.6047 129.6 15.5748C129.482 15.4263 129.398 15.2543 129.352 15.0704C128.962 14.0909 128.489 13.1466 127.937 12.248C126.698 10.2705 124.922 8.6861 122.817 7.67961C122.457 7.50265 122.103 7.3139 121.749 7.1281C121.675 7.08917 121.605 7.04273 121.54 6.98948C121.472 6.93344 121.451 6.85971 121.507 6.77713ZM113.415 5.59743C113.625 5.2093 113.929 4.87985 114.299 4.63892C114.788 4.31136 115.324 4.06071 115.889 3.8957C115.93 3.88534 115.972 3.88534 116.013 3.8957C116.051 3.8957 116.107 3.93405 116.11 3.95764C116.125 4.01618 116.118 4.07826 116.09 4.13165C115.944 4.25258 115.771 4.33655 115.585 4.37644C115.15 4.53119 114.739 4.74452 114.361 5.01053C114.088 5.20864 113.858 5.45932 113.683 5.74784C113.668 5.78566 113.643 5.81874 113.611 5.84364C113.579 5.86854 113.541 5.88435 113.5 5.88941C113.484 5.89061 113.468 5.88856 113.453 5.88339C113.437 5.87822 113.423 5.87003 113.411 5.85931C113.399 5.84859 113.389 5.83555 113.382 5.82096C113.375 5.80637 113.371 5.79054 113.37 5.77439C113.371 5.71642 113.386 5.6595 113.415 5.60923V5.59743ZM110.993 8.80327C111.035 8.80327 111.085 8.80328 111.114 8.82097C111.232 8.90789 111.346 9.00143 111.453 9.10115C112.043 9.64971 112.657 10.1599 113.279 10.6613C114.614 11.701 116.173 12.4159 117.833 12.7494C118.781 12.9453 119.718 13.1964 120.637 13.5014C121.039 13.6305 121.425 13.8015 121.791 14.0117C121.864 14.0589 121.941 14.1267 121.903 14.2122C121.864 14.2977 121.737 14.3095 121.637 14.2801C121.596 14.2801 121.555 14.2535 121.516 14.2358C120.382 13.7346 119.195 13.3645 117.977 13.1328C117.092 12.9402 116.226 12.6708 115.388 12.3276C114.655 12.0057 113.962 11.5989 113.323 11.1155C112.573 10.5351 111.852 9.91689 111.164 9.26336C111.076 9.17678 111.002 9.07735 110.943 8.96844C110.934 8.94087 110.934 8.9111 110.943 8.88349C110.952 8.85588 110.97 8.8319 110.993 8.81507V8.80327ZM135.767 37.1427C134.339 38.6126 132.642 39.795 130.768 40.6258C129.748 41.0788 128.694 41.4497 127.615 41.7347C127.25 41.832 126.884 41.9264 126.518 42.0296C126.295 42.1033 126.059 42.1285 125.825 42.1034C125.814 41.8705 125.786 41.6388 125.74 41.4103C125.662 41.1929 125.571 40.9802 125.468 40.7732C125.196 40.0419 125.036 39.273 124.996 38.4935C124.961 38.0717 124.932 37.6529 124.896 37.2312C124.891 37.1254 124.874 37.0206 124.846 36.9186C124.815 36.7719 124.729 36.6426 124.605 36.5572C124.482 36.4717 124.331 36.4364 124.182 36.4585C123.974 36.4885 123.768 36.5349 123.566 36.5971C123.485 36.6188 123.407 36.6526 123.336 36.6974C122.345 37.3049 121.271 37.7473 120.233 38.2546C119.465 38.6506 118.639 38.9214 117.785 39.0568C117.577 39.0819 117.367 39.0907 117.157 39.0833C116.828 39.0944 116.502 39.0098 116.219 38.8397C115.936 38.6696 115.709 38.4213 115.565 38.1248C115.385 37.7915 115.202 37.4612 115.037 37.1191C114.836 36.7001 114.579 36.3102 114.273 35.9601C113.968 35.6101 113.739 35.2002 113.6 34.7568C113.531 34.5356 113.443 34.3205 113.338 34.1138C113.16 33.7479 112.88 33.4408 112.533 33.229C112.43 33.1558 112.321 33.0907 112.208 33.0344C111.984 32.9708 111.786 32.835 111.647 32.6478C111.507 32.4607 111.433 32.2327 111.436 31.9992C111.426 31.8935 111.39 31.7918 111.331 31.7033C111.273 31.6147 111.193 31.5421 111.099 31.4919C110.763 31.271 110.379 31.1335 109.979 31.0908C109.351 31.0002 108.755 30.7583 108.242 30.386C107.983 30.22 107.771 29.9894 107.628 29.7168C107.486 29.4442 107.417 29.1392 107.428 28.8317C107.439 28.2829 107.534 27.739 107.708 27.2185C108.206 25.6485 108.429 24.004 108.366 22.3581C108.268 20.6329 108.053 18.9164 107.723 17.2205C107.566 16.2855 107.428 15.3447 107.295 14.4069C107.28 14.2816 107.274 14.1555 107.277 14.0294C107.277 13.9704 107.277 13.8937 107.357 13.879C107.678 13.8259 107.717 13.584 107.779 13.3215C107.965 12.6116 108.217 11.9205 108.531 11.2571C108.551 11.2204 108.574 11.1849 108.599 11.1509C108.773 11.26 108.793 11.4606 108.873 11.6228C109.347 12.6402 110.047 13.5359 110.92 14.2417C111.538 14.7161 112.213 15.1123 112.928 15.4214C113.914 15.844 114.935 16.1776 115.981 16.4183C116.84 16.6367 117.729 16.7193 118.614 16.6631C118.844 16.6454 119.077 16.6631 119.31 16.6631C119.522 16.658 119.731 16.7101 119.916 16.8139C120.101 16.9177 120.254 17.0693 120.36 17.2529C120.479 17.4516 120.609 17.6436 120.749 17.828C121.147 18.3531 121.702 18.7375 122.333 18.9251C122.391 18.9519 122.455 18.9643 122.519 18.9611C122.583 18.9579 122.646 18.9393 122.701 18.9069C122.756 18.8744 122.803 18.8291 122.837 18.7748C122.871 18.7205 122.891 18.6587 122.897 18.5948C122.918 18.4503 122.923 18.3039 122.911 18.1583C122.897 17.6725 122.961 17.1876 123.1 16.722C123.16 16.5205 123.245 16.3272 123.354 16.1469C123.426 16.0052 123.527 15.8794 123.649 15.7768C123.77 15.6742 123.912 15.5969 124.064 15.5494C124.216 15.5019 124.376 15.4852 124.534 15.5002C124.693 15.5152 124.847 15.5616 124.988 15.6367C125.466 15.8647 125.88 16.2071 126.194 16.6336C126.842 17.4427 127.298 18.3887 127.527 19.4C127.716 20.1585 127.762 20.9456 127.663 21.721C127.623 22.0347 127.534 22.3403 127.4 22.6265C127.326 22.8248 127.203 23.0016 127.043 23.1411C126.884 23.2806 126.692 23.3784 126.486 23.4257C126.403 23.4429 126.324 23.4717 126.25 23.5112C126.205 23.5288 126.165 23.5549 126.131 23.5882C126.096 23.6214 126.069 23.6611 126.05 23.7049C126.031 23.7488 126.021 23.7959 126.02 23.8436C126.02 23.8914 126.029 23.9388 126.046 23.9831C126.131 24.2658 126.248 24.5379 126.394 24.7942C126.978 25.7956 127.634 26.7537 128.356 27.6608C129.687 29.2446 131.58 30.2518 133.638 30.4715C133.75 30.4704 133.859 30.5084 133.947 30.5788C134.035 30.6492 134.095 30.7478 134.118 30.8578C134.39 31.722 134.673 32.5832 134.977 33.4355C135.165 33.9693 135.387 34.4943 135.608 35.0163C135.804 35.5089 136.074 35.9684 136.41 36.3789C136.224 36.6629 136.004 36.9234 135.755 37.1545L135.767 37.1427Z" fill="#4B2D3A"/>
<path d="M47.5726 22.6117C47.5541 22.4913 47.5025 22.3783 47.4236 22.2854C47.3446 22.1926 47.2414 22.1235 47.1255 22.0858C47.0096 22.0482 46.8855 22.0435 46.767 22.0723C46.6486 22.1012 46.5405 22.1623 46.4548 22.249C46.2827 22.3878 46.1454 22.5649 46.0538 22.7661C45.9621 22.9673 45.9187 23.1871 45.9269 23.408C45.9269 24.1247 46.3958 24.3901 47.0564 24.0569L47.1125 24.0333C47.1211 24.0261 47.1281 24.0171 47.1329 24.0069C47.1377 23.9967 47.1402 23.9856 47.1402 23.9743C47.1402 23.963 47.1377 23.9519 47.1329 23.9417C47.1281 23.9315 47.1211 23.9225 47.1125 23.9153C46.9975 23.9625 46.8736 23.992 46.8176 23.8445C46.7887 23.7677 46.7904 23.6827 46.8222 23.607C46.854 23.5314 46.9135 23.4707 46.9886 23.4375C47.0172 23.427 47.0487 23.4283 47.0764 23.441C47.104 23.4537 47.1255 23.4769 47.1361 23.5054C47.1787 23.6388 47.1724 23.7831 47.1184 23.9124C47.1351 23.9258 47.1559 23.9331 47.1774 23.9331C47.1988 23.9331 47.2196 23.9258 47.2364 23.9124C47.3835 23.7092 47.4933 23.4815 47.5608 23.2399C47.6214 23.0355 47.6255 22.8184 47.5726 22.6117ZM46.7881 23.3432C46.7645 23.364 46.7363 23.3792 46.7059 23.3873C46.6754 23.3955 46.6435 23.3964 46.6126 23.3901C46.5817 23.3838 46.5527 23.3705 46.5279 23.3511C46.5031 23.3316 46.4831 23.3067 46.4695 23.2783C46.4386 23.2065 46.4222 23.1293 46.4213 23.0511C46.4204 22.973 46.4351 22.8954 46.4644 22.823C46.4938 22.7505 46.5373 22.6846 46.5923 22.6291C46.6474 22.5736 46.7129 22.5296 46.7851 22.4997C46.8049 22.4921 46.8259 22.4886 46.847 22.4893C46.8681 22.49 46.8889 22.4948 46.9081 22.5036C46.9273 22.5124 46.9446 22.5249 46.9589 22.5405C46.9732 22.556 46.9843 22.5742 46.9916 22.594C47.0086 22.6415 47.0186 22.6912 47.0211 22.7415C47.0275 22.8504 47.01 22.9594 46.9697 23.0608C46.9295 23.1622 46.8674 23.2536 46.7881 23.3284V23.3432Z" fill="#080707"/>
<path d="M111.206 21.6618C111.108 21.3836 110.939 21.1357 110.716 20.9422C110.318 20.6296 110.035 20.6709 109.66 21.0985C109.628 21.1457 109.598 21.1899 109.572 21.2371C109.553 21.2472 109.538 21.264 109.531 21.2842C109.524 21.3044 109.525 21.3266 109.533 21.3462C109.48 21.3966 109.442 21.461 109.424 21.5319C109.406 21.6029 109.408 21.6775 109.43 21.7473C109.383 21.9121 109.383 22.0869 109.43 22.2517C109.404 22.3432 109.401 22.4395 109.419 22.5327C109.438 22.626 109.478 22.7136 109.536 22.7884C109.552 23.0205 109.643 23.2411 109.796 23.4166C109.873 23.5677 109.994 23.6919 110.143 23.773C110.292 23.854 110.462 23.8881 110.631 23.8708C111.002 23.8059 111.179 23.511 111.315 23.1925C111.334 23.1328 111.349 23.0717 111.359 23.0096C111.458 22.5558 111.405 22.0817 111.206 21.6618ZM110.336 22.6321C110.321 22.6655 110.298 22.6946 110.269 22.7168C110.24 22.739 110.206 22.7535 110.17 22.7591C110.133 22.7647 110.097 22.7611 110.062 22.7487C110.028 22.7363 109.997 22.7155 109.973 22.6882C109.813 22.4938 109.706 22.261 109.663 22.0128C109.632 21.978 109.614 21.9328 109.614 21.886C109.614 21.8391 109.632 21.7939 109.663 21.7591L109.687 21.5409C109.71 21.4878 109.737 21.4347 109.764 21.3846C109.796 21.3432 109.837 21.3097 109.884 21.2867C109.931 21.2636 109.982 21.2517 110.035 21.2519C110.087 21.2578 110.137 21.2777 110.179 21.3093C110.221 21.3409 110.254 21.3832 110.274 21.4318C110.38 21.6084 110.441 21.8082 110.452 22.0139C110.462 22.2196 110.423 22.4248 110.336 22.6115V22.6321ZM111.102 23.0155C111.091 23.0383 111.073 23.0578 111.052 23.0725C111.031 23.0871 111.007 23.0964 110.981 23.0996C110.956 23.1028 110.93 23.0997 110.906 23.0908C110.882 23.0818 110.86 23.0671 110.843 23.048C110.759 22.9553 110.709 22.8367 110.701 22.7117C110.69 22.6508 110.698 22.5877 110.725 22.5316C110.751 22.4754 110.794 22.4291 110.849 22.3991C110.943 22.3549 111.052 22.4404 111.108 22.5997C111.124 22.6382 111.138 22.6776 111.15 22.7176C111.157 22.7646 111.162 22.8118 111.164 22.8592C111.147 22.8858 111.129 22.9447 111.102 23.0008V23.0155Z" fill="#4B2D3A"/>
<path d="M78.6548 81.8269C78.6502 81.8744 78.6393 81.921 78.6223 81.9655C78.5752 82.057 78.5191 82.1484 78.4631 82.2369C77.1212 84.3014 75.8648 86.4248 74.4314 88.4303C73.6027 89.61 72.8182 90.7897 72.013 91.9842C71.9894 92.0196 71.9717 92.0579 71.9452 92.0904C71.8567 92.2113 71.6975 92.2762 71.6237 92.2113C71.5757 92.1688 71.5429 92.1119 71.5301 92.0491C71.5173 91.9863 71.5253 91.9211 71.5529 91.8633C71.7233 91.4545 71.9432 91.0682 72.2077 90.7131C73.4729 88.8993 74.7677 87.1032 75.9533 85.2333C76.6404 84.148 77.3512 83.0774 78.0561 81.9891C78.1364 81.8668 78.2304 81.754 78.3363 81.6529C78.3674 81.6237 78.4086 81.6074 78.4513 81.6074C78.494 81.6074 78.5351 81.6237 78.5663 81.6529C78.6069 81.7046 78.637 81.7637 78.6548 81.8269Z" fill="#7D7D7D"/>
<path d="M79.6517 90.89C79.8022 89.4419 79.8434 87.985 80.0263 86.5428C80.1649 85.4575 80.3212 84.3721 80.4775 83.2986C80.51 83.0715 80.5247 82.8385 80.5601 82.6085C80.5818 82.4856 80.6153 82.3651 80.6604 82.2487C80.6796 82.2106 80.7108 82.1798 80.7491 82.1612C80.7875 82.1425 80.8309 82.137 80.8727 82.1454C80.915 82.1499 80.9545 82.1688 80.9845 82.1988C81.0146 82.2289 81.0334 82.2683 81.0379 82.3106C81.0482 82.4146 81.0482 82.5193 81.0379 82.6232C80.9494 83.4195 80.8757 84.2188 80.7607 85.0092C80.6073 86.0739 80.5011 87.1415 80.4215 88.215C80.3065 89.7899 80.2092 91.3678 80.1797 92.9486C80.1803 93.074 80.1645 93.1989 80.1325 93.3202C80.1128 93.3697 80.0763 93.4108 80.0294 93.4361C79.9825 93.4615 79.9281 93.4695 79.8759 93.4588C79.8333 93.455 79.7929 93.4378 79.7607 93.4097C79.7284 93.3817 79.7057 93.3442 79.696 93.3025C79.6704 93.1356 79.6566 92.967 79.6547 92.7982C79.6488 92.1552 79.6517 91.5241 79.6517 90.89Z" fill="#7D7D7D"/>
<path d="M83.3057 81.9976C83.3551 81.9997 83.4035 82.0126 83.4473 82.0356C83.4911 82.0585 83.5294 82.0909 83.5593 82.1303C83.8129 82.4105 84.0784 82.6818 84.3202 82.9738C84.9838 83.7907 85.6297 84.6254 86.2136 85.4983C87.3284 87.1617 88.4521 88.8133 89.6643 90.4059C89.853 90.6507 89.8707 90.8129 89.735 90.8955C89.5994 90.9781 89.4755 90.9368 89.3045 90.7421C89.1334 90.5475 88.9299 90.285 88.7529 90.049C87.9016 88.8988 87.0817 87.726 86.2933 86.5306C85.4177 85.1947 84.4603 83.9142 83.4266 82.6965C83.3199 82.5692 83.2214 82.4352 83.1317 82.2954C83.0609 82.1863 83.1729 82.0005 83.3057 81.9976Z" fill="#7D7D7D"/>
<path d="M75.5755 34.0517C75.6193 34.0538 75.6618 34.0671 75.699 34.0904C75.7362 34.1136 75.7668 34.146 75.7879 34.1844C75.9845 34.4813 76.1762 34.7821 76.363 35.0868C77.4454 36.8918 78.572 38.6672 79.79 40.3955C80.2147 40.9854 80.6542 41.59 81.0848 42.1857C81.1717 42.3039 81.2468 42.4303 81.3089 42.5632C81.3255 42.6028 81.3272 42.647 81.3136 42.6877C81.3001 42.7284 81.2722 42.7627 81.2352 42.7844C81.2017 42.81 81.1608 42.8239 81.1187 42.8239C81.0766 42.8239 81.0356 42.81 81.0022 42.7844C80.9094 42.6999 80.8245 42.6071 80.7485 42.5072C79.4851 40.9034 78.3133 39.2295 77.2389 37.4934C76.6668 36.588 76.1094 35.6708 75.549 34.7595C75.4717 34.6344 75.4046 34.5032 75.3484 34.3672C75.3042 34.2493 75.4104 34.0782 75.5755 34.0517ZM83.6034 41.5546C83.6034 41.6755 83.6034 41.761 83.6034 41.8495C83.6036 41.8917 83.5879 41.9323 83.5595 41.9635C83.5311 41.9946 83.4921 42.0139 83.4501 42.0176C83.3989 42.0303 83.3447 42.0227 83.2991 41.9963C83.2534 41.9699 83.2198 41.9268 83.2053 41.876C83.1729 41.7796 83.1473 41.6811 83.1286 41.5811C82.9811 40.4958 82.8337 39.4134 82.698 38.3369C82.5034 36.7296 82.3294 35.1193 82.1435 33.509C82.1435 33.4058 82.1082 33.3025 82.1052 33.1964C82.1044 33.1334 82.1263 33.0722 82.1669 33.024C82.2076 32.9758 82.2642 32.9438 82.3264 32.9339C82.3793 32.9295 82.432 32.9439 82.4752 32.9747C82.5184 33.0055 82.5493 33.0506 82.5623 33.102C82.617 33.2607 82.6546 33.4249 82.6744 33.5916C82.8573 35.2019 83.0313 36.8122 83.2171 38.4225C83.3144 39.2777 83.4235 40.133 83.5297 40.9883C83.5503 41.1741 83.5798 41.3835 83.6034 41.5546Z" fill="#7D7D7D"/>
<path d="M85.2167 43.0643C85.1639 43.0472 85.1149 43.0202 85.0722 42.9847C85.0547 42.9608 85.0426 42.9334 85.0365 42.9044C85.0304 42.8755 85.0305 42.8455 85.0368 42.8166C85.0798 42.7214 85.1364 42.633 85.2049 42.5541C85.9098 41.7401 86.5203 40.8553 87.1573 39.9912C88.0559 38.7702 88.9613 37.5551 89.8736 36.3459C89.9475 36.246 90.0337 36.1558 90.1302 36.0775C90.1647 36.0519 90.2066 36.0381 90.2496 36.0381C90.2926 36.0381 90.3345 36.0519 90.3691 36.0775C90.4031 36.1025 90.4297 36.1363 90.4458 36.1753C90.4619 36.2143 90.467 36.257 90.4605 36.2987C90.4344 36.4223 90.3752 36.5364 90.2894 36.629C89.503 37.6967 88.7165 38.7633 87.93 39.829C87.6675 40.1829 87.4021 40.5368 87.1396 40.8937C86.656 41.5573 86.1457 42.2002 85.5972 42.8136C85.491 42.9287 85.4025 43.0555 85.2167 43.0643Z" fill="#7D7D7D"/>
<path d="M100.04 62.928C99.9042 63.0253 99.7892 63.1138 99.6712 63.1964C99.5076 63.3145 99.3748 63.4702 99.284 63.6503C99.1931 63.8305 99.1469 64.0298 99.1492 64.2316C99.1296 64.7618 99.2794 65.2845 99.5768 65.7239C100.015 66.3734 100.586 66.9223 101.252 67.3342C101.927 67.7677 102.585 68.219 103.237 68.6879C104.059 69.2819 104.825 69.9502 105.525 70.6845C105.903 71.0797 106.289 71.469 106.679 71.8642C107.729 72.943 109.036 73.7368 110.477 74.1706C111.035 74.3357 111.197 74.321 110.787 74.961C110.684 75.1106 110.633 75.2894 110.64 75.4707C110.648 75.6519 110.714 75.8259 110.828 75.9667C110.955 76.1351 111.1 76.2885 111.262 76.4238C111.976 77.049 112.701 77.6595 113.415 78.2848C113.653 78.4596 113.862 78.6706 114.034 78.91C114.176 79.146 114.005 79.4438 114.002 79.7181C114 79.9291 113.986 80.1398 113.96 80.3493C113.928 80.6294 113.857 80.6973 113.562 80.7504C113.105 80.826 112.642 80.8664 112.179 80.8713C110.955 80.8949 109.731 80.9303 108.507 80.9509C108.024 80.9509 107.537 80.9509 107.053 80.9303C105.809 80.8801 104.567 80.8241 103.322 80.771C102.838 80.7414 102.351 80.7741 101.874 80.8683C101.583 80.9241 101.301 81.0235 101.04 81.1632C100.826 81.2608 100.651 81.4255 100.54 81.6322C100.43 81.8388 100.389 82.076 100.426 82.3076C100.445 82.4538 100.478 82.598 100.524 82.7382C100.715 83.384 100.919 84.027 101.113 84.6758C101.234 85.0631 101.332 85.457 101.408 85.8555C101.482 86.2837 101.459 86.7229 101.341 87.141C101.222 87.559 101.012 87.9451 100.724 88.271C100.249 88.8139 99.6458 89.2295 98.9693 89.4802C97.5538 90.0778 95.9642 90.1157 94.5218 89.5863C93.8609 89.354 93.2757 88.9462 92.8289 88.4066C92.3444 87.8453 91.9756 87.1939 91.7436 86.4896C91.5741 85.9865 91.5473 85.4463 91.666 84.9289C91.7847 84.4115 92.0443 83.937 92.416 83.558C92.5841 83.3693 92.7847 83.21 92.9675 83.0331C93.1846 82.831 93.3556 82.5846 93.4689 82.3105C93.5736 82.0435 93.5906 81.7501 93.5174 81.4728C93.4443 81.1955 93.2847 80.9486 93.0619 80.7681C92.7416 80.527 92.3767 80.3516 91.9884 80.2519C90.9666 79.9889 89.9307 79.7841 88.8858 79.6385C87.9685 79.5087 87.0484 79.3848 86.1253 79.2905C85.0134 79.1754 83.8986 79.1017 82.7778 79.087C82.4829 79.087 82.188 79.0486 81.8931 79.0191C81.8667 79.0176 81.841 79.0104 81.8177 78.998C81.7944 78.9856 81.7741 78.9683 81.7581 78.9472C81.7421 78.9262 81.7309 78.902 81.7252 78.8762C81.7195 78.8505 81.7194 78.8237 81.725 78.7979C81.7721 78.3792 81.8252 77.9604 81.8724 77.5416C81.9432 76.8691 82.0081 76.1996 82.0789 75.5272C82.2381 74.0172 82.4092 72.5101 82.5566 70.9972C82.6392 70.1389 82.713 69.2777 82.8368 68.4195C82.8709 68.1684 82.9617 67.9284 83.1023 67.7176C83.1838 67.5806 83.3061 67.4726 83.452 67.4086C83.598 67.3446 83.7603 67.3278 83.9163 67.3607C84.0607 67.3918 84.2034 67.4302 84.3439 67.4757C84.8895 67.635 85.4322 67.8061 85.9807 67.9565C86.926 68.1987 87.916 68.2068 88.8651 67.9801C89.5081 67.8454 90.1097 67.5593 90.6199 67.1454C91.3028 66.6109 91.8893 65.9635 92.3541 65.2314C92.7828 64.548 93.0117 63.7583 93.0147 62.9516C93.0423 62.205 92.8028 61.473 92.3393 60.8871C91.3543 59.6661 90.1746 58.7017 88.6115 58.3035C88.2638 58.2164 87.9098 58.1573 87.5527 58.1266C87.0513 58.0853 86.5411 58.0823 86.0368 58.0646C85.572 58.0646 85.1091 58.1241 84.6595 58.2416C84.1905 58.3478 84.0077 58.2416 83.8661 57.7668C83.787 57.5035 83.7443 57.2306 83.7393 56.9557C83.7393 56.2184 83.7393 55.4811 83.7983 54.7438C83.8691 53.7764 83.9428 52.8061 83.9811 51.8388C84.0431 50.3641 84.1463 48.8895 84.105 47.4149C84.105 47.1701 84.1463 47.1199 84.3999 47.1199C84.7804 47.1199 85.1638 47.1199 85.5413 47.1435C86.4884 47.2138 87.439 47.2237 88.3873 47.173C90.2218 47.1023 92.0562 47.0964 93.8936 47.1258C94.3979 47.1258 94.9052 47.1081 95.4095 47.0993C95.6643 47.0941 95.916 47.0431 96.1527 46.9489C96.3063 46.902 96.4395 46.8044 96.5305 46.6721C96.6216 46.5398 96.6651 46.3806 96.6541 46.2204C96.6431 46.0319 96.6174 45.8446 96.5774 45.6601C96.4159 44.9186 96.3173 44.1649 96.2825 43.4068C96.2608 42.728 96.4403 42.0579 96.7986 41.481C97.1971 40.8083 97.701 40.2039 98.291 39.6908C98.8547 39.2097 99.5112 38.8493 100.22 38.632C100.684 38.485 101.173 38.4353 101.657 38.4861C102.141 38.5368 102.61 38.6869 103.033 38.9269C104.803 39.8736 105.431 41.4397 105.369 43.3508C105.352 44.3489 105.045 45.3204 104.484 46.1467C104.396 46.2898 104.319 46.4397 104.254 46.595C104.172 46.7799 104.164 46.9899 104.234 47.18C104.304 47.3702 104.446 47.5254 104.629 47.6125C104.895 47.7426 105.179 47.8302 105.472 47.872C105.974 47.9516 106.472 48.0342 106.974 48.102C108.938 48.3675 110.902 48.627 112.872 48.8984C113.291 48.9573 113.701 49.0576 114.12 49.1166C114.214 49.1266 114.303 49.1671 114.373 49.232C114.443 49.2969 114.489 49.3827 114.506 49.4764C114.574 49.6979 114.624 49.9249 114.653 50.1547C114.738 50.8034 114.787 51.4561 114.801 52.1101C114.801 53.2485 114.801 54.3899 114.801 55.5283C114.783 56.7935 114.692 58.0558 114.55 59.3151C114.534 59.6326 114.441 59.9414 114.279 60.2147C114.152 60.4093 114.019 60.4152 113.904 60.2147C113.698 59.8696 113.503 59.5216 113.294 59.1795C112.991 58.6707 112.609 58.2136 112.161 57.8258C111.895 57.5832 111.573 57.4109 111.223 57.3244C110.967 57.2536 110.693 57.2782 110.452 57.3937C110.212 57.5092 110.022 57.7077 109.917 57.9526C109.839 58.1454 109.771 58.3423 109.713 58.5424C109.669 58.5424 109.622 58.5424 109.598 58.5424C108.746 57.9024 107.729 57.6812 106.732 57.4129C105.691 57.1338 104.609 57.034 103.535 57.1179C103.154 57.1305 102.781 57.2262 102.441 57.3981C102.341 57.4354 102.25 57.4939 102.175 57.5696C102.1 57.6453 102.043 57.7364 102.007 57.8365C101.971 57.9367 101.957 58.0435 101.966 58.1496C101.975 58.2557 102.007 58.3586 102.06 58.451C102.104 58.566 102.222 58.6457 102.222 58.7872C102.125 58.9199 101.96 58.9081 101.83 58.9642C101.166 59.2591 100.96 59.554 101.004 60.2854C101.016 60.3294 101.018 60.3753 101.011 60.4202C101.004 60.4651 100.988 60.5081 100.964 60.5467C100.94 60.5853 100.909 60.6187 100.871 60.6447C100.834 60.6708 100.792 60.689 100.748 60.6983C100.528 60.7753 100.329 60.9034 100.168 61.0721C100.007 61.2408 99.8883 61.4452 99.8216 61.6686C99.7615 61.8267 99.7376 61.9962 99.7519 62.1647C99.7662 62.3332 99.8183 62.4963 99.9042 62.6419L100.04 62.928Z" fill="#D87756"/>
<path d="M60.8265 60.9312C60.9239 60.766 61.0241 60.6068 61.1215 60.4387C61.2455 60.1932 61.3133 59.9231 61.3199 59.6481C61.3265 59.3732 61.2718 59.1002 61.1598 58.849C61.0654 58.6101 60.9445 58.5039 60.4815 58.1795C60.705 57.8296 60.7931 57.4101 60.7292 56.9998C60.6935 56.7801 60.6005 56.5737 60.4597 56.4013C60.3189 56.2289 60.1352 56.0966 59.927 56.0177C59.7886 55.9693 59.6479 55.9279 59.5053 55.8938C59.3637 55.8526 59.2929 55.77 59.346 55.6137C59.427 55.3938 59.427 55.1522 59.346 54.9324C59.3075 54.7881 59.2237 54.6601 59.1068 54.5672C58.99 54.4742 58.8464 54.4213 58.6972 54.4163C58.4657 54.3975 58.2328 54.4084 58.0041 54.4487C56.4936 54.7447 55.004 55.1387 53.5448 55.6284C52.6442 55.9408 51.8513 56.5035 51.2591 57.2505C50.504 58.1904 49.8067 59.1753 49.1711 60.1998C48.3335 61.5181 47.4841 62.8275 46.6524 64.1459C46.5999 64.2474 46.5173 64.3302 46.416 64.383C46.3146 64.4358 46.1994 64.456 46.0861 64.4408C45.8974 64.426 45.7086 64.4408 45.5169 64.4408C45.0585 64.4438 44.6059 64.3385 44.1959 64.1335C43.7859 63.9285 43.4301 63.6296 43.1575 63.2611C42.6409 62.6555 42.2859 61.9291 42.1256 61.1494C41.9652 60.3697 42.0047 59.5621 42.2403 58.8018C42.3819 58.3242 42.6226 57.8819 42.9469 57.5038C43.2711 57.1257 43.6715 56.8203 44.1219 56.6076C44.8745 56.2144 45.7119 56.0119 46.561 56.0177C47.532 56.0117 48.4968 56.1734 49.4129 56.4955C49.6293 56.5826 49.8667 56.6036 50.0951 56.5559C50.3234 56.5081 50.5325 56.3937 50.6958 56.2271C50.914 56.0261 51.08 55.7751 51.1795 55.4957C51.3327 55.0787 51.4154 54.6392 51.4243 54.1951C51.4656 52.8679 51.4479 51.5407 51.3948 50.2106C51.3476 48.966 51.2886 47.7214 51.2355 46.4798C51.2311 46.416 51.2311 46.3519 51.2355 46.2881C51.2365 46.2352 51.2563 46.1844 51.2915 46.1449C51.3267 46.1054 51.3748 46.0798 51.4272 46.0728C51.7605 46.0286 52.0967 45.9755 52.43 45.946C53.0198 45.8959 53.6097 45.8634 54.1995 45.8221C55.3969 45.7395 56.5973 45.6481 57.7976 45.5773C58.8712 45.5124 59.9477 45.5301 61.0241 45.5567C61.3364 45.5674 61.642 45.6499 61.9172 45.7977C62.1924 45.9455 62.43 46.1547 62.6113 46.4091C62.7927 46.6635 62.9131 46.9562 62.9631 47.2646C63.0132 47.573 62.9915 47.8887 62.8999 48.1874C62.7515 48.6718 62.5782 49.1483 62.3808 49.6149C62.0522 50.4193 61.9384 51.2954 62.0505 52.1571C62.1019 52.6188 62.2336 53.068 62.4398 53.4843C62.7996 54.2444 63.3348 54.9082 64.0014 55.421C64.668 55.9337 65.4468 56.2808 66.2738 56.4336C67.4141 56.6716 68.5939 56.6434 69.7215 56.351C71.5294 55.882 72.6354 54.7377 73.0807 52.9416C73.2892 51.9718 73.3152 50.9717 73.1574 49.9924C73.0807 49.3878 72.9244 48.795 72.7976 48.1963C72.7491 48.0126 72.7282 47.8228 72.7357 47.633C72.7333 47.5425 72.75 47.4526 72.7846 47.369C72.8193 47.2854 72.8711 47.2101 72.9367 47.1478C73.0023 47.0855 73.0803 47.0377 73.1655 47.0075C73.2508 46.9773 73.3415 46.9653 73.4317 46.9723C73.9596 46.9723 74.4905 47.0018 75.0125 46.9546C76.319 46.8367 77.6255 46.8131 78.932 46.8219C80.1766 46.8219 81.4212 46.8219 82.6629 46.9458C83.76 47.0461 83.6332 47.0579 83.6155 47.9869C83.586 49.6739 83.5211 51.3608 83.4503 53.0478C83.4149 53.9532 83.3412 54.8587 83.2793 55.7611C83.232 56.3511 83.2498 56.9446 83.3323 57.5307C83.3706 57.8021 83.4565 58.0647 83.586 58.3063C83.651 58.4402 83.7531 58.5525 83.8802 58.6299C84.0073 58.7073 84.1539 58.7465 84.3027 58.7428C84.5136 58.7449 84.7235 58.7141 84.9249 58.6514C85.4554 58.5053 86.0083 58.4583 86.5559 58.5128C87.0396 58.5511 87.5291 58.56 88.0069 58.6367C88.8627 58.774 89.6724 59.1171 90.3663 59.6365C90.8018 59.9703 91.2119 60.3361 91.5932 60.7306C92.0163 61.1334 92.3173 61.6472 92.4618 62.2131C92.6063 62.7791 92.5884 63.3743 92.4102 63.9306C92.3134 64.3215 92.1476 64.692 91.9206 65.0247C91.519 65.6194 91.0433 66.1605 90.5049 66.635C89.8289 67.1844 89.0106 67.5301 88.1455 67.6319C86.9658 67.8088 85.8894 67.4697 84.7981 67.1512C84.5032 67.0686 84.2348 66.9713 83.9487 66.9093C83.7304 66.8599 83.5023 66.8755 83.2927 66.9541C83.0831 67.0327 82.9011 67.1709 82.769 67.3517C82.5166 67.6675 82.3646 68.0517 82.3325 68.4547C82.2352 69.313 82.1497 70.1742 82.0583 71.0324C81.9609 71.9762 81.8577 72.9199 81.7633 73.8637C81.6513 74.9549 81.5451 76.0461 81.4301 77.1374C81.377 77.6594 81.318 78.1843 81.2413 78.7064C81.1882 79.0544 81.1351 79.0839 80.7812 79.0603C79.5809 78.9895 78.3805 78.8892 77.1802 78.8568C76.1037 78.8273 75.0302 78.7919 73.9566 78.727C73.1346 78.6887 72.3185 78.5681 71.5206 78.3672C71.1736 78.2747 70.8397 78.1389 70.5267 77.9631C70.2849 77.831 70.0691 77.6561 69.8896 77.447C69.6765 77.2221 69.5531 76.9268 69.5428 76.6171C69.5325 76.3074 69.6359 76.0046 69.8336 75.766C70.023 75.5396 70.2259 75.3249 70.4411 75.123C70.9481 74.6095 71.3025 73.9652 71.4645 73.262C71.6171 72.6657 71.5894 72.0376 71.3849 71.4571C71.1784 70.8007 70.8369 70.1948 70.3823 69.6783C69.9277 69.1617 69.3701 68.746 68.7453 68.4577C67.901 68.0682 66.9923 67.8373 66.0644 67.7764C65.4708 67.7577 64.8816 67.8843 64.348 68.1451C63.8607 68.3507 63.4104 68.6346 63.0149 68.9856C61.6759 70.1977 61.2866 71.6842 61.7762 73.4095C61.9325 73.9551 62.1478 74.483 62.3425 75.0198C62.4444 75.2741 62.5118 75.5409 62.543 75.8131C62.5961 76.403 62.3985 76.6684 61.8116 76.7805C61.4156 76.8423 61.0147 76.866 60.6142 76.8513C59.6852 76.8513 58.7562 76.8218 57.8271 76.8513C56.4587 76.9162 55.0873 76.925 53.7159 76.9486C52.8508 76.9437 51.9865 76.8945 51.1264 76.8011C50.7253 76.7657 50.6752 76.7127 50.6781 76.2791C50.6781 75.648 50.6781 75.0139 50.7253 74.3828C50.7843 73.203 50.8698 72.0233 50.9288 70.8436C50.9286 70.7079 50.9566 70.5737 51.0109 70.4493C51.0652 70.3249 51.1447 70.2132 51.2444 70.1211C52.007 69.362 52.8406 68.6776 53.7336 68.0772C54.4591 67.6024 55.1758 67.1217 55.8806 66.6233C56.6229 66.101 57.3949 65.6224 58.1928 65.1899C58.9715 64.7682 59.7589 64.3671 60.5523 63.9453C60.7932 63.8163 61.0248 63.6704 61.2453 63.5088C61.6372 63.2129 61.9052 62.782 61.9974 62.2996C62.0636 62.0961 62.0537 61.8754 61.9697 61.6786C61.8856 61.4817 61.7331 61.322 61.5403 61.2291C61.3083 61.1161 61.07 61.0166 60.8265 60.9312Z" fill="#D87756"/>
<path d="M115.81 34.3554C115.546 34.3623 115.288 34.2744 115.084 34.1077C115.052 34.0805 115.028 34.0447 115.015 34.0045C115.003 33.9642 115.002 33.9213 115.013 33.8806C115.031 33.8305 115.061 33.7859 115.102 33.7517C115.142 33.7174 115.191 33.6947 115.243 33.686C115.284 33.6743 115.327 33.6743 115.367 33.686C115.939 33.9219 116.488 33.7154 117.036 33.5827C117.26 33.5138 117.463 33.3901 117.626 33.2229C117.889 32.9899 118.01 32.7599 117.904 32.7186C117.703 32.6478 117.564 32.8159 117.405 32.8926C117.31 32.9436 117.211 32.9889 117.11 33.0283C117.071 33.04 117.03 33.0398 116.991 33.0278C116.952 33.0157 116.918 32.9923 116.892 32.9606C116.867 32.9288 116.852 32.8902 116.849 32.8498C116.845 32.8093 116.854 32.7687 116.874 32.7333C117.147 32.4068 117.534 32.196 117.957 32.1435C118.036 32.1464 118.113 32.1663 118.184 32.202C118.255 32.2376 118.317 32.288 118.367 32.3499C118.416 32.4117 118.452 32.4835 118.471 32.5604C118.491 32.6372 118.493 32.7174 118.479 32.7953C118.445 33.0049 118.355 33.2016 118.219 33.3645C117.953 33.6951 117.602 33.9478 117.205 34.0959C116.75 34.2327 116.283 34.3197 115.81 34.3554ZM110.424 17.1701C110.888 17.1689 111.344 17.2781 111.757 17.4886C111.869 17.5456 111.973 17.6159 112.067 17.698C112.11 17.7323 112.139 17.781 112.15 17.8351C112.16 17.8892 112.15 17.9452 112.123 17.9929C112.1 18.0406 112.062 18.0789 112.014 18.1015C111.966 18.1241 111.912 18.1295 111.86 18.1168C111.722 18.0684 111.587 18.0113 111.456 17.9457C110.457 17.5388 109.531 17.6213 108.708 18.3704C108.649 18.4309 108.585 18.4852 108.516 18.5327C108.472 18.5654 108.417 18.5803 108.362 18.5743C108.307 18.5682 108.257 18.5418 108.221 18.5002C108.177 18.4667 108.147 18.418 108.136 18.3635C108.126 18.309 108.136 18.2527 108.165 18.2053C108.225 18.0945 108.304 17.9948 108.398 17.9104C108.67 17.6598 108.99 17.4654 109.337 17.3383C109.685 17.2113 110.054 17.1541 110.424 17.1701Z" fill="#0A0707"/>
<path d="M125.79 20.5235C125.796 20.7529 125.748 20.9805 125.648 21.1871C125.634 21.2148 125.612 21.2376 125.584 21.2523C125.557 21.2671 125.526 21.2731 125.495 21.2697C125.38 21.2697 125.359 21.1812 125.371 21.0987C125.383 21.0161 125.415 20.8539 125.442 20.73C125.499 20.5823 125.505 20.4199 125.46 20.2683C125.414 20.1167 125.32 19.9845 125.191 19.8924C125.155 19.869 125.127 19.8364 125.108 19.798C125.087 19.7622 125.079 19.7201 125.085 19.6788C125.091 19.6375 125.11 19.5994 125.141 19.5709C125.164 19.551 125.194 19.54 125.225 19.54C125.256 19.54 125.286 19.551 125.309 19.5709C125.477 19.6617 125.613 19.8017 125.699 19.9719C125.785 20.1422 125.816 20.3347 125.79 20.5235Z" fill="#171414"/>
<path d="M41.1344 32.1052C41.3928 32.1104 41.6491 32.1532 41.8953 32.232C42.4286 32.4285 42.947 32.6631 43.4466 32.934C43.5023 32.9631 43.5522 33.0021 43.5941 33.049C43.6501 33.1109 43.7032 33.1847 43.6442 33.2731C43.5852 33.3616 43.5262 33.4029 43.4348 33.3705C43.3434 33.338 43.2048 33.2672 43.0897 33.2171C42.7063 33.046 42.3259 32.872 41.9366 32.7128C41.683 32.6066 41.4121 32.5477 41.1373 32.5388C40.7244 32.5211 40.6802 32.6037 40.6507 33.046C40.6324 33.1811 40.6563 33.3184 40.7192 33.4393C40.782 33.5603 40.8807 33.6588 41.0017 33.7214C41.3467 33.9249 41.6947 34.1196 42.0457 34.3113C42.248 34.4253 42.4743 34.49 42.7063 34.5C42.9187 34.5 43.131 34.5 43.2431 34.2611C43.2536 34.2365 43.2692 34.2145 43.289 34.1965C43.3088 34.1784 43.3322 34.1649 43.3577 34.1568C43.3832 34.1487 43.4101 34.1462 43.4366 34.1494C43.4632 34.1526 43.4887 34.1616 43.5115 34.1756C43.5656 34.2091 43.6064 34.2604 43.6268 34.3207C43.6472 34.3809 43.6461 34.4464 43.6236 34.5059C43.5967 34.6089 43.5391 34.7013 43.4585 34.7708C43.378 34.8403 43.2781 34.8837 43.1723 34.8952C42.8416 34.9752 42.4949 34.9598 42.1725 34.851C41.6031 34.6316 41.067 34.3338 40.5799 33.9662C40.4478 33.8791 40.3415 33.7583 40.272 33.6161C40.2025 33.474 40.1723 33.3158 40.1847 33.1581C40.1847 33.0136 40.1847 32.8632 40.1847 32.7157C40.1755 32.5995 40.2061 32.4837 40.2715 32.3872C40.3369 32.2907 40.4332 32.2193 40.5445 32.1849C40.7348 32.1231 40.9346 32.0962 41.1344 32.1052Z" fill="#070505"/>
<path d="M47.1303 19.8508C47.7599 19.8384 48.3828 19.9812 48.9441 20.2667C48.9798 20.289 49.0125 20.3158 49.0414 20.3463C49.0741 20.3724 49.0981 20.4078 49.1102 20.4478C49.1223 20.4879 49.122 20.5306 49.1093 20.5705C49.0954 20.6226 49.0626 20.6677 49.0174 20.6971C48.9722 20.7265 48.9177 20.7381 48.8645 20.7297C48.7435 20.7009 48.6258 20.6594 48.5135 20.6059C48.1883 20.4572 47.8383 20.3702 47.4813 20.3493C47.0807 20.3325 46.6812 20.403 46.3105 20.5557C45.9398 20.7085 45.6067 20.9399 45.3342 21.2341C45.1573 21.411 45.0039 21.6145 44.8358 21.8033C44.7847 21.8686 44.7263 21.928 44.6618 21.9802C44.6273 22.0047 44.5861 22.0179 44.5438 22.0179C44.5015 22.0179 44.4603 22.0047 44.4258 21.9802C44.3891 21.9592 44.3602 21.9269 44.3432 21.8881C44.3262 21.8494 44.3221 21.8062 44.3315 21.7649C44.3355 21.7227 44.3476 21.6817 44.3669 21.644C45.0894 20.5616 46.0568 19.9039 47.1303 19.8508Z" fill="#090606"/>
</svg>
