<svg width="186" height="140" viewBox="0 0 186 140" fill="none" xmlns="http://www.w3.org/2000/svg">
<g clip-path="url(#clip0_201_1697)">
<path d="M91.7348 138.442C98.8976 138.442 104.704 132.627 104.704 125.455C104.704 118.283 98.8976 112.469 91.7348 112.469C84.572 112.469 78.7654 118.283 78.7654 125.455C78.7654 132.627 84.572 138.442 91.7348 138.442Z" stroke="#D87756" stroke-width="1.5"/>
<path d="M121.283 99.8668C113.204 92.6869 102.783 88.7112 91.982 88.6877C81.1801 88.6643 70.7425 92.5944 62.6326 99.7389" stroke="#D87756" stroke-width="1.5"/>
<path d="M141.714 78.552C128.033 66.3467 110.385 59.5878 92.0921 59.5477C73.7989 59.5075 56.122 66.1889 42.3877 78.3341" stroke="#D87756" stroke-width="1.5"/>
<path d="M161.326 56.3801C142.242 39.2925 117.625 29.8302 92.1078 29.7741C66.591 29.7179 41.9333 39.0717 22.7754 56.0751" stroke="#D87756" stroke-width="1.5"/>
<path d="M185.367 36.1087C159.922 13.3251 127.099 0.708777 93.0765 0.63388C59.0534 0.558984 26.1765 13.0307 0.632568 35.702" stroke="#D87756" stroke-width="1.5"/>
</g>
<defs>
<clipPath id="clip0_201_1697">
<rect width="186" height="140" fill="white"/>
</clipPath>
</defs>
</svg>
