<svg width="19" height="19" viewBox="0 0 19 19" fill="none" xmlns="http://www.w3.org/2000/svg">
<g clip-path="url(#clip0)">
<path d="M2.52134 5.88364C2.20847 5.88364 1.94301 5.99274 1.72481 6.21095C1.5066 6.42916 1.39746 6.691 1.39746 6.99661V11.6889C1.39746 12.0022 1.50657 12.2674 1.72481 12.4856C1.94301 12.7038 2.20847 12.813 2.52134 12.813C2.83397 12.813 3.09782 12.7039 3.31264 12.4856C3.52704 12.2674 3.63454 12.0022 3.63454 11.6889V6.99661C3.63454 6.69097 3.52543 6.42916 3.30719 6.21095C3.08895 5.99274 2.82695 5.88364 2.52134 5.88364Z" fill="white"/>
<path d="M11.5566 1.67138L12.3314 0.242089C12.3823 0.147464 12.3642 0.0749031 12.277 0.0238806C12.1823 -0.0201156 12.1096 0.00217798 12.0588 0.0891855L11.2732 1.5299C10.5819 1.22426 9.85071 1.07116 9.07969 1.07116C8.30851 1.07116 7.57728 1.22429 6.88625 1.5299L6.10058 0.0891855C6.04953 0.00217798 5.9768 -0.0199186 5.88238 0.0238806C5.79497 0.075133 5.77688 0.147464 5.82794 0.242089L6.60277 1.67138C5.8171 2.07204 5.19137 2.63003 4.7258 3.34658C4.26023 4.06352 4.02734 4.84699 4.02734 5.69835H14.1211C14.1211 4.84718 13.8882 4.06369 13.4226 3.34658C12.957 2.63003 12.3349 2.07204 11.5566 1.67138ZM7.07714 3.7503C6.99335 3.83428 6.89327 3.87608 6.77694 3.87608C6.66039 3.87608 6.56235 3.83428 6.48237 3.7503C6.40239 3.6667 6.3624 3.56702 6.3624 3.4503C6.3624 3.33397 6.40239 3.2341 6.48237 3.15031C6.56235 3.06671 6.66062 3.02492 6.77694 3.02492C6.89327 3.02492 6.99335 3.06671 7.07714 3.15031C7.16073 3.23429 7.20272 3.33397 7.20272 3.4503C7.20249 3.56683 7.16053 3.6667 7.07714 3.7503ZM11.6766 3.7503C11.5964 3.83428 11.4982 3.87608 11.382 3.87608C11.2654 3.87608 11.1654 3.83428 11.0818 3.7503C10.998 3.6667 10.9562 3.56702 10.9562 3.4503C10.9562 3.33397 10.998 3.2341 11.0818 3.15031C11.1654 3.06671 11.2654 3.02492 11.382 3.02492C11.4984 3.02492 11.5964 3.06671 11.6766 3.15031C11.7566 3.23429 11.7966 3.33397 11.7966 3.4503C11.7966 3.56683 11.7566 3.6667 11.6766 3.7503Z" fill="white"/>
<path d="M4.07129 13.3585C4.07129 13.6935 4.18762 13.977 4.4203 14.2097C4.65319 14.4424 4.93673 14.5587 5.27147 14.5587H6.07903L6.09009 17.0361C6.09009 17.3489 6.1992 17.6146 6.41741 17.8328C6.63561 18.0511 6.89765 18.1602 7.20307 18.1602C7.51574 18.1602 7.78135 18.0511 7.9996 17.8328C8.21784 17.6146 8.32694 17.349 8.32694 17.0361V14.559H9.8328V17.0361C9.8328 17.3489 9.94187 17.6146 10.1601 17.8328C10.3783 18.0511 10.6437 18.1602 10.9566 18.1602C11.2693 18.1602 11.5349 18.0511 11.7532 17.8328C11.9714 17.6146 12.0805 17.349 12.0805 17.0361V14.559H12.8989C13.2263 14.559 13.5062 14.4426 13.7393 14.2099C13.9719 13.9772 14.0883 13.6937 14.0883 13.3587V6.09079H4.07129V13.3585Z" fill="white"/>
<path d="M15.6384 5.88364C15.3328 5.88364 15.0709 5.99113 14.8527 6.20553C14.6345 6.42033 14.5254 6.68417 14.5254 6.99661V11.6889C14.5254 12.0022 14.6345 12.2674 14.8527 12.4856C15.0709 12.7039 15.333 12.813 15.6384 12.813C15.9511 12.813 16.2167 12.7039 16.4349 12.4856C16.6532 12.2674 16.7622 12.0022 16.7622 11.6889V6.99661C16.7622 6.68414 16.6532 6.42033 16.4349 6.20553C16.2167 5.99113 15.9511 5.88364 15.6384 5.88364Z" fill="white"/>
</g>
<defs>
<clipPath id="clip0">
<rect width="18.1582" height="18.1582" fill="white"/>
</clipPath>
</defs>
</svg>
