<svg width="17" height="17" viewBox="0 0 17 17" fill="none" xmlns="http://www.w3.org/2000/svg">
<g clip-path="url(#clip0)">
<path d="M6.08218 16.8097C3.58027 16.7953 1.51074 11.688 1.51074 9.08704C1.51074 4.83831 4.69801 3.90815 5.92636 3.90815C6.47992 3.90815 7.07101 4.12554 7.59237 4.31791C7.95695 4.4521 8.334 4.59062 8.54371 4.59062C8.66923 4.59062 8.96502 4.47278 9.22617 4.36939C9.78312 4.14767 10.4762 3.8721 11.2832 3.8721C11.2846 3.8721 11.2866 3.8721 11.288 3.8721C11.8906 3.8721 13.7178 4.00435 14.8163 5.65401L15.0736 6.04069L14.7032 6.32013C14.1742 6.71931 13.2089 7.44749 13.2089 8.88987C13.2089 10.5982 14.3021 11.2552 14.8273 11.5712C15.0592 11.7107 15.2991 11.8545 15.2991 12.169C15.2991 12.3744 13.66 16.7842 11.2798 16.7842C10.6974 16.7842 10.2857 16.6091 9.92256 16.4548C9.55513 16.2984 9.23816 16.1638 8.71441 16.1638C8.44892 16.1638 8.1132 16.2893 7.75778 16.4226C7.27208 16.6038 6.72233 16.8097 6.09853 16.8097H6.08218Z" fill="white"/>
<path d="M11.5351 -0.000793457C11.5971 2.23435 9.99863 3.78499 8.40203 3.68773C8.13894 1.90401 9.99843 -0.000793457 11.5351 -0.000793457Z" fill="white"/>
</g>
<defs>
<clipPath id="clip0">
<rect width="16.8105" height="16.8105" fill="white"/>
</clipPath>
</defs>
</svg>
