<svg width="75" height="108" viewBox="0 0 75 108" fill="none" xmlns="http://www.w3.org/2000/svg">
<path d="M9.94279 11.5688H1V106.688H2.62596H9.94279V100.997M9.94279 11.5688V27.8284M9.94279 11.5688H25.3894M9.94279 100.997H66.0385M9.94279 100.997V81.4851M66.0385 100.997V81.4851M66.0385 100.997V106.688H73.3553V11.5688H66.0385M66.0385 81.4851H9.94279M66.0385 81.4851V27.8284M9.94279 81.4851V27.8284M66.0385 11.5688V27.8284M66.0385 11.5688H51.4048M9.94279 27.8284H66.0385M15.6337 45.7139H13.1947V65.2255H61.9736V45.7139H58.7216M15.6337 45.7139V32.7063H20.5115V45.7139M15.6337 45.7139H20.5115M20.5115 45.7139H27.8284M27.8284 45.7139V32.7063H33.5192V45.7139M27.8284 45.7139H33.5192M33.5192 45.7139H40.0231M40.0231 45.7139V32.7063H47.3399V45.7139M40.0231 45.7139H47.3399M47.3399 45.7139H53.0308M53.0308 45.7139V31.8933H58.7216V45.7139M53.0308 45.7139H58.7216M25.3894 11.5688V8.31683H34.3322M25.3894 11.5688H51.4048M51.4048 11.5688V8.31683H42.462M42.462 8.31683V1H34.3322V8.31683M42.462 8.31683H34.3322" stroke="url(#paint0_linear)" stroke-width="1.66875" stroke-linecap="round" stroke-linejoin="round"/>
<circle cx="21.3251" cy="54.6569" r="4.04351" stroke="url(#paint1_linear)" stroke-width="1.66875"/>
<circle cx="53.8437" cy="54.6569" r="4.04351" stroke="url(#paint2_linear)" stroke-width="1.66875"/>
<defs>
<linearGradient id="paint0_linear" x1="11.0781" y1="-50.171" x2="115.144" y2="174.522" gradientUnits="userSpaceOnUse">
<stop stop-color="#23375F" stop-opacity="0"/>
<stop offset="0.427083" stop-color="#3E5685"/>
</linearGradient>
<linearGradient id="paint1_linear" x1="17.8061" y1="45.0556" x2="25.0636" y2="67.9443" gradientUnits="userSpaceOnUse">
<stop stop-color="#23375F" stop-opacity="0"/>
<stop offset="0.427083" stop-color="#3E5685"/>
</linearGradient>
<linearGradient id="paint2_linear" x1="50.3247" y1="45.0556" x2="57.5822" y2="67.9443" gradientUnits="userSpaceOnUse">
<stop stop-color="#23375F" stop-opacity="0"/>
<stop offset="0.427083" stop-color="#3E5685"/>
</linearGradient>
</defs>
</svg>
