<svg width="128" height="58" viewBox="0 0 128 58" fill="none" xmlns="http://www.w3.org/2000/svg">
<path d="M117.554 38.3852H127.083L117.554 29.5887V25.1904H123.418V16.3939H117.554L111.689 9.06347L117.554 5.39826L113.889 1H58.9104L34.72 14.1948H22.9913H1L22.9913 38.3852L25.1904 39.1182M117.554 38.3852V33.9869H110.223V38.3852M117.554 38.3852V50.1139H122.685V55.9782H105.092V50.1139H110.223V38.3852M110.223 38.3852H76.5034M76.5034 38.3852V33.9869H69.906V38.3852M76.5034 38.3852V50.1139H81.6347V55.9782H64.7747V50.1139H69.906V38.3852M69.906 38.3852H32.5208M32.5208 38.3852V33.9869H25.1904V39.1182M32.5208 38.3852V50.8469H36.9191V56.7112H20.7922V50.8469H25.1904V39.1182M29.5887 18.593L50.8469 18.4015M110.956 17.86L106.558 17.8996M106.558 17.8996V10.5296H101.427M106.558 17.8996L101.427 17.9458M101.427 10.5296V17.9458M101.427 10.5296H95.5625M101.427 17.9458L95.5625 17.9987M95.5625 17.9987V10.5296M95.5625 17.9987L85.2999 18.0911M95.5625 10.5296H91.1642M50.8469 18.4015V17.86V10.5296H57.4443M50.8469 18.4015L57.4443 18.3421M57.4443 18.3421V10.5296M57.4443 18.3421L64.7747 18.276M57.4443 10.5296H64.7747M64.7747 10.5296V18.276M64.7747 10.5296H71.3721M64.7747 18.276L71.3721 18.2166M71.3721 18.2166V10.5296M71.3721 18.2166L78.7025 18.1506M71.3721 10.5296H78.7025M78.7025 10.5296V18.1506M78.7025 10.5296H85.2999M78.7025 18.1506L85.2999 18.0911M85.2999 18.0911V10.5296M85.2999 10.5296H91.1642M91.1642 10.5296V18.0383" stroke="url(#paint0_linear)" stroke-width="1.66875" stroke-linecap="round" stroke-linejoin="round"/>
<path d="M80.9014 25.9231H115.354" stroke="url(#paint1_linear)" stroke-width="1.66875" stroke-linecap="round" stroke-linejoin="round"/>
<path d="M29.5889 30.3213H109.491" stroke="url(#paint2_linear)" stroke-width="1.66875" stroke-linecap="round" stroke-linejoin="round"/>
<defs>
<linearGradient id="paint0_linear" x1="18.5616" y1="-25.9739" x2="38.3275" y2="115.106" gradientUnits="userSpaceOnUse">
<stop stop-color="#23375F" stop-opacity="0"/>
<stop offset="0.427083" stop-color="#3E5685"/>
</linearGradient>
<linearGradient id="paint1_linear" x1="85.7002" y1="25.4389" x2="85.7239" y2="28.0208" gradientUnits="userSpaceOnUse">
<stop stop-color="#23375F" stop-opacity="0"/>
<stop offset="0.427083" stop-color="#3E5685"/>
</linearGradient>
<linearGradient id="paint2_linear" x1="40.718" y1="29.8371" x2="40.7283" y2="32.4191" gradientUnits="userSpaceOnUse">
<stop stop-color="#23375F" stop-opacity="0"/>
<stop offset="0.427083" stop-color="#3E5685"/>
</linearGradient>
</defs>
</svg>
