<svg width="177" height="35" viewBox="0 0 177 35" fill="none" xmlns="http://www.w3.org/2000/svg">
<path d="M1 14.8157H5.14474V15.2762M1 14.8157V31.8552H5.14474V30.9341M1 14.8157V7.44729H47.0526M54.8816 15.2762V7.44729H47.0526M54.8816 15.2762H47.0526M54.8816 15.2762H55.8026V16.1973M47.0526 15.2762V7.44729M47.0526 15.2762V28.171M47.0526 15.2762H34.8487M5.14474 15.2762H7.44737M5.14474 15.2762V30.9341M7.44737 15.2762V30.9341H5.14474M7.44737 15.2762H16.6579M16.6579 15.2762V28.171M16.6579 15.2762H22.6447M55.8026 33.6973H47.0526M55.8026 33.6973V28.171M55.8026 33.6973H64.0921M47.0526 33.6973H16.6579V28.171M47.0526 33.6973V28.171M47.0526 28.171H34.8487M16.6579 28.171H22.6447M22.6447 28.171V15.2762M22.6447 28.171H34.8487M22.6447 15.2762H34.8487M34.8487 15.2762V28.171M55.8026 16.1973H64.0921M55.8026 16.1973V28.171M64.0921 16.1973V28.171M64.0921 16.1973V33.6973M64.0921 16.1973V15.2762M64.0921 28.171H55.8026M64.0921 28.171V33.6973M64.0921 33.6973H72.8421M72.8421 15.2762L69.1579 1.46045H64.0921V15.2762M72.8421 15.2762H64.0921M72.8421 15.2762V16.1973M72.8421 33.6973V28.171M72.8421 33.6973H79.2895M72.8421 16.1973H79.2895M72.8421 16.1973V28.171M79.2895 16.1973V28.171M79.2895 16.1973V15.2762M79.2895 28.171H72.8421M79.2895 28.171V33.6973M79.2895 33.6973H88.0395M88.0395 15.2762L84.3553 1.46045H79.2895V15.2762M88.0395 15.2762H79.2895M88.0395 15.2762V16.1973M88.0395 33.6973V28.171M88.0395 33.6973H94.4868M88.0395 16.1973H94.4868M88.0395 16.1973V28.171M94.4868 16.1973V28.171M94.4868 16.1973V15.2762M94.4868 28.171H88.0395M94.4868 28.171V33.6973M94.4868 33.6973H103.237M103.237 15.2762L99.5526 1.46045H94.4868V15.2762M103.237 15.2762H94.4868M103.237 15.2762V16.1973M103.237 33.6973V28.171M103.237 33.6973H109.684M103.237 16.1973H109.684M103.237 16.1973V28.171M109.684 16.1973V28.171M109.684 16.1973V15.2762M109.684 28.171H103.237M109.684 28.171V33.6973M109.684 33.6973H118.434M118.434 15.2762L114.75 1.46045H109.684V15.2762M118.434 15.2762H109.684M118.434 15.2762V16.1973M118.434 33.6973V28.171M118.434 33.6973H124.882M118.434 16.1973H124.882M118.434 16.1973V28.171M124.882 16.1973V28.171M124.882 16.1973V15.2762M124.882 28.171H118.434M124.882 28.171V33.6973M124.882 33.6973H133.632M133.632 15.2762L129.947 1.46045H124.882V15.2762M133.632 15.2762H124.882M133.632 15.2762V16.1973M133.632 33.6973V28.171M133.632 33.6973H140.079M133.632 16.1973H140.079M133.632 16.1973V28.171M140.079 16.1973V28.171M140.079 16.1973V15.2762M140.079 28.171H133.632M140.079 28.171V33.6973M140.079 33.6973H148.829M148.829 15.2762L145.145 1.46045H140.079V15.2762M148.829 15.2762H140.079M148.829 15.2762V16.1973M148.829 33.6973V28.171M148.829 33.6973H155.276M148.829 16.1973H155.276M148.829 16.1973V28.171M155.276 16.1973V28.171M155.276 16.1973H164.487M155.276 28.171H148.829M155.276 28.171V33.6973M155.276 33.6973H164.487M164.487 16.1973V33.6973M164.487 16.1973V14.8157M164.487 33.6973H176V14.8157M164.487 14.8157V9.74992H167.25M164.487 14.8157H176M176 14.8157V9.74992H173.237M173.237 9.74992V12.9736H167.25V9.74992M173.237 9.74992H167.25" stroke="url(#paint0_linear)" stroke-width="1.575" stroke-linecap="round" stroke-linejoin="round"/>
<rect x="62.4808" y="6.75622" width="1.38158" height="3.22368" fill="#EAEAEA" stroke="url(#paint1_linear)" stroke-width="1.38158"/>
<path d="M79.2885 6.06543H76.5254V10.6707H79.2885" stroke="url(#paint2_linear)" stroke-width="1.575"/>
<path d="M94.9477 6.06543H92.1846V10.6707H94.9477" stroke="url(#paint3_linear)" stroke-width="1.575"/>
<path d="M109.684 6.06543H106.921V10.6707H109.684" stroke="url(#paint4_linear)" stroke-width="1.575"/>
<path d="M124.421 6.06543H121.658V10.6707H124.421" stroke="url(#paint5_linear)" stroke-width="1.575"/>
<path d="M140.079 6.06543H137.315V10.6707H140.079" stroke="url(#paint6_linear)" stroke-width="1.575"/>
<defs>
<linearGradient id="paint0_linear" x1="25.375" y1="-14.1478" x2="30.2203" y2="68.8065" gradientUnits="userSpaceOnUse">
<stop stop-color="#23375F" stop-opacity="0"/>
<stop offset="0.427083" stop-color="#3E5685"/>
</linearGradient>
<linearGradient id="paint1_linear" x1="62.1749" y1="3.83569" x2="67.087" y2="13.1309" gradientUnits="userSpaceOnUse">
<stop stop-color="#23375F" stop-opacity="0"/>
<stop offset="0.427083" stop-color="#3E5685"/>
</linearGradient>
<linearGradient id="paint2_linear" x1="76.9103" y1="3.83569" x2="81.8224" y2="13.1309" gradientUnits="userSpaceOnUse">
<stop stop-color="#23375F" stop-opacity="0"/>
<stop offset="0.427083" stop-color="#3E5685"/>
</linearGradient>
<linearGradient id="paint3_linear" x1="92.5694" y1="3.83569" x2="97.4816" y2="13.1309" gradientUnits="userSpaceOnUse">
<stop stop-color="#23375F" stop-opacity="0"/>
<stop offset="0.427083" stop-color="#3E5685"/>
</linearGradient>
<linearGradient id="paint4_linear" x1="107.306" y1="3.83569" x2="112.218" y2="13.1309" gradientUnits="userSpaceOnUse">
<stop stop-color="#23375F" stop-opacity="0"/>
<stop offset="0.427083" stop-color="#3E5685"/>
</linearGradient>
<linearGradient id="paint5_linear" x1="122.043" y1="3.83569" x2="126.955" y2="13.1309" gradientUnits="userSpaceOnUse">
<stop stop-color="#23375F" stop-opacity="0"/>
<stop offset="0.427083" stop-color="#3E5685"/>
</linearGradient>
<linearGradient id="paint6_linear" x1="137.7" y1="3.83569" x2="142.612" y2="13.1309" gradientUnits="userSpaceOnUse">
<stop stop-color="#23375F" stop-opacity="0"/>
<stop offset="0.427083" stop-color="#3E5685"/>
</linearGradient>
</defs>
</svg>
