<svg width="132" height="80" viewBox="0 0 132 80" fill="none" xmlns="http://www.w3.org/2000/svg">
<path d="M25.489 10.7956L13.2445 1H6.7141V34.4683M25.489 10.7956V40.1824M25.489 10.7956H44.2639M25.489 40.1824L20.5912 43.3766M25.489 40.1824H44.2639M20.5912 43.3766L11.6119 49.2327M20.5912 43.3766L28.035 67.1203M29.5705 72.0181H11.6119V67.1203M29.5705 72.0181L28.035 67.1203M29.5705 72.0181H1.8163V78.5485H120.996V72.0181H109.568M29.5705 72.0181H105.486M11.6119 49.2327L6.7141 52.4269V34.4683M11.6119 49.2327V67.1203M11.6119 67.1203H28.035M109.568 72.0181H105.486M109.568 72.0181V49.2327M105.486 72.0181V49.2327M109.568 49.2327V34.4683H105.486V49.2327M109.568 49.2327L115.282 43.3766L130.792 49.2327V1L115.282 6.7141L112.017 1H94.0582M105.486 49.2327H94.0582M66.304 40.1824V43.3766L69.5692 49.2327H81.8137M66.304 40.1824V10.7956M66.304 40.1824H58.9573M44.2639 40.1824V10.7956M44.2639 40.1824H51.6106M44.2639 10.7956H51.6106M66.304 10.7956V6.7141L69.5692 1H81.8137M66.304 10.7956H58.9573M94.0582 49.2327V1M94.0582 49.2327H86.7115M94.0582 1H86.7115M86.7115 1V49.2327M86.7115 1H81.8137M86.7115 49.2327H81.8137M81.8137 49.2327V1M58.9573 40.1824V10.7956M58.9573 40.1824H51.6106M58.9573 10.7956H51.6106M51.6106 10.7956V40.1824M6.7141 34.4683H1V19.7749H5.8978" stroke="url(#paint0_linear)" stroke-width="1.66875" stroke-linecap="round" stroke-linejoin="round"/>
<defs>
<linearGradient id="paint0_linear" x1="19.0781" y1="-36.5469" x2="55.6979" y2="156.75" gradientUnits="userSpaceOnUse">
<stop stop-color="#23375F" stop-opacity="0"/>
<stop offset="0.427083" stop-color="#3E5685"/>
</linearGradient>
</defs>
</svg>
