<svg width="98" height="87" viewBox="0 0 98 87" fill="none" xmlns="http://www.w3.org/2000/svg">
<path d="M1 78.0737V20.78H11.9131M1 78.0737H19.4158M1 78.0737L11.9131 85.5765H26.5776M69.8889 20.0979V13.2772H87.6227V20.0979M69.8889 20.0979H65.7965M69.8889 20.0979H81.4841M56.2475 20.0979V17.3696H50.791V20.78M56.2475 20.0979H61.7041M56.2475 20.0979V78.0737M50.791 20.78H40.56V1.68207H37.1496V20.78H33.7393M50.791 20.78V78.0737M33.7393 20.78V17.3696H28.9648V20.78M33.7393 20.78V78.0737M28.9648 20.78H24.1903M28.9648 20.78V78.0737M24.1903 20.78V17.3696H19.4158V20.78M24.1903 20.78V78.0737M19.4158 20.78H17.3696M19.4158 20.78V78.0737M11.9131 20.78V1H17.3696V20.78M11.9131 20.78H17.3696M61.7041 20.0979V1.68207H65.7965V20.0979M61.7041 20.0979H65.7965M56.2475 78.0737H77.3917M56.2475 78.0737H53.5193M50.791 78.0737H33.7393M50.791 78.0737H53.5193M33.7393 78.0737H28.9648M28.9648 78.0737H26.5776M24.1903 78.0737H19.4158M24.1903 78.0737H26.5776M87.6227 20.0979V20.78H96.4896V78.0737H94.4434M87.6227 20.0979H81.4841M81.4841 20.0979V17.3696H77.3917V78.0737M81.4841 20.0979V78.0737M77.3917 78.0737H78.7558M81.4841 78.0737H94.4434M81.4841 78.0737H78.7558M94.4434 78.0737V85.5765H53.5193M26.5776 78.0737V85.5765M26.5776 85.5765H53.5193M53.5193 85.5765V79.4379V78.0737M78.7558 78.0737V85.5765" stroke="url(#paint0_linear)" stroke-width="1.66875" stroke-linecap="round" stroke-linejoin="round"/>
<circle cx="10.5482" cy="62.3861" r="5.98631" stroke="url(#paint1_linear)" stroke-width="1.66875"/>
<defs>
<linearGradient id="paint0_linear" x1="14.3003" y1="-39.9496" x2="71.1469" y2="162.467" gradientUnits="userSpaceOnUse">
<stop stop-color="#23375F" stop-opacity="0"/>
<stop offset="0.427083" stop-color="#3E5685"/>
</linearGradient>
<linearGradient id="paint1_linear" x1="5.62759" y1="48.9606" x2="15.7756" y2="80.9657" gradientUnits="userSpaceOnUse">
<stop stop-color="#23375F" stop-opacity="0"/>
<stop offset="0.427083" stop-color="#3E5685"/>
</linearGradient>
</defs>
</svg>
