<svg width="96" height="95" viewBox="0 0 96 95" fill="none" xmlns="http://www.w3.org/2000/svg">
<path d="M3.97255 79.7726H91.6629V83.4883M3.97255 79.7726V84.2315M3.97255 79.7726L15.1196 71.5981V67.8824M3.97255 84.2315H1V91.0092H3.97255M3.97255 84.2315V91.0092M3.97255 91.0092V93.8923H91.6629V90.1766M91.6629 90.1766H94.6354V83.4883H91.6629M91.6629 90.1766V83.4883M91.6629 79.0295L84.2315 71.5981V67.8824M15.1196 67.8824V59.7079H84.2315V67.8824M15.1196 67.8824H84.2315M92.406 19.5785L84.2315 31.4687V53.7628H15.1196V29.9824L5.45883 19.5785M92.406 19.5785H5.45883M92.406 19.5785V1H55.2491V12.1471H41.1295V1H5.45883V19.5785" stroke="url(#paint0_linear)" stroke-width="1.66875" stroke-linecap="round" stroke-linejoin="round"/>
<circle cx="17.3476" cy="11.4035" r="2.13818" stroke="url(#paint1_linear)" stroke-width="1.66875"/>
<circle cx="72.3417" cy="11.4035" r="2.13818" stroke="url(#paint2_linear)" stroke-width="1.66875"/>
<circle cx="73.828" cy="42.6153" r="3.62445" stroke="url(#paint3_linear)" stroke-width="1.66875"/>
<circle cx="23.2948" cy="42.6153" r="3.62445" stroke="url(#paint4_linear)" stroke-width="1.66875"/>
<circle cx="24.7802" cy="11.4035" r="2.13818" stroke="url(#paint5_linear)" stroke-width="1.66875"/>
<circle cx="79.7714" cy="11.4035" r="2.13818" stroke="url(#paint6_linear)" stroke-width="1.66875"/>
<defs>
<linearGradient id="paint0_linear" x1="14.0421" y1="-43.9759" x2="82.697" y2="174.281" gradientUnits="userSpaceOnUse">
<stop stop-color="#23375F" stop-opacity="0"/>
<stop offset="0.427083" stop-color="#3E5685"/>
</linearGradient>
<linearGradient id="paint1_linear" x1="15.2031" y1="5.55245" x2="19.6257" y2="19.5007" gradientUnits="userSpaceOnUse">
<stop stop-color="#23375F" stop-opacity="0"/>
<stop offset="0.427083" stop-color="#3E5685"/>
</linearGradient>
<linearGradient id="paint2_linear" x1="70.1972" y1="5.55245" x2="74.6199" y2="19.5007" gradientUnits="userSpaceOnUse">
<stop stop-color="#23375F" stop-opacity="0"/>
<stop offset="0.427083" stop-color="#3E5685"/>
</linearGradient>
<linearGradient id="paint3_linear" x1="70.6112" y1="33.8388" x2="77.2453" y2="54.7612" gradientUnits="userSpaceOnUse">
<stop stop-color="#23375F" stop-opacity="0"/>
<stop offset="0.427083" stop-color="#3E5685"/>
</linearGradient>
<linearGradient id="paint4_linear" x1="20.078" y1="33.8388" x2="26.712" y2="54.7612" gradientUnits="userSpaceOnUse">
<stop stop-color="#23375F" stop-opacity="0"/>
<stop offset="0.427083" stop-color="#3E5685"/>
</linearGradient>
<linearGradient id="paint5_linear" x1="22.6357" y1="5.55245" x2="27.0584" y2="19.5007" gradientUnits="userSpaceOnUse">
<stop stop-color="#23375F" stop-opacity="0"/>
<stop offset="0.427083" stop-color="#3E5685"/>
</linearGradient>
<linearGradient id="paint6_linear" x1="77.6269" y1="5.55245" x2="82.0496" y2="19.5007" gradientUnits="userSpaceOnUse">
<stop stop-color="#23375F" stop-opacity="0"/>
<stop offset="0.427083" stop-color="#3E5685"/>
</linearGradient>
</defs>
</svg>
