<svg width="179" height="68" viewBox="0 0 179 68" fill="none" xmlns="http://www.w3.org/2000/svg">
<path d="M7.39497 52.5682H3.7407V66.7285H20.1849V52.5682H16.0739M7.39497 52.5682H16.0739M7.39497 52.5682V47.0868M16.0739 52.5682V47.5436M7.39497 47.0868H1V39.7783H7.39497M7.39497 47.0868V39.7783M7.39497 39.7783V26.9883H16.0739V33.3833M16.0739 39.7783V47.5436M16.0739 39.7783H30.6909M16.0739 39.7783V33.3833M164.072 39.7783V47.5436M164.072 39.7783V26.0748H173.207V38.8647H179.146V47.5436H173.207V51.1978M164.072 39.7783H147.171M164.072 47.5436H16.0739M164.072 47.5436V51.1978M164.072 51.1978H160.417V65.3581H177.318V51.1978H173.207M164.072 51.1978H173.207M30.6909 39.7783V25.618L35.2588 23.7908V39.7783M30.6909 39.7783H35.2588M35.2588 39.7783H49.8758M49.8758 39.7783V17.8526L51.9313 17.1675M49.8758 39.7783H53.9869M53.9869 39.7783V16.4823L51.9313 17.1675M53.9869 39.7783H80.0235M80.0235 39.7783L67.2336 13.7416M80.0235 39.7783H101.949M101.949 39.7783L112.455 13.2848M101.949 39.7783H125.245M125.245 39.7783V16.4823L127.986 17.8526V39.7783M125.245 39.7783H127.986M127.986 39.7783H143.973M143.973 39.7783V23.334L147.171 25.1612V39.7783M143.973 39.7783H147.171M160.417 31.5562V21.5069L151.282 26.9883L149.455 15.5687L139.405 21.0501L137.578 10.0873L128.443 17.3959L125.702 5.97628L115.653 14.1984L112.912 2.7788L103.776 12.3712L97.8381 1.40845L90.9863 11.9145L84.1346 1.40845L77.7396 12.3712L70.8879 2.7788L64.4929 14.1984L56.7276 5.5195L51.9313 17.1675M51.9313 17.1675L41.6537 10.5441L39.8266 21.5069L28.407 16.4823L26.5799 26.9883L16.0739 23.7908V33.3833" stroke="url(#paint0_linear)" stroke-width="1.64442" stroke-linecap="round" stroke-linejoin="round"/>
<path d="M168.64 26.0749C148.085 13.285 127.724 3.01203 97.9935 1.20546C68.2632 -0.601118 34.3458 9.63071 11.0498 26.9884" stroke="url(#paint1_linear)" stroke-width="0.913567"/>
<path d="M164.071 34.7537C143.516 22.4206 127.723 13.9755 97.9926 12.1689C68.2623 10.3623 38.8335 18.2288 15.6328 34.184" stroke="url(#paint2_linear)" stroke-width="0.913567"/>
<defs>
<linearGradient id="paint0_linear" x1="25.8131" y1="-30.2177" x2="45.1603" y2="136.193" gradientUnits="userSpaceOnUse">
<stop stop-color="#23375F" stop-opacity="0"/>
<stop offset="0.427083" stop-color="#3E5685"/>
</linearGradient>
<linearGradient id="paint1_linear" x1="32.9999" y1="-11.5829" x2="36.4991" y2="55.3377" gradientUnits="userSpaceOnUse">
<stop stop-color="#23375F" stop-opacity="0"/>
<stop offset="0.427083" stop-color="#3E5685"/>
</linearGradient>
<linearGradient id="paint2_linear" x1="36.3082" y1="0.856443" x2="39.1784" y2="59.6884" gradientUnits="userSpaceOnUse">
<stop stop-color="#23375F" stop-opacity="0"/>
<stop offset="0.427083" stop-color="#3E5685"/>
</linearGradient>
</defs>
</svg>
