<svg width="150" height="78" viewBox="0 0 150 78" fill="none" xmlns="http://www.w3.org/2000/svg">
<path d="M79.6167 57.5057V70.6085M79.6167 57.5057H91.0816M79.6167 57.5057V51.7733M79.6167 77.1599V70.6085M79.6167 77.1599H76.341M79.6167 77.1599H91.0816M63.2382 35.3948V37.8516M63.2382 35.3948H69.7896M63.2382 35.3948V21.4731M63.2382 70.6085H76.341M63.2382 70.6085H34.5759M63.2382 70.6085V66.5139M79.6167 70.6085H76.341M76.341 70.6085V77.1599M76.341 77.1599H6.73247V73.0653V70.6085M34.5759 70.6085H17.3785M34.5759 70.6085V66.5139M6.73247 70.6085H1V35.3948H17.3785M6.73247 70.6085H17.3785M17.3785 70.6085V35.3948M17.3785 35.3948H34.5759V37.8516M34.5759 37.8516H63.2382M34.5759 37.8516V40.3083M63.2382 37.8516V40.3083M34.5759 47.6786H63.2382M34.5759 47.6786V51.7733M34.5759 47.6786V45.2219M63.2382 47.6786V51.7733M63.2382 47.6786V45.2219M63.2382 42.7651H34.5759M63.2382 42.7651V45.2219M63.2382 42.7651V40.3083M34.5759 42.7651V45.2219M34.5759 42.7651V40.3083M34.5759 51.7733H63.2382M34.5759 51.7733V59.9625M63.2382 51.7733V59.9625M63.2382 66.5139H34.5759M63.2382 66.5139V64.0571M34.5759 66.5139V64.0571M34.5759 64.0571H63.2382M34.5759 64.0571V62.4193M63.2382 64.0571V62.4193M63.2382 64.0571H73.0653V43.584H64.0571M63.2382 62.4193H34.5759M63.2382 62.4193V59.9625M34.5759 62.4193V59.9625M34.5759 59.9625H63.2382M91.0816 57.5057V77.1599M91.0816 57.5057H102.547M91.0816 77.1599H102.547M102.547 77.1599V57.5057M102.547 77.1599H114.83M102.547 57.5057H114.83M114.83 57.5057V77.1599M114.83 57.5057H125.476M114.83 77.1599H125.476M125.476 77.1599V57.5057M125.476 77.1599H136.941M125.476 57.5057H136.941M136.941 57.5057H148.406V77.1599H136.941M136.941 57.5057V77.1599M79.6167 51.7733H105.003M79.6167 51.7733V45.2219M105.003 51.7733V45.2219M105.003 51.7733L118.925 52.5922L130.39 50.1354V48.4976M105.003 45.2219H99.2708M105.003 45.2219L111.555 41.9462M79.6167 45.2219V35.3948H74.7031M79.6167 45.2219H99.2708M99.2708 43.584L108.279 34.5759H91.0816L99.2708 42.7651V43.584ZM99.2708 43.584V45.2219M74.7031 35.3948V1H64.0571L59.1436 5.91354V15.7406M74.7031 35.3948H69.7896M59.1436 15.7406H52.5922V28.8434H59.1436V21.4731H63.2382M59.1436 15.7406H64.876V21.4731M64.876 21.4731H69.7896V35.3948M64.876 21.4731H63.2382M111.555 41.9462L124.657 35.3948L130.39 38.6705V48.4976M111.555 41.9462H120.563V48.4976H130.39M34.5759 45.2219H63.2382M63.2382 40.3083H34.5759" stroke="url(#paint0_linear)" stroke-width="1.66875" stroke-linecap="round" stroke-linejoin="round"/>
<defs>
<linearGradient id="paint0_linear" x1="21.5316" y1="-35.8746" x2="52.9052" y2="155.635" gradientUnits="userSpaceOnUse">
<stop stop-color="#23375F" stop-opacity="0"/>
<stop offset="0.427083" stop-color="#3E5685"/>
</linearGradient>
</defs>
</svg>
