<svg width="60" height="24" viewBox="0 0 60 24" fill="none" xmlns="http://www.w3.org/2000/svg">
<path d="M38.0771 17.9515C41.981 17.9515 44.4913 15.4733 44.4913 11.9229C44.4913 8.50695 41.981 5.89423 38.0771 5.89423C34.2423 5.89423 31.6625 8.50695 31.6625 11.9229C31.6625 15.4733 34.2423 17.9515 38.0771 17.9515ZM38.0771 4.00543e-05C44.8744 4.00543e-05 50 5.35871 50 11.9565C50 18.5543 44.8744 23.8462 38.0771 23.8462C31.3133 23.8462 26.1538 18.5543 26.1538 11.9565C26.1538 5.35871 31.3133 4.00543e-05 38.0771 4.00543e-05Z" fill="#D87756"/>
<path fill-rule="evenodd" clip-rule="evenodd" d="M60 16.7255C58.2081 15.6863 57.1332 13.8351 57.1332 11.5357C57.1332 9.32325 58.2081 7.44773 60 6.3802L60 0.000225067C55.0076 1.52914 51.5385 6.13346 51.5385 11.5696C51.5385 17.0058 55.0076 21.5658 60 23.0771V16.7255Z" fill="#4B2D3A"/>
<ellipse cx="12.3077" cy="11.9231" rx="12.3077" ry="11.9231" fill="#D87756"/>
</svg>
