<svg width="16" height="17" viewBox="0 0 16 17" fill="none" xmlns="http://www.w3.org/2000/svg">
<g clip-path="url(#clip0_34_2000)">
<path d="M9.93697 3.93695C9.95886 3.91224 10.0612 3.83152 10.4633 3.83152L11.7814 3.83103C12.2102 3.83103 12.5589 3.4822 12.5589 3.05339V0.749572C12.5589 0.32149 12.2107 -0.0273361 11.7826 -0.02807L9.82469 -0.03125C8.61627 -0.03125 7.589 0.367356 6.85392 1.12164C6.12214 1.87249 5.73528 2.92068 5.73528 4.1527V5.39524H4.23748C3.80866 5.39524 3.45984 5.74407 3.45984 6.17288V8.65405C3.45984 9.08286 3.80866 9.43169 4.23748 9.43169H5.73528V15.2224C5.73528 15.6512 6.0841 16.0001 6.51292 16.0001H9.08019C9.50901 16.0001 9.85783 15.6512 9.85783 15.2224V9.43181H11.6887C12.1175 9.43181 12.4662 9.08286 12.4662 8.65429L12.4672 6.17301C12.4672 5.89133 12.3139 5.63069 12.0671 5.49284C11.9527 5.429 11.8197 5.39524 11.6824 5.39524H9.85783V4.41359C9.85783 4.09363 9.90089 3.9778 9.93697 3.93695V3.93695Z" fill="#D87756"/>
</g>
<defs>
<clipPath id="clip0_34_2000">
<rect width="16" height="16.0313" fill="white"/>
</clipPath>
</defs>
</svg>
