<svg width="609" height="258" viewBox="0 0 609 258" fill="none" xmlns="http://www.w3.org/2000/svg">
<path d="M448.79 97.79C528.479 18.1005 528.479 -111.102 448.79 -190.791C369.1 -270.481 239.898 -270.481 160.209 -190.791C80.5191 -111.102 80.5191 18.1005 160.209 97.79C239.898 177.479 369.1 177.479 448.79 97.79Z" stroke="#3E5685" stroke-width="1.05181" stroke-miterlimit="10" stroke-linecap="round" stroke-dasharray="42.09 42.09"/>
<path d="M456.278 105.278C540.072 21.4846 540.047 -114.397 456.222 -198.222C372.397 -282.047 236.515 -282.072 152.722 -198.278C68.9282 -114.484 68.9534 21.3971 152.778 105.222C236.603 189.047 372.484 189.072 456.278 105.278Z" stroke="#3E5685" stroke-width="1.05181" stroke-miterlimit="10" stroke-linecap="round" stroke-dasharray="126.05 126.05"/>
<path d="M304.502 180.65C429.953 180.65 531.651 78.9517 531.651 -46.4991C531.651 -171.95 429.953 -273.648 304.502 -273.648C179.051 -273.648 77.3535 -171.95 77.3535 -46.4991C77.3535 78.9517 179.051 180.65 304.502 180.65Z" stroke="#3E5685" stroke-width="1.05181" stroke-miterlimit="10" stroke-linecap="round" stroke-dasharray="269.39 269.39"/>
<path d="M391.445 -202.47C474.168 -156.451 506.731 -53.4259 464.932 31.924" stroke="#3E5685" stroke-width="1.05181" stroke-miterlimit="10" stroke-linecap="round"/>
<path d="M217.561 109.471C134.838 63.4525 102.354 -39.5725 144.074 -124.922" stroke="#3E5685" stroke-width="1.05181" stroke-miterlimit="10" stroke-linecap="round"/>
<path d="M326.597 3.63378C354.284 -8.56097 366.843 -40.8915 354.648 -68.5785C342.453 -96.2655 310.122 -108.824 282.435 -96.6297C254.748 -84.435 242.19 -52.1045 254.384 -24.4174C266.579 3.26956 298.91 15.8285 326.597 3.63378Z" stroke="#3E5685" stroke-width="1.05181" stroke-miterlimit="10" stroke-dasharray="1.2 1.2"/>
<path d="M395.346 -180.416C469.31 -130.257 488.657 -29.6205 438.419 44.3441" stroke="#3E5685" stroke-width="1.05181" stroke-miterlimit="10"/>
<path d="M213.658 87.4174C139.694 37.2584 120.347 -63.3781 170.585 -137.343" stroke="#3E5685" stroke-width="1.05181" stroke-miterlimit="10"/>
<path d="M438.339 44.5035C388.1 118.389 287.384 137.576 213.499 87.3377" stroke="#3E5685" stroke-width="1.05181" stroke-miterlimit="10" stroke-dasharray="1.01 1.01"/>
<path d="M397.336 -40.1296C395.983 -20.1456 388.18 -0.48013 373.77 15.6026" stroke="#3E5685" stroke-width="1.05181" stroke-miterlimit="10" stroke-dasharray="1.05 1.05"/>
<path d="M357.21 30.2522C339.296 42.5929 317.799 48.0069 296.78 46.2553C277.274 44.663 258.086 36.8605 242.401 22.7682" stroke="#3E5685" stroke-width="1.05181" stroke-miterlimit="10" stroke-dasharray="1.05 1.05"/>
<path d="M339.137 -149.365L341.685 -156.929C351.16 -153.744 360.316 -149.285 368.994 -143.553C422.577 -107.964 437.147 -35.5916 401.557 17.991L394.87 13.612C389.456 21.733 383.245 28.819 376.239 34.9495L381.494 40.9209C373.771 47.768 365.252 53.4208 356.255 57.8794L352.672 50.7138C344.153 54.9335 335.157 58.0386 325.841 59.8698L327.115 66.1596L327.434 67.6723C317.481 69.6628 307.29 70.3793 297.099 69.7424L297.577 61.7806C288.182 61.2233 278.867 59.3921 269.791 56.3666L267.243 63.9303C257.768 60.7456 248.612 56.287 239.934 50.5546C186.351 14.9655 171.781 -57.4068 207.37 -110.989L214.058 -106.61C219.472 -114.731 225.682 -121.817 232.689 -127.948L227.434 -133.919C235.157 -140.766 243.676 -146.419 252.673 -150.878L256.256 -143.712C264.775 -147.932 273.771 -151.037 283.087 -152.868L281.494 -160.671C291.447 -162.661 301.638 -163.378 311.829 -162.741L311.351 -154.779C320.666 -154.301 330.061 -152.47 339.137 -149.365Z" stroke="#3E5685" stroke-width="1.05181" stroke-miterlimit="10" stroke-linecap="round" stroke-linejoin="round"/>
<path d="M361.43 -215.686L365.65 -228.107C381.175 -222.852 396.302 -215.527 410.554 -206.053C498.69 -147.534 522.655 -28.5853 464.136 59.5513L453.229 52.3061C444.391 65.6022 434.041 77.306 422.656 87.4174L431.334 97.29C418.595 108.516 404.662 117.831 389.774 125.156L383.962 113.373C369.949 120.299 355.14 125.395 339.854 128.42L341.924 138.771L342.401 141.239C326.08 144.503 309.28 145.697 292.481 144.662L293.277 131.526C277.911 130.57 262.545 127.624 247.577 122.529L243.357 134.949C227.832 129.694 212.704 122.37 198.453 112.895C110.316 54.5354 86.3515 -64.4132 144.95 -152.55L155.858 -145.305C164.695 -158.601 175.045 -170.304 186.431 -180.416L177.752 -190.288C190.491 -201.515 204.424 -210.83 219.313 -218.155L225.125 -206.371C239.137 -213.298 253.946 -218.393 269.233 -221.419L266.605 -234.317C282.927 -237.581 299.726 -238.776 316.526 -237.74L315.729 -224.604C331.096 -223.648 346.462 -220.702 361.43 -215.686Z" stroke="#3E5685" stroke-width="1.05181" stroke-miterlimit="10"/>
<path d="M428.706 -20.3848C426.477 -9.6364 422.814 0.873095 417.719 10.9049" stroke="#3E5685" stroke-width="1.05181" stroke-miterlimit="10"/>
<path d="M198.214 22.8474C192.083 13.4525 187.306 3.42074 183.883 -7.00916" stroke="#3E5685" stroke-width="1.05181" stroke-miterlimit="10"/>
<path d="M219.79 48.0065C211.351 40.4429 204.106 31.9238 198.214 22.8474" stroke="#3E5685" stroke-width="1.05181" stroke-miterlimit="10"/>
<path d="M219.79 48.0067C271.94 94.8218 352.194 90.4428 399.009 38.2137" stroke="#3E5685" stroke-width="1.05181" stroke-miterlimit="10"/>
<path d="M417.718 10.9048C412.782 20.5385 406.571 29.7741 399.008 38.2136" stroke="#3E5685" stroke-width="1.05181" stroke-miterlimit="10"/>
<path d="M174.965 -4.14282C178.627 7.08325 183.723 17.8316 190.331 27.943" stroke="#3E5685" stroke-width="1.05181" stroke-miterlimit="10"/>
<path d="M405.935 44.4238C355.696 100.475 269.55 105.172 213.579 54.9333" stroke="#3E5685" stroke-width="1.05181" stroke-miterlimit="10"/>
<path d="M213.58 54.9336C204.503 46.8126 196.781 37.7362 190.411 27.9432" stroke="#3E5685" stroke-width="1.05181" stroke-miterlimit="10"/>
<path d="M437.862 -18.4739C435.473 -6.92934 431.492 4.37635 426.078 15.0451" stroke="#3E5685" stroke-width="1.05181" stroke-miterlimit="10"/>
<path d="M405.937 44.4239C414.058 35.3475 420.745 25.4749 426.08 15.045" stroke="#3E5685" stroke-width="1.05181" stroke-miterlimit="10"/>
<path d="M405.935 44.4239L399.008 38.2137" stroke="#3E5685" stroke-width="1.05181" stroke-miterlimit="10"/>
<path d="M426.079 15.1245L417.719 10.9048" stroke="#3E5685" stroke-width="1.05181" stroke-miterlimit="10"/>
<path d="M426.078 15.1248L448.849 26.6693" stroke="#3E5685" stroke-width="1.05181" stroke-miterlimit="10"/>
<path d="M174.966 -4.14282L150.683 3.81893" stroke="#3E5685" stroke-width="1.05181" stroke-miterlimit="10"/>
<path d="M190.411 27.9429L198.214 22.8474" stroke="#3E5685" stroke-width="1.05181" stroke-miterlimit="10"/>
<path d="M196.463 74.0415L213.581 54.9333" stroke="#3E5685" stroke-width="1.05181" stroke-miterlimit="10"/>
<path d="M190.412 27.9432L168.915 41.9559" stroke="#3E5685" stroke-width="1.05181" stroke-miterlimit="10"/>
<path d="M219.789 48.0066L213.579 54.9333" stroke="#3E5685" stroke-width="1.05181" stroke-miterlimit="10"/>
</svg>
