<svg width="247" height="167" viewBox="0 0 247 167" fill="none" xmlns="http://www.w3.org/2000/svg">
<path d="M280.592 66.5921C330.349 16.8354 330.349 -63.8362 280.592 -113.593C230.835 -163.35 150.164 -163.35 100.407 -113.593C50.6502 -63.8361 50.6502 16.8354 100.407 66.5921C150.164 116.349 230.835 116.349 280.592 66.5921Z" stroke="#687CA6" stroke-width="0.656734" stroke-miterlimit="10" stroke-linecap="round" stroke-dasharray="26.28 26.28"/>
<path d="M285.268 71.2676C337.587 18.9483 337.571 -65.8937 285.232 -118.232C232.894 -170.571 148.052 -170.587 95.7324 -118.268C43.4131 -65.9483 43.4289 18.8937 95.7676 71.2324C148.106 123.571 232.948 123.587 285.268 71.2676Z" stroke="#687CA6" stroke-width="0.656734" stroke-miterlimit="10" stroke-linecap="round" stroke-dasharray="78.7 78.7"/>
<path d="M190.501 118.328C268.831 118.328 332.329 54.8298 332.329 -23.4994C332.329 -101.829 268.831 -165.327 190.501 -165.327C112.172 -165.327 48.6738 -101.829 48.6738 -23.4994C48.6738 54.8298 112.172 118.328 190.501 118.328Z" stroke="#687CA6" stroke-width="0.656734" stroke-miterlimit="10" stroke-linecap="round" stroke-dasharray="168.2 168.2"/>
<path d="M244.787 -120.885C296.438 -92.1514 316.77 -27.8244 290.671 25.4666" stroke="#687CA6" stroke-width="0.656734" stroke-miterlimit="10" stroke-linecap="round"/>
<path d="M136.217 73.8858C84.5662 45.1524 64.2838 -19.1746 90.3327 -72.4656" stroke="#687CA6" stroke-width="0.656734" stroke-miterlimit="10" stroke-linecap="round"/>
<path d="M204.297 7.80263C221.584 0.188449 229.426 -19.9982 221.811 -37.2855C214.197 -54.5727 194.011 -62.4143 176.723 -54.8001C159.436 -47.1859 151.594 -26.9993 159.209 -9.71206C166.823 7.57521 187.009 15.4168 204.297 7.80263Z" stroke="#687CA6" stroke-width="0.656734" stroke-miterlimit="10" stroke-dasharray="0.75 0.75"/>
<path d="M133.78 60.1157C87.5979 28.7973 75.518 -34.0384 106.886 -80.2206" stroke="#687CA6" stroke-width="0.656734" stroke-miterlimit="10"/>
<path d="M274.067 33.321C242.699 79.4535 179.813 91.4341 133.681 60.066" stroke="#687CA6" stroke-width="0.656734" stroke-miterlimit="10" stroke-dasharray="0.63 0.63"/>
<path d="M248.466 -19.5225C247.621 -7.04481 242.749 5.23399 233.751 15.2758" stroke="#687CA6" stroke-width="0.656734" stroke-miterlimit="10" stroke-dasharray="0.66 0.66"/>
<path d="M223.411 24.4227C212.226 32.128 198.804 35.5084 185.68 34.4147C173.5 33.4205 161.52 28.5487 151.727 19.7498" stroke="#687CA6" stroke-width="0.656734" stroke-miterlimit="10" stroke-dasharray="0.66 0.66"/>
<path d="M212.127 -87.727L213.718 -92.4496C219.633 -90.4612 225.35 -87.6773 230.769 -84.0981C264.225 -61.8769 273.322 -16.6889 251.101 16.7671L246.925 14.0329C243.545 19.1035 239.667 23.5279 235.292 27.3557L238.573 31.0841C233.751 35.3593 228.432 38.8888 222.815 41.6727L220.578 37.1986C215.259 39.8333 209.641 41.7721 203.825 42.9155L204.62 46.8427L204.819 47.7872C198.605 49.03 192.242 49.4774 185.879 49.0797L186.177 44.1085C180.311 43.7605 174.495 42.6172 168.828 40.7281L167.237 45.4508C161.321 43.4623 155.604 40.6784 150.186 37.0992C116.73 14.878 107.633 -30.3099 129.854 -63.766L134.03 -61.0318C137.41 -66.1024 141.287 -70.5267 145.662 -74.3545L142.381 -78.0829C147.203 -82.3581 152.522 -85.8877 158.14 -88.6715L160.377 -84.1975C165.696 -86.8322 171.313 -88.771 177.13 -89.9143L176.135 -94.7861C182.349 -96.0289 188.712 -96.4763 195.076 -96.0786L194.777 -91.1074C200.594 -90.8091 206.46 -89.6658 212.127 -87.727Z" stroke="#687CA6" stroke-width="0.656734" stroke-miterlimit="10" stroke-linecap="round" stroke-linejoin="round"/>
<path d="M226.046 -129.137L228.681 -136.892C238.374 -133.611 247.82 -129.038 256.718 -123.122C311.749 -86.5837 326.712 -12.3143 290.174 42.7166L283.363 38.1928C277.845 46.4947 271.383 53.8023 264.274 60.1157L269.693 66.2799C261.739 73.2893 253.039 79.1056 243.743 83.6791L240.114 76.3217C231.365 80.6466 222.119 83.8282 212.574 85.7172L213.866 92.1798L214.165 93.7208C203.974 95.759 193.485 96.5047 182.995 95.8584L183.493 87.656C173.898 87.0595 164.304 85.2201 154.958 82.0386L152.323 89.7936C142.63 86.5126 133.184 81.9391 124.286 76.0234C69.255 39.5847 54.2917 -34.6846 90.8796 -89.7156L97.6901 -85.1918C103.208 -93.4936 109.671 -100.801 116.779 -107.115L111.361 -113.279C119.315 -120.288 128.014 -126.105 137.31 -130.678L140.939 -123.321C149.689 -127.646 158.935 -130.827 168.48 -132.716L166.839 -140.77C177.03 -142.808 187.519 -143.553 198.008 -142.907L197.511 -134.705C207.106 -134.108 216.7 -132.269 226.046 -129.137Z" stroke="#687CA6" stroke-width="0.656734" stroke-miterlimit="10"/>
<path d="M124.137 19.7994C120.309 13.9334 117.326 7.66971 115.188 1.15747" stroke="#687CA6" stroke-width="0.656734" stroke-miterlimit="10"/>
<path d="M137.609 35.5082C132.339 30.7856 127.815 25.4665 124.137 19.7993" stroke="#687CA6" stroke-width="0.656734" stroke-miterlimit="10"/>
<path d="M137.608 35.5084C170.17 64.7389 220.279 62.0047 249.51 29.3938" stroke="#687CA6" stroke-width="0.656734" stroke-miterlimit="10"/>
<path d="M115.188 1.15754C113.051 -5.45412 111.758 -12.2646 111.41 -19.1746" stroke="#687CA6" stroke-width="0.656734" stroke-miterlimit="10"/>
<path d="M109.62 2.94702C111.907 9.95638 115.088 16.6675 119.214 22.9809" stroke="#687CA6" stroke-width="0.656734" stroke-miterlimit="10"/>
<path d="M105.544 -18.8763C105.942 -11.4693 107.334 -4.11196 109.62 2.94711" stroke="#687CA6" stroke-width="0.656734" stroke-miterlimit="10"/>
<path d="M253.834 33.2712C222.466 68.2683 168.678 71.2013 133.73 39.8332" stroke="#687CA6" stroke-width="0.656734" stroke-miterlimit="10"/>
<path d="M133.731 39.8334C128.064 34.7628 123.242 29.0956 119.265 22.9811" stroke="#687CA6" stroke-width="0.656734" stroke-miterlimit="10"/>
<path d="M109.62 2.9471L115.188 1.15747" stroke="#687CA6" stroke-width="0.656734" stroke-miterlimit="10"/>
<path d="M109.621 2.94702L94.459 7.9182" stroke="#687CA6" stroke-width="0.656734" stroke-miterlimit="10"/>
<path d="M119.265 22.9809L124.136 19.7993" stroke="#687CA6" stroke-width="0.656734" stroke-miterlimit="10"/>
<path d="M123.043 51.7641L133.731 39.8333" stroke="#687CA6" stroke-width="0.656734" stroke-miterlimit="10"/>
<path d="M119.265 22.9811L105.843 31.7303" stroke="#687CA6" stroke-width="0.656734" stroke-miterlimit="10"/>
<path d="M137.608 35.5083L133.73 39.8332" stroke="#687CA6" stroke-width="0.656734" stroke-miterlimit="10"/>
</svg>
