<svg width="16" height="16" viewBox="0 0 16 16" fill="none" xmlns="http://www.w3.org/2000/svg">
<g clip-path="url(#clip0_34_2004)">
<path d="M13.4077 5.92993C12.7629 5.39172 11.9436 5.10388 11.1005 5.11951C10.577 5.12915 10.0656 5.25537 9.60205 5.48389V5.26196C9.60205 4.97314 9.36707 4.73828 9.07837 4.73828H6.33203C6.04321 4.73828 5.80835 4.97314 5.80835 5.26196V15.4762C5.80835 15.765 6.04333 15.9999 6.33203 15.9999H9.13269C9.39185 15.9999 9.60205 15.7897 9.60205 15.5305V9.42017C9.60205 8.89185 10.0319 8.46216 10.5601 8.46216C11.0884 8.46216 11.5181 8.89185 11.5181 9.42017V15.5304C11.5181 15.7897 11.7283 15.9999 11.9875 15.9999H14.6593C14.9186 15.9999 15.1288 15.7897 15.1288 15.5304V9.60632C15.1288 8.18298 14.5015 6.8429 13.4077 5.92993Z" fill="#D87756"/>
<path d="M4.13623 4.73828H1.43896C1.1366 4.73828 0.890625 4.98425 0.890625 5.28662V15.4518C0.890625 15.754 1.1366 16 1.43896 16H4.13623C4.43848 16 4.68445 15.754 4.68445 15.4518V5.28662C4.68445 4.98425 4.43848 4.73828 4.13623 4.73828Z" fill="#D87756"/>
<path d="M2.7876 0C1.73291 0 0.875 0.85791 0.875 1.91248C0.875 2.96716 1.73291 3.82507 2.7876 3.82507C3.84204 3.82507 4.70007 2.96716 4.70007 1.91248C4.70007 0.85791 3.84216 0 2.7876 0Z" fill="#D87756"/>
</g>
<defs>
<clipPath id="clip0_34_2004">
<rect width="16" height="16" fill="white"/>
</clipPath>
</defs>
</svg>
