<svg width="51" height="34" viewBox="0 0 51 34" fill="none" xmlns="http://www.w3.org/2000/svg">
<g clip-path="url(#clip0_299_808)">
<path d="M32.3056 5.76172H19.1158V27.3045H32.3056V5.76172Z" fill="#7D7D7D" fill-opacity="0.4"/>
<path d="M20.4743 16.5347C20.4727 14.4603 20.9429 12.4127 21.8494 10.5469C22.756 8.68114 24.075 7.04598 25.7068 5.76523C23.6858 4.17691 21.2587 3.18923 18.7028 2.91507C16.147 2.64091 13.5656 3.09133 11.2537 4.21485C8.94177 5.33837 6.99257 7.08967 5.62887 9.26858C4.26517 11.4475 3.54199 13.9661 3.54199 16.5366C3.54199 19.1071 4.26517 21.6257 5.62887 23.8046C6.99257 25.9835 8.94177 27.7348 11.2537 28.8583C13.5656 29.9819 16.147 30.4323 18.7028 30.1581C21.2587 29.884 23.6858 28.8963 25.7068 27.308C24.0745 26.0268 22.7552 24.391 21.8486 22.5245C20.942 20.658 20.4721 18.6097 20.4743 16.5347Z" fill="#AEAEAE"/>
<path d="M46.5646 25.025V24.5835H46.7549V24.4922H46.302V24.5835H46.4809V25.025H46.5646ZM47.4436 25.025V24.4922H47.3066L47.1468 24.8727L46.987 24.4922H46.85V25.025H46.9489V24.6216L47.0973 24.9679H47.2001L47.3485 24.6216V25.025H47.4436Z" fill="#7D7D7D" fill-opacity="0.4"/>
<path d="M47.8735 16.5342C47.8734 19.1049 47.1501 21.6237 45.7861 23.8027C44.4222 25.9816 42.4727 27.7329 40.1605 28.8563C37.8483 29.9796 35.2666 30.4298 32.7107 30.1552C30.1547 29.8807 27.7276 28.8925 25.7067 27.3037C27.3378 26.0218 28.6565 24.3862 29.5633 22.5203C30.47 20.6544 30.9412 18.6069 30.9412 16.5323C30.9412 14.4577 30.47 12.4103 29.5633 10.5444C28.6565 8.67845 27.3378 7.04285 25.7067 5.76095C27.7276 4.17214 30.1547 3.18398 32.7107 2.90942C35.2666 2.63487 37.8483 3.085 40.1605 4.20836C42.4727 5.33172 44.4222 7.08299 45.7861 9.26198C47.1501 11.441 47.8734 13.9597 47.8735 16.5304V16.5342Z" fill="#BBBBBB"/>
</g>
<defs>
<clipPath id="clip0_299_808">
<rect width="50" height="33.0695" fill="white" transform="translate(0.70874)"/>
</clipPath>
</defs>
</svg>
