<svg width="16" height="16" viewBox="0 0 16 16" fill="none" xmlns="http://www.w3.org/2000/svg">
<g clip-path="url(#clip0_34_1996)">
<path d="M15.7762 2.92458C15.714 2.86232 15.64 2.81203 15.5593 2.77504C15.6134 2.66042 15.662 2.54347 15.7048 2.42421C15.8175 2.13295 15.7587 1.83327 15.5461 1.62075C15.3292 1.40395 14.9894 1.34474 14.7136 1.47414C14.1243 1.7267 13.5563 1.96559 13.0848 2.11989C12.5353 1.82497 11.6266 1.40676 10.894 1.40676H10.8874C9.88341 1.42092 8.94237 1.83571 8.23766 2.57472C7.64538 3.1957 7.27843 3.98488 7.17968 4.83388C4.96789 4.34779 3.68859 3.63735 2.26037 2.14003L2.0797 1.95912C1.95434 1.83364 1.77514 1.77577 1.59985 1.8041C1.4248 1.83242 1.27294 1.94399 1.19335 2.1028L1.09411 2.30141C0.665154 3.12343 0.530388 3.96669 0.693718 4.808C0.752556 5.11159 0.851799 5.41347 0.988274 5.70741C0.861687 5.71034 0.735588 5.74476 0.6195 5.81142C0.342766 5.96107 0.191765 6.30836 0.25927 6.64613L0.263543 6.66725L0.269768 6.688C0.468743 7.35585 0.823723 7.98732 1.30444 8.54237C1.22265 8.56837 1.14538 8.60719 1.07702 8.65858C0.799919 8.86634 0.69616 9.2151 0.816399 9.52955C1.17394 10.5379 1.77489 11.2344 2.64001 11.6368C2.09765 11.7948 1.49999 11.8762 0.816887 11.8881C0.484978 11.89 0.178704 12.1005 0.053704 12.4131L0.0443046 12.4388C-0.0587227 12.7477 0.0198906 13.0624 0.259759 13.3025L0.277581 13.3203L0.297234 13.3361C1.30688 14.1494 3.41759 14.6158 6.088 14.6158C10.7975 14.6158 14.64 10.4973 14.7358 5.39479C15.3097 5.02272 15.7434 4.42995 15.9693 3.70216L15.9764 3.67665C16.0434 3.40834 15.9648 3.11318 15.7762 2.92458V2.92458Z" fill="#D87756"/>
</g>
<defs>
<clipPath id="clip0_34_1996">
<rect width="16" height="16" fill="white"/>
</clipPath>
</defs>
</svg>
