<svg width="53" height="20" viewBox="0 0 53 20" fill="none" xmlns="http://www.w3.org/2000/svg">
<path d="M22.8401 19.1382H18.5703L21.2409 0.34082H25.5104L22.8401 19.1382Z" fill="#BBBBBB"/>
<path d="M38.3183 0.800281C37.4761 0.419942 36.1404 0 34.4887 0C30.2722 0 27.303 2.55952 27.2847 6.21885C27.2497 8.9187 29.4106 10.4183 31.0268 11.3185C32.6787 12.2384 33.2402 12.8388 33.2402 13.6587C33.2234 14.918 31.9054 15.4985 30.6761 15.4985C28.9714 15.4985 28.058 15.1992 26.67 14.4986L26.1077 14.1983L25.5103 18.4179C26.5117 18.9372 28.3567 19.3981 30.2722 19.4183C34.7523 19.4183 37.669 16.8984 37.7035 12.9988C37.7206 10.8589 36.5795 9.21931 34.1195 7.87948C32.6262 7.0194 31.7116 6.43946 31.7116 5.55944C31.7291 4.75942 32.4851 3.94001 34.1709 3.94001C35.559 3.89987 36.5788 4.27968 37.3514 4.65975L37.7376 4.85936L38.3183 0.800281Z" fill="#BBBBBB"/>
<path d="M43.9937 12.479C44.3453 11.3991 45.6984 7.21961 45.6984 7.21961C45.6806 7.25975 46.0493 6.11979 46.2601 5.41998L46.5585 7.03968C46.5585 7.03968 47.3671 11.5392 47.5427 12.479C46.8754 12.479 44.837 12.479 43.9937 12.479ZM49.2641 0.34082H45.9615C44.943 0.34082 44.1693 0.680494 43.7298 1.90045L37.3877 19.138H41.8678C41.8678 19.138 42.6054 16.8179 42.7639 16.3183C43.2554 16.3183 47.6136 16.3183 48.2459 16.3183C48.3685 16.9782 48.7554 19.138 48.7554 19.138H52.7087L49.2641 0.34082Z" fill="#BBBBBB"/>
<path d="M15.0044 0.34082L10.8229 13.1589L10.366 10.5592C9.59292 7.55956 7.16841 4.3005 4.46277 2.68L8.29287 19.1183H12.808L19.5193 0.34082H15.0044Z" fill="#BBBBBB"/>
<path d="M6.9399 0.34082H0.070279L0 0.720627C5.35874 2.28052 8.90772 6.04059 10.3658 10.56L8.87247 1.92091C8.62661 0.720362 7.87105 0.380422 6.9399 0.34082Z" fill="#BBBBBB"/>
</svg>
