<svg width="16" height="16" viewBox="0 0 16 16" fill="none" xmlns="http://www.w3.org/2000/svg">
<g clip-path="url(#clip0_34_1991)">
<path d="M6.90466 9.26952L9.54651 7.84887L6.90466 6.40332V9.26952Z" fill="#D87756"/>
<path d="M15.8823 4.79772L15.8816 4.7904C15.868 4.66162 15.7331 3.51599 15.1762 2.93347C14.5326 2.24817 13.8028 2.16492 13.4519 2.125C13.4228 2.12158 13.3962 2.11865 13.3724 2.11548L13.3445 2.11255C11.2292 1.95874 8.03477 1.93774 8.00279 1.9375H7.99718C7.96519 1.93774 4.77074 1.95874 2.63647 2.11255L2.60827 2.11548C2.58557 2.11853 2.56054 2.12134 2.53332 2.12451C2.1864 2.16455 1.46447 2.24792 0.818968 2.95788C0.288574 3.53442 0.135254 4.65539 0.119507 4.78137L0.117676 4.79772C0.112915 4.85131 0 6.12707 0 7.40783V8.60509C0 9.88585 0.112915 11.1616 0.117676 11.2152L0.11853 11.2234C0.13208 11.35 0.266845 12.4745 0.821165 13.0574C1.42639 13.7198 2.19165 13.8074 2.60327 13.8545C2.66833 13.8619 2.72448 13.8684 2.76257 13.8751L2.79956 13.8801C4.02087 13.9964 7.85008 14.0537 8.01244 14.056L8.01732 14.0561L8.02208 14.056C8.05418 14.0559 11.2485 14.0349 13.3637 13.881L13.3917 13.8782C13.4183 13.8746 13.4483 13.8714 13.4813 13.868C13.8264 13.8314 14.5443 13.7554 15.181 13.055C15.7114 12.4785 15.8647 11.3575 15.8805 11.2316L15.8823 11.2152C15.8871 11.1616 16 9.88585 16 8.60509V7.40783C16 6.12707 15.8871 4.85144 15.8823 4.79772V4.79772ZM10.4586 8.42247L6.92381 10.3232C6.82677 10.3755 6.7213 10.4015 6.61608 10.4015C6.50121 10.4015 6.38658 10.3705 6.28319 10.3088C6.08519 10.1904 5.96703 9.98204 5.96703 9.75145V5.9165C5.96703 5.68481 6.08593 5.47607 6.28514 5.3579C6.48436 5.23986 6.72472 5.23559 6.92797 5.3468L10.4627 7.281C10.6719 7.39538 10.8012 7.61461 10.8004 7.85302C10.7995 8.0913 10.6686 8.30956 10.4586 8.42247V8.42247Z" fill="#D87756"/>
</g>
<defs>
<clipPath id="clip0_34_1991">
<rect width="16" height="16" fill="white"/>
</clipPath>
</defs>
</svg>
