<svg width="20" height="14" viewBox="0 0 20 14" fill="none" xmlns="http://www.w3.org/2000/svg">
<path d="M19.5791 2.17082C19.4632 1.75562 19.2422 1.37733 18.9374 1.07253C18.6326 0.767717 18.2543 0.546693 17.8391 0.430818C16.2808 0.0133176 10.0091 0.0133175 10.0091 0.0133175C10.0091 0.0133175 3.75325 0.00498431 2.17909 0.430818C1.76389 0.546693 1.3856 0.767717 1.08079 1.07253C0.775986 1.37733 0.554962 1.75562 0.439086 2.17082C0.143687 3.76624 -0.00194663 5.38579 0.00408624 7.00832C-0.000806147 8.62473 0.144822 10.2381 0.439086 11.8275C0.554962 12.2427 0.775986 12.621 1.08079 12.9258C1.3856 13.2306 1.76389 13.4516 2.17909 13.5675C3.73575 13.9858 10.0091 13.9858 10.0091 13.9858C10.0091 13.9858 16.2641 13.9858 17.8391 13.5675C18.2543 13.4516 18.6326 13.2306 18.9374 12.9258C19.2422 12.621 19.4632 12.2427 19.5791 11.8275C19.8672 10.2375 20.0067 8.62416 19.9958 7.00832C20.0078 5.38636 19.8683 3.76682 19.5791 2.17082ZM8.00742 10.0008V4.00665L13.2274 7.00832L8.00742 10.0008Z" fill="white"/>
</svg>
