<svg width="104" height="87" viewBox="0 0 104 87" fill="none" xmlns="http://www.w3.org/2000/svg">
<path d="M12.8036 21.7361V0.0444624H50.3741C58.8955 -0.0925854 67.4101 0.593517 75.7959 2.09306C81.6832 3.07849 87.3054 5.23521 92.3201 8.43186C96.305 11.0767 99.3955 14.8374 101.193 19.2294C103.077 24.2303 103.981 29.5382 103.858 34.8715V86.2807H31.2345C26.1829 86.3915 21.1381 85.8571 16.2258 84.6902C12.6851 83.8862 9.4014 82.2301 6.66811 79.8698C4.24209 77.5761 2.54372 74.6372 1.7793 71.41C0.757775 67.327 0.281271 63.1298 0.361658 58.9251C0.257521 54.8624 0.734695 50.8055 1.7793 46.8742C2.57206 43.8986 4.27988 41.2382 6.66811 39.2582C9.46824 37.1457 12.7492 35.7391 16.2258 35.1607C21.1742 34.2556 26.2025 33.8438 31.2345 33.9315H73.3515V33.2086C73.3861 31.4226 73.0707 29.6466 72.4226 27.9784C71.6927 26.3888 70.4215 25.1012 68.8294 24.339C66.5138 23.2687 64.0371 22.5768 61.4962 22.2904C57.3601 21.7999 53.1954 21.5825 49.0298 21.6396L12.8036 21.7361ZM73.4249 66.6379V50.6101H38.2989C35.9324 50.3496 33.5509 50.9494 31.6012 52.2971C30.9135 53.121 30.3993 54.072 30.0887 55.0942C29.7781 56.1164 29.6774 57.1892 29.7924 58.2502C29.553 60.5657 30.1979 62.8863 31.6012 64.7579C32.5369 65.4909 33.6102 66.0343 34.7597 66.3569C35.9091 66.6796 37.1119 66.7751 38.2989 66.6379H73.4249Z" fill="#F6F9FC"/>
</svg>
