<svg width="36" height="23" viewBox="0 0 36 23" fill="none" xmlns="http://www.w3.org/2000/svg">
<path d="M2.03087 11.5809V8.0682H8.15653C9.5459 8.04601 10.9342 8.15712 12.3014 8.39995C13.2613 8.55953 14.178 8.90879 14.9956 9.42645C15.6453 9.85476 16.1492 10.4638 16.4423 11.175C16.7495 11.9848 16.8969 12.8444 16.8767 13.7081V22.0332H5.03593C4.2123 22.0512 3.38976 21.9646 2.58885 21.7757C2.01155 21.6455 1.47616 21.3773 1.03052 20.9951C0.634965 20.6236 0.358057 20.1477 0.233422 19.6251C0.0668676 18.9639 -0.0108237 18.2842 0.00228287 17.6033C-0.0146961 16.9454 0.0631045 16.2884 0.233422 15.6518C0.362677 15.1699 0.641127 14.7391 1.03052 14.4185C1.48706 14.0764 2.022 13.8486 2.58885 13.7549C3.39565 13.6083 4.21548 13.5417 5.03593 13.5559H11.9029V13.4388C11.9085 13.1496 11.8571 12.862 11.7514 12.5918C11.6324 12.3344 11.4251 12.1259 11.1656 12.0025C10.788 11.8291 10.3842 11.7171 9.96994 11.6707C9.29556 11.5913 8.61653 11.5561 7.93736 11.5653L2.03087 11.5809ZM11.9148 18.8523V16.2568H6.18773C5.8019 16.2146 5.41361 16.3117 5.09572 16.53C4.98359 16.6634 4.89975 16.8174 4.84911 16.9829C4.79847 17.1485 4.78205 17.3222 4.8008 17.494C4.76177 17.869 4.86692 18.2448 5.09572 18.5479C5.24828 18.6666 5.42328 18.7546 5.61069 18.8068C5.79809 18.8591 5.99421 18.8745 6.18773 18.8523H11.9148Z" fill="#F6F9FC"/>
<path d="M20.7559 0H26.2997V22.0483H20.7559V0Z" fill="#F6F9FC"/>
<path d="M30.2402 0H35.784V22.0483H30.2402V0Z" fill="#F6F9FC"/>
</svg>
