<svg width="44" height="33" viewBox="0 0 44 33" fill="none" xmlns="http://www.w3.org/2000/svg">
<path d="M1 0.747489H0.747489V1V32.479V32.7315H1H33.1086C36.2404 32.7315 38.7772 31.925 40.6927 30.2875L40.693 30.2873C42.6407 28.6178 43.6142 26.4327 43.6142 23.7548V22.9903C43.6142 21.3816 43.1647 19.9366 42.2646 18.6634C41.4443 17.476 40.3417 16.5245 38.9633 15.8075C41.1168 14.3073 42.2202 12.3976 42.2202 10.0839V9.27448C42.2202 6.71547 41.2756 4.64865 39.3855 3.09897C37.5007 1.52356 35.0254 0.747489 31.9843 0.747489H1ZM10.0666 24.4467V20.1849H31.9843C32.8133 20.1849 33.3887 20.3461 33.7525 20.6269C34.1039 20.8982 34.2951 21.3104 34.2951 21.911V22.6755C34.2951 23.2366 34.099 23.6554 33.7153 23.9624C33.3255 24.2743 32.7593 24.4467 31.9843 24.4467H10.0666ZM10.0666 13.1142V9.03232H30.8151C31.5682 9.03232 32.0865 9.18192 32.4126 9.43904C32.7272 9.68714 32.901 10.066 32.901 10.6236V11.478C32.901 12.0527 32.7258 12.4433 32.4103 12.6981C32.0844 12.9613 31.5672 13.1142 30.8151 13.1142H10.0666Z" stroke="#787889" stroke-width="0.505023"/>
</svg>
