<svg width="37" height="45" viewBox="0 0 37 45" fill="none" xmlns="http://www.w3.org/2000/svg">
<path d="M35.9085 18.5883C36.6368 13.9912 32.9303 11.52 27.8622 9.87136L29.5062 3.64403L25.4922 2.69935L23.8917 8.76257C22.8364 8.51425 21.7526 8.27998 20.6756 8.04786L22.2876 1.94468L18.2759 1L16.6308 7.22516C15.7573 7.0373 14.8998 6.85163 14.0675 6.65621L14.0721 6.63678L8.53643 5.33148L7.46863 9.38011C7.46863 9.38011 10.4468 10.0247 10.3839 10.0646C12.0097 10.4479 12.3035 11.4638 12.2543 12.2692L10.3816 19.3635C10.4937 19.3905 10.6389 19.4294 10.799 19.4898C10.6652 19.4585 10.5223 19.4239 10.3748 19.3905L7.74984 29.3285C7.55091 29.7949 7.04676 30.4945 5.91035 30.2289C5.95036 30.284 2.99273 29.5412 2.99273 29.5412L1 33.8803L6.22359 35.1099C7.19537 35.3399 8.1477 35.5806 9.08518 35.8074L7.42404 42.106L11.4335 43.0506L13.0786 36.819C14.1739 37.0997 15.2371 37.3588 16.2775 37.6028L14.6381 43.8053L18.6521 44.75L20.3132 38.4633C27.158 39.6865 32.305 39.1931 34.4715 33.3469C36.2172 28.6397 34.3845 25.9244 30.7833 24.1538C33.4059 23.5827 35.3815 21.9535 35.9085 18.5883ZM26.7372 30.7331C25.4968 35.4403 17.1041 32.8956 14.3831 32.2575L16.5873 23.9131C19.3083 24.5544 28.0337 25.824 26.7372 30.7331ZM27.9788 18.5203C26.847 22.8021 19.8616 20.6267 17.5957 20.0933L19.5941 12.5251C21.8601 13.0584 29.1575 14.0538 27.9788 18.5203Z" stroke="#787889" stroke-width="0.4"/>
</svg>
