<svg width="71" height="14" viewBox="0 0 71 14" fill="none" xmlns="http://www.w3.org/2000/svg">
<path d="M14.3964 8.69334C13.4202 12.4433 9.45479 14.7255 5.53913 13.7904C1.62507 12.8554 -0.757676 9.05711 0.218898 5.30736C1.19456 1.55695 5.16001 -0.725452 9.07453 0.209471C12.99 1.14439 15.3725 4.94315 14.3964 8.69334Z" fill="#FE4E01"/>
<path d="M21.4172 4.23494C22.0098 4.23494 22.5219 4.33665 22.9522 4.53637C23.3845 4.73805 23.7412 5.00974 24.0274 5.35142C24.3097 5.69485 24.5198 6.09625 24.6554 6.55628C24.7902 7.01761 24.8578 7.51351 24.8578 8.04441C24.8578 8.8599 24.7018 9.63033 24.3869 10.3566C24.0719 11.0839 23.6446 11.7148 23.1011 12.2529C22.558 12.7903 21.9167 13.214 21.1771 13.5271C20.4388 13.8403 19.636 13.9969 18.7741 13.9969C18.6626 13.9969 18.4667 13.9939 18.1899 13.9884C17.9131 13.9829 17.5949 13.9556 17.2387 13.9094C16.8801 13.8615 16.501 13.7907 16.1006 13.6957C15.7005 13.6025 15.3204 13.4719 14.9626 13.3061L18.1627 0.42722L21.0289 0.00175664L19.8831 4.57203C20.1284 4.46616 20.3755 4.38412 20.6222 4.32441C20.8691 4.26556 21.134 4.23494 21.4172 4.23494ZM19.013 11.8191C19.4446 11.8191 19.8514 11.7174 20.2335 11.5177C20.6167 11.3177 20.9474 11.0478 21.2244 10.7116C21.5015 10.3738 21.7207 9.99345 21.8806 9.56842C22.0404 9.1434 22.1213 8.7 22.1213 8.23866C22.1213 7.67189 22.0224 7.2298 21.8253 6.91021C21.6282 6.59194 21.2635 6.43181 20.7339 6.43181C20.5603 6.43181 20.3367 6.46353 20.0594 6.52018C19.7813 6.58034 19.5323 6.70525 19.3092 6.89315L18.0892 11.7467C18.1627 11.7592 18.2278 11.771 18.2833 11.7821C18.3376 11.7942 18.3977 11.8027 18.4575 11.8086C18.5208 11.8154 18.5932 11.8189 18.6807 11.8189C18.7681 11.8189 18.8775 11.8191 19.013 11.8191Z" fill="#FE4E01"/>
<path d="M27.8302 13.7504H25.0926L27.4045 4.43247H30.1609L27.8302 13.7504ZM29.1624 3.29717C28.7803 3.29717 28.4338 3.18824 28.1264 2.96993C27.8165 2.75293 27.6631 2.41891 27.6631 1.96873C27.6631 1.72111 27.7156 1.48879 27.8197 1.26961C27.9255 1.05086 28.0636 0.862525 28.2368 0.702403C28.4096 0.543593 28.6099 0.416717 28.8374 0.321125C29.0662 0.227064 29.3097 0.180036 29.5692 0.180036C29.951 0.180036 30.2956 0.288972 30.6042 0.507281C30.9116 0.726684 31.0662 1.06071 31.0662 1.50848C31.0662 1.75698 31.0139 1.99016 30.9089 2.20891C30.8045 2.42766 30.6663 2.61599 30.4932 2.77612C30.3217 2.93514 30.1196 3.06158 29.8925 3.1563C29.6635 3.25189 29.4209 3.29717 29.1624 3.29717Z" fill="#FE4E01"/>
<path d="M32.5601 2.11091L35.4275 1.68545L34.7233 4.43203H37.7942L37.2397 6.59281H34.1873L33.3743 9.85214C33.2994 10.1238 33.2569 10.3776 33.245 10.6134C33.2315 10.8503 33.2628 11.0537 33.3368 11.225C33.4104 11.3967 33.5426 11.529 33.7344 11.6227C33.9254 11.7178 34.1987 11.7657 34.5573 11.7657C34.8526 11.7657 35.1404 11.7388 35.4185 11.6854C35.6951 11.6329 35.9753 11.5599 36.259 11.4643L36.4632 13.4846C36.0932 13.6146 35.6926 13.7264 35.261 13.8204C34.8286 13.9158 34.3168 13.9617 33.7253 13.9617C32.8748 13.9617 32.2155 13.8408 31.7457 13.5999C31.2766 13.3573 30.9449 13.0259 30.7465 12.6064C30.5508 12.1883 30.4633 11.7064 30.4877 11.1635C30.5131 10.6193 30.5987 10.0473 30.7465 9.44483L32.5601 2.11091Z" fill="#FE4E01"/>
<path d="M37.9167 9.84536C37.9167 9.04278 38.0524 8.28592 38.3234 7.5774C38.5941 6.86822 38.9839 6.24807 39.4898 5.71586C39.9939 5.18628 40.608 4.76672 41.3308 4.45872C42.0502 4.15248 42.8557 3.99805 43.7435 3.99805C44.2991 3.99805 44.7954 4.04836 45.2321 4.1492C45.6706 4.25092 46.0673 4.38239 46.4261 4.54732L45.4819 6.60354C45.2353 6.50773 44.9793 6.42329 44.7146 6.34673C44.4496 6.26864 44.1263 6.23101 43.7437 6.23101C42.8299 6.23101 42.1076 6.53266 41.5699 7.134C41.0344 7.73577 40.7647 8.54579 40.7647 9.56187C40.7647 10.1641 40.9003 10.651 41.1726 11.0235C41.4434 11.3961 41.9438 11.5813 42.6703 11.5813C43.0289 11.5813 43.3749 11.5455 43.7063 11.4755C44.0402 11.4046 44.335 11.3153 44.5947 11.2099L44.7991 13.3177C44.4528 13.4464 44.071 13.5625 43.6521 13.6642C43.2324 13.7625 42.7326 13.8134 42.1532 13.8134C41.3884 13.8134 40.7409 13.7062 40.2113 13.4952C39.6814 13.2808 39.2436 12.9962 38.8987 12.6357C38.5521 12.2743 38.3031 11.8524 38.1492 11.3681C37.9953 10.8842 37.9167 10.3758 37.9167 9.84536Z" fill="#FE4E01"/>
<path d="M49.8351 13.9976C49.1817 13.9976 48.6142 13.9022 48.1327 13.7134C47.6527 13.5247 47.2551 13.2598 46.9406 12.9163C46.6256 12.5747 46.3899 12.1697 46.2285 11.7032C46.067 11.2368 45.9894 10.7203 45.9894 10.1544C45.9894 9.44461 46.1083 8.73499 46.3488 8.02735C46.5882 7.31817 46.9433 6.68097 47.4133 6.11463C47.8797 5.54742 48.455 5.08367 49.1324 4.72208C49.8091 4.3629 50.5874 4.18222 51.4617 4.18222C52.1032 4.18222 52.6678 4.27781 53.1558 4.46659C53.6416 4.65493 54.0418 4.92202 54.3581 5.2637C54.671 5.60714 54.9087 6.01029 55.0686 6.47753C55.2296 6.94302 55.3091 7.46079 55.3091 8.02713C55.3091 8.73477 55.1917 9.44439 54.9587 10.1542C54.7255 10.8606 54.3795 11.4993 53.9228 12.0669C53.4669 12.6333 52.8969 13.0968 52.2122 13.4569C51.5284 13.8169 50.7354 13.9976 49.8351 13.9976ZM51.2034 6.41541C50.7975 6.41541 50.4387 6.52828 50.1316 6.75118C49.8232 6.97671 49.5643 7.2602 49.3555 7.60211C49.1445 7.94554 48.988 8.32003 48.8823 8.72712C48.7775 9.13508 48.7261 9.52073 48.7261 9.88714C48.7261 10.4784 48.8257 10.9389 49.0214 11.2703C49.2199 11.5999 49.5764 11.7657 50.0946 11.7657C50.5018 11.7657 50.8587 11.6537 51.1678 11.4284C51.4742 11.2046 51.7335 10.9209 51.9438 10.5784C52.1535 10.2367 52.3113 9.8611 52.417 9.45336C52.5205 9.04671 52.5732 8.65887 52.5732 8.29313C52.5732 7.70338 52.4741 7.24183 52.2766 6.91087C52.0792 6.58121 51.7211 6.41541 51.2034 6.41541Z" fill="#FE4E01"/>
<path d="M58.2922 13.7504H55.5523L57.8642 4.43247H60.622L58.2922 13.7504ZM59.6223 3.29717C59.2405 3.29717 58.8942 3.18824 58.5873 2.96993C58.279 2.75293 58.1241 2.41891 58.1241 1.96873C58.1241 1.72111 58.1773 1.48879 58.2817 1.26961C58.3861 1.05086 58.5252 0.862525 58.6983 0.702403C58.8703 0.543593 59.0724 0.416717 59.2994 0.321125C59.5269 0.227064 59.7703 0.180036 60.0289 0.180036C60.4116 0.180036 60.7574 0.288972 61.0653 0.507281C61.3734 0.726684 61.5289 1.06071 61.5289 1.50848C61.5289 1.75698 61.4736 1.99016 61.3702 2.20891C61.2667 2.42766 61.1276 2.61599 60.9552 2.77612C60.7816 2.93514 60.582 3.06158 60.3545 3.1563C60.1252 3.25189 59.8822 3.29717 59.6223 3.29717Z" fill="#FE4E01"/>
<path d="M62.595 4.85618C62.8028 4.79799 63.0349 4.72799 63.2872 4.65187C63.5405 4.57575 63.8235 4.50488 64.1396 4.441C64.4522 4.37516 64.8051 4.32178 65.1931 4.28044C65.5811 4.23822 66.0233 4.21766 66.5145 4.21766C67.9584 4.21766 68.9537 4.62037 69.5032 5.42339C70.0522 6.22641 70.1472 7.32539 69.7909 8.71837L68.5316 13.7495H65.7759L66.9964 8.82424C67.0709 8.51669 67.1293 8.21941 67.1725 7.92891C67.2161 7.64104 67.2136 7.3873 67.1627 7.16768C67.114 6.95068 66.9994 6.77306 66.8215 6.63546C66.6408 6.50006 66.3679 6.43203 65.9977 6.43203C65.6407 6.43203 65.2776 6.46878 64.9069 6.53965L63.1125 13.7493H60.3557L62.595 4.85618Z" fill="#FE4E01"/>
<path d="M10.9791 6.02019C11.1456 4.96943 10.2984 4.40456 9.13994 4.02774L9.51571 2.60435L8.59822 2.38842L8.23238 3.7743C7.99118 3.71754 7.74345 3.664 7.49729 3.61094L7.86575 2.21593L6.94878 2L6.57274 3.42289C6.3731 3.37995 6.17711 3.33752 5.98687 3.29285L5.98791 3.28841L4.72261 2.99005L4.47854 3.91545C4.47854 3.91545 5.15928 4.06278 5.1449 4.07191C5.5165 4.15951 5.58365 4.39172 5.57242 4.57582L5.14438 6.19737C5.16999 6.20354 5.20318 6.21242 5.23976 6.22624C5.20919 6.21909 5.17652 6.21119 5.14281 6.20354L4.54282 8.47509C4.49735 8.5817 4.38212 8.7416 4.12237 8.6809C4.13151 8.69348 3.45548 8.5237 3.45548 8.5237L3 9.51549L4.19396 9.79656C4.41608 9.84912 4.63376 9.90415 4.84804 9.95597L4.46835 11.3957L5.38479 11.6116L5.76083 10.1872C6.01117 10.2514 6.2542 10.3106 6.492 10.3664L6.11727 11.7841L7.03476 12L7.41445 10.563C8.97896 10.8426 10.1554 10.7299 10.6506 9.39358C11.0497 8.31764 10.6308 7.69701 9.8076 7.29231C10.4071 7.16176 10.8586 6.78938 10.9791 6.02019ZM8.8828 8.79614C8.59927 9.87207 6.68093 9.29042 6.05899 9.14458L6.56281 7.23727C7.18475 7.38385 9.17913 7.67406 8.8828 8.79614ZM9.16659 6.00464C8.90788 6.98334 7.31123 6.48609 6.79329 6.36419L7.25008 4.63431C7.76802 4.75622 9.43601 4.98374 9.16659 6.00464Z" fill="white"/>
</svg>
