<svg width="38" height="31" viewBox="0 0 38 31" fill="none" xmlns="http://www.w3.org/2000/svg">
<path d="M29.5076 28.4757H22.7904V31H15.8333V28.4757H1.24747V22.0543H29.2197C29.8274 22.0543 30.1313 21.7886 30.1313 21.2571V19.4414C30.1313 18.8805 29.8274 18.6 29.2197 18.6H8.49242C5.74158 18.6 3.63047 18.039 2.15909 16.9171C0.719697 15.7952 0 14.1862 0 12.09V9.21143C0 7.11524 0.73569 5.49143 2.20707 4.34C3.71044 3.15905 5.80556 2.56857 8.49242 2.56857H15.8333V0H22.7904V2.56857H35.7449V8.99H8.7803C8.52441 8.99 8.3005 9.06381 8.10859 9.21143C7.94865 9.35905 7.86869 9.55095 7.86869 9.78714V11.6029C7.86869 11.839 7.94865 12.031 8.10859 12.1786C8.3005 12.3262 8.52441 12.4 8.7803 12.4H29.5076C32.1944 12.4 34.2736 12.9905 35.7449 14.1714C37.2483 15.3524 38 16.991 38 19.0871V22.01C38 24.1062 37.2643 25.7152 35.7929 26.8371C34.3535 27.9295 32.2584 28.4757 29.5076 28.4757Z" fill="#FE4E01"/>
</svg>
