<svg width="40" height="33" viewBox="0 0 40 33" fill="none" xmlns="http://www.w3.org/2000/svg">
<path d="M30.5076 29.4757H23.7904V32H16.8333V29.4757H2.24747V23.0543H30.2197C30.8274 23.0543 31.1313 22.7886 31.1313 22.2571V20.4414C31.1313 19.8805 30.8274 19.6 30.2197 19.6H9.49242C6.74158 19.6 4.63047 19.039 3.15909 17.9171C1.7197 16.7952 1 15.1862 1 13.09V10.2114C1 8.11524 1.73569 6.49143 3.20707 5.34C4.71044 4.15905 6.80556 3.56857 9.49242 3.56857H16.8333V1H23.7904V3.56857H36.745V9.99H9.7803C9.52441 9.99 9.3005 10.0638 9.10859 10.2114C8.94865 10.359 8.86869 10.551 8.86869 10.7871V12.6029C8.86869 12.839 8.94865 13.031 9.10859 13.1786C9.3005 13.3262 9.52441 13.4 9.7803 13.4H30.5076C33.1944 13.4 35.2736 13.9905 36.745 15.1714C38.2483 16.3524 39 17.991 39 20.0871V23.01C39 25.1062 38.2643 26.7152 36.7929 27.8371C35.3535 28.9295 33.2584 29.4757 30.5076 29.4757Z" stroke="#787889" stroke-width="0.4"/>
</svg>
