<svg width="40" height="42" viewBox="0 0 40 42" fill="none" xmlns="http://www.w3.org/2000/svg">
<path d="M16.1949 27.0321C16.4082 27.5297 16.5873 27.9955 16.8026 28.4425C17.5441 29.9808 18.5672 31.285 19.9439 32.2823C21.0217 33.0629 22.2491 33.6025 23.5455 33.8656C25.2767 34.2256 27.0054 34.2413 28.7187 33.7607C30.3587 33.3009 31.7596 32.4047 33.0034 31.2412C33.2117 31.0453 33.4158 30.8413 33.6204 30.6399C34.0711 30.1954 34.7509 30.1618 35.1991 30.6025C36.1439 31.5301 37.0699 32.4778 38.005 33.4156C38.2029 33.6141 38.412 33.8002 38.6086 33.9995C39.1085 34.5065 39.1352 35.1804 38.6561 35.7044C37.1149 37.3889 35.3341 38.7423 33.2788 39.709C31.1872 40.6928 28.9845 41.2053 26.6897 41.3366C24.3948 41.4679 22.145 41.2677 19.9285 40.6567C17.8807 40.0928 15.9849 39.1978 14.2633 37.9298C12.0322 36.2865 10.3139 34.1945 9.06424 31.7005C8.35715 30.2978 7.8184 28.8133 7.45966 27.279C7.41467 27.0848 7.34594 27.024 7.1464 27.0262C5.27189 27.0355 3.39738 27.0321 1.52287 27.0317C1.033 27.0317 0.884288 26.7929 1.08965 26.3369C1.70324 24.9771 2.32017 23.6143 2.92834 22.2498C3.03081 22.0195 3.17827 21.9192 3.42571 21.9209C4.45336 21.9277 5.48101 21.9234 6.50824 21.9234H6.75443V20.4523H2.99749C2.62258 20.4523 2.44555 20.1846 2.59884 19.8442C3.21785 18.4695 3.8456 17.0986 4.45502 15.7193C4.57999 15.4362 4.75494 15.3343 5.04945 15.3398C5.76427 15.3538 6.4795 15.3355 7.19431 15.3508C7.38968 15.3547 7.45008 15.2828 7.49423 15.1061C8.07075 12.7799 8.99967 10.6135 10.3643 8.65371C12.6366 5.38971 15.6742 3.197 19.4036 1.98506C21.1182 1.42753 22.8781 1.13517 24.6731 1.03361C26.7271 0.917176 28.7479 1.09608 30.7274 1.68292C33.0988 2.38621 35.2204 3.56585 37.1007 5.19509C37.3619 5.42158 37.6135 5.66253 37.8567 5.90687C38.28 6.33436 38.2733 7.03934 37.8272 7.51486C37.2715 8.10978 36.6979 8.68473 36.1322 9.2686C35.6003 9.8172 35.0629 10.3603 34.5376 10.9153C33.9665 11.5191 33.3354 11.5527 32.7302 10.9833C31.7721 10.0819 30.6982 9.36846 29.4768 8.89125C28.0097 8.31928 26.4893 8.1731 24.9364 8.29633C23.5221 8.40384 22.1742 8.75612 20.9174 9.43475C18.9179 10.5137 17.5325 12.168 16.6044 14.2464C16.4498 14.5923 16.3182 14.9488 16.167 15.3236C16.2503 15.333 16.3028 15.3445 16.3548 15.3445C19.4304 15.3445 22.5059 15.3445 25.5812 15.3445C26.2941 15.3445 27.0067 15.3445 27.719 15.3445C28.153 15.3445 28.3059 15.5901 28.123 15.9972C27.5053 17.3731 26.8834 18.747 26.2702 20.1246C26.1685 20.3524 26.0252 20.4591 25.7745 20.4578C24.4069 20.451 23.0394 20.4578 21.6714 20.4527C21.0732 20.4502 20.475 20.42 19.8768 20.4217C18.406 20.4268 16.9355 20.4429 15.4647 20.4548C15.423 20.4548 15.3838 20.4608 15.3214 20.4659V21.9247H15.6096C19.1154 21.9247 22.6211 21.9247 26.1269 21.9247C26.237 21.9193 26.3471 21.9365 26.4506 21.9753C26.6547 22.0666 26.7051 22.2889 26.5926 22.5396C26.2346 23.3365 25.8754 24.1327 25.515 24.9282C25.2542 25.5066 24.9843 26.0807 24.7385 26.665C24.6264 26.9314 24.4611 27.0351 24.1795 27.0347C21.6038 27.0279 19.0282 27.0266 16.4527 27.0308L16.1949 27.0321Z" stroke="#787889" stroke-width="0.4"/>
</svg>
