<svg width="32" height="34" viewBox="0 0 32 34" fill="none" xmlns="http://www.w3.org/2000/svg">
<path d="M12.7957 21.9218C12.9753 22.3408 13.1261 22.733 13.3075 23.1095C13.9319 24.4049 14.7934 25.5031 15.9528 26.343C16.8604 27.0004 17.8939 27.4547 18.9857 27.6763C20.4435 27.9794 21.8993 27.9927 23.3421 27.5879C24.7231 27.2008 25.9028 26.446 26.9503 25.4663C27.1257 25.3013 27.2975 25.1295 27.4698 24.9599C27.8493 24.5856 28.4218 24.5573 28.7992 24.9284C29.5948 25.7096 30.3746 26.5076 31.1621 27.2974C31.3288 27.4645 31.5049 27.6212 31.6704 27.7891C32.0914 28.216 32.1138 28.7835 31.7104 29.2247C30.4125 30.6432 28.9129 31.783 27.1821 32.5971C25.4208 33.4255 23.5659 33.8571 21.6334 33.9676C19.7009 34.0782 17.8063 33.9097 15.9398 33.3951C14.2153 32.9202 12.6189 32.1666 11.1691 31.0988C9.29029 29.715 7.8433 27.9533 6.79094 25.8531C6.19549 24.6719 5.74181 23.4217 5.43971 22.1297C5.40183 21.9662 5.34395 21.915 5.17592 21.9168C3.59738 21.9246 2.01885 21.9218 0.44031 21.9214C0.0277855 21.9214 -0.0974416 21.7203 0.0754958 21.3363C0.592203 20.1912 1.11172 19.0436 1.62387 17.8946C1.71016 17.7006 1.83433 17.6162 2.0427 17.6176C2.90809 17.6233 3.77348 17.6197 4.63852 17.6197H4.84583V16.3809H1.68209C1.36639 16.3809 1.2173 16.1554 1.34639 15.8688C1.86766 14.7112 2.39629 13.5567 2.90949 12.3952C3.01473 12.1568 3.16206 12.071 3.41006 12.0756C4.01201 12.0874 4.61431 12.072 5.21626 12.0849C5.38078 12.0881 5.43165 12.0277 5.46883 11.8788C5.95432 9.91993 6.73657 8.09562 7.88574 6.44523C9.79928 3.6966 12.3572 1.85011 15.4978 0.829524C16.9416 0.360028 18.4237 0.113829 19.9352 0.0283036C21.665 -0.0697467 23.3666 0.0809071 25.0336 0.575095C27.0306 1.16733 28.8171 2.16072 30.4006 3.53271C30.6205 3.72344 30.8324 3.92634 31.0373 4.1321C31.3937 4.49209 31.3881 5.08576 31.0124 5.4862C30.5444 5.98718 30.0614 6.47135 29.585 6.96303C29.1371 7.42501 28.6845 7.88234 28.2422 8.34969C27.7613 8.85819 27.2298 8.88646 26.7201 8.40695C25.9133 7.64795 25.009 7.04713 23.9805 6.64526C22.745 6.1636 21.4647 6.0405 20.1569 6.14428C18.966 6.23481 17.8309 6.53147 16.7726 7.10295C15.0888 8.01153 13.9221 9.40463 13.1405 11.1549C13.0104 11.4461 12.8995 11.7464 12.7722 12.062C12.8423 12.0699 12.8865 12.0795 12.9304 12.0795C15.5204 12.0795 18.1102 12.0795 20.7 12.0795C21.3003 12.0795 21.9003 12.0795 22.5002 12.0795C22.8657 12.0795 22.9944 12.2864 22.8405 12.6292C22.3202 13.7879 21.7965 14.9448 21.2802 16.105C21.1946 16.2968 21.0739 16.3866 20.8627 16.3855C19.7111 16.3798 18.5595 16.3855 17.4075 16.3812C16.9037 16.3791 16.4 16.3537 15.8963 16.3551C14.6577 16.3594 13.4194 16.373 12.1808 16.383C12.1457 16.383 12.1127 16.388 12.0601 16.3923V17.6208H12.3028C15.2551 17.6208 18.2073 17.6208 21.1595 17.6208C21.2522 17.6163 21.3449 17.6307 21.432 17.6634C21.6039 17.7403 21.6464 17.9275 21.5517 18.1386C21.2502 18.8097 20.9477 19.4802 20.6442 20.1501C20.4246 20.6371 20.1973 21.1206 19.9903 21.6126C19.896 21.837 19.7567 21.9243 19.5196 21.9239C17.3505 21.9182 15.1816 21.9171 13.0128 21.9207L12.7957 21.9218Z" fill="#FE4E01"/>
</svg>
