<svg width="42" height="31" viewBox="0 0 42 31" fill="none" xmlns="http://www.w3.org/2000/svg">
<path fill-rule="evenodd" clip-rule="evenodd" d="M31.1515 30.3875H9.48418C6.74393 30.3875 4.45956 29.5528 2.67456 27.857C0.887848 26.1597 0 23.9816 0 21.3651V9.02238C0 6.4059 0.887848 4.22786 2.67456 2.53049C4.45956 0.834732 6.74393 0 9.48418 0H40.7571V8.26292H11.2055C10.6325 8.26292 10.1737 8.45223 9.79576 8.83016L9.7904 8.83552L9.78488 8.84071C9.42144 9.18278 9.2285 9.63271 9.2285 10.2399V20.1477C9.2285 20.7518 9.41999 21.2209 9.7904 21.594C10.1655 21.9445 10.6261 22.1246 11.2055 22.1246H32.5782V19.0103H12.2168V11.4191H41.4288V30.3875H33.7025L32.9736 29.3671L31.1515 30.3875ZM33.1201 28.712L33.9598 29.8875H40.9288V11.9191H12.7168V18.5103H33.0782V22.6246H11.2055C10.5057 22.6246 9.918 22.4007 9.4422 21.9529C8.9664 21.4771 8.7285 20.8753 8.7285 20.1477V10.2399C8.7285 9.51217 8.9664 8.92442 9.4422 8.47661C9.918 8.00081 10.5057 7.76292 11.2055 7.76292H40.2571V0.5H9.48418C6.8533 0.5 4.69822 1.29766 3.01893 2.89299C1.33964 4.48831 0.5 6.53144 0.5 9.02238V21.3651C0.5 23.8561 1.33964 25.8992 3.01893 27.4945C4.69822 29.0899 6.8533 29.8875 9.48418 29.8875H31.021L33.1201 28.712Z" fill="#787889"/>
</svg>
