<svg width="29" height="38" viewBox="0 0 29 38" fill="none" xmlns="http://www.w3.org/2000/svg">
<path d="M3.07235 37.9163C2.34025 37.9163 1.71352 37.6556 1.19218 37.1343C0.67083 36.6129 0.410156 35.9862 0.410156 35.2541V15.9975C0.410156 15.2654 0.67083 14.6387 1.19218 14.1173C1.71352 13.596 2.34025 13.3353 3.07235 13.3353H6.17825V9.0758C6.17825 6.74342 7.00066 4.75528 8.64549 3.11137C10.2903 1.46746 12.2796 0.645508 14.6133 0.645508C16.9469 0.645508 18.9346 1.46746 20.5763 3.11137C22.218 4.75528 23.0388 6.74342 23.0388 9.0758V13.3353H26.1447C26.8768 13.3353 27.5036 13.596 28.0249 14.1173C28.5463 14.6387 28.8069 15.2654 28.8069 15.9975V35.2541C28.8069 35.9862 28.5463 36.6129 28.0249 37.1343C27.5036 37.6556 26.8768 37.9163 26.1447 37.9163H3.07235ZM14.616 29.0423C15.5576 29.0423 16.3612 28.7165 17.0267 28.0648C17.6923 27.4131 18.025 26.6297 18.025 25.7145C18.025 24.8271 17.6898 24.0211 17.0193 23.2964C16.3487 22.5717 15.5427 22.2093 14.6011 22.2093C13.6595 22.2093 12.8559 22.5717 12.1904 23.2964C11.5248 24.0211 11.1921 24.8345 11.1921 25.7367C11.1921 26.6389 11.5273 27.4154 12.1978 28.0662C12.8684 28.7169 13.6744 29.0423 14.616 29.0423ZM8.84045 13.3353H20.3766V9.0758C20.3766 7.47354 19.8164 6.11164 18.6958 4.99008C17.5752 3.8685 16.2146 3.30771 14.6138 3.30771C13.013 3.30771 11.6505 3.8685 10.5265 4.99008C9.40247 6.11164 8.84045 7.47354 8.84045 9.0758V13.3353Z" fill="#454745"/>
</svg>
