<svg width="206" height="33" viewBox="0 0 206 33" fill="none" xmlns="http://www.w3.org/2000/svg">
<path d="M2.35864 13.4501V9.37041H9.47294C11.0865 9.34463 12.6989 9.47367 14.2868 9.7557C15.4016 9.94103 16.4662 10.3467 17.4158 10.9479C18.1704 11.4453 18.7556 12.1526 19.096 12.9786C19.4528 13.9192 19.6239 14.9175 19.6005 15.9205V25.5893H5.84869C4.89214 25.6102 3.93685 25.5096 3.00667 25.2902C2.33621 25.139 1.71441 24.8275 1.19683 24.3836C0.737444 23.9522 0.415845 23.3995 0.271095 22.7925C0.0776596 22.0246 -0.0125706 21.2352 0.00265131 20.4444C-0.017068 19.6803 0.0732891 18.9173 0.271095 18.1779C0.421211 17.6183 0.744601 17.1179 1.19683 16.7456C1.72706 16.3482 2.34834 16.0837 3.00667 15.9749C3.94369 15.8047 4.89583 15.7272 5.84869 15.7437H13.8239V15.6078C13.8305 15.2719 13.7707 14.9378 13.648 14.6241C13.5098 14.3251 13.2691 14.083 12.9676 13.9396C12.5291 13.7383 12.0602 13.6082 11.579 13.5543C10.7958 13.4621 10.0072 13.4212 9.2184 13.4319L2.35864 13.4501ZM13.8378 21.895V18.8806H7.18639C6.73829 18.8316 6.28733 18.9444 5.91814 19.1978C5.78791 19.3528 5.69054 19.5317 5.63172 19.7239C5.57291 19.9162 5.55384 20.1179 5.57562 20.3175C5.53028 20.753 5.65241 21.1894 5.91814 21.5414C6.09532 21.6793 6.29856 21.7815 6.51622 21.8422C6.73387 21.9028 6.96163 21.9208 7.18639 21.895H13.8378Z" fill="#F6F9FC"/>
<path d="M24.1045 0H30.543V25.6067H24.1045V0Z" fill="#F6F9FC"/>
<path d="M35.1211 0H41.5596V25.6067H35.1211V0Z" fill="#F6F9FC"/>
<path d="M46.1416 33.0004V9.38815H58.3011C59.7909 9.36054 61.2789 9.50203 62.7355 9.80974C63.792 10.0202 64.7773 10.4879 65.6006 11.1696C66.3439 11.8466 66.8767 12.7156 67.1374 13.6764C67.4738 14.9272 67.6296 16.2181 67.6002 17.5112C67.6306 18.7985 67.4748 20.0835 67.1374 21.328C66.873 22.2821 66.3406 23.1443 65.6006 23.8166C64.7759 24.4962 63.7911 24.9636 62.7355 25.1765C61.2789 25.4842 59.7909 25.6256 58.3011 25.598H52.5986V32.9913L46.1416 33.0004ZM52.5801 14.0798V20.911H58.4076C59.5787 20.911 60.3841 20.6753 60.8238 20.1948C61.2635 19.7143 61.4857 18.8349 61.4857 17.5158C61.4857 16.1967 61.2635 15.3082 60.8238 14.796C60.3841 14.2838 59.5787 14.0571 58.4076 14.0571L52.5801 14.0798Z" fill="#F6F9FC"/>
<path d="M72.7891 13.45V9.37037H79.908C81.5201 9.34477 83.1308 9.47381 84.7172 9.75566C85.832 9.94099 86.8966 10.3466 87.8462 10.9478C88.601 11.4462 89.1874 12.1531 89.5311 12.9786C89.8862 13.9194 90.0558 14.9177 90.0309 15.9205V25.5893H76.293C75.3364 25.6101 74.3812 25.5096 73.451 25.2901C72.7822 25.1382 72.162 24.8268 71.6458 24.3835C71.1796 23.9538 70.8501 23.4013 70.6969 22.7925C70.5034 22.0246 70.4132 21.2352 70.4284 20.4444C70.4087 19.6803 70.4991 18.9173 70.6969 18.1779C70.8555 17.6163 71.1868 17.1163 71.6458 16.7455C72.1743 16.3482 72.7941 16.0836 73.451 15.9749C74.388 15.8046 75.3401 15.7272 76.293 15.7437H84.2729V15.6077C84.2802 15.2713 84.2188 14.9369 84.0923 14.6241C83.9541 14.3251 83.7133 14.0829 83.4119 13.9396C82.9736 13.7377 82.5045 13.6076 82.0233 13.5543C81.24 13.4623 80.4514 13.4214 79.6627 13.4319L72.7891 13.45ZM84.2729 21.895V18.8805H77.6168C77.1687 18.8315 76.7177 18.9443 76.3485 19.1978C76.2191 19.3531 76.1226 19.5321 76.0646 19.7244C76.0066 19.9166 75.9882 20.1182 76.0106 20.3174C75.964 20.7524 76.0845 21.1887 76.3485 21.5414C76.5259 21.679 76.7291 21.7811 76.9467 21.8418C77.1644 21.9024 77.3921 21.9205 77.6168 21.895H84.2729Z" fill="#F6F9FC"/>
<path d="M95.0394 28.5495C95.6075 28.5535 96.1751 28.5187 96.7382 28.4453C97.1943 28.3816 97.6395 28.2581 98.062 28.0781C98.4647 27.8951 98.829 27.6399 99.1359 27.3257C99.5033 26.9368 99.8147 26.5006 100.062 26.0292L91.0449 9.38867H97.5945L102.992 20.2134L108.393 9.38867H114.873L105.153 27.7789C104.711 28.6275 104.184 29.4308 103.579 30.1768C103.037 30.8396 102.369 31.3937 101.612 31.8088C100.763 32.2531 99.845 32.5593 98.8952 32.7154C97.63 32.9184 96.3491 33.0125 95.0672 32.9964H92.6002V28.545L95.0394 28.5495Z" fill="#F6F9FC"/>
<path d="M117.465 33.0003V9.38808H129.629C131.119 9.36076 132.607 9.50225 134.063 9.80967C135.119 10.0192 136.103 10.487 136.924 11.1696C137.67 11.845 138.205 12.7144 138.465 13.6763C138.799 14.9276 138.955 16.2181 138.928 17.5112C138.956 18.7983 138.8 20.083 138.465 21.328C138.201 22.2832 137.667 23.1459 136.924 23.8166C136.102 24.4974 135.118 24.965 134.063 25.1764C132.607 25.4839 131.119 25.6253 129.629 25.598H123.903V32.9913L117.465 33.0003ZM123.903 14.0797V20.9109H129.736C130.902 20.9109 131.707 20.6752 132.152 20.1947C132.596 19.7142 132.814 18.8348 132.814 17.5157C132.814 16.1966 132.591 15.3082 132.152 14.7959C131.712 14.2837 130.902 14.0571 129.736 14.0571L123.903 14.0797Z" fill="#F6F9FC"/>
<path d="M144.118 13.4501V9.37041H151.232C152.846 9.34463 154.458 9.47367 156.046 9.7557C157.161 9.94103 158.225 10.3467 159.175 10.9479C159.929 11.4453 160.515 12.1526 160.855 12.9786C161.21 13.9195 161.38 14.9178 161.355 15.9205V25.5893H147.622C146.665 25.6102 145.71 25.5096 144.78 25.2902C144.109 25.139 143.487 24.8275 142.97 24.3836C142.512 23.9509 142.191 23.3987 142.044 22.7925C141.853 22.0242 141.763 21.2351 141.776 20.4444C141.758 19.6804 141.848 18.9177 142.044 18.1779C142.196 17.6192 142.519 17.1195 142.97 16.7456C143.5 16.3482 144.121 16.0837 144.78 15.9749C145.717 15.8047 146.669 15.7272 147.622 15.7437H155.597V15.6078C155.603 15.2719 155.544 14.9378 155.421 14.6241C155.283 14.3251 155.042 14.083 154.741 13.9396C154.302 13.7383 153.833 13.6082 153.352 13.5543C152.569 13.4621 151.78 13.4212 150.991 13.4319L144.118 13.4501ZM155.597 21.895V18.8806H148.945C148.496 18.8304 148.043 18.9433 147.673 19.1978C147.543 19.3532 147.447 19.5322 147.389 19.7244C147.331 19.9166 147.312 20.1182 147.335 20.3175C147.288 20.7524 147.408 21.1888 147.673 21.5414C148.032 21.8192 148.49 21.9463 148.945 21.895H155.597Z" fill="#F6F9FC"/>
<path d="M166.363 28.5495C166.931 28.5537 167.499 28.5188 168.062 28.4453C168.518 28.3821 168.963 28.2586 169.386 28.0781C169.789 27.8962 170.153 27.6409 170.459 27.3257C170.828 26.938 171.14 26.5016 171.385 26.0292L162.373 9.38867H168.918L174.32 20.2134L179.721 9.38867H186.202L176.481 27.7789C176.036 28.6256 175.509 29.4285 174.908 30.1769C174.363 30.8375 173.695 31.3913 172.94 31.8088C172.089 32.2538 171.17 32.56 170.219 32.7154C168.954 32.9186 167.673 33.0127 166.391 32.9964H163.924V28.545L166.363 28.5495Z" fill="#F6F9FC"/>
<path d="M198.056 13.627H188.15V9.38867H205.999V13.278L196.126 21.1608H205.999V25.6076H188.15V21.2968L198.056 13.627Z" fill="#F6F9FC"/>
</svg>
