<svg width="206" height="33" viewBox="0 0 206 33" fill="none" xmlns="http://www.w3.org/2000/svg">
<g clip-path="url(#clip0_23_765)">
<path d="M2.36059 13.4491V9.36943H9.47489C11.0885 9.34366 12.7008 9.47269 14.2887 9.75472C15.4035 9.94006 16.4682 10.3457 17.4177 10.9469C18.1723 11.4443 18.7575 12.1516 19.098 12.9777C19.4547 13.9182 19.6259 14.9165 19.6025 15.9195V25.5883H5.85065C4.89409 25.6092 3.9388 25.5087 3.00862 25.2892C2.33816 25.138 1.71636 24.8265 1.19879 24.3826C0.739397 23.9512 0.417798 23.3985 0.273048 22.7915C0.0796127 22.0236 -0.0106175 21.2342 0.00460443 20.4434C-0.0151149 19.6793 0.0752422 18.9163 0.273048 18.177C0.423164 17.6173 0.746554 17.117 1.19879 16.7446C1.72902 16.3473 2.35029 16.0827 3.00862 15.9739C3.94564 15.8037 4.89779 15.7263 5.85065 15.7428H13.8259V15.6068C13.8324 15.2709 13.7727 14.9369 13.65 14.6231C13.5118 14.3242 13.271 14.082 12.9696 13.9386C12.5311 13.7373 12.0621 13.6072 11.581 13.5533C10.7978 13.4611 10.0091 13.4202 9.22035 13.431L2.36059 13.4491ZM13.8398 21.894V18.8796H7.18835C6.74024 18.8306 6.28929 18.9434 5.92009 19.1969C5.78986 19.3518 5.69249 19.5307 5.63368 19.7229C5.57486 19.9152 5.55579 20.1169 5.57757 20.3165C5.53224 20.752 5.65437 21.1884 5.92009 21.5404C6.09727 21.6783 6.30052 21.7805 6.51817 21.8412C6.73582 21.9019 6.96359 21.9198 7.18835 21.894H13.8398Z" fill="#FE4E01"/>
<path d="M24.1064 0H30.545V25.6067H24.1064V0Z" fill="#FE4E01"/>
<path d="M35.1221 0H41.5606V25.6067H35.1221V0Z" fill="#FE4E01"/>
<path d="M46.1436 33.0004V9.38815H58.3031C59.7928 9.36054 61.2809 9.50203 62.7374 9.80974C63.7939 10.0202 64.7792 10.4879 65.6025 11.1696C66.3459 11.8466 66.8786 12.7156 67.1393 13.6764C67.4757 14.9272 67.6315 16.2181 67.6022 17.5112C67.6326 18.7985 67.4767 20.0835 67.1393 21.328C66.875 22.2821 66.3425 23.1443 65.6025 23.8166C64.7778 24.4962 63.7931 24.9636 62.7374 25.1765C61.2809 25.4842 59.7928 25.6256 58.3031 25.598H52.6006V32.9913L46.1436 33.0004ZM52.582 14.0798V20.911H58.4096C59.5807 20.911 60.386 20.6753 60.8258 20.1948C61.2655 19.7143 61.4876 18.8349 61.4876 17.5158C61.4876 16.1967 61.2655 15.3082 60.8258 14.796C60.386 14.2838 59.5807 14.0571 58.4096 14.0571L52.582 14.0798Z" fill="#FE4E01"/>
<path d="M72.791 13.4491V9.36939H79.9099C81.522 9.34379 83.1328 9.47283 84.7192 9.75468C85.834 9.94001 86.8986 10.3456 87.8482 10.9469C88.6029 11.4453 89.1894 12.1521 89.533 12.9776C89.8882 13.9184 90.0578 14.9167 90.0329 15.9195V25.5883H76.2949C75.3383 25.6092 74.3831 25.5086 73.4529 25.2892C72.7841 25.1373 72.164 24.8258 71.6477 24.3826C71.1815 23.9528 70.852 23.4003 70.6988 22.7915C70.5054 22.0236 70.4152 21.2342 70.4304 20.4434C70.4107 19.6793 70.501 18.9163 70.6988 18.1769C70.8575 17.6154 71.1888 17.1153 71.6477 16.7445C72.1762 16.3473 72.796 16.0827 73.4529 15.9739C74.39 15.8037 75.342 15.7262 76.2949 15.7427H84.2748V15.6068C84.2822 15.2704 84.2208 14.9359 84.0943 14.6231C83.9561 14.3241 83.7153 14.0819 83.4138 13.9386C82.9756 13.7368 82.5065 13.6066 82.0252 13.5533C81.242 13.4613 80.4534 13.4204 79.6646 13.4309L72.791 13.4491ZM84.2748 21.894V18.8795H77.6188C77.1707 18.8306 76.7197 18.9434 76.3505 19.1968C76.2211 19.3521 76.1245 19.5312 76.0665 19.7234C76.0085 19.9156 75.9901 20.1172 76.0126 20.3165C75.9659 20.7514 76.0864 21.1878 76.3505 21.5404C76.5278 21.678 76.7311 21.7801 76.9487 21.8408C77.1663 21.9015 77.394 21.9195 77.6188 21.894H84.2748Z" fill="#FE4E01"/>
<path d="M95.0414 28.5486C95.6094 28.5525 96.1771 28.5177 96.7401 28.4443C97.1962 28.3806 97.6415 28.2571 98.0639 28.0772C98.4667 27.8941 98.8309 27.6389 99.1378 27.3247C99.5052 26.9358 99.8167 26.4996 100.064 26.0283L91.0469 9.3877H97.5964L102.994 20.2124L108.395 9.3877H114.875L105.155 27.778C104.713 28.6265 104.186 29.4298 103.581 30.1759C103.039 30.8386 102.371 31.3927 101.614 31.8078C100.765 32.2521 99.847 32.5583 98.8971 32.7144C97.632 32.9175 96.3511 33.0115 95.0692 32.9954H92.6021V28.544L95.0414 28.5486Z" fill="#FE4E01"/>
<path d="M117.467 33.0003V9.38808H129.631C131.121 9.36076 132.609 9.50225 134.065 9.80967C135.121 10.0192 136.105 10.487 136.926 11.1696C137.672 11.845 138.207 12.7144 138.467 13.6763C138.801 14.9276 138.957 16.2181 138.93 17.5112C138.958 18.7983 138.802 20.083 138.467 21.328C138.203 22.2832 137.669 23.1459 136.926 23.8166C136.104 24.4974 135.12 24.965 134.065 25.1764C132.609 25.4839 131.121 25.6253 129.631 25.598H123.905V32.9913L117.467 33.0003ZM123.905 14.0797V20.9109H129.737C130.904 20.9109 131.709 20.6752 132.154 20.1947C132.598 19.7142 132.816 18.8348 132.816 17.5157C132.816 16.1966 132.593 15.3082 132.154 14.7959C131.714 14.2837 130.904 14.0571 129.737 14.0571L123.905 14.0797Z" fill="#FE4E01"/>
<path d="M144.119 13.4491V9.36943H151.233C152.847 9.34366 154.459 9.47269 156.047 9.75472C157.162 9.94006 158.226 10.3457 159.176 10.9469C159.93 11.4443 160.516 12.1516 160.856 12.9777C161.211 13.9185 161.381 14.9168 161.356 15.9195V25.5883H147.623C146.666 25.6092 145.711 25.5087 144.781 25.2892C144.11 25.138 143.488 24.8265 142.971 24.3826C142.513 23.95 142.192 23.3977 142.045 22.7915C141.854 22.0232 141.764 21.2341 141.777 20.4434C141.759 19.6794 141.849 18.9168 142.045 18.177C142.197 17.6183 142.52 17.1185 142.971 16.7446C143.501 16.3473 144.122 16.0827 144.781 15.9739C145.718 15.8037 146.67 15.7263 147.623 15.7428H155.598V15.6068C155.604 15.2709 155.545 14.9369 155.422 14.6231C155.284 14.3242 155.043 14.082 154.742 13.9386C154.303 13.7373 153.834 13.6072 153.353 13.5533C152.57 13.4611 151.781 13.4202 150.992 13.431L144.119 13.4491ZM155.598 21.894V18.8796H148.946C148.497 18.8295 148.044 18.9423 147.673 19.1969C147.544 19.3522 147.448 19.5312 147.389 19.7234C147.331 19.9157 147.313 20.1173 147.336 20.3165C147.289 20.7514 147.409 21.1878 147.673 21.5404C148.033 21.8182 148.491 21.9454 148.946 21.894H155.598Z" fill="#FE4E01"/>
<path d="M166.365 28.5486C166.933 28.5527 167.501 28.5179 168.064 28.4443C168.52 28.3811 168.965 28.2576 169.387 28.0772C169.791 27.8953 170.155 27.6399 170.461 27.3247C170.83 26.937 171.142 26.5006 171.387 26.0283L162.375 9.3877H168.92L174.322 20.2124L179.723 9.3877H186.204L176.483 27.778C176.038 28.6246 175.511 29.4276 174.909 30.1759C174.365 30.8365 173.697 31.3903 172.942 31.8078C172.091 32.2528 171.172 32.559 170.221 32.7144C168.955 32.9176 167.675 33.0117 166.393 32.9954H163.926V28.544L166.365 28.5486Z" fill="#FE4E01"/>
<path d="M198.057 13.6261H188.151V9.3877H206V13.277L196.127 21.1599H206V25.6067H188.151V21.2958L198.057 13.6261Z" fill="#FE4E01"/>
</g>
<defs>
<clipPath id="clip0_23_765">
<rect width="206" height="33" fill="white"/>
</clipPath>
</defs>
</svg>
