<svg width="61" height="51" viewBox="0 0 61 51" fill="none" xmlns="http://www.w3.org/2000/svg">
<path d="M23.7159 18.6102C23.7159 12.6658 26.5966 7.38986 31.0169 3.98101C27.7638 1.49965 23.66 0 19.1838 0C8.57995 0 0 8.32338 0 18.6102C0 28.897 8.57995 37.2203 19.1838 37.2203C23.66 37.2203 27.7638 35.7207 31.0169 33.2393C26.5904 29.8787 23.7159 24.5546 23.7159 18.6102Z" fill="#FE4E01"/>
<path d="M61 18.6102C61 28.897 52.7061 37.2203 42.4556 37.2203C38.1286 37.2203 34.1617 35.7207 31.0169 33.2393C35.344 29.8245 38.0746 24.5546 38.0746 18.6102C38.0746 12.6658 35.29 7.38986 31.0169 3.98101C34.1557 1.49965 38.1226 0 42.4496 0C52.706 0 61 8.37759 61 18.6102Z" fill="#FE4E01"/>
<path d="M9.59503 50.5074V47.4183C9.59503 46.2366 8.8095 45.4628 7.461 45.4628C6.78675 45.4628 6.05359 45.6668 5.54954 46.3386C5.15677 45.7748 4.59381 45.4628 3.74936 45.4628C3.1864 45.4628 2.62343 45.6188 2.1783 46.1826V45.5648H1V50.5074H2.1783V47.7782C2.1783 46.9024 2.68235 46.4886 3.46788 46.4886C4.25341 46.4886 4.64618 46.9504 4.64618 47.7782V50.5074H5.82448V47.7782C5.82448 46.9024 6.38744 46.4886 7.11406 46.4886C7.89959 46.4886 8.29236 46.9504 8.29236 47.7782V50.5074H9.59503ZM27.0731 45.5648H25.1617V44.0712H23.9834V45.5648H22.9163V46.5425H23.9834V48.8099C23.9834 49.9436 24.4874 50.6094 25.8359 50.6094C26.34 50.6094 26.9029 50.4534 27.2957 50.2495L26.9553 49.3197C26.6149 49.5237 26.2221 49.5777 25.9406 49.5777C25.3777 49.5777 25.1551 49.2658 25.1551 48.7559V46.5425H27.0666V45.5648H27.0731ZM37.0756 45.4568C36.4013 45.4568 35.9496 45.7688 35.6681 46.1766V45.5588H34.4899V50.5014H35.6681V47.7182C35.6681 46.8964 36.0609 46.4286 36.7941 46.4286C37.0166 46.4286 37.2981 46.4826 37.5272 46.5305L37.8676 45.4988C37.632 45.4568 37.2981 45.4568 37.0756 45.4568ZM21.9606 45.9727C21.3976 45.6128 20.6121 45.4568 19.7677 45.4568C18.4192 45.4568 17.5224 46.0747 17.5224 47.0524C17.5224 47.8742 18.1966 48.342 19.3749 48.492L19.9379 48.546C20.5532 48.6479 20.8936 48.8039 20.8936 49.0618C20.8936 49.4217 20.4419 49.6796 19.6564 49.6796C18.8709 49.6796 18.249 49.4217 17.8562 49.1638L17.2932 49.9856C17.9086 50.3994 18.753 50.6034 19.5975 50.6034C21.1685 50.6034 22.0719 49.9316 22.0719 49.0078C22.0719 48.1321 21.3387 47.6702 20.2194 47.5143L19.6564 47.4603C19.1523 47.4063 18.7596 47.3043 18.7596 46.9984C18.7596 46.6385 19.1523 46.4346 19.7742 46.4346C20.4485 46.4346 21.1227 46.6925 21.4631 46.8484L21.9606 45.9727ZM53.3099 45.4568C52.6356 45.4568 52.184 45.7688 51.9025 46.1766V45.5588H50.7242V50.5014H51.9025V47.7182C51.9025 46.8964 52.2952 46.4286 53.0284 46.4286C53.251 46.4286 53.5325 46.4826 53.7616 46.5305L54.102 45.5108C53.8729 45.4568 53.539 45.4568 53.3099 45.4568ZM38.2539 48.0361C38.2539 49.5297 39.3798 50.6094 41.1211 50.6094C41.9066 50.6094 42.4695 50.4534 43.0325 50.0455L42.4695 49.1698C42.0179 49.4817 41.5727 49.6317 41.0621 49.6317C40.1064 49.6317 39.4322 49.0138 39.4322 48.0361C39.4322 47.1064 40.1064 46.4886 41.0621 46.4406C41.5662 46.4406 42.0179 46.5965 42.4695 46.9024L43.0325 46.0267C42.4695 45.6128 41.9066 45.4628 41.1211 45.4628C39.3798 45.4568 38.2539 46.5425 38.2539 48.0361ZM49.1531 48.0361V45.5648H47.9748V46.1826C47.5821 45.7208 47.0191 45.4628 46.2859 45.4628C44.7672 45.4628 43.5889 46.5425 43.5889 48.0361C43.5889 49.5297 44.7672 50.6094 46.2859 50.6094C47.0715 50.6094 47.6344 50.3514 47.9748 49.8896V50.5074H49.1531V48.0361ZM44.8261 48.0361C44.8261 47.1604 45.4415 46.4406 46.4561 46.4406C47.4119 46.4406 48.0861 47.1124 48.0861 48.0361C48.0861 48.9119 47.4119 49.6317 46.4561 49.6317C45.448 49.5777 44.8261 48.9059 44.8261 48.0361ZM30.7258 45.4568C29.1548 45.4568 28.0288 46.4886 28.0288 48.0301C28.0288 49.5777 29.1548 50.6034 30.7848 50.6034C31.5703 50.6034 32.3558 50.3994 32.9777 49.9316L32.4147 49.1578C31.9631 49.4697 31.4001 49.6736 30.8437 49.6736C30.1105 49.6736 29.3839 49.3617 29.2137 48.492H33.2003C33.2003 48.336 33.2003 48.2341 33.2003 48.0781C33.2526 46.4886 32.238 45.4568 30.7258 45.4568ZM30.7258 46.3866C31.459 46.3866 31.9631 46.8005 32.0743 47.5682H29.2661C29.3773 46.9024 29.8814 46.3866 30.7258 46.3866ZM60 48.0361V43.6094H58.8217V46.1826C58.4289 45.7208 57.866 45.4628 57.1328 45.4628C55.6141 45.4628 54.4358 46.5425 54.4358 48.0361C54.4358 49.5297 55.6141 50.6094 57.1328 50.6094C57.9183 50.6094 58.4813 50.3514 58.8217 49.8896V50.5074H60V48.0361ZM55.673 48.0361C55.673 47.1604 56.2884 46.4406 57.303 46.4406C58.2587 46.4406 58.933 47.1124 58.933 48.0361C58.933 48.9119 58.2587 49.6317 57.303 49.6317C56.2884 49.5777 55.673 48.9059 55.673 48.0361ZM16.2262 48.0361V45.5648H15.0479V46.1826C14.6552 45.7208 14.0922 45.4628 13.359 45.4628C11.8403 45.4628 10.662 46.5425 10.662 48.0361C10.662 49.5297 11.8403 50.6094 13.359 50.6094C14.1446 50.6094 14.7075 50.3514 15.0479 49.8896V50.5074H16.2262V48.0361ZM11.8469 48.0361C11.8469 47.1604 12.4622 46.4406 13.4769 46.4406C14.4326 46.4406 15.1068 47.1124 15.1068 48.0361C15.1068 48.9119 14.4326 49.6317 13.4769 49.6317C12.4622 49.5777 11.8469 48.9059 11.8469 48.0361Z" fill="#FE4E01"/>
</svg>
