<svg width="47" height="29" viewBox="0 0 47 29" fill="none" xmlns="http://www.w3.org/2000/svg">
<path d="M14.7896 0.11C18.1637 0.11 21.261 1.22968 23.7322 3.08811C20.3632 5.75291 18.1736 9.83531 18.1736 14.4298C18.1736 19.0232 20.3576 23.1422 23.7313 25.7722C21.2602 27.6302 18.1633 28.7496 14.7896 28.7496C6.67283 28.7496 0.11 22.3426 0.11 14.4298C0.11 6.51702 6.67283 0.11 14.7896 0.11Z" stroke="#787889" stroke-width="0.22"/>
<path d="M46.8898 14.4298C46.8898 22.3463 40.5514 28.7496 32.7202 28.7496C29.4639 28.7496 26.4745 27.6304 24.0889 25.772C27.3836 23.1018 29.4567 19.0231 29.4567 14.4298C29.4567 9.83609 27.3426 5.75334 24.0882 3.088C26.4694 1.22946 29.459 0.11 32.7156 0.11C40.5513 0.11 46.8898 6.55523 46.8898 14.4298Z" stroke="#787889" stroke-width="0.22"/>
</svg>
