<svg width="60" height="21" viewBox="0 0 60 21" fill="none" xmlns="http://www.w3.org/2000/svg">
<path d="M0.000976562 20.3495V0.0185368H10.4708C11.7535 -0.00523304 13.0347 0.116594 14.2889 0.381541C15.1985 0.562789 16.0469 0.965476 16.7558 1.55245C17.3959 2.13535 17.8546 2.8836 18.079 3.71085C18.3687 4.78787 18.5029 5.89932 18.4776 7.0128C18.5037 8.12119 18.3696 9.22763 18.079 10.2992C17.8515 11.1206 17.393 11.8631 16.7558 12.4419C16.0457 13.0271 15.1978 13.4296 14.2889 13.6129C13.0347 13.8778 11.7535 13.9996 10.4708 13.9758H5.56068V20.3417L0.000976562 20.3495ZM5.54472 4.05822V9.94009H10.5625C11.5708 9.94009 12.2642 9.73714 12.6429 9.32342C13.0215 8.9097 13.2128 8.1525 13.2128 7.01671C13.2128 5.88093 13.0215 5.11593 12.6429 4.67489C12.2642 4.23384 11.5708 4.03869 10.5625 4.03869L5.54472 4.05822Z" fill="#F6F9FC"/>
<path d="M22.946 3.51547V0.00273678H29.0756C30.4637 -0.0193017 31.8506 0.0918051 33.2165 0.334486C34.1764 0.494065 35.0931 0.843324 35.9107 1.36099C36.5606 1.79013 37.0655 2.39875 37.3614 3.10954C37.6673 3.91963 37.8133 4.77919 37.7919 5.64261V13.9678H25.963C25.1393 13.9857 24.3169 13.8992 23.5159 13.7102C22.9401 13.5794 22.4061 13.3113 21.9616 12.9296C21.5602 12.5596 21.2765 12.0838 21.1446 11.5596C20.978 10.8984 20.9003 10.2187 20.9134 9.53784C20.8964 8.87993 20.9742 8.22295 21.1446 7.58632C21.2811 7.1028 21.5664 6.67222 21.9616 6.35299C22.4167 6.01093 22.9503 5.7831 23.5159 5.68945C24.3227 5.54288 25.1425 5.47619 25.963 5.49039H32.834V5.37333C32.8403 5.08368 32.7874 4.79571 32.6785 4.52635C32.5595 4.26892 32.3522 4.06041 32.0926 3.93699C31.7152 3.7632 31.3113 3.65114 30.897 3.60524C30.2226 3.52604 29.5436 3.49083 28.8644 3.49985L22.946 3.51547ZM32.834 10.7868V8.19131H27.1029C26.717 8.14912 26.3287 8.24625 26.0108 8.4645C25.8994 8.59823 25.8163 8.75237 25.7663 8.91789C25.7164 9.08341 25.7006 9.25698 25.7199 9.42854C25.6797 9.80302 25.7835 10.1788 26.0108 10.4824C26.1635 10.6009 26.3385 10.6888 26.5259 10.7411C26.7133 10.7933 26.9093 10.8088 27.1029 10.7868H32.834Z" fill="#F6F9FC"/>
<path d="M42.1044 16.5157C42.5935 16.5192 43.0823 16.4892 43.5671 16.426C43.9598 16.3711 44.3432 16.2648 44.707 16.1099C45.0537 15.9523 45.3674 15.7325 45.6316 15.4619C45.948 15.1271 46.2161 14.7516 46.4287 14.3457L38.665 0.0175781H44.3044L48.9515 9.33804L53.6026 0.0175781H59.1822L50.8127 15.8522C50.4323 16.5829 49.9783 17.2745 49.4577 17.9169C48.9905 18.4875 48.4154 18.9646 47.7638 19.3221C47.0323 19.7046 46.2422 19.9683 45.4244 20.1027C44.335 20.2775 43.2322 20.3585 42.1284 20.3446H40.0041V16.5118L42.1044 16.5157Z" fill="#F6F9FC"/>
</svg>
