<svg width="77" height="21" viewBox="0 0 77 21" fill="none" xmlns="http://www.w3.org/2000/svg">
<path d="M0 20.3495V0.018482H10.4738C11.7565 -0.00504292 13.0377 0.116781 14.2919 0.381486C15.2007 0.561904 16.048 0.964725 16.7549 1.5524C17.3974 2.13398 17.8577 2.8826 18.0821 3.71079C18.3697 4.78819 18.5039 5.89936 18.4806 7.01275C18.5048 8.12104 18.3706 9.22721 18.0821 10.2991C17.8548 11.1216 17.3947 11.8644 16.7549 12.4419C16.0471 13.0281 15.2001 13.4308 14.2919 13.6128C13.0377 13.8775 11.7565 13.9993 10.4738 13.9758H5.5438V20.3416L0 20.3495ZM5.5438 4.05817V9.94003H10.5655C11.5698 9.94003 12.2633 9.73709 12.6459 9.32337C13.0285 8.90964 13.2158 8.15244 13.2158 7.01666C13.2158 5.88087 13.0245 5.11587 12.6459 4.67483C12.2673 4.23379 11.5698 4.03863 10.5655 4.03863L5.5438 4.05817Z" fill="#F6F9FC"/>
<path d="M22.9491 3.51551V0.00277218H29.0748C30.4641 -0.0194213 31.8524 0.0916857 33.2197 0.334521C34.1795 0.4941 35.0962 0.843359 35.9138 1.36102C36.5635 1.78933 37.0674 2.39833 37.3606 3.10958C37.6664 3.91967 37.8124 4.77923 37.791 5.64265V13.9678H25.9661C25.1425 13.9858 24.32 13.8992 23.519 13.7103C22.9418 13.5801 22.4064 13.3119 21.9607 12.9296C21.5666 12.5571 21.29 12.0816 21.1636 11.5597C20.999 10.8981 20.9214 10.2187 20.9325 9.53788C20.9175 8.88005 20.9953 8.22335 21.1636 7.58635C21.2948 7.1053 21.5729 6.67501 21.9607 6.35303C22.4173 6.01093 22.9522 5.78314 23.519 5.68948C24.3259 5.54291 25.1457 5.47622 25.9661 5.49042H32.8331V5.37336C32.8387 5.08413 32.7873 4.79653 32.6816 4.52638C32.5626 4.26896 32.3553 4.06045 32.0958 3.93702C31.7182 3.76369 31.3144 3.65165 30.9001 3.60527C30.2258 3.52584 29.5467 3.49062 28.8675 3.49988L22.9491 3.51551ZM32.8331 10.7869V8.19135H27.106C26.7188 8.14818 26.3289 8.24536 26.01 8.46454C25.8985 8.59826 25.8154 8.7524 25.7654 8.91792C25.7155 9.08344 25.6997 9.25702 25.719 9.42858C25.6789 9.80306 25.7826 10.1788 26.01 10.4824C26.3199 10.7216 26.7139 10.8311 27.106 10.7869H32.8331Z" fill="#F6F9FC"/>
<path d="M42.1034 16.5157C42.5925 16.5193 43.0813 16.4893 43.5661 16.426C43.9589 16.3716 44.3424 16.2653 44.706 16.1099C45.0533 15.9532 45.3671 15.7333 45.6306 15.4619C45.9482 15.1281 46.2165 14.7524 46.4277 14.3457L38.668 0.0175781H44.3034L48.9544 9.33804L53.6055 0.0175781H59.1851L50.8157 15.8522C50.4323 16.5812 49.9785 17.2726 49.4606 17.9169C48.9916 18.4858 48.4169 18.9626 47.7668 19.3221C47.0341 19.7052 46.2426 19.9689 45.4233 20.1027C44.334 20.2777 43.2311 20.3586 42.1273 20.3446H40.0031V16.5118L42.1034 16.5157Z" fill="#F6F9FC"/>
<path d="M69.3912 3.66696H60.8623V0.0175781H76.2303V3.36642L67.7293 10.1538H76.2303V13.9827H60.8623V10.2709L69.3912 3.66696Z" fill="#F6F9FC"/>
</svg>
