<svg width="201" height="50" viewBox="0 0 201 50" fill="none" xmlns="http://www.w3.org/2000/svg">
<g clip-path="url(#clip0_23_521)">
<path d="M172.272 39.7706C172.268 42.4826 171.188 45.0824 169.269 47C167.35 48.9176 164.748 49.9966 162.034 50.0002H135.233V46.3137H162.034C163.77 46.3137 165.436 45.6243 166.664 44.3973C167.892 43.1702 168.582 41.506 168.582 39.7706C168.582 38.0353 167.892 36.371 166.664 35.144C165.436 33.9169 163.77 33.2275 162.034 33.2275H139.158V37.9204H162.158V41.6001H135.458V29.5341H162.03C163.767 29.5341 165.433 28.8447 166.661 27.6176C167.889 26.3906 168.579 24.7263 168.579 22.991C168.579 21.2557 167.889 19.5914 166.661 18.3643C165.433 17.1373 163.767 16.4479 162.03 16.4479H139.158V21.1477H162.158V24.8343H135.458V12.751H162.03C164.209 12.7523 166.331 13.448 168.088 14.7371C169.844 16.0262 171.143 17.8414 171.796 19.9188C172.448 21.9962 172.421 24.2275 171.717 26.2882C171.014 28.349 169.671 30.1318 167.883 31.3773C169.238 32.3192 170.344 33.5743 171.108 35.0358C171.873 36.4973 172.272 38.1217 172.272 39.7706Z" fill="#FE4E01"/>
<path d="M201 12.9478H174.729V0H201V12.9478ZM175.453 12.2251H200.277V0.722782H175.453V12.2251Z" fill="#FE4E01"/>
<path d="M180.52 9.38956V3.65225H182.617C183.132 3.63012 183.636 3.80584 184.026 4.14334C184.197 4.30704 184.334 4.50375 184.427 4.72159C184.52 4.93944 184.568 5.17389 184.568 5.4108C184.568 5.64772 184.52 5.88217 184.427 6.10001C184.334 6.31786 184.197 6.51456 184.026 6.67826C183.639 7.01805 183.135 7.19524 182.62 7.17281H181.447V9.38956H180.52ZM181.444 6.35664H182.6C182.872 6.37408 183.141 6.28336 183.347 6.10418C183.439 6.01502 183.511 5.9071 183.558 5.78775C183.604 5.6684 183.625 5.54042 183.617 5.41252C183.624 5.28473 183.603 5.15702 183.556 5.03781C183.51 4.91859 183.439 4.81057 183.347 4.72087C183.142 4.54044 182.873 4.44847 182.6 4.46496H181.444V6.35664Z" fill="#FE4E01"/>
<path d="M189.187 9.38927L188.779 8.43479H186.193L185.785 9.38927H184.802L187.335 3.55859H187.647L190.18 9.38927H189.187ZM188.446 7.64284L187.491 5.28774L186.525 7.66012L188.446 7.64284Z" fill="#FE4E01"/>
<path d="M195.209 3.65234L193.226 7.07951V9.38965H192.302V7.07951L190.318 3.65234H191.357L192.776 6.14923L194.205 3.65234H195.209Z" fill="#FE4E01"/>
<path d="M0 49.9969V13.415H14.3675C18.4725 13.415 21.8565 14.5678 24.5193 16.8733C27.1821 19.1789 28.5112 22.221 28.5066 25.9998C28.5066 29.6886 27.1567 32.7181 24.457 35.0882C21.7572 37.4582 18.3918 38.641 14.3606 38.6364H9.5149V49.9969H0ZM9.53912 30.3226H14.4229C15.0075 30.3509 15.5918 30.2596 16.1399 30.0545C16.688 29.8493 17.1885 29.5346 17.6107 29.1295C18.0129 28.7168 18.3263 28.2262 18.5316 27.688C18.737 27.1498 18.83 26.5752 18.8048 25.9998C18.8319 25.4267 18.7398 24.8542 18.5343 24.3185C18.3287 23.7828 18.0142 23.2955 17.6107 22.8873C17.1838 22.4909 16.6818 22.1839 16.1343 21.9844C15.5869 21.7848 15.005 21.6967 14.4229 21.7253H9.53912V30.3226Z" fill="#0D0D16"/>
<path d="M31.9336 49.9969V13.415H41.4762V41.4065H56.619V49.9969H31.9336Z" fill="#0D0D16"/>
<path d="M85.8209 49.9968L84.4918 46.95H71.3391L70.01 49.9968H59.751L76.3925 12.751H79.4419L96.0834 49.9968H85.8209ZM81.1171 39.3003L77.9535 30.8206L74.7381 39.3003H81.1171Z" fill="#0D0D16"/>
<path d="M121.866 12.751H131.408V50.0002H128.356L108.495 31.4292V49.9968H98.9561V12.751H102.005L121.866 31.7059V12.751Z" fill="#0D0D16"/>
</g>
<defs>
<clipPath id="clip0_23_521">
<rect width="201" height="50" fill="white"/>
</clipPath>
</defs>
</svg>
