<svg width="46" height="15" viewBox="0 0 46 15" fill="none" xmlns="http://www.w3.org/2000/svg">
<path d="M36.5793 1.47135L40.4092 0.820857V14.8451H36.5793V1.47135ZM42.17 1.47135V14.8374H46V0.820857L42.17 1.47135ZM31.1346 14.8374H34.9645V4.58441H31.1346V14.8374ZM5.82607 6.03252C5.33921 6.00155 4.21944 5.93185 4.21944 4.97161C4.21944 3.81002 5.83419 3.81002 6.43464 3.81002C7.49762 3.81002 8.87705 4.11203 9.85888 4.39081C9.85888 4.39081 10.4107 4.57666 10.8732 4.76252L10.9137 4.77026V1.59525L10.8569 1.57976C9.6966 1.19257 8.34962 0.820857 5.8423 0.820857C1.52549 0.820857 0 3.22148 0 5.27362C0 6.45844 0.535544 9.24626 5.47716 9.5715C5.8991 9.59473 7.01076 9.65669 7.01076 10.6557C7.01076 11.4765 6.10196 11.9644 4.56835 11.9644C2.88869 11.9644 1.26583 11.5539 0.275886 11.1668V14.4424C1.75269 14.8141 3.42424 15 5.37979 15C9.59922 15 11.4899 12.731 11.4899 10.4775C11.4899 7.92204 9.38014 6.26484 5.82607 6.03252ZM28.9762 4.43727C25.4384 4.54569 23.6451 6.0635 23.6451 9.07589V14.8451H27.5075V10.1368C27.5075 8.33247 27.7509 7.55808 29.9986 7.48838V4.48374C29.6091 4.41404 28.9762 4.43727 28.9762 4.43727ZM18.5899 4.57666C18.5087 4.77801 17.892 6.43521 16.4071 8.14662V0.820857L12.4555 1.56427V14.8374H16.4071V10.7331C17.5512 12.3748 18.1192 14.8374 18.1192 14.8374H22.8499C22.3793 12.9788 20.3345 9.55602 20.3345 9.55602C22.1683 7.33351 22.9797 4.96386 23.1095 4.56892H18.5899V4.57666ZM33.0415 3.60093C34.0801 3.60093 34.9321 2.79556 34.9321 1.80434C34.9321 0.813113 34.0882 0 33.0415 0C32.0028 0 31.1589 0.805369 31.1589 1.80434C31.1589 2.79556 32.0028 3.60093 33.0415 3.60093Z" fill="#FE4E01"/>
</svg>
