<svg width="46" height="15" viewBox="0 0 46 15" fill="none" xmlns="http://www.w3.org/2000/svg">
<path d="M9.89401 4.28657L9.89404 4.28644L9.88893 4.28499C8.90447 4.00547 7.5132 3.70002 6.43464 3.70002H6.43045C6.13119 3.70001 5.56433 3.70001 5.06994 3.84995C4.82081 3.92551 4.58112 4.04164 4.40273 4.2229C4.22154 4.407 4.10944 4.65259 4.10944 4.97161C4.10944 5.2348 4.1868 5.44368 4.3158 5.60645C4.44347 5.76752 4.61636 5.87681 4.79805 5.95215C5.15475 6.10007 5.56985 6.12646 5.81175 6.14184L5.8189 6.14229C5.81895 6.14229 5.81901 6.1423 5.81906 6.1423C7.58209 6.25757 8.97411 6.72563 9.92282 7.47037C10.8682 8.21248 11.3799 9.23388 11.3799 10.4775C11.3799 11.5725 10.921 12.6723 9.94593 13.5C8.97029 14.3281 7.47013 14.89 5.37979 14.89C3.46785 14.89 1.83166 14.7117 0.385886 14.3564V11.3263C1.39531 11.6997 2.9551 12.0744 4.56835 12.0744C5.34429 12.0744 5.97535 11.9514 6.41663 11.7148C6.86244 11.4758 7.12076 11.1157 7.12076 10.6557C7.12076 10.3841 7.04468 10.1691 6.91823 10.0018C6.79283 9.83581 6.62315 9.72353 6.44592 9.64674C6.09669 9.49543 5.69674 9.47342 5.48679 9.46187L5.48438 9.46174C5.48417 9.46173 5.48396 9.46171 5.48375 9.4617C3.03386 9.30034 1.69635 8.53047 0.969346 7.67373C0.240667 6.81501 0.11 5.85113 0.11 5.27362C0.11 4.27451 0.481164 3.19176 1.37727 2.35823C2.27306 1.52498 3.70431 0.930857 5.8423 0.930857C8.32242 0.930857 9.65658 1.29601 10.8037 1.67798V4.6167C10.6028 4.53814 10.3952 4.46235 10.2295 4.40334C10.1312 4.36835 10.0474 4.33919 9.98818 4.31876L9.91895 4.29503L9.90047 4.28875L9.89567 4.28713L9.89444 4.28671L9.89412 4.28661L9.89403 4.28658L9.89401 4.28657ZM28.9796 4.54722L28.9802 4.5472L28.9803 4.5472L28.9806 4.54719L28.9818 4.54714L28.9869 4.54697L29.0072 4.54637C29.0249 4.54588 29.0507 4.54525 29.083 4.54472C29.1476 4.54364 29.2377 4.54293 29.3398 4.54436C29.5137 4.5468 29.7177 4.55545 29.8886 4.57806V7.38233C28.8245 7.42717 28.1867 7.63969 27.8242 8.09345C27.638 8.32657 27.5322 8.61415 27.4723 8.95242C27.4126 9.28984 27.3975 9.68461 27.3975 10.1368V14.7351H23.7551V9.07589C23.7551 7.59241 24.1957 6.49411 25.0559 5.75082C25.9196 5.00447 27.2233 4.60104 28.9796 4.54722ZM18.6677 4.67892H22.9562C22.7294 5.3317 21.9127 7.47039 20.2496 9.48601L20.2002 9.54584L20.24 9.61243L20.3345 9.55602L20.24 9.61246L20.2401 9.61256L20.2404 9.613L20.2414 9.61481L20.2458 9.6221L20.2628 9.6509C20.2778 9.67627 20.3 9.71379 20.3283 9.76223C20.3849 9.85912 20.4664 9.99971 20.5657 10.1743C20.7643 10.5234 21.034 11.0082 21.3182 11.5508C21.8607 12.5862 22.4507 13.8217 22.7065 14.7274H18.2058C18.2037 14.7193 18.2016 14.7107 18.1993 14.7015C18.1813 14.6302 18.1544 14.5267 18.1186 14.3976C18.047 14.1393 17.9396 13.7779 17.7961 13.3648C17.5099 12.5403 17.0779 11.5032 16.4974 10.6702L16.2971 10.3829V10.7331V14.7274H12.5655V1.65551L16.2971 0.953481V8.14662V8.44124L16.4902 8.21871C17.8863 6.60973 18.5216 5.04799 18.6677 4.67892ZM36.6893 14.7351V1.56424L40.2992 0.951115V14.7351H36.6893ZM45.89 14.7274H42.28V1.56424L45.89 0.951115V14.7274ZM34.8545 4.69441V14.7274H31.2446V4.69441H34.8545ZM34.8221 1.80434C34.8221 2.72942 34.0249 3.49093 33.0415 3.49093C32.0587 3.49093 31.2689 2.73002 31.2689 1.80434C31.2689 0.870606 32.059 0.11 33.0415 0.11C34.032 0.11 34.8221 0.878351 34.8221 1.80434Z" stroke="#787889" stroke-width="0.22"/>
</svg>
