<svg width="46" height="15" viewBox="0 0 46 15" fill="none" xmlns="http://www.w3.org/2000/svg">
<path d="M22.368 14.1269L22.9921 11.1855C23.0341 11.2079 23.0855 11.2346 23.1457 11.2644C23.3295 11.3555 23.596 11.4766 23.9291 11.5976C24.5947 11.8394 25.5284 12.0818 26.5985 12.0818C27.3568 12.0818 27.968 11.9074 28.3934 11.6263C28.8192 11.3449 29.0631 10.952 29.0631 10.5246C29.0631 10.0123 28.6962 9.62788 28.2067 9.29022C27.8822 9.06631 27.4828 8.84962 27.065 8.62295C26.8521 8.50743 26.6344 8.38931 26.4194 8.26632C25.1273 7.52722 23.8865 6.59057 23.8865 4.85166C23.8865 3.31649 24.5963 2.13546 25.7084 1.33464C26.8236 0.531622 28.3459 0.11 29.9615 0.11C30.9963 0.11 31.8808 0.269325 32.5063 0.428596C32.819 0.508207 33.0666 0.587728 33.2356 0.647145C33.3087 0.67283 33.3671 0.694751 33.4096 0.711288L32.7985 3.55353C32.7652 3.53856 32.7258 3.52127 32.6807 3.50217C32.5241 3.43591 32.2982 3.34782 32.0196 3.2598C31.463 3.08394 30.6929 2.90737 29.8428 2.90737C29.0873 2.90737 28.5159 3.07446 28.1298 3.3279C27.744 3.58117 27.5382 3.92553 27.5382 4.27098C27.5382 4.75444 27.912 5.11407 28.4001 5.43358C28.6483 5.59599 28.9364 5.75457 29.2409 5.91796C29.3001 5.94973 29.3599 5.98168 29.4203 6.01391C29.6717 6.14815 29.9319 6.28713 30.1924 6.43701C31.4863 7.1815 32.7364 8.16732 32.7364 10.0109C32.7364 11.5753 32.0517 12.7903 30.9297 13.6175C29.8045 14.4472 28.2341 14.89 26.4655 14.89C25.2728 14.89 24.2265 14.6902 23.4784 14.4903C23.1045 14.3904 22.8054 14.2906 22.6003 14.2159C22.4993 14.1791 22.4211 14.1485 22.368 14.1269ZM17.3062 0.341549L11.3583 14.6512H7.59673L4.69361 3.38802C4.69361 3.388 4.6936 3.38797 4.69359 3.38794C4.56067 2.86948 4.4602 2.49557 4.17771 2.18457C3.89706 1.87558 3.44754 1.63937 2.65124 1.34995C2.02653 1.09526 1.36909 0.904588 0.868789 0.777678C0.618108 0.714088 0.406288 0.666361 0.256995 0.634502C0.20586 0.62359 0.162045 0.614537 0.126502 0.607343L0.171894 0.341549H6.31439C7.16559 0.341549 7.85057 0.853446 7.9869 1.75309L7.98682 1.75311L7.98757 1.75705L9.57111 10.1308L9.64203 10.5058L9.78158 10.1506L13.6348 0.341549H17.3062ZM38.2217 1.60503L38.2217 1.60493C38.3932 1.18952 38.5911 0.875308 38.8467 0.66456C39.0994 0.456121 39.4175 0.341549 39.8456 0.341549H42.8998L45.8649 14.6512H42.6383L42.1964 12.539L42.1781 12.4515H42.0888H37.3238H37.2453L37.2198 12.5257L36.4886 14.6512H32.8204L38.2217 1.60503ZM40.4618 4.13414L40.3811 3.75457L40.2507 4.12003L38.304 9.57228L38.2516 9.71926H38.4076H41.5136H41.6494L41.6212 9.58638L40.4618 4.13414ZM22.6272 0.341549L19.616 14.6512H16.1113L19.133 0.341549H22.6272Z" stroke="#787889" stroke-width="0.22"/>
</svg>
