<svg width="52" height="17" viewBox="0 0 52 17" fill="none" xmlns="http://www.w3.org/2000/svg">
<path d="M33.8695 0C30.1773 0 26.8778 1.93096 26.8778 5.49855C26.8778 9.58991 32.7296 9.8725 32.7296 11.9279C32.7296 12.7933 31.7467 13.568 30.0678 13.568C27.6853 13.568 25.9045 12.4855 25.9045 12.4855L25.1425 16.0856C25.1425 16.0856 27.1939 17 29.9175 17C33.9542 17 37.1307 14.9742 37.1307 11.3456C37.1307 7.02238 31.2545 6.74819 31.2545 4.84045C31.2545 4.1625 32.0614 3.41968 33.7354 3.41968C35.6242 3.41968 37.1652 4.20695 37.1652 4.20695L37.9109 0.72986C37.9109 0.72986 36.2341 0 33.8695 0ZM0.0894029 0.262422L0 0.787265C0 0.787265 1.55332 1.0741 2.95233 1.64629C4.75367 2.30241 4.88199 2.68437 5.18537 3.87072L8.49125 16.7294H12.9228L19.7499 0.262422H15.3285L10.9417 11.4584L9.15161 1.96816C8.98744 0.882013 8.15588 0.262422 7.13801 0.262422H0.0894029ZM21.5278 0.262422L18.0594 16.7294H22.2756L25.7318 0.262422H21.5278ZM45.0428 0.262422C44.0262 0.262422 43.4875 0.811626 43.0922 1.77135L36.9153 16.7294H41.3367L42.1921 14.2364H47.5786L48.0988 16.7294H52L48.5966 0.262422H45.0428ZM45.6179 4.71129L46.9284 10.8905H43.4173L45.6179 4.71129Z" fill="#FE4E01"/>
</svg>
