<svg xmlns="http://www.w3.org/2000/svg" width="43" height="43" viewBox="0 0 43 43" fill="none"><path d="M36.5021 7.16791C35.9687 6.71561 35.131 6.6509 34.2648 6.99865H34.2633C33.3523 7.36419 8.476 18.0344 7.4633 18.4704C7.27911 18.5344 5.67047 19.1346 5.83617 20.4716C5.98409 21.677 7.27698 22.1762 7.43486 22.2338L13.7592 24.3993C14.1788 25.796 15.7256 30.9491 16.0676 32.05C16.281 32.7362 16.6287 33.638 17.2382 33.8236C17.773 34.0298 18.3049 33.8414 18.6491 33.5711L22.5157 29.9847L28.7576 34.8526L28.9062 34.9415C29.33 35.1293 29.7361 35.2231 30.1237 35.2231C30.4231 35.2231 30.7104 35.167 30.9849 35.0546C31.9201 34.6706 32.2941 33.7795 32.3333 33.6785L36.9956 9.44433C37.2801 8.15002 36.8847 7.49149 36.5021 7.16791ZM19.3368 25.2655L17.2033 30.9548L15.0699 23.8432L31.4265 11.7535L19.3368 25.2655Z" fill="#e6204d"></path></svg>