<svg width="517" height="517" viewBox="0 0 517 517" fill="none" xmlns="http://www.w3.org/2000/svg">
<path d="M248.5 63H195.85C192.619 63 190 65.6191 190 68.85V130" stroke="url(#paint0_linear_0_1)" stroke-width="1.46"/>
<path d="M147.5 295H110.75H79.85C76.6191 295 74 297.619 74 300.85V322V366.5V510.15C74 513.381 71.3809 516 68.15 516H0" stroke="url(#paint1_linear_0_1)" stroke-width="1.46"/>
<path d="M74 202V246.5L74 267.65C74 270.881 76.6191 273.5 79.85 273.5H110.75H147.5" stroke="url(#paint2_linear_0_1)" stroke-width="1.46"/>
<path d="M170 126V68.85C170 65.6191 167.381 63 164.15 63H119.343H9" stroke="url(#paint3_linear_0_1)" stroke-width="1.46"/>
<path d="M353 212H393.65C396.881 212 399.5 209.381 399.5 206.15V162.85C399.5 159.619 402.119 157 405.35 157H406.15C409.381 157 412 154.381 412 151.15V111.5" stroke="url(#paint4_linear_0_1)" stroke-width="1.46"/>
<path d="M180 127V0.5" stroke="url(#paint5_linear_0_1)" stroke-width="1.46"/>
<path d="M186 339L186 354" stroke="url(#paint6_linear_0_1)" stroke-width="1.46"/>
<path d="M186 336L186 469" stroke="url(#paint7_linear_0_1)" stroke-width="1.46"/>
<path d="M298 339L298 354" stroke="url(#paint8_linear_0_1)" stroke-width="1.46"/>
<path d="M137 284L12 284" stroke="url(#paint9_linear_0_1)" stroke-width="1.46"/>
<path d="M351 222L403.65 222C406.881 222 409.5 219.381 409.5 216.15V172.85C409.5 169.619 412.119 167 415.35 167L507 167" stroke="url(#paint10_linear_0_1)" stroke-width="1.46"/>
<path d="M345 231.5H377.25H403.65C406.881 231.5 409.5 234.119 409.5 237.35V467V509.15C409.5 512.381 412.119 515 415.35 515H487.5" stroke="url(#paint11_linear_0_1)" stroke-width="1.46"/>
<defs>
<linearGradient id="paint0_linear_0_1" x1="233.75" y1="63" x2="220.5" y2="158.5" gradientUnits="userSpaceOnUse">
<stop stop-color="#FE4E01"/>
<stop offset="1" stop-color="#B93BE4"/>
</linearGradient>
<linearGradient id="paint1_linear_0_1" x1="39.5" y1="357.5" x2="226" y2="264" gradientUnits="userSpaceOnUse">
<stop stop-color="#FE4E01"/>
<stop offset="1" stop-color="#B822FF"/>
</linearGradient>
<linearGradient id="paint2_linear_0_1" x1="71" y1="213" x2="220.5" y2="307" gradientUnits="userSpaceOnUse">
<stop stop-color="#FE4E01"/>
<stop offset="1" stop-color="#B822FF"/>
</linearGradient>
<linearGradient id="paint3_linear_0_1" x1="90.0016" y1="63" x2="90.0016" y2="126" gradientUnits="userSpaceOnUse">
<stop stop-color="#FE4E01"/>
<stop offset="1" stop-color="#B822FF"/>
</linearGradient>
<linearGradient id="paint4_linear_0_1" x1="382.5" y1="111.5" x2="316.5" y2="239.5" gradientUnits="userSpaceOnUse">
<stop stop-color="#FE4E01"/>
<stop offset="1" stop-color="#B822FF"/>
</linearGradient>
<linearGradient id="paint5_linear_0_1" x1="180.5" y1="0.5" x2="180.5" y2="127" gradientUnits="userSpaceOnUse">
<stop stop-color="#FE4E01"/>
<stop offset="1" stop-color="#B93BE4"/>
</linearGradient>
<linearGradient id="paint6_linear_0_1" x1="185.5" y1="354" x2="185.5" y2="339" gradientUnits="userSpaceOnUse">
<stop stop-color="#FE4E01"/>
<stop offset="1" stop-color="#B93BE4"/>
</linearGradient>
<linearGradient id="paint7_linear_0_1" x1="185.5" y1="469" x2="185.5" y2="336" gradientUnits="userSpaceOnUse">
<stop stop-color="#FE4E01"/>
<stop offset="1" stop-color="#B93BE4"/>
</linearGradient>
<linearGradient id="paint8_linear_0_1" x1="297.5" y1="354" x2="297.5" y2="339" gradientUnits="userSpaceOnUse">
<stop stop-color="#FE4E01"/>
<stop offset="1" stop-color="#B93BE4"/>
</linearGradient>
<linearGradient id="paint9_linear_0_1" x1="12" y1="283.5" x2="137" y2="283.5" gradientUnits="userSpaceOnUse">
<stop stop-color="#FE4E01"/>
<stop offset="1" stop-color="#B93BE4"/>
</linearGradient>
<linearGradient id="paint10_linear_0_1" x1="348.214" y1="218.667" x2="621.393" y2="162.478" gradientUnits="userSpaceOnUse">
<stop stop-color="#FE4E01"/>
<stop offset="1" stop-color="#B822FF"/>
</linearGradient>
<linearGradient id="paint11_linear_0_1" x1="380.5" y1="232" x2="584.5" y2="617" gradientUnits="userSpaceOnUse">
<stop stop-color="#FE4E01"/>
<stop offset="1" stop-color="#B822FF"/>
</linearGradient>
</defs>
</svg>
