<svg width="189" height="60" viewBox="0 0 189 60" fill="none" xmlns="http://www.w3.org/2000/svg">
<path d="M95.1979 22.2172L93.4423 20.4649C92.8213 19.845 91.8181 19.845 91.1971 20.4649L89.3102 22.3483L84.7123 26.9376C84.6168 27.0329 84.5571 27.1641 84.5451 27.2952L84.0794 30.8713C84.0555 31.062 84.1152 31.2646 84.2466 31.3957C84.3541 31.503 84.5332 31.5865 84.6765 31.5865C84.7004 31.5865 84.7362 31.5865 84.7482 31.5865L88.3309 31.1216C88.4623 31.0977 88.5937 31.0501 88.6892 30.9547L95.174 24.482C95.8189 23.8383 95.8189 22.8489 95.1979 22.2172ZM87.9846 29.8938L85.4169 30.2276L85.7513 27.6647L89.7401 23.6834L91.9614 25.9005L87.9846 29.8938ZM94.3141 23.5761L92.8691 25.0184L90.6358 22.8013L92.0809 21.3589C92.1406 21.2993 92.2361 21.2635 92.3078 21.2635C92.4033 21.2635 92.475 21.2993 92.5347 21.3589L94.2902 23.1112C94.4455 23.2423 94.4455 23.4449 94.3141 23.5761Z" fill="white"/>
<path d="M94.4371 29.6906C94.0654 29.6906 93.7469 30.0092 93.7469 30.3809V33.54C93.7469 34.3364 93.0965 34.9602 92.3266 34.9602H85.1456H81.8273C81.0308 34.9602 80.407 34.3098 80.407 33.54V30.2349V23.0539C80.407 22.2575 81.0574 21.6336 81.8273 21.6336H84.9864C85.358 21.6336 85.6766 21.3151 85.6766 20.9434C85.6766 20.5717 85.358 20.2532 84.9864 20.2532H81.8273C80.2743 20.2532 79 21.5142 79 23.0804V30.2614V33.5665C79 35.1195 80.261 36.3938 81.8273 36.3938H85.1456H92.3266C93.8796 36.3938 95.1539 35.1328 95.1539 33.5665V30.3809C95.1539 30.0092 94.8353 29.6906 94.4371 29.6906Z" stroke="white" stroke-width="0.869907" stroke-miterlimit="10"/>
<path d="M8.23441 29.8578V28.3414H14.5494V36H13.2058L12.9754 34.2917C11.7086 35.5969 9.92352 36.3071 7.81213 36.3071C3.35902 36.3071 0.499055 33.14 0.499055 28.2263C0.499055 25.731 1.24764 23.6388 2.64883 22.1992C3.95405 20.8748 5.77752 20.1454 7.81213 20.1454C10.9408 20.1454 13.4553 21.7002 14.5494 25.1552H12.8987C11.9965 22.6983 9.84674 21.7193 7.81213 21.7193C4.99055 21.7193 2.073 23.5428 2.073 28.2263C2.073 33.0824 5.20169 34.7332 7.81213 34.7332C9.90432 34.7332 12.9754 33.8694 12.9754 29.8578H8.23441ZM25.4298 31.5469H18.5774L16.9842 36H15.3335L21.1494 20.4717H22.8961L28.712 36H27.0229L25.4298 31.5469ZM22.0132 21.9305L19.134 30.0305H24.8923L22.0132 21.9305ZM39.5018 30.2609V20.4525H41.095V29.973C41.095 32.1611 40.3464 36.3071 34.9719 36.3071C29.6167 36.3071 28.8681 32.1611 28.8681 29.973V20.4525H30.4421V30.2609C30.4421 33.0249 31.9584 34.7332 34.9719 34.7332C38.0047 34.7332 39.5018 33.0057 39.5018 30.2609ZM44.3684 24.3106C44.3684 28.9173 53.6585 25.4623 53.6585 31.7388C53.6585 33.7543 52.2189 36.3263 48.0345 36.3263C44.3108 36.3263 42.4105 33.6583 42.4105 31.3933H43.9845C43.9845 33.0249 45.5392 34.7524 48.188 34.7524C51.048 34.7524 52.1037 33.1784 52.1037 31.5469C52.1037 27.1706 42.7944 30.6064 42.7944 24.253C42.7944 21.9689 44.6563 20.1646 47.9577 20.1646C51.048 20.1646 52.9675 22.0648 52.9675 24.7329H51.3935C51.3935 23.0246 50.1075 21.7385 47.9577 21.7385C45.8463 21.7385 44.3684 22.6215 44.3684 24.3106ZM56.5336 24.3106C56.5336 28.9173 65.8237 25.4623 65.8237 31.7388C65.8237 33.7543 64.3841 36.3263 60.1997 36.3263C56.476 36.3263 54.5757 33.6583 54.5757 31.3933H56.1497C56.1497 33.0249 57.7044 34.7524 60.3533 34.7524C63.2132 34.7524 64.2689 33.1784 64.2689 31.5469C64.2689 27.1706 54.9596 30.6064 54.9596 24.253C54.9596 21.9689 56.8215 20.1646 60.1229 20.1646C63.2132 20.1646 65.1327 22.0648 65.1327 24.7329H63.5587C63.5587 23.0246 62.2727 21.7385 60.1229 21.7385C58.0115 21.7385 56.5336 22.6215 56.5336 24.3106Z" fill="white"/>
<path d="M8.23441 29.8578H7.9631V30.1291H8.23441V29.8578ZM8.23441 28.3414V28.0701H7.9631V28.3414H8.23441ZM14.5494 28.3414H14.8207V28.0701H14.5494V28.3414ZM14.5494 36V36.2713H14.8207V36H14.5494ZM13.2058 36L12.9369 36.0363L12.9686 36.2713H13.2058V36ZM12.9754 34.2917L13.2443 34.2554L13.1697 33.702L12.7807 34.1027L12.9754 34.2917ZM2.64883 22.1992L2.45559 22.0088L2.45441 22.01L2.64883 22.1992ZM14.5494 25.1552V25.4265H14.9199L14.808 25.0732L14.5494 25.1552ZM12.8987 25.1552L12.644 25.2487L12.7093 25.4265H12.8987V25.1552ZM12.9754 29.8578H13.2467V29.5865H12.9754V29.8578ZM8.50572 29.8578V28.3414H7.9631V29.8578H8.50572ZM8.23441 28.6127H14.5494V28.0701H8.23441V28.6127ZM14.2781 28.3414V36H14.8207V28.3414H14.2781ZM14.5494 35.7287H13.2058V36.2713H14.5494V35.7287ZM13.4746 35.9637L13.2443 34.2554L12.7066 34.3279L12.9369 36.0363L13.4746 35.9637ZM12.7807 34.1027C11.572 35.3481 9.86082 36.0358 7.81213 36.0358V36.5784C9.98621 36.5784 11.8452 35.8457 13.1701 34.4807L12.7807 34.1027ZM7.81213 36.0358C5.65335 36.0358 3.9014 35.2702 2.6869 33.9274C1.46983 32.5817 0.770366 30.6315 0.770366 28.2263H0.227744C0.227744 30.7348 0.958266 32.825 2.28446 34.2913C3.61322 35.7605 5.51781 36.5784 7.81213 36.5784V36.0358ZM0.770366 28.2263C0.770366 25.784 1.50247 23.766 2.84325 22.3884L2.45441 22.01C0.99281 23.5116 0.227744 25.678 0.227744 28.2263H0.770366ZM2.84207 22.3896C4.09165 21.1217 5.84326 20.4167 7.81213 20.4167V19.8741C5.71179 19.8741 3.81645 20.6279 2.45559 22.0088L2.84207 22.3896ZM7.81213 20.4167C9.33126 20.4167 10.6844 20.7938 11.7867 21.5759C12.888 22.3573 13.7587 23.557 14.2907 25.2371L14.808 25.0732C14.2459 23.2983 13.3124 21.9931 12.1007 21.1334C10.8901 20.2744 9.4217 19.8741 7.81213 19.8741V20.4167ZM14.5494 24.8838H12.8987V25.4265H14.5494V24.8838ZM13.1533 25.0616C12.203 22.4736 9.93214 21.448 7.81213 21.448V21.9907C9.76134 21.9907 11.79 22.923 12.644 25.2487L13.1533 25.0616ZM7.81213 21.448C6.34493 21.448 4.83808 21.9223 3.69635 23.021C2.55118 24.123 1.80169 25.8258 1.80169 28.2263H2.34431C2.34431 25.9433 3.0536 24.3926 4.0726 23.412C5.09503 22.4281 6.45775 21.9907 7.81213 21.9907V21.448ZM1.80169 28.2263C1.80169 30.7163 2.60613 32.4206 3.77997 33.5005C4.9483 34.5752 6.45343 35.0045 7.81213 35.0045V34.4619C6.56039 34.4619 5.19596 34.0658 4.14733 33.1011C3.10421 32.1415 2.34431 30.5924 2.34431 28.2263H1.80169ZM7.81213 35.0045C8.88771 35.0045 10.2412 34.7837 11.3335 34.0224C12.4421 33.2498 13.2467 31.9441 13.2467 29.8578H12.7041C12.7041 31.7831 11.9732 32.9151 11.0232 33.5773C10.0569 34.2508 8.82874 34.4619 7.81213 34.4619V35.0045ZM12.9754 29.5865H8.23441V30.1291H12.9754V29.5865ZM25.4298 31.5469L25.6852 31.4555L25.6208 31.2756H25.4298V31.5469ZM18.5774 31.5469V31.2756H18.3863L18.3219 31.4555L18.5774 31.5469ZM16.9842 36V36.2713H17.1753L17.2397 36.0914L16.9842 36ZM15.3335 36L15.0794 35.9048L14.9422 36.2713H15.3335V36ZM21.1494 20.4717V20.2004H20.9613L20.8953 20.3766L21.1494 20.4717ZM22.8961 20.4717L23.1502 20.3766L23.0842 20.2004H22.8961V20.4717ZM28.712 36V36.2713H29.1033L28.9661 35.9048L28.712 36ZM27.0229 36L26.7674 36.0914L26.8318 36.2713H27.0229V36ZM22.0132 21.9305L22.2688 21.8396L22.0132 21.1204L21.7575 21.8396L22.0132 21.9305ZM19.134 30.0305L18.8783 29.9397L18.7496 30.3018H19.134V30.0305ZM24.8923 30.0305V30.3018H25.2767L25.148 29.9397L24.8923 30.0305ZM25.4298 31.2756H18.5774V31.8182H25.4298V31.2756ZM18.3219 31.4555L16.7288 35.9086L17.2397 36.0914L18.8328 31.6383L18.3219 31.4555ZM16.9842 35.7287H15.3335V36.2713H16.9842V35.7287ZM15.5876 36.0952L21.4035 20.5669L20.8953 20.3766L15.0794 35.9048L15.5876 36.0952ZM21.1494 20.743H22.8961V20.2004H21.1494V20.743ZM22.642 20.5669L28.4579 36.0952L28.9661 35.9048L23.1502 20.3766L22.642 20.5669ZM28.712 35.7287H27.0229V36.2713H28.712V35.7287ZM27.2784 35.9086L25.6852 31.4555L25.1743 31.6383L26.7674 36.0914L27.2784 35.9086ZM21.7575 21.8396L18.8783 29.9397L19.3896 30.1214L22.2688 22.0214L21.7575 21.8396ZM19.134 30.3018H24.8923V29.7592H19.134V30.3018ZM25.148 29.9397L22.2688 21.8396L21.7575 22.0214L24.6367 30.1214L25.148 29.9397ZM39.5018 20.4525V20.1812H39.2305V20.4525H39.5018ZM41.095 20.4525H41.3663V20.1812H41.095V20.4525ZM28.8681 20.4525V20.1812H28.5968V20.4525H28.8681ZM30.4421 20.4525H30.7134V20.1812H30.4421V20.4525ZM39.7731 30.2609V20.4525H39.2305V30.2609H39.7731ZM39.5018 20.7238H41.095V20.1812H39.5018V20.7238ZM40.8237 20.4525V29.973H41.3663V20.4525H40.8237ZM40.8237 29.973C40.8237 31.0448 40.6388 32.5661 39.822 33.8118C39.018 35.038 37.577 36.0358 34.9719 36.0358V36.5784C37.7414 36.5784 39.3618 35.5033 40.2758 34.1094C41.1768 32.7351 41.3663 31.0893 41.3663 29.973H40.8237ZM34.9719 36.0358C32.3769 36.0358 30.9406 35.0383 30.1389 33.8121C29.3243 32.5662 29.1394 31.0448 29.1394 29.973H28.5968C28.5968 31.0893 28.7862 32.7349 29.6847 34.1091C30.5961 35.5029 32.2117 36.5784 34.9719 36.5784V36.0358ZM29.1394 29.973V20.4525H28.5968V29.973H29.1394ZM28.8681 20.7238H30.4421V20.1812H28.8681V20.7238ZM30.1707 20.4525V30.2609H30.7134V20.4525H30.1707ZM30.1707 30.2609C30.1707 31.6908 30.5636 32.8856 31.383 33.7232C32.2035 34.562 33.4144 35.0045 34.9719 35.0045V34.4619C33.516 34.4619 32.4619 34.0502 31.7709 33.3438C31.0787 32.6363 30.7134 31.5949 30.7134 30.2609H30.1707ZM34.9719 35.0045C36.5395 35.0045 37.7506 34.5569 38.5687 33.7154C39.3854 32.8753 39.7731 31.6807 39.7731 30.2609H39.2305C39.2305 31.5858 38.8697 32.6273 38.1796 33.3372C37.4909 34.0457 36.4371 34.4619 34.9719 34.4619V35.0045ZM42.4105 31.3933V31.122H42.1392V31.3933H42.4105ZM43.9845 31.3933H44.2558V31.122H43.9845V31.3933ZM52.9675 24.7329V25.0042H53.2388V24.7329H52.9675ZM51.3935 24.7329H51.1222V25.0042H51.3935V24.7329ZM44.097 24.3106C44.097 24.9349 44.2555 25.4414 44.5461 25.8518C44.8346 26.2591 45.2395 26.5523 45.7016 26.7762C46.6108 27.2167 47.8191 27.4205 48.9567 27.6638C50.121 27.9128 51.2287 28.2047 52.0477 28.7978C52.8437 29.3742 53.3871 30.2509 53.3871 31.7388H53.9298C53.9298 30.0884 53.3119 29.0433 52.366 28.3583C51.4431 27.69 50.2284 27.3809 49.0701 27.1332C47.8852 26.8798 46.771 26.6913 45.9382 26.2879C45.5294 26.0898 45.2085 25.8482 44.9889 25.5381C44.7716 25.2312 44.6397 24.8379 44.6397 24.3106H44.097ZM53.3871 31.7388C53.3871 32.6851 53.0488 33.7602 52.2225 34.5978C51.3999 35.4315 50.0687 36.055 48.0345 36.055V36.5976C50.1847 36.5976 51.6654 35.935 52.6088 34.9789C53.5483 34.0266 53.9298 32.808 53.9298 31.7388H53.3871ZM48.0345 36.055C44.4632 36.055 42.6818 33.511 42.6818 31.3933H42.1392C42.1392 33.8055 44.1583 36.5976 48.0345 36.5976V36.055ZM42.4105 31.6646H43.9845V31.122H42.4105V31.6646ZM43.7132 31.3933C43.7132 33.2054 45.422 35.0237 48.188 35.0237V34.4811C45.6564 34.4811 44.2558 32.8444 44.2558 31.3933H43.7132ZM48.188 35.0237C49.6673 35.0237 50.7212 34.6158 51.4064 33.957C52.0914 33.2985 52.375 32.4207 52.375 31.5469H51.8324C51.8324 32.3047 51.5881 33.0296 51.0303 33.5659C50.4727 34.1019 49.5688 34.4811 48.188 34.4811V35.0237ZM52.375 31.5469C52.375 30.9481 52.2145 30.464 51.9203 30.0742C51.6292 29.6885 51.2221 29.4146 50.7604 29.207C49.8521 28.7984 48.642 28.6115 47.5041 28.3757C46.3392 28.1343 45.2295 27.8399 44.4094 27.2388C43.6115 26.6539 43.0657 25.7615 43.0657 24.253H42.5231C42.5231 25.9212 43.141 26.9818 44.0886 27.6764C45.014 28.3547 46.2317 28.6661 47.394 28.907C48.5834 29.1535 49.7007 29.3253 50.5378 29.7018C50.9489 29.8867 51.2691 30.1121 51.4871 30.401C51.702 30.6857 51.8324 31.0516 51.8324 31.5469H52.375ZM43.0657 24.253C43.0657 23.1894 43.497 22.2441 44.3124 21.5601C45.1309 20.8736 46.3551 20.4359 47.9577 20.4359V19.8933C46.2589 19.8933 44.9015 20.3578 43.9637 21.1444C43.0228 21.9336 42.5231 23.0325 42.5231 24.253H43.0657ZM47.9577 20.4359C49.4471 20.4359 50.6291 20.893 51.4363 21.6466C52.2422 22.3989 52.6961 23.4665 52.6961 24.7329H53.2388C53.2388 23.3312 52.733 22.1147 51.8066 21.2499C50.8815 20.3863 49.5587 19.8933 47.9577 19.8933V20.4359ZM52.9675 24.4616H51.3935V25.0042H52.9675V24.4616ZM51.6648 24.7329C51.6648 23.8075 51.3148 22.9841 50.664 22.3941C50.0148 21.8055 49.0866 21.4672 47.9577 21.4672V22.0099C48.9786 22.0099 49.7683 22.3146 50.2996 22.7961C50.8292 23.2762 51.1222 23.9499 51.1222 24.7329H51.6648ZM47.9577 21.4672C46.8695 21.4672 45.9122 21.694 45.2184 22.167C44.5128 22.6481 44.097 23.3741 44.097 24.3106H44.6397C44.6397 23.558 44.9629 22.9979 45.5241 22.6153C46.0972 22.2246 46.9345 22.0099 47.9577 22.0099V21.4672ZM54.5757 31.3933V31.122H54.3044V31.3933H54.5757ZM56.1497 31.3933H56.421V31.122H56.1497V31.3933ZM65.1327 24.7329V25.0042H65.404V24.7329H65.1327ZM63.5587 24.7329H63.2874V25.0042H63.5587V24.7329ZM56.2623 24.3106C56.2623 24.9349 56.4207 25.4414 56.7114 25.8518C56.9998 26.2591 57.4047 26.5523 57.8669 26.7762C58.776 27.2167 59.9843 27.4205 61.1219 27.6638C62.2862 27.9128 63.394 28.2047 64.213 28.7978C65.0089 29.3742 65.5524 30.2509 65.5524 31.7388H66.095C66.095 30.0884 65.4772 29.0433 64.5312 28.3583C63.6083 27.69 62.3936 27.3809 61.2354 27.1332C60.0504 26.8798 58.9362 26.6913 58.1035 26.2879C57.6946 26.0898 57.3737 25.8482 57.1542 25.5381C56.9368 25.2312 56.8049 24.8379 56.8049 24.3106H56.2623ZM65.5524 31.7388C65.5524 32.6851 65.214 33.7602 64.3877 34.5978C63.5651 35.4315 62.2339 36.055 60.1997 36.055V36.5976C62.3499 36.5976 63.8306 35.935 64.774 34.9789C65.7135 34.0266 66.095 32.808 66.095 31.7388H65.5524ZM60.1997 36.055C56.6284 36.055 54.8471 33.511 54.8471 31.3933H54.3044C54.3044 33.8055 56.3236 36.5976 60.1997 36.5976V36.055ZM54.5757 31.6646H56.1497V31.122H54.5757V31.6646ZM55.8784 31.3933C55.8784 33.2054 57.5872 35.0237 60.3533 35.0237V34.4811C57.8217 34.4811 56.421 32.8444 56.421 31.3933H55.8784ZM60.3533 35.0237C61.8325 35.0237 62.8864 34.6158 63.5716 33.957C64.2567 33.2985 64.5402 32.4207 64.5402 31.5469H63.9976C63.9976 32.3047 63.7534 33.0296 63.1956 33.5659C62.6379 34.1019 61.734 34.4811 60.3533 34.4811V35.0237ZM64.5402 31.5469C64.5402 30.9481 64.3797 30.464 64.0855 30.0742C63.7944 29.6885 63.3873 29.4146 62.9257 29.207C62.0173 28.7984 60.8072 28.6115 59.6693 28.3757C58.5044 28.1343 57.3947 27.8399 56.5746 27.2388C55.7767 26.6539 55.2309 25.7615 55.2309 24.253H54.6883C54.6883 25.9212 55.3062 26.9818 56.2538 27.6764C57.1792 28.3547 58.3969 28.6661 59.5592 28.907C60.7487 29.1535 61.8659 29.3253 62.7031 29.7018C63.1141 29.8867 63.4343 30.1121 63.6524 30.401C63.8672 30.6857 63.9976 31.0516 63.9976 31.5469H64.5402ZM55.2309 24.253C55.2309 23.1894 55.6622 22.2441 56.4776 21.5601C57.2961 20.8736 58.5203 20.4359 60.1229 20.4359V19.8933C58.4241 19.8933 57.0667 20.3578 56.1289 21.1444C55.188 21.9336 54.6883 23.0325 54.6883 24.253H55.2309ZM60.1229 20.4359C61.6123 20.4359 62.7943 20.893 63.6015 21.6466C64.4074 22.3989 64.8614 23.4665 64.8614 24.7329H65.404C65.404 23.3312 64.8982 22.1147 63.9718 21.2499C63.0467 20.3863 61.7239 19.8933 60.1229 19.8933V20.4359ZM65.1327 24.4616H63.5587V25.0042H65.1327V24.4616ZM63.83 24.7329C63.83 23.8075 63.4801 22.9841 62.8292 22.3941C62.18 21.8055 61.2518 21.4672 60.1229 21.4672V22.0099C61.1438 22.0099 61.9336 22.3146 62.4648 22.7961C62.9944 23.2762 63.2874 23.9499 63.2874 24.7329H63.83ZM60.1229 21.4672C59.0348 21.4672 58.0774 21.694 57.3836 22.167C56.678 22.6481 56.2623 23.3741 56.2623 24.3106H56.8049C56.8049 23.558 57.1282 22.9979 57.6893 22.6153C58.2624 22.2246 59.0997 22.0099 60.1229 22.0099V21.4672Z" fill="white"/>
<path d="M117.115 31.5469H110.263L108.67 36H107.019L112.835 20.4717H114.582L120.398 36H118.709L117.115 31.5469ZM113.699 21.9305L110.82 30.0305H116.578L113.699 21.9305ZM127.849 29.8578V28.3414H134.164V36H132.821L132.591 34.2917C131.324 35.5969 129.539 36.3071 127.427 36.3071C122.974 36.3071 120.114 33.14 120.114 28.2263C120.114 25.731 120.863 23.6388 122.264 22.1992C123.569 20.8748 125.393 20.1454 127.427 20.1454C130.556 20.1454 133.07 21.7002 134.164 25.1552H132.514C131.612 22.6983 129.462 21.7193 127.427 21.7193C124.606 21.7193 121.688 23.5428 121.688 28.2263C121.688 33.0824 124.817 34.7332 127.427 34.7332C129.519 34.7332 132.591 33.8694 132.591 29.8578H127.849ZM137.521 21.9881V26.921H144.987V28.4374L137.521 28.399V34.5028H146.388V36H135.966V20.4717H146.388V21.9881H137.521ZM159.505 36L150.061 22.276V36H148.487V20.4717H150.56L159.985 34.1957V20.4717H161.559V36H159.505ZM175.936 30.3376H177.548C176.761 34.714 173.498 36.3263 170.427 36.3263C165.974 36.3263 163.114 33.14 163.114 28.2263C163.114 25.731 163.863 23.6388 165.264 22.1992C166.569 20.8748 168.393 20.1454 170.427 20.1454C174.074 20.1454 176.646 22.2376 177.452 25.7502H175.84C175.015 22.8134 172.673 21.7193 170.408 21.7193C167.606 21.7193 164.688 23.5812 164.688 28.2263C164.688 33.0441 167.606 34.7524 170.408 34.7524C173.345 34.7524 175.322 33.1784 175.936 30.3376ZM186.955 20.4717H188.778L183.595 29.7234V36.0192H182.022V29.7234L176.839 20.4717H178.643L182.809 27.8808L186.955 20.4717Z" fill="white"/>
<path d="M117.115 31.5469L117.371 31.4555L117.307 31.2756H117.115V31.5469ZM110.263 31.5469V31.2756H110.072L110.008 31.4555L110.263 31.5469ZM108.67 36V36.2713H108.861L108.925 36.0914L108.67 36ZM107.019 36L106.765 35.9048L106.628 36.2713H107.019V36ZM112.835 20.4717V20.2004H112.647L112.581 20.3766L112.835 20.4717ZM114.582 20.4717L114.836 20.3766L114.77 20.2004H114.582V20.4717ZM120.398 36V36.2713H120.789L120.652 35.9048L120.398 36ZM118.709 36L118.453 36.0914L118.518 36.2713H118.709V36ZM113.699 21.9305L113.954 21.8396L113.699 21.1204L113.443 21.8396L113.699 21.9305ZM110.82 30.0305L110.564 29.9397L110.435 30.3018H110.82V30.0305ZM116.578 30.0305V30.3018H116.962L116.834 29.9397L116.578 30.0305ZM117.115 31.2756H110.263V31.8182H117.115V31.2756ZM110.008 31.4555L108.414 35.9086L108.925 36.0914L110.519 31.6383L110.008 31.4555ZM108.67 35.7287H107.019V36.2713H108.67V35.7287ZM107.273 36.0952L113.089 20.5669L112.581 20.3766L106.765 35.9048L107.273 36.0952ZM112.835 20.743H114.582V20.2004H112.835V20.743ZM114.328 20.5669L120.144 36.0952L120.652 35.9048L114.836 20.3766L114.328 20.5669ZM120.398 35.7287H118.709V36.2713H120.398V35.7287ZM118.964 35.9086L117.371 31.4555L116.86 31.6383L118.453 36.0914L118.964 35.9086ZM113.443 21.8396L110.564 29.9397L111.075 30.1214L113.954 22.0214L113.443 21.8396ZM110.82 30.3018H116.578V29.7592H110.82V30.3018ZM116.834 29.9397L113.954 21.8396L113.443 22.0214L116.322 30.1214L116.834 29.9397ZM127.849 29.8578H127.578V30.1291H127.849V29.8578ZM127.849 28.3414V28.0701H127.578V28.3414H127.849ZM134.164 28.3414H134.436V28.0701H134.164V28.3414ZM134.164 36V36.2713H134.436V36H134.164ZM132.821 36L132.552 36.0363L132.584 36.2713H132.821V36ZM132.591 34.2917L132.859 34.2554L132.785 33.702L132.396 34.1027L132.591 34.2917ZM122.264 22.1992L122.071 22.0088L122.069 22.01L122.264 22.1992ZM134.164 25.1552V25.4265H134.535L134.423 25.0732L134.164 25.1552ZM132.514 25.1552L132.259 25.2487L132.324 25.4265H132.514V25.1552ZM132.591 29.8578H132.862V29.5865H132.591V29.8578ZM128.121 29.8578V28.3414H127.578V29.8578H128.121ZM127.849 28.6127H134.164V28.0701H127.849V28.6127ZM133.893 28.3414V36H134.436V28.3414H133.893ZM134.164 35.7287H132.821V36.2713H134.164V35.7287ZM133.09 35.9637L132.859 34.2554L132.322 34.3279L132.552 36.0363L133.09 35.9637ZM132.396 34.1027C131.187 35.3481 129.476 36.0358 127.427 36.0358V36.5784C129.601 36.5784 131.46 35.8457 132.785 34.4807L132.396 34.1027ZM127.427 36.0358C125.268 36.0358 123.516 35.2702 122.302 33.9274C121.085 32.5817 120.385 30.6315 120.385 28.2263H119.843C119.843 30.7348 120.573 32.825 121.9 34.2913C123.228 35.7605 125.133 36.5784 127.427 36.5784V36.0358ZM120.385 28.2263C120.385 25.784 121.118 23.766 122.458 22.3884L122.069 22.01C120.608 23.5116 119.843 25.678 119.843 28.2263H120.385ZM122.457 22.3896C123.707 21.1217 125.458 20.4167 127.427 20.4167V19.8741C125.327 19.8741 123.432 20.6279 122.071 22.0088L122.457 22.3896ZM127.427 20.4167C128.946 20.4167 130.299 20.7938 131.402 21.5759C132.503 22.3573 133.374 23.557 133.906 25.2371L134.423 25.0732C133.861 23.2983 132.927 21.9931 131.716 21.1334C130.505 20.2744 129.037 19.8741 127.427 19.8741V20.4167ZM134.164 24.8838H132.514V25.4265H134.164V24.8838ZM132.768 25.0616C131.818 22.4736 129.547 21.448 127.427 21.448V21.9907C129.376 21.9907 131.405 22.923 132.259 25.2487L132.768 25.0616ZM127.427 21.448C125.96 21.448 124.453 21.9223 123.311 23.021C122.166 24.123 121.417 25.8258 121.417 28.2263H121.959C121.959 25.9433 122.669 24.3926 123.688 23.412C124.71 22.4281 126.073 21.9907 127.427 21.9907V21.448ZM121.417 28.2263C121.417 30.7163 122.221 32.4206 123.395 33.5005C124.563 34.5752 126.069 35.0045 127.427 35.0045V34.4619C126.175 34.4619 124.811 34.0658 123.762 33.1011C122.719 32.1415 121.959 30.5924 121.959 28.2263H121.417ZM127.427 35.0045C128.503 35.0045 129.856 34.7837 130.949 34.0224C132.057 33.2498 132.862 31.9441 132.862 29.8578H132.319C132.319 31.7831 131.588 32.9151 130.638 33.5773C129.672 34.2508 128.444 34.4619 127.427 34.4619V35.0045ZM132.591 29.5865H127.849V30.1291H132.591V29.5865ZM137.521 21.9881V21.7168H137.249V21.9881H137.521ZM137.521 26.921H137.249V27.1923H137.521V26.921ZM144.987 26.921H145.259V26.6497H144.987V26.921ZM144.987 28.4374L144.986 28.7087L145.259 28.7101V28.4374H144.987ZM137.521 28.399L137.522 28.1277L137.249 28.1263V28.399H137.521ZM137.521 34.5028H137.249V34.7741H137.521V34.5028ZM146.388 34.5028H146.66V34.2315H146.388V34.5028ZM146.388 36V36.2713H146.66V36H146.388ZM135.966 36H135.695V36.2713H135.966V36ZM135.966 20.4717V20.2004H135.695V20.4717H135.966ZM146.388 20.4717H146.66V20.2004H146.388V20.4717ZM146.388 21.9881V22.2594H146.66V21.9881H146.388ZM137.249 21.9881V26.921H137.792V21.9881H137.249ZM137.521 27.1923H144.987V26.6497H137.521V27.1923ZM144.716 26.921V28.4374H145.259V26.921H144.716ZM144.989 28.1661L137.522 28.1277L137.519 28.6703L144.986 28.7087L144.989 28.1661ZM137.249 28.399V34.5028H137.792V28.399H137.249ZM137.521 34.7741H146.388V34.2315H137.521V34.7741ZM146.117 34.5028V36H146.66V34.5028H146.117ZM146.388 35.7287H135.966V36.2713H146.388V35.7287ZM136.237 36V20.4717H135.695V36H136.237ZM135.966 20.743H146.388V20.2004H135.966V20.743ZM146.117 20.4717V21.9881H146.66V20.4717H146.117ZM146.388 21.7168H137.521V22.2594H146.388V21.7168ZM159.505 36L159.281 36.1538L159.362 36.2713H159.505V36ZM150.061 22.276L150.285 22.1222L149.79 21.4031V22.276H150.061ZM150.061 36V36.2713H150.333V36H150.061ZM148.487 36H148.216V36.2713H148.487V36ZM148.487 20.4717V20.2004H148.216V20.4717H148.487ZM150.56 20.4717L150.784 20.3181L150.703 20.2004H150.56V20.4717ZM159.985 34.1957L159.761 34.3493L160.256 35.0701V34.1957H159.985ZM159.985 20.4717V20.2004H159.713V20.4717H159.985ZM161.559 20.4717H161.83V20.2004H161.559V20.4717ZM161.559 36V36.2713H161.83V36H161.559ZM159.728 35.8462L150.285 22.1222L149.838 22.4298L159.281 36.1538L159.728 35.8462ZM149.79 22.276V36H150.333V22.276H149.79ZM150.061 35.7287H148.487V36.2713H150.061V35.7287ZM148.759 36V20.4717H148.216V36H148.759ZM148.487 20.743H150.56V20.2004H148.487V20.743ZM150.337 20.6253L159.761 34.3493L160.208 34.0421L150.784 20.3181L150.337 20.6253ZM160.256 34.1957V20.4717H159.713V34.1957H160.256ZM159.985 20.743H161.559V20.2004H159.985V20.743ZM161.287 20.4717V36H161.83V20.4717H161.287ZM161.559 35.7287H159.505V36.2713H161.559V35.7287ZM175.936 30.3376V30.0663H175.717L175.671 30.2803L175.936 30.3376ZM177.548 30.3376L177.815 30.3857L177.873 30.0663H177.548V30.3376ZM165.264 22.1992L165.071 22.0088L165.07 22.01L165.264 22.1992ZM177.452 25.7502V26.0215H177.793L177.717 25.6895L177.452 25.7502ZM175.84 25.7502L175.579 25.8236L175.634 26.0215H175.84V25.7502ZM175.936 30.609H177.548V30.0663H175.936V30.609ZM177.281 30.2896C176.899 32.4145 175.922 33.8483 174.684 34.7542C173.442 35.6636 171.918 36.055 170.427 36.055V36.5976C172.008 36.5976 173.651 36.1829 175.005 35.192C176.363 34.1977 177.411 32.6371 177.815 30.3857L177.281 30.2896ZM170.427 36.055C168.269 36.055 166.517 35.2849 165.302 33.9373C164.085 32.5867 163.385 30.6315 163.385 28.2263H162.843C162.843 30.7348 163.573 32.8296 164.899 34.3006C166.228 35.7745 168.132 36.5976 170.427 36.5976V36.055ZM163.385 28.2263C163.385 25.784 164.118 23.766 165.458 22.3884L165.07 22.01C163.608 23.5116 162.843 25.678 162.843 28.2263H163.385ZM165.457 22.3896C166.707 21.1217 168.458 20.4167 170.427 20.4167V19.8741C168.327 19.8741 166.432 20.6279 165.071 22.0088L165.457 22.3896ZM170.427 20.4167C172.197 20.4167 173.69 20.9237 174.835 21.8422C175.981 22.7609 176.797 24.1054 177.188 25.8109L177.717 25.6895C177.302 23.8823 176.429 22.4245 175.175 21.4189C173.921 20.4132 172.304 19.8741 170.427 19.8741V20.4167ZM177.452 25.4789H175.84V26.0215H177.452V25.4789ZM176.101 25.6768C175.672 24.1483 174.842 23.085 173.813 22.407C172.789 21.7315 171.582 21.448 170.408 21.448V21.9907C171.499 21.9907 172.596 22.2542 173.515 22.86C174.429 23.4632 175.183 24.4153 175.579 25.8236L176.101 25.6768ZM170.408 21.448C168.949 21.448 167.447 21.933 166.308 23.0361C165.167 24.1423 164.417 25.8444 164.417 28.2263H164.959C164.959 25.9631 165.668 24.4117 166.686 23.4258C167.707 22.4366 169.065 21.9907 170.408 21.9907V21.448ZM164.417 28.2263C164.417 30.6918 165.165 32.4009 166.31 33.4924C167.451 34.5804 168.954 35.0237 170.408 35.0237V34.4811C169.059 34.4811 167.702 34.0702 166.684 33.0996C165.67 32.1325 164.959 30.5785 164.959 28.2263H164.417ZM170.408 35.0237C171.926 35.0237 173.217 34.6164 174.212 33.8224C175.208 33.0281 175.883 31.8651 176.201 30.395L175.671 30.2803C175.374 31.651 174.755 32.6953 173.874 33.3982C172.993 34.1014 171.827 34.4811 170.408 34.4811V35.0237ZM186.955 20.4717V20.2004H186.795L186.718 20.3392L186.955 20.4717ZM188.778 20.4717L189.015 20.6043L189.241 20.2004H188.778V20.4717ZM183.595 29.7234L183.359 29.5908L183.324 29.6526V29.7234H183.595ZM183.595 36.0192V36.2905H183.867V36.0192H183.595ZM182.022 36.0192H181.75V36.2905H182.022V36.0192ZM182.022 29.7234H182.293V29.6526L182.258 29.5908L182.022 29.7234ZM176.839 20.4717V20.2004H176.376L176.602 20.6043L176.839 20.4717ZM178.643 20.4717L178.88 20.3388L178.802 20.2004H178.643V20.4717ZM182.809 27.8808L182.572 28.0137L182.809 28.4354L183.045 28.0132L182.809 27.8808ZM186.955 20.743H188.778V20.2004H186.955V20.743ZM188.541 20.3391L183.359 29.5908L183.832 29.856L189.015 20.6043L188.541 20.3391ZM183.324 29.7234V36.0192H183.867V29.7234H183.324ZM183.595 35.7479H182.022V36.2905H183.595V35.7479ZM182.293 36.0192V29.7234H181.75V36.0192H182.293ZM182.258 29.5908L177.076 20.3391L176.602 20.6043L181.785 29.856L182.258 29.5908ZM176.839 20.743H178.643V20.2004H176.839V20.743ZM178.407 20.6047L182.572 28.0137L183.045 27.7478L178.88 20.3388L178.407 20.6047ZM183.045 28.0132L187.191 20.6042L186.718 20.3392L182.572 27.7483L183.045 28.0132Z" fill="white"/>
</svg>
