<svg width="166" height="22" viewBox="0 0 166 22" fill="none" xmlns="http://www.w3.org/2000/svg">
<path d="M3.83726 3.61956V7.08283H5.80054C6.87153 7.08283 7.56289 6.39045 7.56289 5.33993C7.56289 4.31221 6.87153 3.61956 5.80054 3.61956H3.83726ZM11.4671 5.33993C11.4671 8.40112 9.01319 10.4343 5.77805 10.4343H3.83726V15.0148H0V0.268343H5.77805C9.01319 0.268343 11.4671 2.21228 11.4671 5.33993Z" fill="white"/>
<path d="M44.4359 3.28447L41.7586 5.56347C40.8441 4.28994 39.7066 3.53055 38.0333 3.53055C35.5345 3.53055 34.0175 5.20615 34.0175 7.6417C34.0175 10.1437 35.6236 11.8644 38.2562 11.8644C39.6619 11.8644 40.7772 11.3727 41.4913 10.5461V9.85314H38.0552V6.5467H45.3282V11.1942C44.012 13.5405 41.3794 15.2831 38.0999 15.2831C33.5935 15.2831 30.0908 11.9981 30.0908 7.6417C30.0908 3.30671 33.571 -7.62939e-06 38.0999 -7.62939e-06C40.8216 -7.62939e-06 43.008 1.18454 44.4359 3.28447Z" fill="white"/>
<path d="M50.6801 7.6417C50.6801 10.1437 52.3309 11.7526 54.6959 11.7526C56.9711 11.7526 58.7116 10.1437 58.7116 7.6417C58.7116 5.18391 56.9711 3.53055 54.6959 3.53055C52.3309 3.53055 50.6801 5.18391 50.6801 7.6417ZM62.6378 7.6417C62.6378 11.9981 59.0684 15.2831 54.6734 15.2831C50.2786 15.2831 46.7534 11.9981 46.7534 7.6417C46.7534 3.30671 50.2786 -7.62939e-06 54.6734 -7.62939e-06C59.0684 -7.62939e-06 62.6378 3.30671 62.6378 7.6417Z" fill="white"/>
<path d="M68.6588 3.75386V11.5516H69.9306C72.2509 11.5516 74.058 10.1218 74.058 7.59668C74.058 4.98289 72.2509 3.75386 69.9306 3.75386H68.6588ZM77.9844 7.59668C77.9844 12.0432 74.5042 15.0148 69.9528 15.0148H64.8218V0.268343H69.9528C74.5042 0.268343 77.9844 3.0612 77.9844 7.59668Z" fill="white"/>
<path d="M84.0058 15.0148H80.1682V0.268343H84.0058V15.0148Z" fill="white"/>
<path d="M100 0.26832V15.2831H98.7731L90.7865 7.52993V15.0148H86.949V-7.62939e-06H88.1759L96.163 7.6417V0.26832H100Z" fill="white"/>
<path d="M16.7081 7.6417C16.7081 10.1437 18.3588 11.7526 20.7238 11.7526C22.9992 11.7526 24.7396 10.1437 24.7396 7.6417C24.7396 5.18391 22.9992 3.53055 20.7238 3.53055C18.3588 3.53055 16.7081 5.18391 16.7081 7.6417ZM28.6658 7.6417C28.6658 11.9981 25.0963 15.2831 20.7014 15.2831C16.3065 15.2831 12.7815 11.9981 12.7815 7.6417C12.7815 3.30671 16.3065 -7.62939e-06 20.7014 -7.62939e-06C25.0963 -7.62939e-06 28.6658 3.30671 28.6658 7.6417Z" fill="#D87756"/>
<path fill-rule="evenodd" clip-rule="evenodd" d="M17.2111 21.5854C17.9162 20.413 19.1723 19.7096 20.7325 19.7096C22.2337 19.7096 23.5063 20.413 24.2306 21.5854H28.5595C27.5221 18.3188 24.398 16.0489 20.7095 16.0489C17.0209 16.0489 13.9268 18.3188 12.9014 21.5854H17.2111Z" fill="#D87756"/>
<path d="M108.05 3.58H108.94V12.94H108.05V3.58ZM118.184 9.25H114.464L113.694 11H112.664L115.834 4H116.824L120.004 11H118.954L118.184 9.25ZM117.834 8.45L116.324 5.02L114.814 8.45H117.834ZM123.169 11.06C122.629 11.06 122.146 10.9433 121.719 10.71C121.299 10.4767 120.969 10.1567 120.729 9.75C120.489 9.33667 120.369 8.87 120.369 8.35C120.369 7.83 120.489 7.36667 120.729 6.96C120.969 6.54667 121.299 6.22667 121.719 6C122.146 5.76667 122.629 5.65 123.169 5.65C123.649 5.65 124.076 5.74667 124.449 5.94C124.829 6.13333 125.123 6.41333 125.329 6.78L124.599 7.25C124.433 6.99667 124.226 6.80667 123.979 6.68C123.733 6.55333 123.459 6.49 123.159 6.49C122.813 6.49 122.499 6.56667 122.219 6.72C121.946 6.87333 121.729 7.09333 121.569 7.38C121.416 7.66 121.339 7.98333 121.339 8.35C121.339 8.72333 121.416 9.05333 121.569 9.34C121.729 9.62 121.946 9.83667 122.219 9.99C122.499 10.1433 122.813 10.22 123.159 10.22C123.459 10.22 123.733 10.1567 123.979 10.03C124.226 9.90333 124.433 9.71333 124.599 9.46L125.329 9.92C125.123 10.2867 124.829 10.57 124.449 10.77C124.076 10.9633 123.649 11.06 123.169 11.06ZM128.502 5.65C129.235 5.65 129.795 5.83 130.182 6.19C130.575 6.55 130.772 7.08667 130.772 7.8V11H129.862V10.3C129.702 10.5467 129.472 10.7367 129.172 10.87C128.879 10.9967 128.529 11.06 128.122 11.06C127.529 11.06 127.052 10.9167 126.692 10.63C126.339 10.3433 126.162 9.96667 126.162 9.5C126.162 9.03333 126.332 8.66 126.672 8.38C127.012 8.09333 127.552 7.95 128.292 7.95H129.812V7.76C129.812 7.34667 129.692 7.03 129.452 6.81C129.212 6.59 128.859 6.48 128.392 6.48C128.079 6.48 127.772 6.53333 127.472 6.64C127.172 6.74 126.919 6.87667 126.712 7.05L126.312 6.33C126.585 6.11 126.912 5.94333 127.292 5.83C127.672 5.71 128.075 5.65 128.502 5.65ZM128.282 10.32C128.649 10.32 128.965 10.24 129.232 10.08C129.499 9.91333 129.692 9.68 129.812 9.38V8.64H128.332C127.519 8.64 127.112 8.91333 127.112 9.46C127.112 9.72667 127.215 9.93667 127.422 10.09C127.629 10.2433 127.915 10.32 128.282 10.32ZM137.578 3.58V11H136.658V10.16C136.445 10.4533 136.175 10.6767 135.848 10.83C135.521 10.9833 135.161 11.06 134.768 11.06C134.255 11.06 133.795 10.9467 133.388 10.72C132.981 10.4933 132.661 10.1767 132.428 9.77C132.201 9.35667 132.088 8.88333 132.088 8.35C132.088 7.81667 132.201 7.34667 132.428 6.94C132.661 6.53333 132.981 6.21667 133.388 5.99C133.795 5.76333 134.255 5.65 134.768 5.65C135.148 5.65 135.498 5.72333 135.818 5.87C136.138 6.01 136.405 6.22 136.618 6.5V3.58H137.578ZM134.848 10.22C135.181 10.22 135.485 10.1433 135.758 9.99C136.031 9.83 136.245 9.61 136.398 9.33C136.551 9.04333 136.628 8.71667 136.628 8.35C136.628 7.98333 136.551 7.66 136.398 7.38C136.245 7.09333 136.031 6.87333 135.758 6.72C135.485 6.56667 135.181 6.49 134.848 6.49C134.508 6.49 134.201 6.56667 133.928 6.72C133.661 6.87333 133.448 7.09333 133.288 7.38C133.135 7.66 133.058 7.98333 133.058 8.35C133.058 8.71667 133.135 9.04333 133.288 9.33C133.448 9.61 133.661 9.83 133.928 9.99C134.201 10.1433 134.508 10.22 134.848 10.22ZM144.184 8.38C144.184 8.45333 144.178 8.55 144.164 8.67H139.864C139.924 9.13667 140.128 9.51333 140.474 9.8C140.828 10.08 141.264 10.22 141.784 10.22C142.418 10.22 142.928 10.0067 143.314 9.58L143.844 10.2C143.604 10.48 143.304 10.6933 142.944 10.84C142.591 10.9867 142.194 11.06 141.754 11.06C141.194 11.06 140.698 10.9467 140.264 10.72C139.831 10.4867 139.494 10.1633 139.254 9.75C139.021 9.33667 138.904 8.87 138.904 8.35C138.904 7.83667 139.018 7.37333 139.244 6.96C139.478 6.54667 139.794 6.22667 140.194 6C140.601 5.76667 141.058 5.65 141.564 5.65C142.071 5.65 142.521 5.76667 142.914 6C143.314 6.22667 143.624 6.54667 143.844 6.96C144.071 7.37333 144.184 7.84667 144.184 8.38ZM141.564 6.46C141.104 6.46 140.718 6.6 140.404 6.88C140.098 7.16 139.918 7.52667 139.864 7.98H143.264C143.211 7.53333 143.028 7.17 142.714 6.89C142.408 6.60333 142.024 6.46 141.564 6.46ZM152.147 5.65C152.814 5.65 153.341 5.84333 153.727 6.23C154.121 6.61667 154.317 7.19 154.317 7.95V11H153.357V8.06C153.357 7.54667 153.237 7.16 152.997 6.9C152.764 6.64 152.427 6.51 151.987 6.51C151.501 6.51 151.114 6.66333 150.827 6.97C150.541 7.27 150.397 7.70333 150.397 8.27V11H149.437V8.06C149.437 7.54667 149.317 7.16 149.077 6.9C148.844 6.64 148.507 6.51 148.067 6.51C147.581 6.51 147.194 6.66333 146.907 6.97C146.621 7.27 146.477 7.70333 146.477 8.27V11H145.517V5.7H146.437V6.49C146.631 6.21667 146.884 6.01 147.197 5.87C147.511 5.72333 147.867 5.65 148.267 5.65C148.681 5.65 149.047 5.73333 149.367 5.9C149.687 6.06667 149.934 6.31 150.107 6.63C150.307 6.32333 150.584 6.08333 150.937 5.91C151.297 5.73667 151.701 5.65 152.147 5.65ZM160.676 5.7L158.106 11.53C157.88 12.07 157.613 12.45 157.306 12.67C157.006 12.89 156.643 13 156.216 13C155.956 13 155.703 12.9567 155.456 12.87C155.216 12.79 155.016 12.67 154.856 12.51L155.266 11.79C155.54 12.05 155.856 12.18 156.216 12.18C156.45 12.18 156.643 12.1167 156.796 11.99C156.956 11.87 157.1 11.66 157.226 11.36L157.396 10.99L155.056 5.7H156.056L157.906 9.94L159.736 5.7H160.676Z" fill="white"/>
</svg>
