<svg width="189" height="60" viewBox="0 0 189 60" fill="none" xmlns="http://www.w3.org/2000/svg">
<path d="M95.1979 21.2172L93.4423 19.4649C92.8213 18.845 91.8181 18.845 91.1971 19.4649L89.3102 21.3483L84.7123 25.9376C84.6168 26.0329 84.5571 26.1641 84.5451 26.2952L84.0794 29.8713C84.0555 30.062 84.1152 30.2646 84.2466 30.3957C84.3541 30.503 84.5332 30.5865 84.6765 30.5865C84.7004 30.5865 84.7362 30.5865 84.7482 30.5865L88.3309 30.1216C88.4623 30.0977 88.5937 30.0501 88.6892 29.9547L95.174 23.482C95.8189 22.8383 95.8189 21.8489 95.1979 21.2172ZM87.9846 28.8938L85.4169 29.2276L85.7513 26.6647L89.7401 22.6834L91.9614 24.9005L87.9846 28.8938ZM94.3141 22.5761L92.8691 24.0184L90.6358 21.8013L92.0809 20.3589C92.1406 20.2993 92.2361 20.2635 92.3078 20.2635C92.4033 20.2635 92.475 20.2993 92.5347 20.3589L94.2902 22.1112C94.4455 22.2423 94.4455 22.4449 94.3141 22.5761Z" fill="white"/>
<path d="M94.4371 28.6906C94.0654 28.6906 93.7469 29.0092 93.7469 29.3809V32.54C93.7469 33.3364 93.0965 33.9602 92.3266 33.9602H85.1456H81.8273C81.0308 33.9602 80.407 33.3098 80.407 32.54V29.2349V22.0539C80.407 21.2575 81.0574 20.6336 81.8273 20.6336H84.9864C85.358 20.6336 85.6766 20.3151 85.6766 19.9434C85.6766 19.5717 85.358 19.2532 84.9864 19.2532H81.8273C80.2743 19.2532 79 20.5142 79 22.0804V29.2614V32.5665C79 34.1195 80.261 35.3938 81.8273 35.3938H85.1456H92.3266C93.8796 35.3938 95.1539 34.1328 95.1539 32.5665V29.3809C95.1539 29.0092 94.8353 28.6906 94.4371 28.6906Z" stroke="white" stroke-width="0.869907" stroke-miterlimit="10"/>
<path d="M8.23441 28.8578V27.3414H14.5494V35H13.2058L12.9754 33.2917C11.7086 34.5969 9.92352 35.3071 7.81213 35.3071C3.35902 35.3071 0.499055 32.14 0.499055 27.2263C0.499055 24.731 1.24764 22.6388 2.64883 21.1992C3.95405 19.8748 5.77752 19.1454 7.81213 19.1454C10.9408 19.1454 13.4553 20.7002 14.5494 24.1552H12.8987C11.9965 21.6983 9.84674 20.7193 7.81213 20.7193C4.99055 20.7193 2.073 22.5428 2.073 27.2263C2.073 32.0824 5.20169 33.7332 7.81213 33.7332C9.90432 33.7332 12.9754 32.8694 12.9754 28.8578H8.23441ZM25.4298 30.5469H18.5774L16.9842 35H15.3335L21.1494 19.4717H22.8961L28.712 35H27.0229L25.4298 30.5469ZM22.0132 20.9305L19.134 29.0305H24.8923L22.0132 20.9305ZM39.5018 29.2609V19.4525H41.095V28.973C41.095 31.1611 40.3464 35.3071 34.9719 35.3071C29.6167 35.3071 28.8681 31.1611 28.8681 28.973V19.4525H30.4421V29.2609C30.4421 32.0249 31.9584 33.7332 34.9719 33.7332C38.0047 33.7332 39.5018 32.0057 39.5018 29.2609ZM44.3684 23.3106C44.3684 27.9173 53.6585 24.4623 53.6585 30.7388C53.6585 32.7543 52.2189 35.3263 48.0345 35.3263C44.3108 35.3263 42.4105 32.6583 42.4105 30.3933H43.9845C43.9845 32.0249 45.5392 33.7524 48.188 33.7524C51.048 33.7524 52.1037 32.1784 52.1037 30.5469C52.1037 26.1706 42.7944 29.6064 42.7944 23.253C42.7944 20.9689 44.6563 19.1646 47.9577 19.1646C51.048 19.1646 52.9675 21.0648 52.9675 23.7329H51.3935C51.3935 22.0246 50.1075 20.7385 47.9577 20.7385C45.8463 20.7385 44.3684 21.6215 44.3684 23.3106ZM56.5336 23.3106C56.5336 27.9173 65.8237 24.4623 65.8237 30.7388C65.8237 32.7543 64.3841 35.3263 60.1997 35.3263C56.476 35.3263 54.5757 32.6583 54.5757 30.3933H56.1497C56.1497 32.0249 57.7044 33.7524 60.3533 33.7524C63.2132 33.7524 64.2689 32.1784 64.2689 30.5469C64.2689 26.1706 54.9596 29.6064 54.9596 23.253C54.9596 20.9689 56.8215 19.1646 60.1229 19.1646C63.2132 19.1646 65.1327 21.0648 65.1327 23.7329H63.5587C63.5587 22.0246 62.2727 20.7385 60.1229 20.7385C58.0115 20.7385 56.5336 21.6215 56.5336 23.3106Z" fill="white"/>
<path d="M8.23441 28.8578H7.9631V29.1291H8.23441V28.8578ZM8.23441 27.3414V27.0701H7.9631V27.3414H8.23441ZM14.5494 27.3414H14.8207V27.0701H14.5494V27.3414ZM14.5494 35V35.2713H14.8207V35H14.5494ZM13.2058 35L12.9369 35.0363L12.9686 35.2713H13.2058V35ZM12.9754 33.2917L13.2443 33.2554L13.1697 32.702L12.7807 33.1027L12.9754 33.2917ZM2.64883 21.1992L2.45559 21.0088L2.45441 21.01L2.64883 21.1992ZM14.5494 24.1552V24.4265H14.9199L14.808 24.0732L14.5494 24.1552ZM12.8987 24.1552L12.644 24.2487L12.7093 24.4265H12.8987V24.1552ZM12.9754 28.8578H13.2467V28.5865H12.9754V28.8578ZM8.50572 28.8578V27.3414H7.9631V28.8578H8.50572ZM8.23441 27.6127H14.5494V27.0701H8.23441V27.6127ZM14.2781 27.3414V35H14.8207V27.3414H14.2781ZM14.5494 34.7287H13.2058V35.2713H14.5494V34.7287ZM13.4746 34.9637L13.2443 33.2554L12.7066 33.3279L12.9369 35.0363L13.4746 34.9637ZM12.7807 33.1027C11.572 34.3481 9.86082 35.0358 7.81213 35.0358V35.5784C9.98621 35.5784 11.8452 34.8457 13.1701 33.4807L12.7807 33.1027ZM7.81213 35.0358C5.65335 35.0358 3.9014 34.2702 2.6869 32.9274C1.46983 31.5817 0.770366 29.6315 0.770366 27.2263H0.227744C0.227744 29.7348 0.958266 31.825 2.28446 33.2913C3.61322 34.7605 5.51781 35.5784 7.81213 35.5784V35.0358ZM0.770366 27.2263C0.770366 24.784 1.50247 22.766 2.84325 21.3884L2.45441 21.01C0.99281 22.5116 0.227744 24.678 0.227744 27.2263H0.770366ZM2.84207 21.3896C4.09165 20.1217 5.84326 19.4167 7.81213 19.4167V18.8741C5.71179 18.8741 3.81645 19.6279 2.45559 21.0088L2.84207 21.3896ZM7.81213 19.4167C9.33126 19.4167 10.6844 19.7938 11.7867 20.5759C12.888 21.3573 13.7587 22.557 14.2907 24.2371L14.808 24.0732C14.2459 22.2983 13.3124 20.9931 12.1007 20.1334C10.8901 19.2744 9.4217 18.8741 7.81213 18.8741V19.4167ZM14.5494 23.8838H12.8987V24.4265H14.5494V23.8838ZM13.1533 24.0616C12.203 21.4736 9.93214 20.448 7.81213 20.448V20.9907C9.76134 20.9907 11.79 21.923 12.644 24.2487L13.1533 24.0616ZM7.81213 20.448C6.34493 20.448 4.83808 20.9223 3.69635 22.021C2.55118 23.123 1.80169 24.8258 1.80169 27.2263H2.34431C2.34431 24.9433 3.0536 23.3926 4.0726 22.412C5.09503 21.4281 6.45775 20.9907 7.81213 20.9907V20.448ZM1.80169 27.2263C1.80169 29.7163 2.60613 31.4206 3.77997 32.5005C4.9483 33.5752 6.45343 34.0045 7.81213 34.0045V33.4619C6.56039 33.4619 5.19596 33.0658 4.14733 32.1011C3.10421 31.1415 2.34431 29.5924 2.34431 27.2263H1.80169ZM7.81213 34.0045C8.88771 34.0045 10.2412 33.7837 11.3335 33.0224C12.4421 32.2498 13.2467 30.9441 13.2467 28.8578H12.7041C12.7041 30.7831 11.9732 31.9151 11.0232 32.5773C10.0569 33.2508 8.82874 33.4619 7.81213 33.4619V34.0045ZM12.9754 28.5865H8.23441V29.1291H12.9754V28.5865ZM25.4298 30.5469L25.6852 30.4555L25.6208 30.2756H25.4298V30.5469ZM18.5774 30.5469V30.2756H18.3863L18.3219 30.4555L18.5774 30.5469ZM16.9842 35V35.2713H17.1753L17.2397 35.0914L16.9842 35ZM15.3335 35L15.0794 34.9048L14.9422 35.2713H15.3335V35ZM21.1494 19.4717V19.2004H20.9613L20.8953 19.3766L21.1494 19.4717ZM22.8961 19.4717L23.1502 19.3766L23.0842 19.2004H22.8961V19.4717ZM28.712 35V35.2713H29.1033L28.9661 34.9048L28.712 35ZM27.0229 35L26.7674 35.0914L26.8318 35.2713H27.0229V35ZM22.0132 20.9305L22.2688 20.8396L22.0132 20.1204L21.7575 20.8396L22.0132 20.9305ZM19.134 29.0305L18.8783 28.9397L18.7496 29.3018H19.134V29.0305ZM24.8923 29.0305V29.3018H25.2767L25.148 28.9397L24.8923 29.0305ZM25.4298 30.2756H18.5774V30.8182H25.4298V30.2756ZM18.3219 30.4555L16.7288 34.9086L17.2397 35.0914L18.8328 30.6383L18.3219 30.4555ZM16.9842 34.7287H15.3335V35.2713H16.9842V34.7287ZM15.5876 35.0952L21.4035 19.5669L20.8953 19.3766L15.0794 34.9048L15.5876 35.0952ZM21.1494 19.743H22.8961V19.2004H21.1494V19.743ZM22.642 19.5669L28.4579 35.0952L28.9661 34.9048L23.1502 19.3766L22.642 19.5669ZM28.712 34.7287H27.0229V35.2713H28.712V34.7287ZM27.2784 34.9086L25.6852 30.4555L25.1743 30.6383L26.7674 35.0914L27.2784 34.9086ZM21.7575 20.8396L18.8783 28.9397L19.3896 29.1214L22.2688 21.0214L21.7575 20.8396ZM19.134 29.3018H24.8923V28.7592H19.134V29.3018ZM25.148 28.9397L22.2688 20.8396L21.7575 21.0214L24.6367 29.1214L25.148 28.9397ZM39.5018 19.4525V19.1812H39.2305V19.4525H39.5018ZM41.095 19.4525H41.3663V19.1812H41.095V19.4525ZM28.8681 19.4525V19.1812H28.5968V19.4525H28.8681ZM30.4421 19.4525H30.7134V19.1812H30.4421V19.4525ZM39.7731 29.2609V19.4525H39.2305V29.2609H39.7731ZM39.5018 19.7238H41.095V19.1812H39.5018V19.7238ZM40.8237 19.4525V28.973H41.3663V19.4525H40.8237ZM40.8237 28.973C40.8237 30.0448 40.6388 31.5661 39.822 32.8118C39.018 34.038 37.577 35.0358 34.9719 35.0358V35.5784C37.7414 35.5784 39.3618 34.5033 40.2758 33.1094C41.1768 31.7351 41.3663 30.0893 41.3663 28.973H40.8237ZM34.9719 35.0358C32.3769 35.0358 30.9406 34.0383 30.1389 32.8121C29.3243 31.5662 29.1394 30.0448 29.1394 28.973H28.5968C28.5968 30.0893 28.7862 31.7349 29.6847 33.1091C30.5961 34.5029 32.2117 35.5784 34.9719 35.5784V35.0358ZM29.1394 28.973V19.4525H28.5968V28.973H29.1394ZM28.8681 19.7238H30.4421V19.1812H28.8681V19.7238ZM30.1707 19.4525V29.2609H30.7134V19.4525H30.1707ZM30.1707 29.2609C30.1707 30.6908 30.5636 31.8856 31.383 32.7232C32.2035 33.562 33.4144 34.0045 34.9719 34.0045V33.4619C33.516 33.4619 32.4619 33.0502 31.7709 32.3438C31.0787 31.6363 30.7134 30.5949 30.7134 29.2609H30.1707ZM34.9719 34.0045C36.5395 34.0045 37.7506 33.5569 38.5687 32.7154C39.3854 31.8753 39.7731 30.6807 39.7731 29.2609H39.2305C39.2305 30.5858 38.8697 31.6273 38.1796 32.3372C37.4909 33.0457 36.4371 33.4619 34.9719 33.4619V34.0045ZM42.4105 30.3933V30.122H42.1392V30.3933H42.4105ZM43.9845 30.3933H44.2558V30.122H43.9845V30.3933ZM52.9675 23.7329V24.0042H53.2388V23.7329H52.9675ZM51.3935 23.7329H51.1222V24.0042H51.3935V23.7329ZM44.097 23.3106C44.097 23.9349 44.2555 24.4414 44.5461 24.8518C44.8346 25.2591 45.2395 25.5523 45.7016 25.7762C46.6108 26.2167 47.8191 26.4205 48.9567 26.6638C50.121 26.9128 51.2287 27.2047 52.0477 27.7978C52.8437 28.3742 53.3871 29.2509 53.3871 30.7388H53.9298C53.9298 29.0884 53.3119 28.0433 52.366 27.3583C51.4431 26.69 50.2284 26.3809 49.0701 26.1332C47.8852 25.8798 46.771 25.6913 45.9382 25.2879C45.5294 25.0898 45.2085 24.8482 44.9889 24.5381C44.7716 24.2312 44.6397 23.8379 44.6397 23.3106H44.097ZM53.3871 30.7388C53.3871 31.6851 53.0488 32.7602 52.2225 33.5978C51.3999 34.4315 50.0687 35.055 48.0345 35.055V35.5976C50.1847 35.5976 51.6654 34.935 52.6088 33.9789C53.5483 33.0266 53.9298 31.808 53.9298 30.7388H53.3871ZM48.0345 35.055C44.4632 35.055 42.6818 32.511 42.6818 30.3933H42.1392C42.1392 32.8055 44.1583 35.5976 48.0345 35.5976V35.055ZM42.4105 30.6646H43.9845V30.122H42.4105V30.6646ZM43.7132 30.3933C43.7132 32.2054 45.422 34.0237 48.188 34.0237V33.4811C45.6564 33.4811 44.2558 31.8444 44.2558 30.3933H43.7132ZM48.188 34.0237C49.6673 34.0237 50.7212 33.6158 51.4064 32.957C52.0914 32.2985 52.375 31.4207 52.375 30.5469H51.8324C51.8324 31.3047 51.5881 32.0296 51.0303 32.5659C50.4727 33.1019 49.5688 33.4811 48.188 33.4811V34.0237ZM52.375 30.5469C52.375 29.9481 52.2145 29.464 51.9203 29.0742C51.6292 28.6885 51.2221 28.4146 50.7604 28.207C49.8521 27.7984 48.642 27.6115 47.5041 27.3757C46.3392 27.1343 45.2295 26.8399 44.4094 26.2388C43.6115 25.6539 43.0657 24.7615 43.0657 23.253H42.5231C42.5231 24.9212 43.141 25.9818 44.0886 26.6764C45.014 27.3547 46.2317 27.6661 47.394 27.907C48.5834 28.1535 49.7007 28.3253 50.5378 28.7018C50.9489 28.8867 51.2691 29.1121 51.4871 29.401C51.702 29.6857 51.8324 30.0516 51.8324 30.5469H52.375ZM43.0657 23.253C43.0657 22.1894 43.497 21.2441 44.3124 20.5601C45.1309 19.8736 46.3551 19.4359 47.9577 19.4359V18.8933C46.2589 18.8933 44.9015 19.3578 43.9637 20.1444C43.0228 20.9336 42.5231 22.0325 42.5231 23.253H43.0657ZM47.9577 19.4359C49.4471 19.4359 50.6291 19.893 51.4363 20.6466C52.2422 21.3989 52.6961 22.4665 52.6961 23.7329H53.2388C53.2388 22.3312 52.733 21.1147 51.8066 20.2499C50.8815 19.3863 49.5587 18.8933 47.9577 18.8933V19.4359ZM52.9675 23.4616H51.3935V24.0042H52.9675V23.4616ZM51.6648 23.7329C51.6648 22.8075 51.3148 21.9841 50.664 21.3941C50.0148 20.8055 49.0866 20.4672 47.9577 20.4672V21.0099C48.9786 21.0099 49.7683 21.3146 50.2996 21.7961C50.8292 22.2762 51.1222 22.9499 51.1222 23.7329H51.6648ZM47.9577 20.4672C46.8695 20.4672 45.9122 20.694 45.2184 21.167C44.5128 21.6481 44.097 22.3741 44.097 23.3106H44.6397C44.6397 22.558 44.9629 21.9979 45.5241 21.6153C46.0972 21.2246 46.9345 21.0099 47.9577 21.0099V20.4672ZM54.5757 30.3933V30.122H54.3044V30.3933H54.5757ZM56.1497 30.3933H56.421V30.122H56.1497V30.3933ZM65.1327 23.7329V24.0042H65.404V23.7329H65.1327ZM63.5587 23.7329H63.2874V24.0042H63.5587V23.7329ZM56.2623 23.3106C56.2623 23.9349 56.4207 24.4414 56.7114 24.8518C56.9998 25.2591 57.4047 25.5523 57.8669 25.7762C58.776 26.2167 59.9843 26.4205 61.1219 26.6638C62.2862 26.9128 63.394 27.2047 64.213 27.7978C65.0089 28.3742 65.5524 29.2509 65.5524 30.7388H66.095C66.095 29.0884 65.4772 28.0433 64.5312 27.3583C63.6083 26.69 62.3936 26.3809 61.2354 26.1332C60.0504 25.8798 58.9362 25.6913 58.1035 25.2879C57.6946 25.0898 57.3737 24.8482 57.1542 24.5381C56.9368 24.2312 56.8049 23.8379 56.8049 23.3106H56.2623ZM65.5524 30.7388C65.5524 31.6851 65.214 32.7602 64.3877 33.5978C63.5651 34.4315 62.2339 35.055 60.1997 35.055V35.5976C62.3499 35.5976 63.8306 34.935 64.774 33.9789C65.7135 33.0266 66.095 31.808 66.095 30.7388H65.5524ZM60.1997 35.055C56.6284 35.055 54.8471 32.511 54.8471 30.3933H54.3044C54.3044 32.8055 56.3236 35.5976 60.1997 35.5976V35.055ZM54.5757 30.6646H56.1497V30.122H54.5757V30.6646ZM55.8784 30.3933C55.8784 32.2054 57.5872 34.0237 60.3533 34.0237V33.4811C57.8217 33.4811 56.421 31.8444 56.421 30.3933H55.8784ZM60.3533 34.0237C61.8325 34.0237 62.8864 33.6158 63.5716 32.957C64.2567 32.2985 64.5402 31.4207 64.5402 30.5469H63.9976C63.9976 31.3047 63.7534 32.0296 63.1956 32.5659C62.6379 33.1019 61.734 33.4811 60.3533 33.4811V34.0237ZM64.5402 30.5469C64.5402 29.9481 64.3797 29.464 64.0855 29.0742C63.7944 28.6885 63.3873 28.4146 62.9257 28.207C62.0173 27.7984 60.8072 27.6115 59.6693 27.3757C58.5044 27.1343 57.3947 26.8399 56.5746 26.2388C55.7767 25.6539 55.2309 24.7615 55.2309 23.253H54.6883C54.6883 24.9212 55.3062 25.9818 56.2538 26.6764C57.1792 27.3547 58.3969 27.6661 59.5592 27.907C60.7487 28.1535 61.8659 28.3253 62.7031 28.7018C63.1141 28.8867 63.4343 29.1121 63.6524 29.401C63.8672 29.6857 63.9976 30.0516 63.9976 30.5469H64.5402ZM55.2309 23.253C55.2309 22.1894 55.6622 21.2441 56.4776 20.5601C57.2961 19.8736 58.5203 19.4359 60.1229 19.4359V18.8933C58.4241 18.8933 57.0667 19.3578 56.1289 20.1444C55.188 20.9336 54.6883 22.0325 54.6883 23.253H55.2309ZM60.1229 19.4359C61.6123 19.4359 62.7943 19.893 63.6015 20.6466C64.4074 21.3989 64.8614 22.4665 64.8614 23.7329H65.404C65.404 22.3312 64.8982 21.1147 63.9718 20.2499C63.0467 19.3863 61.7239 18.8933 60.1229 18.8933V19.4359ZM65.1327 23.4616H63.5587V24.0042H65.1327V23.4616ZM63.83 23.7329C63.83 22.8075 63.4801 21.9841 62.8292 21.3941C62.18 20.8055 61.2518 20.4672 60.1229 20.4672V21.0099C61.1438 21.0099 61.9336 21.3146 62.4648 21.7961C62.9944 22.2762 63.2874 22.9499 63.2874 23.7329H63.83ZM60.1229 20.4672C59.0348 20.4672 58.0774 20.694 57.3836 21.167C56.678 21.6481 56.2623 22.3741 56.2623 23.3106H56.8049C56.8049 22.558 57.1282 21.9979 57.6893 21.6153C58.2624 21.2246 59.0997 21.0099 60.1229 21.0099V20.4672Z" fill="white"/>
<path d="M117.115 30.5469H110.263L108.67 35H107.019L112.835 19.4717H114.582L120.398 35H118.709L117.115 30.5469ZM113.699 20.9305L110.82 29.0305H116.578L113.699 20.9305ZM127.849 28.8578V27.3414H134.164V35H132.821L132.591 33.2917C131.324 34.5969 129.539 35.3071 127.427 35.3071C122.974 35.3071 120.114 32.14 120.114 27.2263C120.114 24.731 120.863 22.6388 122.264 21.1992C123.569 19.8748 125.393 19.1454 127.427 19.1454C130.556 19.1454 133.07 20.7002 134.164 24.1552H132.514C131.612 21.6983 129.462 20.7193 127.427 20.7193C124.606 20.7193 121.688 22.5428 121.688 27.2263C121.688 32.0824 124.817 33.7332 127.427 33.7332C129.519 33.7332 132.591 32.8694 132.591 28.8578H127.849ZM137.521 20.9881V25.921H144.987V27.4374L137.521 27.399V33.5028H146.388V35H135.966V19.4717H146.388V20.9881H137.521ZM159.505 35L150.061 21.276V35H148.487V19.4717H150.56L159.985 33.1957V19.4717H161.559V35H159.505ZM175.936 29.3376H177.548C176.761 33.714 173.498 35.3263 170.427 35.3263C165.974 35.3263 163.114 32.14 163.114 27.2263C163.114 24.731 163.863 22.6388 165.264 21.1992C166.569 19.8748 168.393 19.1454 170.427 19.1454C174.074 19.1454 176.646 21.2376 177.452 24.7502H175.84C175.015 21.8134 172.673 20.7193 170.408 20.7193C167.606 20.7193 164.688 22.5812 164.688 27.2263C164.688 32.0441 167.606 33.7524 170.408 33.7524C173.345 33.7524 175.322 32.1784 175.936 29.3376ZM186.955 19.4717H188.778L183.595 28.7234V35.0192H182.022V28.7234L176.839 19.4717H178.643L182.809 26.8808L186.955 19.4717Z" fill="white"/>
<path d="M117.115 30.5469L117.371 30.4555L117.307 30.2756H117.115V30.5469ZM110.263 30.5469V30.2756H110.072L110.008 30.4555L110.263 30.5469ZM108.67 35V35.2713H108.861L108.925 35.0914L108.67 35ZM107.019 35L106.765 34.9048L106.628 35.2713H107.019V35ZM112.835 19.4717V19.2004H112.647L112.581 19.3766L112.835 19.4717ZM114.582 19.4717L114.836 19.3766L114.77 19.2004H114.582V19.4717ZM120.398 35V35.2713H120.789L120.652 34.9048L120.398 35ZM118.709 35L118.453 35.0914L118.518 35.2713H118.709V35ZM113.699 20.9305L113.954 20.8396L113.699 20.1204L113.443 20.8396L113.699 20.9305ZM110.82 29.0305L110.564 28.9397L110.435 29.3018H110.82V29.0305ZM116.578 29.0305V29.3018H116.962L116.834 28.9397L116.578 29.0305ZM117.115 30.2756H110.263V30.8182H117.115V30.2756ZM110.008 30.4555L108.414 34.9086L108.925 35.0914L110.519 30.6383L110.008 30.4555ZM108.67 34.7287H107.019V35.2713H108.67V34.7287ZM107.273 35.0952L113.089 19.5669L112.581 19.3766L106.765 34.9048L107.273 35.0952ZM112.835 19.743H114.582V19.2004H112.835V19.743ZM114.328 19.5669L120.144 35.0952L120.652 34.9048L114.836 19.3766L114.328 19.5669ZM120.398 34.7287H118.709V35.2713H120.398V34.7287ZM118.964 34.9086L117.371 30.4555L116.86 30.6383L118.453 35.0914L118.964 34.9086ZM113.443 20.8396L110.564 28.9397L111.075 29.1214L113.954 21.0214L113.443 20.8396ZM110.82 29.3018H116.578V28.7592H110.82V29.3018ZM116.834 28.9397L113.954 20.8396L113.443 21.0214L116.322 29.1214L116.834 28.9397ZM127.849 28.8578H127.578V29.1291H127.849V28.8578ZM127.849 27.3414V27.0701H127.578V27.3414H127.849ZM134.164 27.3414H134.436V27.0701H134.164V27.3414ZM134.164 35V35.2713H134.436V35H134.164ZM132.821 35L132.552 35.0363L132.584 35.2713H132.821V35ZM132.591 33.2917L132.859 33.2554L132.785 32.702L132.396 33.1027L132.591 33.2917ZM122.264 21.1992L122.071 21.0088L122.069 21.01L122.264 21.1992ZM134.164 24.1552V24.4265H134.535L134.423 24.0732L134.164 24.1552ZM132.514 24.1552L132.259 24.2487L132.324 24.4265H132.514V24.1552ZM132.591 28.8578H132.862V28.5865H132.591V28.8578ZM128.121 28.8578V27.3414H127.578V28.8578H128.121ZM127.849 27.6127H134.164V27.0701H127.849V27.6127ZM133.893 27.3414V35H134.436V27.3414H133.893ZM134.164 34.7287H132.821V35.2713H134.164V34.7287ZM133.09 34.9637L132.859 33.2554L132.322 33.3279L132.552 35.0363L133.09 34.9637ZM132.396 33.1027C131.187 34.3481 129.476 35.0358 127.427 35.0358V35.5784C129.601 35.5784 131.46 34.8457 132.785 33.4807L132.396 33.1027ZM127.427 35.0358C125.268 35.0358 123.516 34.2702 122.302 32.9274C121.085 31.5817 120.385 29.6315 120.385 27.2263H119.843C119.843 29.7348 120.573 31.825 121.9 33.2913C123.228 34.7605 125.133 35.5784 127.427 35.5784V35.0358ZM120.385 27.2263C120.385 24.784 121.118 22.766 122.458 21.3884L122.069 21.01C120.608 22.5116 119.843 24.678 119.843 27.2263H120.385ZM122.457 21.3896C123.707 20.1217 125.458 19.4167 127.427 19.4167V18.8741C125.327 18.8741 123.432 19.6279 122.071 21.0088L122.457 21.3896ZM127.427 19.4167C128.946 19.4167 130.299 19.7938 131.402 20.5759C132.503 21.3573 133.374 22.557 133.906 24.2371L134.423 24.0732C133.861 22.2983 132.927 20.9931 131.716 20.1334C130.505 19.2744 129.037 18.8741 127.427 18.8741V19.4167ZM134.164 23.8838H132.514V24.4265H134.164V23.8838ZM132.768 24.0616C131.818 21.4736 129.547 20.448 127.427 20.448V20.9907C129.376 20.9907 131.405 21.923 132.259 24.2487L132.768 24.0616ZM127.427 20.448C125.96 20.448 124.453 20.9223 123.311 22.021C122.166 23.123 121.417 24.8258 121.417 27.2263H121.959C121.959 24.9433 122.669 23.3926 123.688 22.412C124.71 21.4281 126.073 20.9907 127.427 20.9907V20.448ZM121.417 27.2263C121.417 29.7163 122.221 31.4206 123.395 32.5005C124.563 33.5752 126.069 34.0045 127.427 34.0045V33.4619C126.175 33.4619 124.811 33.0658 123.762 32.1011C122.719 31.1415 121.959 29.5924 121.959 27.2263H121.417ZM127.427 34.0045C128.503 34.0045 129.856 33.7837 130.949 33.0224C132.057 32.2498 132.862 30.9441 132.862 28.8578H132.319C132.319 30.7831 131.588 31.9151 130.638 32.5773C129.672 33.2508 128.444 33.4619 127.427 33.4619V34.0045ZM132.591 28.5865H127.849V29.1291H132.591V28.5865ZM137.521 20.9881V20.7168H137.249V20.9881H137.521ZM137.521 25.921H137.249V26.1923H137.521V25.921ZM144.987 25.921H145.259V25.6497H144.987V25.921ZM144.987 27.4374L144.986 27.7087L145.259 27.7101V27.4374H144.987ZM137.521 27.399L137.522 27.1277L137.249 27.1263V27.399H137.521ZM137.521 33.5028H137.249V33.7741H137.521V33.5028ZM146.388 33.5028H146.66V33.2315H146.388V33.5028ZM146.388 35V35.2713H146.66V35H146.388ZM135.966 35H135.695V35.2713H135.966V35ZM135.966 19.4717V19.2004H135.695V19.4717H135.966ZM146.388 19.4717H146.66V19.2004H146.388V19.4717ZM146.388 20.9881V21.2594H146.66V20.9881H146.388ZM137.249 20.9881V25.921H137.792V20.9881H137.249ZM137.521 26.1923H144.987V25.6497H137.521V26.1923ZM144.716 25.921V27.4374H145.259V25.921H144.716ZM144.989 27.1661L137.522 27.1277L137.519 27.6703L144.986 27.7087L144.989 27.1661ZM137.249 27.399V33.5028H137.792V27.399H137.249ZM137.521 33.7741H146.388V33.2315H137.521V33.7741ZM146.117 33.5028V35H146.66V33.5028H146.117ZM146.388 34.7287H135.966V35.2713H146.388V34.7287ZM136.237 35V19.4717H135.695V35H136.237ZM135.966 19.743H146.388V19.2004H135.966V19.743ZM146.117 19.4717V20.9881H146.66V19.4717H146.117ZM146.388 20.7168H137.521V21.2594H146.388V20.7168ZM159.505 35L159.281 35.1538L159.362 35.2713H159.505V35ZM150.061 21.276L150.285 21.1222L149.79 20.4031V21.276H150.061ZM150.061 35V35.2713H150.333V35H150.061ZM148.487 35H148.216V35.2713H148.487V35ZM148.487 19.4717V19.2004H148.216V19.4717H148.487ZM150.56 19.4717L150.784 19.3181L150.703 19.2004H150.56V19.4717ZM159.985 33.1957L159.761 33.3493L160.256 34.0701V33.1957H159.985ZM159.985 19.4717V19.2004H159.713V19.4717H159.985ZM161.559 19.4717H161.83V19.2004H161.559V19.4717ZM161.559 35V35.2713H161.83V35H161.559ZM159.728 34.8462L150.285 21.1222L149.838 21.4298L159.281 35.1538L159.728 34.8462ZM149.79 21.276V35H150.333V21.276H149.79ZM150.061 34.7287H148.487V35.2713H150.061V34.7287ZM148.759 35V19.4717H148.216V35H148.759ZM148.487 19.743H150.56V19.2004H148.487V19.743ZM150.337 19.6253L159.761 33.3493L160.208 33.0421L150.784 19.3181L150.337 19.6253ZM160.256 33.1957V19.4717H159.713V33.1957H160.256ZM159.985 19.743H161.559V19.2004H159.985V19.743ZM161.287 19.4717V35H161.83V19.4717H161.287ZM161.559 34.7287H159.505V35.2713H161.559V34.7287ZM175.936 29.3376V29.0663H175.717L175.671 29.2803L175.936 29.3376ZM177.548 29.3376L177.815 29.3857L177.873 29.0663H177.548V29.3376ZM165.264 21.1992L165.071 21.0088L165.07 21.01L165.264 21.1992ZM177.452 24.7502V25.0215H177.793L177.717 24.6895L177.452 24.7502ZM175.84 24.7502L175.579 24.8236L175.634 25.0215H175.84V24.7502ZM175.936 29.609H177.548V29.0663H175.936V29.609ZM177.281 29.2896C176.899 31.4145 175.922 32.8483 174.684 33.7542C173.442 34.6636 171.918 35.055 170.427 35.055V35.5976C172.008 35.5976 173.651 35.1829 175.005 34.192C176.363 33.1977 177.411 31.6371 177.815 29.3857L177.281 29.2896ZM170.427 35.055C168.269 35.055 166.517 34.2849 165.302 32.9373C164.085 31.5867 163.385 29.6315 163.385 27.2263H162.843C162.843 29.7348 163.573 31.8296 164.899 33.3006C166.228 34.7745 168.132 35.5976 170.427 35.5976V35.055ZM163.385 27.2263C163.385 24.784 164.118 22.766 165.458 21.3884L165.07 21.01C163.608 22.5116 162.843 24.678 162.843 27.2263H163.385ZM165.457 21.3896C166.707 20.1217 168.458 19.4167 170.427 19.4167V18.8741C168.327 18.8741 166.432 19.6279 165.071 21.0088L165.457 21.3896ZM170.427 19.4167C172.197 19.4167 173.69 19.9237 174.835 20.8422C175.981 21.7609 176.797 23.1054 177.188 24.8109L177.717 24.6895C177.302 22.8823 176.429 21.4245 175.175 20.4189C173.921 19.4132 172.304 18.8741 170.427 18.8741V19.4167ZM177.452 24.4789H175.84V25.0215H177.452V24.4789ZM176.101 24.6768C175.672 23.1483 174.842 22.085 173.813 21.407C172.789 20.7315 171.582 20.448 170.408 20.448V20.9907C171.499 20.9907 172.596 21.2542 173.515 21.86C174.429 22.4632 175.183 23.4153 175.579 24.8236L176.101 24.6768ZM170.408 20.448C168.949 20.448 167.447 20.933 166.308 22.0361C165.167 23.1423 164.417 24.8444 164.417 27.2263H164.959C164.959 24.9631 165.668 23.4117 166.686 22.4258C167.707 21.4366 169.065 20.9907 170.408 20.9907V20.448ZM164.417 27.2263C164.417 29.6918 165.165 31.4009 166.31 32.4924C167.451 33.5804 168.954 34.0237 170.408 34.0237V33.4811C169.059 33.4811 167.702 33.0702 166.684 32.0996C165.67 31.1325 164.959 29.5785 164.959 27.2263H164.417ZM170.408 34.0237C171.926 34.0237 173.217 33.6164 174.212 32.8224C175.208 32.0281 175.883 30.8651 176.201 29.395L175.671 29.2803C175.374 30.651 174.755 31.6953 173.874 32.3982C172.993 33.1014 171.827 33.4811 170.408 33.4811V34.0237ZM186.955 19.4717V19.2004H186.795L186.718 19.3392L186.955 19.4717ZM188.778 19.4717L189.015 19.6043L189.241 19.2004H188.778V19.4717ZM183.595 28.7234L183.359 28.5908L183.324 28.6526V28.7234H183.595ZM183.595 35.0192V35.2905H183.867V35.0192H183.595ZM182.022 35.0192H181.75V35.2905H182.022V35.0192ZM182.022 28.7234H182.293V28.6526L182.258 28.5908L182.022 28.7234ZM176.839 19.4717V19.2004H176.376L176.602 19.6043L176.839 19.4717ZM178.643 19.4717L178.88 19.3388L178.802 19.2004H178.643V19.4717ZM182.809 26.8808L182.572 27.0137L182.809 27.4354L183.045 27.0132L182.809 26.8808ZM186.955 19.743H188.778V19.2004H186.955V19.743ZM188.541 19.3391L183.359 28.5908L183.832 28.856L189.015 19.6043L188.541 19.3391ZM183.324 28.7234V35.0192H183.867V28.7234H183.324ZM183.595 34.7479H182.022V35.2905H183.595V34.7479ZM182.293 35.0192V28.7234H181.75V35.0192H182.293ZM182.258 28.5908L177.076 19.3391L176.602 19.6043L181.785 28.856L182.258 28.5908ZM176.839 19.743H178.643V19.2004H176.839V19.743ZM178.407 19.6047L182.572 27.0137L183.045 26.7478L178.88 19.3388L178.407 19.6047ZM183.045 27.0132L187.191 19.6042L186.718 19.3392L182.572 26.7483L183.045 27.0132Z" fill="white"/>
</svg>
